G04*
G04 #@! TF.GenerationSoftware,Altium Limited,Altium Designer,20.0.7 (75)*
G04*
G04 Layer_Color=8388736*
%FSLAX44Y44*%
%MOMM*%
G71*
G01*
G75*
%ADD13C,0.2540*%
%ADD88C,1.0160*%
%ADD89C,0.7000*%
%ADD90C,0.1524*%
D13*
X21000Y-20000D02*
X36240Y-14920D01*
X21000Y-20000D02*
X36240Y-25080D01*
X-15240D02*
X0Y-20000D01*
X-15240Y-14920D02*
X0Y-20000D01*
X21000D02*
X46400D01*
X-25400D02*
X0D01*
Y-22540D02*
Y-2540D01*
X21000Y-22540D02*
Y4460D01*
X25400Y-51000D02*
X40640Y-45920D01*
X25400Y-51000D02*
X40640Y-56080D01*
X-15240D02*
X0Y-51000D01*
X-15240Y-45920D02*
X0Y-51000D01*
X25400D02*
X50800D01*
X-25400D02*
X0D01*
Y-53540D02*
Y-2540D01*
X25400Y-53540D02*
Y374040D01*
X0Y-100000D02*
X15240Y-94920D01*
X0Y-100000D02*
X15240Y-105080D01*
X124460D02*
X139700Y-100000D01*
X124460Y-94920D02*
X139700Y-100000D01*
X0D02*
X41409D01*
X90163D02*
X139700D01*
X0Y-102540D02*
Y-2540D01*
X139700Y-102540D02*
Y-15140D01*
X0Y-127000D02*
X15240Y-121920D01*
X0Y-127000D02*
X15240Y-132080D01*
X137160D02*
X152400Y-127000D01*
X137160Y-121920D02*
X152400Y-127000D01*
X0D02*
X47759D01*
X96513D02*
X152400D01*
X0Y-129540D02*
Y-2540D01*
X152400Y-129540D02*
Y488460D01*
X0Y-157000D02*
X15240Y-151920D01*
X0Y-157000D02*
X15240Y-162080D01*
X264160D02*
X279400Y-157000D01*
X264160Y-151920D02*
X279400Y-157000D01*
X0D02*
X106180D01*
X165092D02*
X279400D01*
X0Y-159540D02*
Y-2540D01*
X279400Y-159540D02*
Y11860D01*
X0Y-199000D02*
X15240Y-193920D01*
X0Y-199000D02*
X15240Y-204080D01*
X401320D02*
X416560Y-199000D01*
X401320Y-193920D02*
X416560Y-199000D01*
X0D02*
X173491D01*
X234941D02*
X416560D01*
X0Y-201540D02*
Y-2540D01*
X416560Y-201540D02*
Y494460D01*
X0Y-250000D02*
X15240Y-244920D01*
X0Y-250000D02*
X15240Y-255080D01*
X619760D02*
X635000Y-250000D01*
X619760Y-244920D02*
X635000Y-250000D01*
X0D02*
X281441D01*
X345431D02*
X635000D01*
X0Y-252540D02*
Y-2540D01*
X635000Y-252540D02*
Y494460D01*
X0Y-297000D02*
X15240Y-291920D01*
X0Y-297000D02*
X15240Y-302080D01*
X645160D02*
X660400Y-297000D01*
X645160Y-291920D02*
X660400Y-297000D01*
X0D02*
X294141D01*
X358131D02*
X660400D01*
X0Y-299540D02*
Y-2540D01*
X660400Y-299540D02*
Y315060D01*
X-107080Y40640D02*
X-102000Y25400D01*
X-96920Y40640D01*
X-102000Y0D02*
X-96920Y-15240D01*
X-107080D02*
X-102000Y0D01*
Y25400D02*
Y50800D01*
Y-25400D02*
Y0D01*
X-104540D02*
X-2540D01*
X-104540Y25400D02*
X99160D01*
X-160080Y91440D02*
X-155000Y76200D01*
X-149920Y91440D01*
X-155000Y0D02*
X-149920Y-15240D01*
X-160080D02*
X-155000Y0D01*
Y76200D02*
Y101600D01*
Y-25400D02*
Y0D01*
X-157540D02*
X-2540D01*
X-157540Y76200D02*
X619860D01*
X-223080Y15240D02*
X-218000Y0D01*
X-212920Y15240D01*
X-218000Y234000D02*
X-212920Y218760D01*
X-223080D02*
X-218000Y234000D01*
Y0D02*
Y91098D01*
Y134774D02*
Y234000D01*
X-220540Y0D02*
X-2540D01*
X-220540Y234000D02*
X8955D01*
X-276080Y15240D02*
X-271000Y0D01*
X-265920Y15240D01*
X-271000Y355600D02*
X-265920Y340360D01*
X-276080D02*
X-271000Y355600D01*
Y0D02*
Y143011D01*
Y204461D02*
Y355600D01*
X-273540Y0D02*
X-2540D01*
X-273540Y355600D02*
X619860D01*
X-324080Y15240D02*
X-319000Y0D01*
X-313920Y15240D01*
X-319000Y386080D02*
X-313920Y370840D01*
X-324080D02*
X-319000Y386080D01*
Y0D02*
Y158251D01*
Y219701D02*
Y386080D01*
X-321540Y0D02*
X-2540D01*
X-321540Y386080D02*
X13360D01*
X-364080Y15240D02*
X-359000Y0D01*
X-353920Y15240D01*
X-359000Y472440D02*
X-353920Y457200D01*
X-364080D02*
X-359000Y472440D01*
Y0D02*
Y201431D01*
Y262881D02*
Y472440D01*
X-361540Y0D02*
X-2540D01*
X-361540Y472440D02*
X13360D01*
X-395080Y15240D02*
X-390000Y0D01*
X-384920Y15240D01*
X-390000Y508000D02*
X-384920Y492760D01*
X-395080D02*
X-390000Y508000D01*
Y0D02*
Y217941D01*
Y281931D02*
Y508000D01*
X-392540Y0D02*
X-7620D01*
X-392540Y508000D02*
X160780D01*
X0Y-337500D02*
X15240Y-332420D01*
X0Y-337500D02*
X15240Y-342580D01*
X670560D02*
X685800Y-337500D01*
X670560Y-332420D02*
X685800Y-337500D01*
X0D02*
X306841D01*
X370831D02*
X685800D01*
X0Y-340040D02*
Y-7620D01*
X685800Y-340040D02*
Y-7620D01*
X-425080Y15240D02*
X-420000Y0D01*
X-414920Y15240D01*
X-420000Y533000D02*
X-414920Y517760D01*
X-425080D02*
X-420000Y533000D01*
Y0D02*
Y230441D01*
Y294431D02*
Y533000D01*
X-422540Y0D02*
X-7620D01*
X-422540Y533000D02*
X-7620D01*
D88*
X676400Y356600D02*
G03*
X676400Y356600I-16000J0D01*
G01*
Y76200D02*
G03*
X676400Y76200I-16000J0D01*
G01*
X155700Y25400D02*
G03*
X155700Y25400I-16000J0D01*
G01*
X168400Y508000D02*
G03*
X168400Y508000I-16000J0D01*
G01*
X0Y0D02*
X685800D01*
Y533000D01*
X0D02*
X685800D01*
X0Y0D02*
Y533000D01*
D89*
X-409424Y-242093D02*
X-415256Y-236261D01*
X-426919D01*
X-432750Y-242093D01*
Y-247924D01*
X-426919Y-253756D01*
X-415256D01*
X-409424Y-259587D01*
Y-265418D01*
X-415256Y-271250D01*
X-426919D01*
X-432750Y-265418D01*
X-374436Y-247924D02*
X-391930D01*
X-397761Y-253756D01*
Y-265418D01*
X-391930Y-271250D01*
X-374436D01*
X-356941Y-247924D02*
X-345278D01*
X-339447Y-253756D01*
Y-271250D01*
X-356941D01*
X-362773Y-265418D01*
X-356941Y-259587D01*
X-339447D01*
X-327784Y-271250D02*
X-316121D01*
X-321952D01*
Y-236261D01*
X-327784D01*
X-281132Y-271250D02*
X-292795D01*
X-298627Y-265418D01*
Y-253756D01*
X-292795Y-247924D01*
X-281132D01*
X-275301Y-253756D01*
Y-259587D01*
X-298627D01*
X-263638D02*
X-240312D01*
X-263638Y-247924D02*
X-240312D01*
X-193661Y-271250D02*
X-181998D01*
X-187829D01*
Y-236261D01*
X-193661Y-242093D01*
X-164503Y-247924D02*
X-158672D01*
Y-253756D01*
X-164503D01*
Y-247924D01*
Y-265418D02*
X-158672D01*
Y-271250D01*
X-164503D01*
Y-265418D01*
X-135346Y-271250D02*
X-123683D01*
X-129515D01*
Y-236261D01*
X-135346Y-242093D01*
X-425000Y-177011D02*
Y-206168D01*
X-419169Y-212000D01*
X-407506D01*
X-401674Y-206168D01*
Y-177011D01*
X-390011Y-212000D02*
Y-188674D01*
X-372517D01*
X-366685Y-194506D01*
Y-212000D01*
X-355023D02*
X-343360D01*
X-349191D01*
Y-188674D01*
X-355023D01*
X-320034Y-182843D02*
Y-188674D01*
X-325865D01*
X-314202D01*
X-320034D01*
Y-206168D01*
X-314202Y-212000D01*
X-296708Y-188674D02*
X-290877D01*
Y-194506D01*
X-296708D01*
Y-188674D01*
Y-206168D02*
X-290877D01*
Y-212000D01*
X-296708D01*
Y-206168D01*
X-232562Y-212000D02*
Y-188674D01*
X-226731D01*
X-220899Y-194506D01*
Y-212000D01*
Y-194506D01*
X-215068Y-188674D01*
X-209236Y-194506D01*
Y-212000D01*
X-197574D02*
X-185911D01*
X-191742D01*
Y-188674D01*
X-197574D01*
X-168416Y-212000D02*
X-156753D01*
X-162585D01*
Y-177011D01*
X-168416D01*
X537000Y698989D02*
Y675663D01*
X548663Y664000D01*
X560326Y675663D01*
Y698989D01*
X571989Y664000D02*
X583652D01*
X577820D01*
Y698989D01*
X571989Y693157D01*
X612809Y664000D02*
X601146D01*
Y698989D01*
X612809D01*
X630303Y664000D02*
X641966D01*
X636135D01*
Y698989D01*
X630303Y693157D01*
X160081Y661750D02*
X171744D01*
X177576Y667581D01*
Y679244D01*
X171744Y685076D01*
X160081D01*
X154250Y679244D01*
Y667581D01*
X160081Y661750D01*
X195070D02*
Y690907D01*
Y679244D01*
X189239D01*
X200902D01*
X195070D01*
Y690907D01*
X200902Y696739D01*
X276710Y661750D02*
X253385D01*
X276710Y685076D01*
Y690907D01*
X270879Y696739D01*
X259216D01*
X253385Y690907D01*
X288373D02*
X294205Y696739D01*
X305868D01*
X311699Y690907D01*
Y685076D01*
X305868Y679244D01*
X311699Y673413D01*
Y667581D01*
X305868Y661750D01*
X294205D01*
X288373Y667581D01*
Y673413D01*
X294205Y679244D01*
X288373Y685076D01*
Y690907D01*
X294205Y679244D02*
X305868D01*
X358351Y661750D02*
Y696739D01*
X375845D01*
X381676Y690907D01*
Y679244D01*
X375845Y673413D01*
X358351D01*
X393339Y661750D02*
X405002D01*
X399171D01*
Y685076D01*
X393339D01*
X422497Y661750D02*
Y685076D01*
X439991D01*
X445822Y679244D01*
Y661750D01*
X457485D02*
X474980D01*
X480811Y667581D01*
X474980Y673413D01*
X463317D01*
X457485Y679244D01*
X463317Y685076D01*
X480811D01*
X114000Y743663D02*
Y778652D01*
X125663Y766989D01*
X137326Y778652D01*
Y743663D01*
X166483D02*
X154820D01*
X148989Y749494D01*
Y761157D01*
X154820Y766989D01*
X166483D01*
X172314Y761157D01*
Y755326D01*
X148989D01*
X207303Y766989D02*
X189809D01*
X183977Y761157D01*
Y749494D01*
X189809Y743663D01*
X207303D01*
X218966Y778652D02*
Y743663D01*
Y761157D01*
X224797Y766989D01*
X236460D01*
X242292Y761157D01*
Y743663D01*
X259786Y766989D02*
X271449D01*
X277281Y761157D01*
Y743663D01*
X259786D01*
X253955Y749494D01*
X259786Y755326D01*
X277281D01*
X288944Y743663D02*
Y766989D01*
X306438D01*
X312269Y761157D01*
Y743663D01*
X323932D02*
X335595D01*
X329764D01*
Y766989D01*
X323932D01*
X376415D02*
X358921D01*
X353089Y761157D01*
Y749494D01*
X358921Y743663D01*
X376415D01*
X393910Y766989D02*
X405573D01*
X411404Y761157D01*
Y743663D01*
X393910D01*
X388078Y749494D01*
X393910Y755326D01*
X411404D01*
X423067Y743663D02*
X434730D01*
X428898D01*
Y778652D01*
X423067D01*
X487213D02*
Y743663D01*
X504707D01*
X510539Y749494D01*
Y772820D01*
X504707Y778652D01*
X487213D01*
X522201Y766989D02*
Y743663D01*
Y755326D01*
X528033Y761157D01*
X533864Y766989D01*
X539696D01*
X563022D02*
X574685D01*
X580516Y761157D01*
Y743663D01*
X563022D01*
X557190Y749494D01*
X563022Y755326D01*
X580516D01*
X592179Y766989D02*
Y749494D01*
X598010Y743663D01*
X603842Y749494D01*
X609673Y743663D01*
X615505Y749494D01*
Y766989D01*
X627168Y743663D02*
X638830D01*
X632999D01*
Y766989D01*
X627168D01*
X656325Y743663D02*
Y766989D01*
X673819D01*
X679651Y761157D01*
Y743663D01*
X702976Y732000D02*
X708808D01*
X714639Y737831D01*
Y766989D01*
X697145D01*
X691314Y761157D01*
Y749494D01*
X697145Y743663D01*
X714639D01*
D90*
X-56380Y-16446D02*
X-53841Y-13907D01*
X-48762D01*
X-46223Y-16446D01*
Y-18985D01*
X-48762Y-21524D01*
X-46223Y-24063D01*
Y-26602D01*
X-48762Y-29141D01*
X-53841D01*
X-56380Y-26602D01*
Y-24063D01*
X-53841Y-21524D01*
X-56380Y-18985D01*
Y-16446D01*
X-53841Y-21524D02*
X-48762D01*
X-41145Y-16446D02*
X-38605Y-13907D01*
X-33527D01*
X-30988Y-16446D01*
Y-18985D01*
X-33527Y-21524D01*
X-36066D01*
X-33527D01*
X-30988Y-24063D01*
Y-26602D01*
X-33527Y-29141D01*
X-38605D01*
X-41145Y-26602D01*
X-66476Y-59476D02*
X-61398D01*
X-63937D01*
Y-44241D01*
X-66476Y-46780D01*
X-53780D02*
X-51241Y-44241D01*
X-46163D01*
X-43623Y-46780D01*
Y-56937D01*
X-46163Y-59476D01*
X-51241D01*
X-53780Y-56937D01*
Y-46780D01*
X-38545D02*
X-36006Y-44241D01*
X-30928D01*
X-28388Y-46780D01*
Y-56937D01*
X-30928Y-59476D01*
X-36006D01*
X-38545Y-56937D01*
Y-46780D01*
X55629Y-93906D02*
X45473D01*
Y-101524D01*
X50551Y-98985D01*
X53090D01*
X55629Y-101524D01*
Y-106602D01*
X53090Y-109142D01*
X48012D01*
X45473Y-106602D01*
X70864Y-93906D02*
X60708D01*
Y-101524D01*
X65786Y-98985D01*
X68325D01*
X70864Y-101524D01*
Y-106602D01*
X68325Y-109142D01*
X63247D01*
X60708Y-106602D01*
X75943Y-96446D02*
X78482Y-93906D01*
X83560D01*
X86099Y-96446D01*
Y-106602D01*
X83560Y-109142D01*
X78482D01*
X75943Y-106602D01*
Y-96446D01*
X61979Y-120906D02*
X56901Y-123446D01*
X51823Y-128524D01*
Y-133602D01*
X54362Y-136142D01*
X59440D01*
X61979Y-133602D01*
Y-131063D01*
X59440Y-128524D01*
X51823D01*
X67058Y-123446D02*
X69597Y-120906D01*
X74675D01*
X77214Y-123446D01*
Y-133602D01*
X74675Y-136142D01*
X69597D01*
X67058Y-133602D01*
Y-123446D01*
X82293D02*
X84832Y-120906D01*
X89910D01*
X92449Y-123446D01*
Y-133602D01*
X89910Y-136142D01*
X84832D01*
X82293Y-133602D01*
Y-123446D01*
X110244Y-166141D02*
X115323D01*
X112783D01*
Y-150906D01*
X110244Y-153446D01*
X122940Y-166141D02*
X128018D01*
X125479D01*
Y-150906D01*
X122940Y-153446D01*
X135636D02*
X138175Y-150906D01*
X143253D01*
X145793Y-153446D01*
Y-163602D01*
X143253Y-166141D01*
X138175D01*
X135636Y-163602D01*
Y-153446D01*
X150871D02*
X153410Y-150906D01*
X158489D01*
X161028Y-153446D01*
Y-163602D01*
X158489Y-166141D01*
X153410D01*
X150871Y-163602D01*
Y-153446D01*
X177555Y-208141D02*
X182633D01*
X180094D01*
Y-192906D01*
X177555Y-195446D01*
X200407Y-192906D02*
X195329Y-195446D01*
X190250Y-200524D01*
Y-205602D01*
X192790Y-208141D01*
X197868D01*
X200407Y-205602D01*
Y-203063D01*
X197868Y-200524D01*
X190250D01*
X213103Y-208141D02*
Y-192906D01*
X205486Y-200524D01*
X215642D01*
X220721Y-195446D02*
X223260Y-192906D01*
X228338D01*
X230877Y-195446D01*
Y-205602D01*
X228338Y-208141D01*
X223260D01*
X220721Y-205602D01*
Y-195446D01*
X295662Y-259142D02*
X285505D01*
X295662Y-248985D01*
Y-246446D01*
X293123Y-243906D01*
X288044D01*
X285505Y-246446D01*
X310897Y-243906D02*
X300740D01*
Y-251524D01*
X305818Y-248985D01*
X308358D01*
X310897Y-251524D01*
Y-256602D01*
X308358Y-259142D01*
X303279D01*
X300740Y-256602D01*
X315975Y-246446D02*
X318514Y-243906D01*
X323593D01*
X326132Y-246446D01*
Y-256602D01*
X323593Y-259142D01*
X318514D01*
X315975Y-256602D01*
Y-246446D01*
X331210D02*
X333749Y-243906D01*
X338828D01*
X341367Y-246446D01*
Y-256602D01*
X338828Y-259142D01*
X333749D01*
X331210Y-256602D01*
Y-246446D01*
X308362Y-306141D02*
X298205D01*
X308362Y-295985D01*
Y-293446D01*
X305823Y-290907D01*
X300744D01*
X298205Y-293446D01*
X323597Y-290907D02*
X318518Y-293446D01*
X313440Y-298524D01*
Y-303602D01*
X315979Y-306141D01*
X321058D01*
X323597Y-303602D01*
Y-301063D01*
X321058Y-298524D01*
X313440D01*
X328675Y-293446D02*
X331214Y-290907D01*
X336293D01*
X338832Y-293446D01*
Y-303602D01*
X336293Y-306141D01*
X331214D01*
X328675Y-303602D01*
Y-293446D01*
X343910D02*
X346449Y-290907D01*
X351528D01*
X354067Y-293446D01*
Y-303602D01*
X351528Y-306141D01*
X346449D01*
X343910Y-303602D01*
Y-293446D01*
X-92858Y-69076D02*
Y-63997D01*
Y-66536D01*
X-108094D01*
X-105554Y-69076D01*
Y-56380D02*
X-108094Y-53841D01*
Y-48762D01*
X-105554Y-46223D01*
X-95398D01*
X-92858Y-48762D01*
Y-53841D01*
X-95398Y-56380D01*
X-105554D01*
Y-41145D02*
X-108094Y-38605D01*
Y-33527D01*
X-105554Y-30988D01*
X-95398D01*
X-92858Y-33527D01*
Y-38605D01*
X-95398Y-41145D01*
X-105554D01*
X-156015Y-117320D02*
X-158554Y-114781D01*
Y-109703D01*
X-156015Y-107163D01*
X-153476D01*
X-150937Y-109703D01*
Y-112242D01*
Y-109703D01*
X-148398Y-107163D01*
X-145858D01*
X-143319Y-109703D01*
Y-114781D01*
X-145858Y-117320D01*
X-156015Y-102085D02*
X-158554Y-99546D01*
Y-94467D01*
X-156015Y-91928D01*
X-145858D01*
X-143319Y-94467D01*
Y-99546D01*
X-145858Y-102085D01*
X-156015D01*
Y-86850D02*
X-158554Y-84311D01*
Y-79232D01*
X-156015Y-76693D01*
X-145858D01*
X-143319Y-79232D01*
Y-84311D01*
X-145858Y-86850D01*
X-156015D01*
X-140780Y-69076D02*
X-143319Y-66536D01*
X-145858D01*
Y-69076D01*
X-143319D01*
Y-66536D01*
X-140780Y-69076D01*
X-138241Y-71615D01*
X-156015Y-56380D02*
X-158554Y-53841D01*
Y-48762D01*
X-156015Y-46223D01*
X-145858D01*
X-143319Y-48762D01*
Y-53841D01*
X-145858Y-56380D01*
X-156015D01*
Y-41145D02*
X-158554Y-38605D01*
Y-33527D01*
X-156015Y-30988D01*
X-145858D01*
X-143319Y-33527D01*
Y-38605D01*
X-145858Y-41145D01*
X-156015D01*
X-211398Y95162D02*
X-208859Y97701D01*
Y102779D01*
X-211398Y105318D01*
X-221554D01*
X-224093Y102779D01*
Y97701D01*
X-221554Y95162D01*
X-219015D01*
X-216476Y97701D01*
Y105318D01*
X-208859Y120554D02*
Y110397D01*
X-219015Y120554D01*
X-221554D01*
X-224093Y118014D01*
Y112936D01*
X-221554Y110397D01*
X-208859Y125632D02*
Y130710D01*
Y128171D01*
X-224093D01*
X-221554Y125632D01*
X-261859Y147075D02*
Y152153D01*
Y149614D01*
X-277094D01*
X-274554Y147075D01*
X-261859Y167388D02*
X-277094D01*
X-269476Y159770D01*
Y169927D01*
X-274554Y175006D02*
X-277094Y177545D01*
Y182623D01*
X-274554Y185162D01*
X-264398D01*
X-261859Y182623D01*
Y177545D01*
X-264398Y175006D01*
X-274554D01*
Y190241D02*
X-277094Y192780D01*
Y197858D01*
X-274554Y200397D01*
X-264398D01*
X-261859Y197858D01*
Y192780D01*
X-264398Y190241D01*
X-274554D01*
X-309858Y162315D02*
Y167393D01*
Y164854D01*
X-325093D01*
X-322554Y162315D01*
X-325093Y185167D02*
Y175011D01*
X-317476D01*
X-320015Y180089D01*
Y182628D01*
X-317476Y185167D01*
X-312398D01*
X-309858Y182628D01*
Y177550D01*
X-312398Y175011D01*
X-309858Y200402D02*
Y190246D01*
X-320015Y200402D01*
X-322554D01*
X-325093Y197863D01*
Y192785D01*
X-322554Y190246D01*
Y205481D02*
X-325093Y208020D01*
Y213098D01*
X-322554Y215637D01*
X-312398D01*
X-309858Y213098D01*
Y208020D01*
X-312398Y205481D01*
X-322554D01*
X-349859Y205495D02*
Y210573D01*
Y208034D01*
X-365093D01*
X-362554Y205495D01*
Y218190D02*
X-365093Y220730D01*
Y225808D01*
X-362554Y228347D01*
X-360015D01*
X-357476Y225808D01*
X-354937Y228347D01*
X-352398D01*
X-349859Y225808D01*
Y220730D01*
X-352398Y218190D01*
X-354937D01*
X-357476Y220730D01*
X-360015Y218190D01*
X-362554D01*
X-357476Y220730D02*
Y225808D01*
X-365093Y243582D02*
X-362554Y238504D01*
X-357476Y233426D01*
X-352398D01*
X-349859Y235965D01*
Y241043D01*
X-352398Y243582D01*
X-354937D01*
X-357476Y241043D01*
Y233426D01*
X-362554Y248661D02*
X-365093Y251200D01*
Y256278D01*
X-362554Y258817D01*
X-352398D01*
X-349859Y256278D01*
Y251200D01*
X-352398Y248661D01*
X-362554D01*
X-380858Y232162D02*
Y222005D01*
X-391015Y232162D01*
X-393554D01*
X-396093Y229623D01*
Y224544D01*
X-393554Y222005D01*
Y237240D02*
X-396093Y239779D01*
Y244858D01*
X-393554Y247397D01*
X-383398D01*
X-380858Y244858D01*
Y239779D01*
X-383398Y237240D01*
X-393554D01*
Y252475D02*
X-396093Y255014D01*
Y260093D01*
X-393554Y262632D01*
X-383398D01*
X-380858Y260093D01*
Y255014D01*
X-383398Y252475D01*
X-393554D01*
Y267710D02*
X-396093Y270249D01*
Y275328D01*
X-393554Y277867D01*
X-383398D01*
X-380858Y275328D01*
Y270249D01*
X-383398Y267710D01*
X-393554D01*
X321062Y-346642D02*
X310905D01*
X321062Y-336485D01*
Y-333946D01*
X318523Y-331407D01*
X313444D01*
X310905Y-333946D01*
X326140Y-331407D02*
X336297D01*
Y-333946D01*
X326140Y-344102D01*
Y-346642D01*
X341375Y-333946D02*
X343914Y-331407D01*
X348993D01*
X351532Y-333946D01*
Y-344102D01*
X348993Y-346642D01*
X343914D01*
X341375Y-344102D01*
Y-333946D01*
X356610D02*
X359149Y-331407D01*
X364228D01*
X366767Y-333946D01*
Y-344102D01*
X364228Y-346642D01*
X359149D01*
X356610Y-344102D01*
Y-333946D01*
X-410858Y244662D02*
Y234505D01*
X-421015Y244662D01*
X-423554D01*
X-426093Y242123D01*
Y237044D01*
X-423554Y234505D01*
Y249740D02*
X-426093Y252279D01*
Y257358D01*
X-423554Y259897D01*
X-413398D01*
X-410858Y257358D01*
Y252279D01*
X-413398Y249740D01*
X-423554D01*
X-413398Y264975D02*
X-410858Y267514D01*
Y272593D01*
X-413398Y275132D01*
X-423554D01*
X-426093Y272593D01*
Y267514D01*
X-423554Y264975D01*
X-421015D01*
X-418476Y267514D01*
Y275132D01*
X-423554Y280210D02*
X-426093Y282749D01*
Y287828D01*
X-423554Y290367D01*
X-421015D01*
X-418476Y287828D01*
X-415937Y290367D01*
X-413398D01*
X-410858Y287828D01*
Y282749D01*
X-413398Y280210D01*
X-415937D01*
X-418476Y282749D01*
X-421015Y280210D01*
X-423554D01*
X-418476Y282749D02*
Y287828D01*
M02*
