G04*
G04 #@! TF.GenerationSoftware,Altium Limited,Altium Designer,20.0.7 (75)*
G04*
G04 Layer_Color=65535*
%FSLAX44Y44*%
%MOMM*%
G71*
G01*
G75*
%ADD10C,0.2000*%
%ADD11C,0.5000*%
%ADD12C,0.4000*%
%ADD13C,0.2540*%
%ADD14C,0.0508*%
%ADD15C,0.1000*%
%ADD16C,0.1500*%
G36*
X40365Y156629D02*
X40467Y156620D01*
X40587Y156611D01*
X40717Y156601D01*
X40855Y156574D01*
X41151Y156518D01*
X41456Y156426D01*
X41614Y156370D01*
X41761Y156306D01*
X41900Y156231D01*
X42030Y156139D01*
X42039Y156130D01*
X42057Y156121D01*
X42094Y156084D01*
X42141Y156047D01*
X42196Y156000D01*
X42252Y155936D01*
X42316Y155862D01*
X42390Y155779D01*
X42464Y155686D01*
X42538Y155584D01*
X42612Y155473D01*
X42677Y155344D01*
X42751Y155215D01*
X42806Y155076D01*
X42862Y154919D01*
X42899Y154761D01*
X41614Y154521D01*
Y154530D01*
X41604Y154540D01*
X41586Y154595D01*
X41549Y154678D01*
X41493Y154789D01*
X41429Y154909D01*
X41336Y155030D01*
X41225Y155150D01*
X41096Y155261D01*
X41077Y155270D01*
X41031Y155307D01*
X40948Y155353D01*
X40846Y155399D01*
X40708Y155455D01*
X40550Y155492D01*
X40375Y155529D01*
X40171Y155538D01*
X40088D01*
X40033Y155529D01*
X39959Y155520D01*
X39875Y155510D01*
X39783Y155492D01*
X39681Y155473D01*
X39469Y155409D01*
X39358Y155363D01*
X39247Y155307D01*
X39136Y155242D01*
X39025Y155177D01*
X38923Y155085D01*
X38821Y154993D01*
X38812Y154983D01*
X38803Y154965D01*
X38775Y154937D01*
X38747Y154891D01*
X38710Y154836D01*
X38664Y154771D01*
X38618Y154688D01*
X38581Y154595D01*
X38535Y154484D01*
X38489Y154364D01*
X38442Y154235D01*
X38405Y154096D01*
X38378Y153939D01*
X38350Y153763D01*
X38341Y153587D01*
X38331Y153393D01*
Y153384D01*
Y153347D01*
Y153282D01*
X38341Y153208D01*
X38350Y153106D01*
X38359Y153005D01*
X38378Y152875D01*
X38396Y152746D01*
X38452Y152469D01*
X38544Y152182D01*
X38600Y152043D01*
X38664Y151914D01*
X38747Y151784D01*
X38831Y151673D01*
X38840Y151664D01*
X38858Y151646D01*
X38886Y151618D01*
X38923Y151581D01*
X38979Y151544D01*
X39034Y151489D01*
X39108Y151442D01*
X39191Y151387D01*
X39284Y151331D01*
X39376Y151285D01*
X39607Y151193D01*
X39737Y151156D01*
X39866Y151128D01*
X40014Y151110D01*
X40162Y151100D01*
X40236D01*
X40310Y151110D01*
X40421Y151119D01*
X40541Y151137D01*
X40680Y151165D01*
X40828Y151202D01*
X40976Y151257D01*
X40985D01*
X40994Y151267D01*
X41040Y151285D01*
X41123Y151322D01*
X41216Y151368D01*
X41327Y151424D01*
X41447Y151489D01*
X41567Y151562D01*
X41678Y151646D01*
Y152469D01*
X40199D01*
Y153550D01*
X42982D01*
Y150980D01*
X42963Y150962D01*
X42936Y150943D01*
X42908Y150915D01*
X42862Y150878D01*
X42815Y150841D01*
X42686Y150749D01*
X42510Y150647D01*
X42307Y150527D01*
X42076Y150407D01*
X41799Y150296D01*
X41789D01*
X41761Y150287D01*
X41725Y150268D01*
X41669Y150250D01*
X41595Y150231D01*
X41512Y150203D01*
X41419Y150176D01*
X41318Y150148D01*
X41087Y150092D01*
X40818Y150046D01*
X40541Y150009D01*
X40245Y150000D01*
X40143D01*
X40079Y150009D01*
X39986D01*
X39885Y150019D01*
X39774Y150037D01*
X39644Y150056D01*
X39376Y150102D01*
X39080Y150176D01*
X38775Y150277D01*
X38637Y150342D01*
X38489Y150416D01*
X38479Y150425D01*
X38461Y150435D01*
X38415Y150462D01*
X38368Y150499D01*
X38304Y150536D01*
X38239Y150592D01*
X38156Y150656D01*
X38073Y150730D01*
X37888Y150897D01*
X37703Y151110D01*
X37527Y151350D01*
X37370Y151627D01*
Y151636D01*
X37351Y151664D01*
X37333Y151710D01*
X37314Y151766D01*
X37287Y151840D01*
X37250Y151923D01*
X37222Y152025D01*
X37185Y152136D01*
X37148Y152256D01*
X37120Y152395D01*
X37055Y152681D01*
X37018Y152996D01*
X37000Y153338D01*
Y153347D01*
Y153384D01*
Y153439D01*
X37009Y153504D01*
Y153596D01*
X37018Y153698D01*
X37037Y153809D01*
X37055Y153939D01*
X37102Y154207D01*
X37176Y154512D01*
X37277Y154817D01*
X37342Y154965D01*
X37416Y155113D01*
X37425Y155122D01*
X37434Y155150D01*
X37462Y155187D01*
X37490Y155242D01*
X37536Y155307D01*
X37592Y155381D01*
X37656Y155464D01*
X37721Y155557D01*
X37804Y155649D01*
X37897Y155751D01*
X37998Y155852D01*
X38110Y155954D01*
X38230Y156047D01*
X38350Y156148D01*
X38637Y156315D01*
X38646D01*
X38664Y156333D01*
X38701Y156342D01*
X38747Y156370D01*
X38812Y156389D01*
X38877Y156417D01*
X38969Y156444D01*
X39062Y156481D01*
X39163Y156509D01*
X39284Y156537D01*
X39413Y156564D01*
X39543Y156592D01*
X39838Y156629D01*
X40171Y156638D01*
X40282D01*
X40365Y156629D01*
D02*
G37*
G36*
X49269Y150120D02*
X47975D01*
X45377Y154336D01*
Y150120D01*
X44184D01*
Y156518D01*
X45432D01*
X48076Y152210D01*
Y156518D01*
X49269D01*
Y150120D01*
D02*
G37*
G36*
X53263Y156509D02*
X53439Y156500D01*
X53633Y156490D01*
X53836Y156463D01*
X54030Y156435D01*
X54206Y156389D01*
X54215D01*
X54234Y156379D01*
X54261Y156370D01*
X54299Y156361D01*
X54409Y156315D01*
X54539Y156250D01*
X54687Y156167D01*
X54853Y156065D01*
X55010Y155945D01*
X55168Y155797D01*
X55177D01*
X55186Y155779D01*
X55232Y155723D01*
X55306Y155631D01*
X55389Y155510D01*
X55491Y155363D01*
X55593Y155187D01*
X55695Y154983D01*
X55778Y154761D01*
Y154752D01*
X55787Y154734D01*
X55796Y154697D01*
X55815Y154650D01*
X55824Y154595D01*
X55842Y154521D01*
X55861Y154438D01*
X55889Y154345D01*
X55907Y154244D01*
X55926Y154123D01*
X55944Y154003D01*
X55953Y153865D01*
X55981Y153578D01*
X55991Y153254D01*
Y153245D01*
Y153217D01*
Y153181D01*
Y153125D01*
X55981Y153051D01*
Y152977D01*
X55972Y152885D01*
X55963Y152783D01*
X55944Y152570D01*
X55907Y152348D01*
X55852Y152117D01*
X55787Y151895D01*
Y151886D01*
X55778Y151868D01*
X55759Y151831D01*
X55741Y151775D01*
X55722Y151720D01*
X55685Y151655D01*
X55611Y151489D01*
X55519Y151313D01*
X55399Y151119D01*
X55260Y150934D01*
X55103Y150758D01*
X55084Y150740D01*
X55038Y150703D01*
X54964Y150647D01*
X54862Y150573D01*
X54733Y150490D01*
X54585Y150407D01*
X54400Y150324D01*
X54197Y150250D01*
X54188D01*
X54178Y150240D01*
X54151D01*
X54123Y150231D01*
X54021Y150213D01*
X53892Y150185D01*
X53734Y150157D01*
X53540Y150139D01*
X53309Y150129D01*
X53060Y150120D01*
X50637D01*
Y156518D01*
X53189D01*
X53263Y156509D01*
D02*
G37*
G36*
X48880Y4090D02*
X47910D01*
X45961Y7252D01*
Y4090D01*
X45066D01*
Y8889D01*
X46003D01*
X47986Y5657D01*
Y8889D01*
X48880D01*
Y4090D01*
D02*
G37*
G36*
X39138D02*
X38091D01*
X36371Y8889D01*
X37418D01*
X38639Y5338D01*
X39810Y8889D01*
X40844D01*
X39138Y4090D01*
D02*
G37*
G36*
X58193Y6358D02*
Y6351D01*
Y6323D01*
Y6274D01*
Y6219D01*
Y6150D01*
X58186Y6066D01*
Y5976D01*
Y5886D01*
X58172Y5685D01*
X58158Y5477D01*
X58151Y5387D01*
X58137Y5297D01*
X58124Y5214D01*
X58110Y5137D01*
Y5130D01*
X58103Y5123D01*
Y5102D01*
X58096Y5082D01*
X58075Y5012D01*
X58047Y4929D01*
X58006Y4832D01*
X57957Y4735D01*
X57895Y4631D01*
X57818Y4534D01*
X57812Y4520D01*
X57784Y4492D01*
X57735Y4451D01*
X57673Y4395D01*
X57590Y4333D01*
X57493Y4270D01*
X57382Y4201D01*
X57257Y4146D01*
X57250D01*
X57243Y4139D01*
X57222Y4132D01*
X57194Y4125D01*
X57160Y4111D01*
X57118Y4097D01*
X57063Y4083D01*
X57007Y4076D01*
X56876Y4049D01*
X56716Y4021D01*
X56536Y4007D01*
X56335Y4000D01*
X56224D01*
X56161Y4007D01*
X56099D01*
X56023Y4014D01*
X55946Y4021D01*
X55780Y4035D01*
X55606Y4062D01*
X55433Y4104D01*
X55357Y4125D01*
X55287Y4153D01*
X55281D01*
X55274Y4160D01*
X55232Y4180D01*
X55163Y4215D01*
X55086Y4263D01*
X54996Y4326D01*
X54899Y4395D01*
X54809Y4478D01*
X54726Y4569D01*
X54719Y4582D01*
X54691Y4610D01*
X54657Y4666D01*
X54615Y4735D01*
X54573Y4811D01*
X54525Y4901D01*
X54490Y4999D01*
X54455Y5102D01*
Y5110D01*
X54448Y5123D01*
Y5144D01*
X54442Y5179D01*
X54435Y5220D01*
X54428Y5276D01*
X54421Y5338D01*
X54414Y5408D01*
X54400Y5491D01*
X54393Y5581D01*
X54386Y5678D01*
X54379Y5789D01*
X54372Y5907D01*
Y6039D01*
X54365Y6177D01*
Y6323D01*
Y8889D01*
X55336D01*
Y6281D01*
Y6274D01*
Y6254D01*
Y6226D01*
Y6184D01*
Y6129D01*
Y6073D01*
X55343Y5949D01*
Y5810D01*
X55350Y5678D01*
X55357Y5616D01*
Y5560D01*
X55364Y5519D01*
X55371Y5477D01*
Y5463D01*
X55385Y5428D01*
X55405Y5373D01*
X55433Y5304D01*
X55468Y5227D01*
X55523Y5151D01*
X55586Y5068D01*
X55662Y4999D01*
X55676Y4992D01*
X55704Y4971D01*
X55759Y4943D01*
X55828Y4915D01*
X55925Y4881D01*
X56036Y4853D01*
X56161Y4832D01*
X56307Y4825D01*
X56376D01*
X56446Y4832D01*
X56536Y4846D01*
X56640Y4867D01*
X56737Y4895D01*
X56841Y4936D01*
X56924Y4992D01*
X56931Y4999D01*
X56959Y5019D01*
X56993Y5054D01*
X57035Y5102D01*
X57077Y5165D01*
X57118Y5234D01*
X57153Y5311D01*
X57174Y5401D01*
Y5415D01*
X57181Y5449D01*
X57188Y5512D01*
X57201Y5595D01*
Y5650D01*
X57208Y5713D01*
Y5782D01*
X57215Y5851D01*
Y5935D01*
X57222Y6025D01*
Y6122D01*
Y6226D01*
Y8889D01*
X58193D01*
Y6358D01*
D02*
G37*
G36*
X31094Y6885D02*
X32356D01*
Y6025D01*
X31094D01*
Y4784D01*
X30255D01*
Y6025D01*
X29000D01*
Y6885D01*
X30255D01*
Y8126D01*
X31094D01*
Y6885D01*
D02*
G37*
G36*
X35955Y7966D02*
X34214D01*
X34069Y7148D01*
X34076D01*
X34083Y7155D01*
X34124Y7176D01*
X34187Y7197D01*
X34263Y7231D01*
X34360Y7259D01*
X34464Y7280D01*
X34582Y7301D01*
X34700Y7308D01*
X34762D01*
X34804Y7301D01*
X34852Y7294D01*
X34915Y7287D01*
X34984Y7273D01*
X35061Y7252D01*
X35220Y7197D01*
X35310Y7162D01*
X35393Y7120D01*
X35484Y7065D01*
X35574Y7003D01*
X35657Y6933D01*
X35740Y6857D01*
X35747Y6850D01*
X35761Y6836D01*
X35782Y6808D01*
X35809Y6774D01*
X35837Y6732D01*
X35879Y6677D01*
X35913Y6614D01*
X35955Y6545D01*
X35997Y6469D01*
X36031Y6378D01*
X36073Y6281D01*
X36101Y6184D01*
X36128Y6073D01*
X36149Y5955D01*
X36163Y5831D01*
X36170Y5699D01*
Y5692D01*
Y5671D01*
Y5643D01*
X36163Y5602D01*
Y5546D01*
X36149Y5484D01*
X36142Y5415D01*
X36128Y5345D01*
X36087Y5179D01*
X36024Y4999D01*
X35983Y4901D01*
X35941Y4811D01*
X35886Y4721D01*
X35823Y4631D01*
X35816Y4624D01*
X35802Y4603D01*
X35775Y4575D01*
X35740Y4534D01*
X35691Y4485D01*
X35629Y4430D01*
X35560Y4374D01*
X35484Y4319D01*
X35393Y4257D01*
X35296Y4201D01*
X35192Y4146D01*
X35074Y4097D01*
X34950Y4056D01*
X34818Y4028D01*
X34672Y4007D01*
X34520Y4000D01*
X34457D01*
X34409Y4007D01*
X34353Y4014D01*
X34284Y4021D01*
X34214Y4028D01*
X34131Y4042D01*
X33965Y4083D01*
X33778Y4153D01*
X33688Y4187D01*
X33597Y4236D01*
X33514Y4291D01*
X33431Y4354D01*
X33424Y4361D01*
X33410Y4367D01*
X33389Y4388D01*
X33362Y4416D01*
X33334Y4458D01*
X33292Y4499D01*
X33258Y4548D01*
X33216Y4603D01*
X33167Y4673D01*
X33126Y4742D01*
X33050Y4908D01*
X32980Y5096D01*
X32959Y5200D01*
X32939Y5311D01*
X33854Y5408D01*
Y5394D01*
X33861Y5359D01*
X33875Y5297D01*
X33895Y5227D01*
X33923Y5151D01*
X33965Y5068D01*
X34020Y4992D01*
X34083Y4915D01*
X34090Y4908D01*
X34117Y4888D01*
X34159Y4860D01*
X34214Y4825D01*
X34277Y4791D01*
X34353Y4763D01*
X34443Y4742D01*
X34534Y4735D01*
X34547D01*
X34582Y4742D01*
X34637Y4749D01*
X34707Y4763D01*
X34783Y4791D01*
X34866Y4832D01*
X34950Y4895D01*
X35026Y4971D01*
X35033Y4985D01*
X35061Y5012D01*
X35088Y5068D01*
X35130Y5151D01*
X35164Y5248D01*
X35199Y5366D01*
X35220Y5512D01*
X35227Y5678D01*
Y5685D01*
Y5699D01*
Y5720D01*
Y5754D01*
X35220Y5831D01*
X35199Y5928D01*
X35178Y6039D01*
X35144Y6150D01*
X35095Y6254D01*
X35026Y6344D01*
X35019Y6351D01*
X34991Y6378D01*
X34943Y6413D01*
X34887Y6462D01*
X34811Y6503D01*
X34721Y6538D01*
X34617Y6566D01*
X34506Y6573D01*
X34464D01*
X34436Y6566D01*
X34367Y6552D01*
X34270Y6531D01*
X34159Y6489D01*
X34041Y6427D01*
X33979Y6385D01*
X33916Y6337D01*
X33854Y6281D01*
X33791Y6219D01*
X33050Y6323D01*
X33521Y8826D01*
X35955D01*
Y7966D01*
D02*
G37*
G36*
X62686Y8077D02*
X61272D01*
Y4090D01*
X60301D01*
Y8077D01*
X58879D01*
Y8889D01*
X62686D01*
Y8077D01*
D02*
G37*
G36*
X51751Y8882D02*
X51931D01*
X52126Y8868D01*
X52320Y8854D01*
X52403Y8847D01*
X52486Y8840D01*
X52555Y8826D01*
X52611Y8812D01*
X52618D01*
X52632Y8805D01*
X52653Y8798D01*
X52680Y8791D01*
X52757Y8757D01*
X52854Y8715D01*
X52958Y8653D01*
X53075Y8570D01*
X53186Y8466D01*
X53297Y8341D01*
Y8334D01*
X53311Y8327D01*
X53325Y8306D01*
X53339Y8278D01*
X53367Y8237D01*
X53388Y8195D01*
X53415Y8147D01*
X53443Y8091D01*
X53492Y7952D01*
X53540Y7800D01*
X53568Y7613D01*
X53582Y7412D01*
Y7405D01*
Y7391D01*
Y7370D01*
Y7335D01*
X53575Y7301D01*
Y7252D01*
X53561Y7155D01*
X53540Y7037D01*
X53512Y6905D01*
X53471Y6781D01*
X53415Y6663D01*
X53408Y6649D01*
X53388Y6614D01*
X53353Y6559D01*
X53304Y6489D01*
X53249Y6420D01*
X53173Y6337D01*
X53096Y6260D01*
X53006Y6191D01*
X52992Y6184D01*
X52965Y6163D01*
X52916Y6136D01*
X52854Y6101D01*
X52777Y6059D01*
X52694Y6025D01*
X52604Y5990D01*
X52507Y5962D01*
X52493D01*
X52472Y5955D01*
X52445D01*
X52410Y5949D01*
X52361Y5942D01*
X52313Y5935D01*
X52250D01*
X52188Y5928D01*
X52112Y5921D01*
X52028Y5914D01*
X51938Y5907D01*
X51841D01*
X51737Y5900D01*
X50877D01*
Y4090D01*
X49907D01*
Y8889D01*
X51675D01*
X51751Y8882D01*
D02*
G37*
G36*
X44137Y4090D02*
X43167D01*
Y8889D01*
X44137D01*
Y4090D01*
D02*
G37*
G36*
X450075Y478395D02*
X450176Y478386D01*
X450297Y478377D01*
X450426Y478367D01*
X450565Y478340D01*
X450861Y478284D01*
X451166Y478192D01*
X451323Y478136D01*
X451471Y478071D01*
X451609Y477997D01*
X451739Y477905D01*
X451748Y477896D01*
X451767Y477887D01*
X451804Y477850D01*
X451850Y477812D01*
X451905Y477766D01*
X451961Y477702D01*
X452026Y477628D01*
X452099Y477544D01*
X452174Y477452D01*
X452248Y477350D01*
X452321Y477239D01*
X452386Y477110D01*
X452460Y476980D01*
X452516Y476842D01*
X452571Y476685D01*
X452608Y476527D01*
X451323Y476287D01*
Y476296D01*
X451314Y476306D01*
X451295Y476361D01*
X451258Y476444D01*
X451203Y476555D01*
X451138Y476675D01*
X451045Y476796D01*
X450935Y476916D01*
X450805Y477027D01*
X450787Y477036D01*
X450740Y477073D01*
X450657Y477119D01*
X450555Y477165D01*
X450417Y477221D01*
X450260Y477258D01*
X450084Y477295D01*
X449881Y477304D01*
X449797D01*
X449742Y477295D01*
X449668Y477285D01*
X449585Y477276D01*
X449492Y477258D01*
X449391Y477239D01*
X449178Y477175D01*
X449067Y477128D01*
X448956Y477073D01*
X448845Y477008D01*
X448734Y476943D01*
X448632Y476851D01*
X448531Y476758D01*
X448521Y476749D01*
X448512Y476731D01*
X448484Y476703D01*
X448457Y476657D01*
X448420Y476601D01*
X448374Y476537D01*
X448327Y476453D01*
X448290Y476361D01*
X448244Y476250D01*
X448198Y476130D01*
X448152Y476000D01*
X448115Y475862D01*
X448087Y475704D01*
X448059Y475529D01*
X448050Y475353D01*
X448041Y475159D01*
Y475150D01*
Y475113D01*
Y475048D01*
X448050Y474974D01*
X448059Y474872D01*
X448068Y474771D01*
X448087Y474641D01*
X448105Y474512D01*
X448161Y474235D01*
X448253Y473948D01*
X448309Y473809D01*
X448374Y473680D01*
X448457Y473550D01*
X448540Y473439D01*
X448549Y473430D01*
X448568Y473412D01*
X448595Y473384D01*
X448632Y473347D01*
X448688Y473310D01*
X448743Y473255D01*
X448817Y473208D01*
X448900Y473153D01*
X448993Y473097D01*
X449086Y473051D01*
X449317Y472959D01*
X449446Y472922D01*
X449576Y472894D01*
X449723Y472875D01*
X449871Y472866D01*
X449945D01*
X450019Y472875D01*
X450130Y472885D01*
X450250Y472903D01*
X450389Y472931D01*
X450537Y472968D01*
X450685Y473023D01*
X450694D01*
X450703Y473033D01*
X450750Y473051D01*
X450833Y473088D01*
X450925Y473134D01*
X451036Y473190D01*
X451157Y473255D01*
X451277Y473328D01*
X451388Y473412D01*
Y474235D01*
X449908D01*
Y475316D01*
X452691D01*
Y472746D01*
X452673Y472728D01*
X452645Y472709D01*
X452617Y472681D01*
X452571Y472644D01*
X452525Y472607D01*
X452395Y472515D01*
X452220Y472413D01*
X452016Y472293D01*
X451785Y472173D01*
X451508Y472062D01*
X451499D01*
X451471Y472052D01*
X451434Y472034D01*
X451378Y472015D01*
X451304Y471997D01*
X451221Y471969D01*
X451129Y471942D01*
X451027Y471914D01*
X450796Y471858D01*
X450528Y471812D01*
X450250Y471775D01*
X449954Y471766D01*
X449853D01*
X449788Y471775D01*
X449696D01*
X449594Y471784D01*
X449483Y471803D01*
X449354Y471821D01*
X449086Y471868D01*
X448790Y471942D01*
X448484Y472043D01*
X448346Y472108D01*
X448198Y472182D01*
X448189Y472191D01*
X448170Y472201D01*
X448124Y472228D01*
X448078Y472265D01*
X448013Y472302D01*
X447948Y472358D01*
X447865Y472422D01*
X447782Y472496D01*
X447597Y472663D01*
X447412Y472875D01*
X447236Y473116D01*
X447079Y473393D01*
Y473402D01*
X447061Y473430D01*
X447042Y473476D01*
X447024Y473532D01*
X446996Y473606D01*
X446959Y473689D01*
X446931Y473791D01*
X446894Y473902D01*
X446857Y474022D01*
X446829Y474160D01*
X446765Y474447D01*
X446728Y474762D01*
X446709Y475104D01*
Y475113D01*
Y475150D01*
Y475205D01*
X446719Y475270D01*
Y475362D01*
X446728Y475464D01*
X446746Y475575D01*
X446765Y475704D01*
X446811Y475973D01*
X446885Y476278D01*
X446987Y476583D01*
X447051Y476731D01*
X447125Y476879D01*
X447135Y476888D01*
X447144Y476916D01*
X447172Y476953D01*
X447199Y477008D01*
X447246Y477073D01*
X447301Y477147D01*
X447366Y477230D01*
X447430Y477323D01*
X447514Y477415D01*
X447606Y477517D01*
X447708Y477618D01*
X447819Y477720D01*
X447939Y477812D01*
X448059Y477914D01*
X448346Y478081D01*
X448355D01*
X448374Y478099D01*
X448410Y478108D01*
X448457Y478136D01*
X448521Y478155D01*
X448586Y478182D01*
X448679Y478210D01*
X448771Y478247D01*
X448873Y478275D01*
X448993Y478302D01*
X449122Y478330D01*
X449252Y478358D01*
X449548Y478395D01*
X449881Y478404D01*
X449991D01*
X450075Y478395D01*
D02*
G37*
G36*
X505354Y474734D02*
X505345Y474725D01*
X505317Y474697D01*
X505271Y474660D01*
X505206Y474604D01*
X505123Y474540D01*
X505031Y474475D01*
X504920Y474410D01*
X504790Y474336D01*
X504772Y474327D01*
X504725Y474308D01*
X504651Y474281D01*
X504559Y474253D01*
X504448Y474216D01*
X504319Y474188D01*
X504189Y474170D01*
X504041Y474160D01*
X503967D01*
X503912Y474170D01*
X503847D01*
X503773Y474179D01*
X503616Y474207D01*
X503607D01*
X503579Y474216D01*
X503524Y474235D01*
X503459Y474262D01*
X503366Y474290D01*
X503255Y474336D01*
X503117Y474382D01*
X502960Y474447D01*
X502950D01*
X502932Y474456D01*
X502895Y474475D01*
X502849Y474493D01*
X502793Y474512D01*
X502728Y474540D01*
X502580Y474595D01*
X502414Y474650D01*
X502238Y474697D01*
X502063Y474734D01*
X501906Y474743D01*
X501850D01*
X501804Y474734D01*
X501748Y474725D01*
X501684Y474715D01*
X501526Y474669D01*
X501351Y474595D01*
X501249Y474549D01*
X501147Y474493D01*
X501046Y474429D01*
X500935Y474345D01*
X500833Y474253D01*
X500722Y474151D01*
Y475289D01*
X500731Y475298D01*
X500750Y475316D01*
X500778Y475344D01*
X500824Y475381D01*
X500870Y475427D01*
X500935Y475473D01*
X501009Y475529D01*
X501092Y475584D01*
X501277Y475695D01*
X501499Y475788D01*
X501610Y475825D01*
X501739Y475853D01*
X501869Y475871D01*
X502007Y475880D01*
X502109D01*
X502174Y475871D01*
X502257D01*
X502340Y475862D01*
X502516Y475825D01*
X502525D01*
X502562Y475816D01*
X502617Y475797D01*
X502710Y475769D01*
X502821Y475732D01*
X502969Y475677D01*
X503144Y475612D01*
X503348Y475529D01*
X503357D01*
X503376Y475520D01*
X503403Y475510D01*
X503450Y475492D01*
X503551Y475455D01*
X503671Y475418D01*
X503810Y475372D01*
X503949Y475335D01*
X504069Y475307D01*
X504161Y475298D01*
X504208D01*
X504254Y475307D01*
X504319Y475316D01*
X504402Y475335D01*
X504494Y475353D01*
X504605Y475390D01*
X504716Y475436D01*
X504735Y475446D01*
X504772Y475464D01*
X504836Y475501D01*
X504920Y475547D01*
X505012Y475621D01*
X505123Y475695D01*
X505234Y475797D01*
X505354Y475908D01*
Y474734D01*
D02*
G37*
G36*
X496793Y471886D02*
X495600D01*
X495591Y476916D01*
X494333Y471886D01*
X493085D01*
X491828Y476916D01*
Y471886D01*
X490635D01*
Y478284D01*
X492567D01*
X493714Y473911D01*
X494851Y478284D01*
X496793D01*
Y471886D01*
D02*
G37*
G36*
X488435D02*
X487039D01*
X485781Y476666D01*
X484505Y471886D01*
X483100D01*
X481584Y478284D01*
X482906D01*
X483867Y473883D01*
X485032Y478284D01*
X486586D01*
X487695Y473809D01*
X488675Y478284D01*
X489979D01*
X488435Y471886D01*
D02*
G37*
G36*
X478708Y478275D02*
X478949D01*
X479208Y478256D01*
X479467Y478238D01*
X479577Y478229D01*
X479688Y478219D01*
X479781Y478201D01*
X479855Y478182D01*
X479864D01*
X479883Y478173D01*
X479910Y478164D01*
X479947Y478155D01*
X480049Y478108D01*
X480178Y478053D01*
X480317Y477970D01*
X480474Y477859D01*
X480622Y477720D01*
X480770Y477554D01*
Y477544D01*
X480789Y477535D01*
X480807Y477507D01*
X480826Y477470D01*
X480863Y477415D01*
X480890Y477360D01*
X480927Y477295D01*
X480964Y477221D01*
X481029Y477036D01*
X481094Y476833D01*
X481131Y476583D01*
X481149Y476315D01*
Y476306D01*
Y476287D01*
Y476259D01*
Y476213D01*
X481140Y476167D01*
Y476102D01*
X481121Y475973D01*
X481094Y475816D01*
X481057Y475640D01*
X481001Y475473D01*
X480927Y475316D01*
X480918Y475298D01*
X480890Y475252D01*
X480844Y475177D01*
X480779Y475085D01*
X480705Y474993D01*
X480604Y474882D01*
X480502Y474780D01*
X480382Y474688D01*
X480363Y474678D01*
X480326Y474650D01*
X480262Y474614D01*
X480178Y474567D01*
X480077Y474512D01*
X479966Y474466D01*
X479846Y474419D01*
X479716Y474382D01*
X479698D01*
X479670Y474373D01*
X479633D01*
X479587Y474364D01*
X479522Y474355D01*
X479457Y474345D01*
X479374D01*
X479291Y474336D01*
X479189Y474327D01*
X479078Y474318D01*
X478958Y474308D01*
X478829D01*
X478690Y474299D01*
X477543D01*
Y471886D01*
X476249D01*
Y478284D01*
X478607D01*
X478708Y478275D01*
D02*
G37*
G36*
X469620Y472968D02*
X472837D01*
Y471886D01*
X468326D01*
Y478238D01*
X469620D01*
Y472968D01*
D02*
G37*
G36*
X467604Y471886D02*
X466208D01*
X465654Y473338D01*
X463083D01*
X462556Y471886D01*
X461188D01*
X463666Y478284D01*
X465034D01*
X467604Y471886D01*
D02*
G37*
G36*
X461003Y477202D02*
X459117D01*
Y471886D01*
X457823D01*
Y477202D01*
X455927D01*
Y478284D01*
X461003D01*
Y477202D01*
D02*
G37*
G36*
X455141Y471886D02*
X453847D01*
Y478284D01*
X455141D01*
Y471886D01*
D02*
G37*
G36*
X445702D02*
X444407D01*
Y478284D01*
X445702D01*
Y471886D01*
D02*
G37*
G36*
X440626Y478275D02*
X440801Y478266D01*
X440996Y478256D01*
X441199Y478229D01*
X441393Y478201D01*
X441569Y478155D01*
X441578D01*
X441596Y478145D01*
X441624Y478136D01*
X441661Y478127D01*
X441772Y478081D01*
X441902Y478016D01*
X442050Y477933D01*
X442216Y477831D01*
X442373Y477711D01*
X442530Y477563D01*
X442540D01*
X442549Y477544D01*
X442595Y477489D01*
X442669Y477397D01*
X442752Y477276D01*
X442854Y477128D01*
X442956Y476953D01*
X443057Y476749D01*
X443140Y476527D01*
Y476518D01*
X443150Y476500D01*
X443159Y476463D01*
X443177Y476416D01*
X443187Y476361D01*
X443205Y476287D01*
X443224Y476204D01*
X443251Y476111D01*
X443270Y476010D01*
X443288Y475889D01*
X443307Y475769D01*
X443316Y475631D01*
X443344Y475344D01*
X443353Y475020D01*
Y475011D01*
Y474983D01*
Y474946D01*
Y474891D01*
X443344Y474817D01*
Y474743D01*
X443335Y474650D01*
X443326Y474549D01*
X443307Y474336D01*
X443270Y474114D01*
X443214Y473883D01*
X443150Y473661D01*
Y473652D01*
X443140Y473633D01*
X443122Y473596D01*
X443104Y473541D01*
X443085Y473486D01*
X443048Y473421D01*
X442974Y473255D01*
X442882Y473079D01*
X442761Y472885D01*
X442623Y472700D01*
X442466Y472524D01*
X442447Y472506D01*
X442401Y472469D01*
X442327Y472413D01*
X442225Y472339D01*
X442096Y472256D01*
X441948Y472173D01*
X441763Y472090D01*
X441559Y472015D01*
X441550D01*
X441541Y472006D01*
X441513D01*
X441486Y471997D01*
X441384Y471979D01*
X441254Y471951D01*
X441097Y471923D01*
X440903Y471905D01*
X440672Y471895D01*
X440422Y471886D01*
X438000D01*
Y478284D01*
X440552D01*
X440626Y478275D01*
D02*
G37*
G36*
X506787Y478386D02*
X506806Y478349D01*
X506843Y478302D01*
X506889Y478229D01*
X506944Y478145D01*
X507009Y478044D01*
X507074Y477924D01*
X507148Y477794D01*
X507231Y477646D01*
X507314Y477489D01*
X507397Y477332D01*
X507481Y477156D01*
X507647Y476786D01*
X507795Y476398D01*
Y476389D01*
X507813Y476352D01*
X507832Y476296D01*
X507850Y476213D01*
X507878Y476121D01*
X507915Y476010D01*
X507943Y475880D01*
X507980Y475732D01*
X508017Y475584D01*
X508045Y475418D01*
X508082Y475233D01*
X508109Y475048D01*
X508146Y474669D01*
X508165Y474262D01*
Y474253D01*
Y474225D01*
Y474170D01*
Y474105D01*
X508156Y474022D01*
X508146Y473920D01*
X508137Y473800D01*
X508128Y473671D01*
X508119Y473532D01*
X508091Y473384D01*
X508072Y473218D01*
X508045Y473051D01*
X507971Y472691D01*
X507878Y472302D01*
Y472293D01*
X507860Y472247D01*
X507841Y472191D01*
X507813Y472108D01*
X507776Y471997D01*
X507730Y471877D01*
X507684Y471738D01*
X507619Y471581D01*
X507545Y471415D01*
X507471Y471230D01*
X507379Y471045D01*
X507286Y470841D01*
X507176Y470638D01*
X507065Y470425D01*
X506944Y470213D01*
X506806Y470000D01*
X505955D01*
Y470009D01*
X505974Y470037D01*
X505992Y470074D01*
X506011Y470129D01*
X506048Y470194D01*
X506075Y470268D01*
X506159Y470444D01*
X506242Y470638D01*
X506325Y470841D01*
X506399Y471035D01*
X506464Y471202D01*
Y471211D01*
X506473Y471220D01*
X506491Y471276D01*
X506519Y471359D01*
X506556Y471470D01*
X506593Y471609D01*
X506639Y471775D01*
X506685Y471951D01*
X506732Y472145D01*
Y472154D01*
X506741Y472173D01*
Y472201D01*
X506750Y472237D01*
X506778Y472339D01*
X506806Y472478D01*
X506833Y472635D01*
X506870Y472811D01*
X506926Y473171D01*
Y473181D01*
Y473190D01*
X506935Y473218D01*
Y473255D01*
X506944Y473356D01*
X506963Y473476D01*
X506972Y473633D01*
X506981Y473800D01*
X506991Y473985D01*
Y474170D01*
Y474179D01*
Y474216D01*
Y474272D01*
Y474345D01*
X506981Y474438D01*
Y474549D01*
X506972Y474669D01*
X506963Y474808D01*
X506954Y474956D01*
X506935Y475113D01*
X506889Y475446D01*
X506833Y475788D01*
X506759Y476139D01*
Y476148D01*
X506750Y476185D01*
X506732Y476231D01*
X506713Y476306D01*
X506695Y476398D01*
X506658Y476500D01*
X506621Y476629D01*
X506575Y476768D01*
X506519Y476925D01*
X506464Y477101D01*
X506399Y477285D01*
X506325Y477480D01*
X506242Y477692D01*
X506149Y477914D01*
X506057Y478155D01*
X505946Y478395D01*
X506778D01*
X506787Y478386D01*
D02*
G37*
G36*
X500130Y478377D02*
X500112Y478340D01*
X500084Y478266D01*
X500047Y478173D01*
X499992Y478062D01*
X499936Y477924D01*
X499881Y477775D01*
X499816Y477618D01*
X499742Y477443D01*
X499677Y477258D01*
X499539Y476879D01*
X499418Y476500D01*
X499363Y476315D01*
X499317Y476139D01*
Y476130D01*
X499308Y476102D01*
X499298Y476047D01*
X499280Y475982D01*
X499261Y475889D01*
X499243Y475788D01*
X499224Y475677D01*
X499206Y475547D01*
X499187Y475409D01*
X499169Y475252D01*
X499150Y475094D01*
X499132Y474919D01*
X499104Y474558D01*
X499095Y474170D01*
Y474160D01*
Y474142D01*
Y474096D01*
Y474050D01*
Y473985D01*
X499104Y473902D01*
Y473818D01*
X499113Y473717D01*
X499123Y473495D01*
X499150Y473245D01*
X499178Y472977D01*
X499224Y472700D01*
Y472691D01*
X499234Y472663D01*
Y472626D01*
X499252Y472570D01*
X499261Y472506D01*
X499280Y472432D01*
X499298Y472339D01*
X499317Y472247D01*
X499372Y472025D01*
X499428Y471784D01*
X499502Y471535D01*
X499585Y471285D01*
Y471276D01*
X499594Y471267D01*
X499603Y471239D01*
X499613Y471202D01*
X499631Y471156D01*
X499659Y471100D01*
X499677Y471035D01*
X499714Y470961D01*
X499751Y470869D01*
X499788Y470777D01*
X499835Y470675D01*
X499881Y470555D01*
X499936Y470434D01*
X499992Y470296D01*
X500056Y470157D01*
X500130Y470000D01*
X499289D01*
X499280Y470009D01*
X499261Y470046D01*
X499224Y470102D01*
X499178Y470176D01*
X499123Y470268D01*
X499058Y470379D01*
X498984Y470508D01*
X498910Y470647D01*
X498827Y470795D01*
X498744Y470961D01*
X498660Y471137D01*
X498568Y471313D01*
X498411Y471701D01*
X498263Y472099D01*
Y472108D01*
X498244Y472145D01*
X498235Y472210D01*
X498207Y472284D01*
X498180Y472385D01*
X498152Y472496D01*
X498124Y472626D01*
X498096Y472764D01*
X498059Y472922D01*
X498032Y473088D01*
X497976Y473439D01*
X497939Y473818D01*
X497921Y474198D01*
Y474216D01*
Y474253D01*
Y474318D01*
X497930Y474410D01*
Y474521D01*
X497939Y474660D01*
X497958Y474808D01*
X497976Y474974D01*
X497995Y475150D01*
X498022Y475335D01*
X498096Y475742D01*
X498207Y476158D01*
X498272Y476370D01*
X498346Y476583D01*
Y476592D01*
X498364Y476629D01*
X498383Y476675D01*
X498411Y476749D01*
X498448Y476833D01*
X498494Y476934D01*
X498549Y477054D01*
X498605Y477175D01*
X498670Y477313D01*
X498744Y477452D01*
X498901Y477757D01*
X499095Y478081D01*
X499298Y478395D01*
X500140D01*
X500130Y478377D01*
D02*
G37*
G36*
X577568Y61629D02*
X577669Y61620D01*
X577790Y61611D01*
X577919Y61601D01*
X578058Y61574D01*
X578354Y61518D01*
X578659Y61426D01*
X578816Y61370D01*
X578964Y61305D01*
X579103Y61231D01*
X579232Y61139D01*
X579241Y61130D01*
X579260Y61121D01*
X579297Y61084D01*
X579343Y61047D01*
X579398Y61000D01*
X579454Y60936D01*
X579519Y60862D01*
X579593Y60778D01*
X579667Y60686D01*
X579740Y60584D01*
X579814Y60473D01*
X579879Y60344D01*
X579953Y60215D01*
X580009Y60076D01*
X580064Y59919D01*
X580101Y59762D01*
X578816Y59521D01*
Y59530D01*
X578807Y59540D01*
X578788Y59595D01*
X578751Y59678D01*
X578696Y59789D01*
X578631Y59909D01*
X578539Y60030D01*
X578428Y60150D01*
X578298Y60261D01*
X578280Y60270D01*
X578233Y60307D01*
X578150Y60353D01*
X578049Y60399D01*
X577910Y60455D01*
X577753Y60492D01*
X577577Y60529D01*
X577374Y60538D01*
X577290D01*
X577235Y60529D01*
X577161Y60520D01*
X577078Y60510D01*
X576985Y60492D01*
X576884Y60473D01*
X576671Y60409D01*
X576560Y60362D01*
X576449Y60307D01*
X576338Y60242D01*
X576227Y60177D01*
X576125Y60085D01*
X576024Y59993D01*
X576015Y59983D01*
X576005Y59965D01*
X575978Y59937D01*
X575950Y59891D01*
X575913Y59835D01*
X575867Y59771D01*
X575820Y59688D01*
X575783Y59595D01*
X575737Y59484D01*
X575691Y59364D01*
X575645Y59234D01*
X575608Y59096D01*
X575580Y58939D01*
X575552Y58763D01*
X575543Y58587D01*
X575534Y58393D01*
Y58384D01*
Y58347D01*
Y58282D01*
X575543Y58208D01*
X575552Y58106D01*
X575561Y58005D01*
X575580Y57875D01*
X575598Y57746D01*
X575654Y57469D01*
X575746Y57182D01*
X575802Y57043D01*
X575867Y56914D01*
X575950Y56784D01*
X576033Y56673D01*
X576042Y56664D01*
X576061Y56646D01*
X576088Y56618D01*
X576125Y56581D01*
X576181Y56544D01*
X576236Y56488D01*
X576310Y56442D01*
X576394Y56387D01*
X576486Y56331D01*
X576579Y56285D01*
X576810Y56193D01*
X576939Y56156D01*
X577069Y56128D01*
X577216Y56109D01*
X577364Y56100D01*
X577438D01*
X577512Y56109D01*
X577623Y56119D01*
X577743Y56137D01*
X577882Y56165D01*
X578030Y56202D01*
X578178Y56257D01*
X578187D01*
X578196Y56267D01*
X578243Y56285D01*
X578326Y56322D01*
X578418Y56368D01*
X578529Y56424D01*
X578650Y56488D01*
X578770Y56562D01*
X578881Y56646D01*
Y57469D01*
X577401D01*
Y58550D01*
X580184D01*
Y55980D01*
X580166Y55961D01*
X580138Y55943D01*
X580110Y55915D01*
X580064Y55878D01*
X580018Y55841D01*
X579888Y55749D01*
X579713Y55647D01*
X579509Y55527D01*
X579278Y55407D01*
X579001Y55296D01*
X578992D01*
X578964Y55287D01*
X578927Y55268D01*
X578871Y55250D01*
X578797Y55231D01*
X578714Y55203D01*
X578622Y55176D01*
X578520Y55148D01*
X578289Y55092D01*
X578021Y55046D01*
X577743Y55009D01*
X577448Y55000D01*
X577346D01*
X577281Y55009D01*
X577189D01*
X577087Y55019D01*
X576976Y55037D01*
X576847Y55055D01*
X576579Y55102D01*
X576283Y55176D01*
X575978Y55277D01*
X575839Y55342D01*
X575691Y55416D01*
X575682Y55425D01*
X575663Y55434D01*
X575617Y55462D01*
X575571Y55499D01*
X575506Y55536D01*
X575441Y55592D01*
X575358Y55656D01*
X575275Y55730D01*
X575090Y55897D01*
X574905Y56109D01*
X574729Y56350D01*
X574572Y56627D01*
Y56637D01*
X574554Y56664D01*
X574535Y56710D01*
X574517Y56766D01*
X574489Y56840D01*
X574452Y56923D01*
X574424Y57025D01*
X574387Y57136D01*
X574350Y57256D01*
X574323Y57395D01*
X574258Y57681D01*
X574221Y57996D01*
X574202Y58338D01*
Y58347D01*
Y58384D01*
Y58439D01*
X574212Y58504D01*
Y58597D01*
X574221Y58698D01*
X574239Y58809D01*
X574258Y58939D01*
X574304Y59207D01*
X574378Y59512D01*
X574480Y59817D01*
X574544Y59965D01*
X574618Y60113D01*
X574628Y60122D01*
X574637Y60150D01*
X574665Y60187D01*
X574692Y60242D01*
X574739Y60307D01*
X574794Y60381D01*
X574859Y60464D01*
X574924Y60557D01*
X575007Y60649D01*
X575099Y60751D01*
X575201Y60852D01*
X575312Y60954D01*
X575432Y61047D01*
X575552Y61148D01*
X575839Y61315D01*
X575848D01*
X575867Y61333D01*
X575904Y61343D01*
X575950Y61370D01*
X576015Y61389D01*
X576079Y61416D01*
X576172Y61444D01*
X576264Y61481D01*
X576366Y61509D01*
X576486Y61537D01*
X576615Y61564D01*
X576745Y61592D01*
X577041Y61629D01*
X577374Y61638D01*
X577485D01*
X577568Y61629D01*
D02*
G37*
G36*
X591446Y55120D02*
X590151D01*
X587553Y59336D01*
Y55120D01*
X586360D01*
Y61518D01*
X587609D01*
X590253Y57210D01*
Y61518D01*
X591446D01*
Y55120D01*
D02*
G37*
G36*
X554195D02*
X552901D01*
X550303Y59336D01*
Y55120D01*
X549110D01*
Y61518D01*
X550358D01*
X553002Y57210D01*
Y61518D01*
X554195D01*
Y55120D01*
D02*
G37*
G36*
X585121D02*
X583827D01*
Y61518D01*
X585121D01*
Y55120D01*
D02*
G37*
G36*
X563339Y56202D02*
X566556D01*
Y55120D01*
X562044D01*
Y61472D01*
X563339D01*
Y56202D01*
D02*
G37*
G36*
X561323Y55120D02*
X559927D01*
X559372Y56572D01*
X556802D01*
X556275Y55120D01*
X554907D01*
X557385Y61518D01*
X558753D01*
X561323Y55120D01*
D02*
G37*
G36*
X548416D02*
X547020D01*
X546466Y56572D01*
X543895D01*
X543368Y55120D01*
X542000D01*
X544478Y61518D01*
X545846D01*
X548416Y55120D01*
D02*
G37*
G36*
X570439Y61629D02*
X570532D01*
X570652Y61611D01*
X570791Y61592D01*
X570948Y61564D01*
X571114Y61527D01*
X571290Y61481D01*
X571475Y61426D01*
X571660Y61352D01*
X571854Y61269D01*
X572039Y61167D01*
X572224Y61047D01*
X572399Y60908D01*
X572566Y60751D01*
X572575Y60742D01*
X572603Y60714D01*
X572649Y60658D01*
X572695Y60594D01*
X572760Y60501D01*
X572834Y60390D01*
X572908Y60261D01*
X572991Y60113D01*
X573074Y59956D01*
X573148Y59771D01*
X573222Y59567D01*
X573287Y59355D01*
X573343Y59114D01*
X573380Y58865D01*
X573407Y58597D01*
X573417Y58310D01*
Y58291D01*
Y58245D01*
X573407Y58162D01*
Y58051D01*
X573389Y57922D01*
X573370Y57774D01*
X573343Y57598D01*
X573315Y57422D01*
X573269Y57228D01*
X573213Y57025D01*
X573139Y56821D01*
X573056Y56618D01*
X572963Y56424D01*
X572843Y56230D01*
X572714Y56045D01*
X572566Y55869D01*
X572557Y55860D01*
X572529Y55832D01*
X572483Y55786D01*
X572409Y55730D01*
X572326Y55666D01*
X572224Y55592D01*
X572104Y55518D01*
X571974Y55434D01*
X571817Y55351D01*
X571651Y55277D01*
X571466Y55203D01*
X571262Y55139D01*
X571050Y55083D01*
X570818Y55037D01*
X570578Y55009D01*
X570319Y55000D01*
X570255D01*
X570181Y55009D01*
X570088Y55019D01*
X569968Y55028D01*
X569829Y55046D01*
X569672Y55074D01*
X569506Y55111D01*
X569321Y55157D01*
X569145Y55213D01*
X568951Y55287D01*
X568766Y55370D01*
X568572Y55462D01*
X568396Y55582D01*
X568220Y55712D01*
X568054Y55869D01*
X568045Y55878D01*
X568017Y55906D01*
X567980Y55961D01*
X567925Y56026D01*
X567860Y56119D01*
X567786Y56230D01*
X567712Y56350D01*
X567638Y56498D01*
X567555Y56655D01*
X567481Y56840D01*
X567407Y57034D01*
X567342Y57247D01*
X567287Y57478D01*
X567250Y57727D01*
X567222Y57996D01*
X567213Y58273D01*
Y58282D01*
Y58319D01*
Y58365D01*
X567222Y58439D01*
Y58523D01*
X567231Y58615D01*
X567240Y58726D01*
X567250Y58846D01*
X567287Y59105D01*
X567333Y59382D01*
X567407Y59660D01*
X567499Y59919D01*
Y59928D01*
X567509Y59937D01*
X567527Y59965D01*
X567536Y60002D01*
X567592Y60094D01*
X567657Y60215D01*
X567740Y60353D01*
X567841Y60492D01*
X567962Y60649D01*
X568091Y60797D01*
X568100Y60806D01*
X568110Y60816D01*
X568156Y60862D01*
X568239Y60936D01*
X568341Y61019D01*
X568461Y61111D01*
X568600Y61213D01*
X568757Y61305D01*
X568923Y61379D01*
X568932D01*
X568951Y61389D01*
X568988Y61407D01*
X569034Y61416D01*
X569090Y61444D01*
X569154Y61463D01*
X569238Y61481D01*
X569321Y61509D01*
X569524Y61555D01*
X569755Y61601D01*
X570023Y61629D01*
X570301Y61638D01*
X570365D01*
X570439Y61629D01*
D02*
G37*
G36*
X634873Y46288D02*
X632552D01*
X632358Y45198D01*
X632367D01*
X632377Y45207D01*
X632432Y45234D01*
X632515Y45262D01*
X632617Y45308D01*
X632746Y45345D01*
X632885Y45373D01*
X633042Y45401D01*
X633199Y45410D01*
X633283D01*
X633338Y45401D01*
X633403Y45392D01*
X633486Y45382D01*
X633578Y45364D01*
X633680Y45336D01*
X633893Y45262D01*
X634013Y45216D01*
X634124Y45160D01*
X634244Y45086D01*
X634364Y45003D01*
X634475Y44911D01*
X634586Y44809D01*
X634595Y44800D01*
X634614Y44781D01*
X634642Y44745D01*
X634679Y44698D01*
X634716Y44643D01*
X634771Y44569D01*
X634817Y44486D01*
X634873Y44393D01*
X634928Y44291D01*
X634975Y44171D01*
X635030Y44042D01*
X635067Y43912D01*
X635104Y43764D01*
X635132Y43607D01*
X635150Y43441D01*
X635159Y43265D01*
Y43256D01*
Y43228D01*
Y43191D01*
X635150Y43136D01*
Y43062D01*
X635132Y42979D01*
X635122Y42886D01*
X635104Y42794D01*
X635048Y42572D01*
X634965Y42331D01*
X634910Y42202D01*
X634854Y42082D01*
X634780Y41961D01*
X634697Y41841D01*
X634688Y41832D01*
X634669Y41804D01*
X634632Y41767D01*
X634586Y41712D01*
X634521Y41647D01*
X634438Y41573D01*
X634346Y41499D01*
X634244Y41425D01*
X634124Y41342D01*
X633994Y41268D01*
X633856Y41194D01*
X633699Y41129D01*
X633532Y41074D01*
X633357Y41037D01*
X633162Y41009D01*
X632959Y41000D01*
X632876D01*
X632811Y41009D01*
X632737Y41019D01*
X632645Y41028D01*
X632552Y41037D01*
X632441Y41055D01*
X632219Y41111D01*
X631970Y41203D01*
X631850Y41250D01*
X631729Y41314D01*
X631618Y41388D01*
X631507Y41472D01*
X631498Y41481D01*
X631480Y41490D01*
X631452Y41518D01*
X631415Y41555D01*
X631378Y41610D01*
X631323Y41666D01*
X631276Y41730D01*
X631221Y41804D01*
X631156Y41897D01*
X631101Y41989D01*
X630999Y42211D01*
X630906Y42461D01*
X630879Y42600D01*
X630851Y42747D01*
X632071Y42877D01*
Y42858D01*
X632081Y42812D01*
X632099Y42729D01*
X632127Y42636D01*
X632164Y42535D01*
X632219Y42424D01*
X632293Y42322D01*
X632377Y42220D01*
X632386Y42211D01*
X632423Y42183D01*
X632478Y42146D01*
X632552Y42100D01*
X632635Y42054D01*
X632737Y42017D01*
X632857Y41989D01*
X632977Y41980D01*
X632996D01*
X633042Y41989D01*
X633116Y41999D01*
X633209Y42017D01*
X633310Y42054D01*
X633421Y42109D01*
X633532Y42193D01*
X633634Y42294D01*
X633643Y42313D01*
X633680Y42350D01*
X633717Y42424D01*
X633773Y42535D01*
X633819Y42664D01*
X633865Y42821D01*
X633893Y43015D01*
X633902Y43237D01*
Y43247D01*
Y43265D01*
Y43293D01*
Y43339D01*
X633893Y43441D01*
X633865Y43570D01*
X633837Y43718D01*
X633791Y43866D01*
X633726Y44005D01*
X633634Y44125D01*
X633625Y44134D01*
X633588Y44171D01*
X633523Y44218D01*
X633449Y44282D01*
X633347Y44338D01*
X633227Y44384D01*
X633088Y44421D01*
X632940Y44430D01*
X632885D01*
X632848Y44421D01*
X632756Y44402D01*
X632626Y44375D01*
X632478Y44319D01*
X632321Y44236D01*
X632238Y44180D01*
X632155Y44116D01*
X632071Y44042D01*
X631988Y43959D01*
X630999Y44097D01*
X631628Y47435D01*
X634873D01*
Y46288D01*
D02*
G37*
G36*
X630416Y41120D02*
X629020D01*
X628466Y42572D01*
X625895D01*
X625368Y41120D01*
X624000D01*
X626478Y47518D01*
X627846D01*
X630416Y41120D01*
D02*
G37*
G36*
X612429Y43358D02*
X613224D01*
Y42285D01*
X612429D01*
Y41000D01*
X611246D01*
Y42285D01*
X608620D01*
Y43348D01*
X611394Y47426D01*
X612429D01*
Y43358D01*
D02*
G37*
G36*
X608416Y41000D02*
X607020D01*
X606466Y42452D01*
X603895D01*
X603368Y41000D01*
X602000D01*
X604478Y47398D01*
X605846D01*
X608416Y41000D01*
D02*
G37*
G36*
X587996Y47546D02*
X588079Y47537D01*
X588162Y47527D01*
X588264Y47509D01*
X588366Y47481D01*
X588597Y47416D01*
X588717Y47370D01*
X588847Y47305D01*
X588967Y47241D01*
X589078Y47167D01*
X589198Y47074D01*
X589300Y46973D01*
X589309Y46963D01*
X589318Y46954D01*
X589346Y46926D01*
X589374Y46889D01*
X589448Y46797D01*
X589531Y46667D01*
X589614Y46510D01*
X589679Y46325D01*
X589734Y46122D01*
X589743Y46020D01*
X589753Y45909D01*
Y45900D01*
Y45872D01*
X589743Y45826D01*
X589734Y45771D01*
X589725Y45697D01*
X589706Y45613D01*
X589679Y45521D01*
X589642Y45419D01*
X589586Y45318D01*
X589531Y45207D01*
X589457Y45096D01*
X589364Y44985D01*
X589253Y44874D01*
X589133Y44763D01*
X588994Y44661D01*
X588828Y44560D01*
X588837D01*
X588856Y44550D01*
X588884D01*
X588921Y44532D01*
X589022Y44504D01*
X589142Y44449D01*
X589281Y44375D01*
X589429Y44282D01*
X589577Y44162D01*
X589706Y44023D01*
X589725Y44005D01*
X589762Y43949D01*
X589808Y43866D01*
X589873Y43746D01*
X589938Y43607D01*
X589984Y43432D01*
X590021Y43247D01*
X590039Y43034D01*
Y43025D01*
Y42997D01*
Y42951D01*
X590030Y42895D01*
X590021Y42821D01*
X590002Y42738D01*
X589984Y42636D01*
X589965Y42535D01*
X589891Y42313D01*
X589836Y42193D01*
X589780Y42063D01*
X589706Y41943D01*
X589623Y41823D01*
X589531Y41703D01*
X589420Y41592D01*
X589411Y41582D01*
X589392Y41564D01*
X589355Y41536D01*
X589309Y41499D01*
X589244Y41453D01*
X589179Y41407D01*
X589087Y41351D01*
X588994Y41296D01*
X588893Y41240D01*
X588773Y41185D01*
X588643Y41139D01*
X588514Y41093D01*
X588366Y41055D01*
X588218Y41028D01*
X588051Y41009D01*
X587885Y41000D01*
X587802D01*
X587737Y41009D01*
X587663Y41019D01*
X587580Y41028D01*
X587487Y41046D01*
X587377Y41065D01*
X587155Y41120D01*
X586914Y41213D01*
X586785Y41268D01*
X586674Y41333D01*
X586554Y41416D01*
X586443Y41499D01*
X586433Y41508D01*
X586415Y41527D01*
X586387Y41555D01*
X586350Y41592D01*
X586304Y41638D01*
X586258Y41703D01*
X586202Y41767D01*
X586147Y41851D01*
X586091Y41943D01*
X586027Y42035D01*
X585925Y42257D01*
X585842Y42516D01*
X585805Y42655D01*
X585786Y42803D01*
X586970Y42951D01*
Y42942D01*
Y42932D01*
X586979Y42877D01*
X586997Y42794D01*
X587025Y42692D01*
X587071Y42581D01*
X587118Y42461D01*
X587192Y42350D01*
X587275Y42248D01*
X587284Y42239D01*
X587321Y42211D01*
X587377Y42174D01*
X587441Y42137D01*
X587534Y42091D01*
X587635Y42054D01*
X587746Y42026D01*
X587876Y42017D01*
X587894D01*
X587940Y42026D01*
X588005Y42035D01*
X588098Y42054D01*
X588199Y42091D01*
X588301Y42137D01*
X588412Y42211D01*
X588514Y42304D01*
X588523Y42313D01*
X588560Y42359D01*
X588597Y42424D01*
X588652Y42507D01*
X588699Y42618D01*
X588745Y42757D01*
X588773Y42914D01*
X588782Y43089D01*
Y43099D01*
Y43108D01*
Y43163D01*
X588773Y43247D01*
X588754Y43358D01*
X588717Y43478D01*
X588671Y43598D01*
X588606Y43718D01*
X588523Y43829D01*
X588514Y43838D01*
X588477Y43875D01*
X588421Y43922D01*
X588357Y43968D01*
X588264Y44023D01*
X588162Y44060D01*
X588051Y44097D01*
X587922Y44106D01*
X587830D01*
X587765Y44097D01*
X587682Y44088D01*
X587580Y44069D01*
X587478Y44042D01*
X587358Y44014D01*
X587487Y45003D01*
X587571D01*
X587663Y45013D01*
X587774Y45022D01*
X587894Y45050D01*
X588024Y45086D01*
X588144Y45142D01*
X588255Y45216D01*
X588264Y45225D01*
X588301Y45262D01*
X588338Y45308D01*
X588394Y45382D01*
X588440Y45466D01*
X588486Y45567D01*
X588514Y45687D01*
X588523Y45826D01*
Y45845D01*
Y45882D01*
X588514Y45937D01*
X588495Y46011D01*
X588477Y46094D01*
X588440Y46178D01*
X588394Y46270D01*
X588329Y46344D01*
X588320Y46353D01*
X588292Y46372D01*
X588255Y46409D01*
X588190Y46446D01*
X588116Y46473D01*
X588033Y46510D01*
X587922Y46529D01*
X587811Y46538D01*
X587756D01*
X587700Y46529D01*
X587626Y46510D01*
X587543Y46483D01*
X587450Y46446D01*
X587358Y46390D01*
X587275Y46316D01*
X587266Y46307D01*
X587238Y46279D01*
X587201Y46224D01*
X587155Y46150D01*
X587108Y46067D01*
X587071Y45956D01*
X587034Y45826D01*
X587007Y45678D01*
X585879Y45863D01*
Y45872D01*
X585888Y45891D01*
Y45919D01*
X585897Y45965D01*
X585925Y46067D01*
X585962Y46205D01*
X586017Y46353D01*
X586073Y46510D01*
X586147Y46658D01*
X586230Y46797D01*
X586239Y46816D01*
X586276Y46852D01*
X586332Y46917D01*
X586406Y47000D01*
X586498Y47084D01*
X586609Y47176D01*
X586748Y47269D01*
X586896Y47352D01*
X586905D01*
X586914Y47361D01*
X586970Y47379D01*
X587062Y47416D01*
X587173Y47453D01*
X587312Y47490D01*
X587478Y47527D01*
X587654Y47546D01*
X587848Y47555D01*
X587931D01*
X587996Y47546D01*
D02*
G37*
G36*
X585416Y41120D02*
X584020D01*
X583466Y42572D01*
X580895D01*
X580368Y41120D01*
X579000D01*
X581478Y47518D01*
X582846D01*
X585416Y41120D01*
D02*
G37*
G36*
X563098Y47426D02*
X563181Y47416D01*
X563273Y47407D01*
X563375Y47389D01*
X563486Y47370D01*
X563726Y47305D01*
X563967Y47213D01*
X564096Y47158D01*
X564207Y47093D01*
X564327Y47010D01*
X564429Y46917D01*
X564438Y46908D01*
X564457Y46899D01*
X564475Y46862D01*
X564512Y46825D01*
X564558Y46778D01*
X564605Y46714D01*
X564651Y46649D01*
X564706Y46566D01*
X564799Y46381D01*
X564891Y46168D01*
X564928Y46048D01*
X564947Y45919D01*
X564965Y45780D01*
X564975Y45641D01*
Y45623D01*
Y45567D01*
X564965Y45484D01*
X564956Y45382D01*
X564938Y45253D01*
X564910Y45114D01*
X564873Y44966D01*
X564817Y44818D01*
X564808Y44800D01*
X564790Y44754D01*
X564753Y44671D01*
X564697Y44569D01*
X564632Y44449D01*
X564549Y44310D01*
X564448Y44162D01*
X564327Y44005D01*
X564318Y43996D01*
X564281Y43949D01*
X564226Y43885D01*
X564142Y43792D01*
X564031Y43681D01*
X563893Y43533D01*
X563726Y43376D01*
X563523Y43182D01*
X563514Y43173D01*
X563495Y43163D01*
X563467Y43136D01*
X563430Y43099D01*
X563329Y43006D01*
X563209Y42895D01*
X563088Y42775D01*
X562968Y42655D01*
X562857Y42553D01*
X562820Y42507D01*
X562783Y42470D01*
X562774Y42461D01*
X562756Y42442D01*
X562728Y42405D01*
X562691Y42359D01*
X562608Y42257D01*
X562534Y42137D01*
X564975D01*
Y41000D01*
X560675D01*
Y41009D01*
Y41028D01*
X560685Y41065D01*
X560694Y41111D01*
X560703Y41166D01*
X560712Y41231D01*
X560749Y41398D01*
X560805Y41582D01*
X560879Y41786D01*
X560971Y42008D01*
X561091Y42220D01*
Y42230D01*
X561110Y42248D01*
X561128Y42285D01*
X561165Y42322D01*
X561202Y42387D01*
X561258Y42452D01*
X561323Y42535D01*
X561396Y42627D01*
X561480Y42738D01*
X561581Y42849D01*
X561692Y42979D01*
X561822Y43117D01*
X561960Y43256D01*
X562118Y43413D01*
X562284Y43580D01*
X562469Y43755D01*
X562478Y43764D01*
X562506Y43792D01*
X562543Y43829D01*
X562598Y43885D01*
X562672Y43940D01*
X562746Y44014D01*
X562913Y44180D01*
X563079Y44356D01*
X563246Y44532D01*
X563320Y44606D01*
X563394Y44689D01*
X563449Y44754D01*
X563486Y44809D01*
X563495Y44828D01*
X563523Y44874D01*
X563569Y44948D01*
X563615Y45050D01*
X563662Y45160D01*
X563708Y45290D01*
X563736Y45419D01*
X563745Y45558D01*
Y45567D01*
Y45577D01*
Y45623D01*
X563736Y45706D01*
X563717Y45799D01*
X563689Y45900D01*
X563652Y46002D01*
X563597Y46104D01*
X563523Y46196D01*
X563514Y46205D01*
X563486Y46233D01*
X563430Y46270D01*
X563366Y46307D01*
X563273Y46344D01*
X563172Y46381D01*
X563051Y46409D01*
X562913Y46418D01*
X562848D01*
X562774Y46409D01*
X562691Y46390D01*
X562589Y46362D01*
X562487Y46316D01*
X562386Y46261D01*
X562293Y46187D01*
X562284Y46178D01*
X562256Y46140D01*
X562219Y46085D01*
X562182Y46002D01*
X562136Y45900D01*
X562099Y45761D01*
X562062Y45604D01*
X562044Y45419D01*
X560823Y45540D01*
Y45549D01*
X560832Y45586D01*
Y45632D01*
X560851Y45706D01*
X560860Y45789D01*
X560888Y45882D01*
X560916Y45983D01*
X560943Y46104D01*
X561036Y46335D01*
X561147Y46575D01*
X561221Y46695D01*
X561304Y46806D01*
X561396Y46899D01*
X561498Y46991D01*
X561507Y47000D01*
X561526Y47010D01*
X561554Y47028D01*
X561600Y47065D01*
X561655Y47093D01*
X561729Y47130D01*
X561803Y47176D01*
X561896Y47213D01*
X561997Y47259D01*
X562108Y47296D01*
X562349Y47370D01*
X562635Y47416D01*
X562783Y47426D01*
X562940Y47435D01*
X563033D01*
X563098Y47426D01*
D02*
G37*
G36*
X560416Y41000D02*
X559020D01*
X558466Y42452D01*
X555895D01*
X555368Y41000D01*
X554000D01*
X556478Y47398D01*
X557846D01*
X560416Y41000D01*
D02*
G37*
G36*
X539967D02*
X538737D01*
Y45632D01*
X538728Y45623D01*
X538709Y45604D01*
X538672Y45577D01*
X538617Y45530D01*
X538552Y45475D01*
X538478Y45419D01*
X538386Y45355D01*
X538284Y45281D01*
X538173Y45207D01*
X538053Y45133D01*
X537924Y45050D01*
X537785Y44976D01*
X537489Y44837D01*
X537156Y44707D01*
Y45817D01*
X537165D01*
X537175Y45826D01*
X537202Y45835D01*
X537239Y45845D01*
X537332Y45891D01*
X537461Y45946D01*
X537618Y46020D01*
X537794Y46122D01*
X537988Y46252D01*
X538192Y46399D01*
X538201Y46409D01*
X538219Y46418D01*
X538247Y46446D01*
X538284Y46483D01*
X538386Y46575D01*
X538497Y46695D01*
X538626Y46843D01*
X538756Y47028D01*
X538876Y47222D01*
X538968Y47435D01*
X539967D01*
Y41000D01*
D02*
G37*
G36*
X536417D02*
X535020D01*
X534466Y42452D01*
X531895D01*
X531368Y41000D01*
X530000D01*
X532478Y47398D01*
X533846D01*
X536417Y41000D01*
D02*
G37*
G36*
X509417Y41120D02*
X508020D01*
X507466Y42572D01*
X504895D01*
X504368Y41120D01*
X503000D01*
X505478Y47518D01*
X506846D01*
X509417Y41120D01*
D02*
G37*
G36*
X512061Y47546D02*
X512135Y47537D01*
X512227Y47518D01*
X512320Y47500D01*
X512430Y47472D01*
X512551Y47435D01*
X512662Y47389D01*
X512782Y47343D01*
X512902Y47278D01*
X513022Y47194D01*
X513142Y47111D01*
X513253Y47010D01*
X513355Y46889D01*
X513364Y46880D01*
X513383Y46852D01*
X513411Y46806D01*
X513457Y46741D01*
X513503Y46649D01*
X513559Y46538D01*
X513614Y46418D01*
X513669Y46261D01*
X513725Y46094D01*
X513790Y45900D01*
X513836Y45687D01*
X513882Y45447D01*
X513928Y45188D01*
X513956Y44911D01*
X513974Y44606D01*
X513984Y44273D01*
Y44264D01*
Y44254D01*
Y44227D01*
Y44190D01*
Y44097D01*
X513974Y43977D01*
X513965Y43829D01*
X513947Y43653D01*
X513928Y43469D01*
X513910Y43265D01*
X513873Y43053D01*
X513827Y42831D01*
X513780Y42618D01*
X513716Y42405D01*
X513651Y42193D01*
X513559Y41999D01*
X513466Y41814D01*
X513355Y41656D01*
X513346Y41647D01*
X513327Y41629D01*
X513300Y41592D01*
X513263Y41555D01*
X513207Y41508D01*
X513142Y41453D01*
X513059Y41388D01*
X512976Y41333D01*
X512874Y41268D01*
X512773Y41203D01*
X512652Y41148D01*
X512523Y41102D01*
X512384Y41065D01*
X512227Y41028D01*
X512070Y41009D01*
X511903Y41000D01*
X511866D01*
X511811Y41009D01*
X511746D01*
X511672Y41019D01*
X511580Y41037D01*
X511478Y41055D01*
X511367Y41093D01*
X511247Y41129D01*
X511127Y41176D01*
X510998Y41231D01*
X510877Y41305D01*
X510748Y41379D01*
X510628Y41481D01*
X510507Y41582D01*
X510396Y41712D01*
X510387Y41721D01*
X510369Y41749D01*
X510341Y41795D01*
X510313Y41851D01*
X510267Y41934D01*
X510221Y42035D01*
X510165Y42165D01*
X510119Y42304D01*
X510064Y42470D01*
X510008Y42655D01*
X509962Y42868D01*
X509925Y43099D01*
X509888Y43358D01*
X509860Y43644D01*
X509842Y43949D01*
X509832Y44282D01*
Y44291D01*
Y44301D01*
Y44328D01*
Y44365D01*
Y44458D01*
X509842Y44578D01*
X509851Y44726D01*
X509869Y44902D01*
X509888Y45086D01*
X509907Y45290D01*
X509944Y45503D01*
X509980Y45715D01*
X510036Y45937D01*
X510091Y46150D01*
X510165Y46353D01*
X510249Y46547D01*
X510341Y46732D01*
X510452Y46889D01*
X510461Y46899D01*
X510480Y46917D01*
X510507Y46954D01*
X510554Y46991D01*
X510600Y47047D01*
X510665Y47102D01*
X510748Y47158D01*
X510831Y47222D01*
X510933Y47287D01*
X511034Y47343D01*
X511155Y47398D01*
X511284Y47453D01*
X511423Y47490D01*
X511580Y47527D01*
X511737Y47546D01*
X511903Y47555D01*
X511996D01*
X512061Y47546D01*
D02*
G37*
G36*
X297814Y492546D02*
X297897Y492537D01*
X297980Y492527D01*
X298082Y492509D01*
X298184Y492481D01*
X298415Y492416D01*
X298535Y492370D01*
X298665Y492305D01*
X298785Y492241D01*
X298896Y492167D01*
X299016Y492074D01*
X299118Y491973D01*
X299127Y491963D01*
X299136Y491954D01*
X299164Y491926D01*
X299192Y491889D01*
X299266Y491797D01*
X299349Y491668D01*
X299432Y491510D01*
X299497Y491325D01*
X299552Y491122D01*
X299561Y491020D01*
X299571Y490909D01*
Y490900D01*
Y490872D01*
X299561Y490826D01*
X299552Y490771D01*
X299543Y490697D01*
X299524Y490614D01*
X299497Y490521D01*
X299460Y490419D01*
X299404Y490318D01*
X299349Y490207D01*
X299275Y490096D01*
X299182Y489985D01*
X299071Y489874D01*
X298951Y489763D01*
X298813Y489661D01*
X298646Y489560D01*
X298655D01*
X298674Y489550D01*
X298702D01*
X298739Y489532D01*
X298840Y489504D01*
X298960Y489449D01*
X299099Y489375D01*
X299247Y489282D01*
X299395Y489162D01*
X299524Y489023D01*
X299543Y489005D01*
X299580Y488949D01*
X299626Y488866D01*
X299691Y488746D01*
X299756Y488607D01*
X299802Y488432D01*
X299839Y488247D01*
X299857Y488034D01*
Y488025D01*
Y487997D01*
Y487951D01*
X299848Y487895D01*
X299839Y487821D01*
X299820Y487738D01*
X299802Y487636D01*
X299783Y487535D01*
X299709Y487313D01*
X299654Y487193D01*
X299598Y487063D01*
X299524Y486943D01*
X299441Y486823D01*
X299349Y486703D01*
X299238Y486592D01*
X299229Y486582D01*
X299210Y486564D01*
X299173Y486536D01*
X299127Y486499D01*
X299062Y486453D01*
X298997Y486407D01*
X298905Y486351D01*
X298813Y486296D01*
X298711Y486240D01*
X298591Y486185D01*
X298461Y486139D01*
X298332Y486092D01*
X298184Y486055D01*
X298036Y486028D01*
X297869Y486009D01*
X297703Y486000D01*
X297620D01*
X297555Y486009D01*
X297481Y486018D01*
X297398Y486028D01*
X297306Y486046D01*
X297195Y486065D01*
X296973Y486120D01*
X296732Y486213D01*
X296603Y486268D01*
X296492Y486333D01*
X296372Y486416D01*
X296261Y486499D01*
X296252Y486508D01*
X296233Y486527D01*
X296205Y486555D01*
X296168Y486592D01*
X296122Y486638D01*
X296076Y486703D01*
X296020Y486767D01*
X295965Y486851D01*
X295909Y486943D01*
X295845Y487035D01*
X295743Y487257D01*
X295660Y487516D01*
X295623Y487655D01*
X295604Y487803D01*
X296788Y487951D01*
Y487942D01*
Y487932D01*
X296797Y487877D01*
X296815Y487794D01*
X296843Y487692D01*
X296889Y487581D01*
X296936Y487461D01*
X297010Y487350D01*
X297093Y487248D01*
X297102Y487239D01*
X297139Y487211D01*
X297195Y487174D01*
X297259Y487137D01*
X297352Y487091D01*
X297453Y487054D01*
X297564Y487026D01*
X297694Y487017D01*
X297712D01*
X297759Y487026D01*
X297823Y487035D01*
X297916Y487054D01*
X298017Y487091D01*
X298119Y487137D01*
X298230Y487211D01*
X298332Y487304D01*
X298341Y487313D01*
X298378Y487359D01*
X298415Y487424D01*
X298470Y487507D01*
X298517Y487618D01*
X298563Y487757D01*
X298591Y487914D01*
X298600Y488089D01*
Y488099D01*
Y488108D01*
Y488163D01*
X298591Y488247D01*
X298572Y488358D01*
X298535Y488478D01*
X298489Y488598D01*
X298424Y488718D01*
X298341Y488829D01*
X298332Y488838D01*
X298295Y488875D01*
X298239Y488922D01*
X298175Y488968D01*
X298082Y489023D01*
X297980Y489060D01*
X297869Y489097D01*
X297740Y489106D01*
X297648D01*
X297583Y489097D01*
X297500Y489088D01*
X297398Y489070D01*
X297296Y489042D01*
X297176Y489014D01*
X297306Y490003D01*
X297389D01*
X297481Y490013D01*
X297592Y490022D01*
X297712Y490050D01*
X297842Y490087D01*
X297962Y490142D01*
X298073Y490216D01*
X298082Y490225D01*
X298119Y490262D01*
X298156Y490308D01*
X298212Y490382D01*
X298258Y490466D01*
X298304Y490567D01*
X298332Y490687D01*
X298341Y490826D01*
Y490845D01*
Y490882D01*
X298332Y490937D01*
X298313Y491011D01*
X298295Y491094D01*
X298258Y491177D01*
X298212Y491270D01*
X298147Y491344D01*
X298138Y491353D01*
X298110Y491372D01*
X298073Y491409D01*
X298008Y491446D01*
X297934Y491473D01*
X297851Y491510D01*
X297740Y491529D01*
X297629Y491538D01*
X297574D01*
X297518Y491529D01*
X297444Y491510D01*
X297361Y491483D01*
X297269Y491446D01*
X297176Y491390D01*
X297093Y491316D01*
X297084Y491307D01*
X297056Y491279D01*
X297019Y491224D01*
X296973Y491150D01*
X296926Y491067D01*
X296889Y490956D01*
X296852Y490826D01*
X296825Y490678D01*
X295697Y490863D01*
Y490872D01*
X295706Y490891D01*
Y490919D01*
X295715Y490965D01*
X295743Y491067D01*
X295780Y491205D01*
X295835Y491353D01*
X295891Y491510D01*
X295965Y491658D01*
X296048Y491797D01*
X296057Y491815D01*
X296094Y491852D01*
X296150Y491917D01*
X296224Y492000D01*
X296316Y492084D01*
X296427Y492176D01*
X296566Y492268D01*
X296714Y492352D01*
X296723D01*
X296732Y492361D01*
X296788Y492379D01*
X296880Y492416D01*
X296991Y492453D01*
X297130Y492490D01*
X297296Y492527D01*
X297472Y492546D01*
X297666Y492555D01*
X297749D01*
X297814Y492546D01*
D02*
G37*
G36*
X293811Y486120D02*
X292581D01*
Y490752D01*
X292572Y490743D01*
X292553Y490724D01*
X292516Y490697D01*
X292461Y490650D01*
X292396Y490595D01*
X292322Y490540D01*
X292230Y490475D01*
X292128Y490401D01*
X292017Y490327D01*
X291897Y490253D01*
X291767Y490170D01*
X291629Y490096D01*
X291333Y489957D01*
X291000Y489828D01*
Y490937D01*
X291009D01*
X291019Y490946D01*
X291046Y490956D01*
X291083Y490965D01*
X291176Y491011D01*
X291305Y491067D01*
X291462Y491141D01*
X291638Y491242D01*
X291832Y491372D01*
X292036Y491520D01*
X292045Y491529D01*
X292063Y491538D01*
X292091Y491566D01*
X292128Y491603D01*
X292230Y491695D01*
X292341Y491815D01*
X292470Y491963D01*
X292600Y492148D01*
X292720Y492342D01*
X292812Y492555D01*
X293811D01*
Y486120D01*
D02*
G37*
G36*
X317916Y492426D02*
X317999Y492416D01*
X318091Y492407D01*
X318193Y492389D01*
X318304Y492370D01*
X318544Y492305D01*
X318785Y492213D01*
X318914Y492158D01*
X319025Y492093D01*
X319145Y492010D01*
X319247Y491917D01*
X319256Y491908D01*
X319275Y491899D01*
X319293Y491862D01*
X319330Y491825D01*
X319377Y491778D01*
X319423Y491714D01*
X319469Y491649D01*
X319524Y491566D01*
X319617Y491381D01*
X319709Y491168D01*
X319746Y491048D01*
X319765Y490919D01*
X319783Y490780D01*
X319793Y490641D01*
Y490623D01*
Y490567D01*
X319783Y490484D01*
X319774Y490382D01*
X319756Y490253D01*
X319728Y490114D01*
X319691Y489966D01*
X319635Y489818D01*
X319626Y489800D01*
X319608Y489754D01*
X319571Y489670D01*
X319515Y489569D01*
X319450Y489449D01*
X319367Y489310D01*
X319266Y489162D01*
X319145Y489005D01*
X319136Y488996D01*
X319099Y488949D01*
X319044Y488885D01*
X318960Y488792D01*
X318850Y488681D01*
X318711Y488533D01*
X318544Y488376D01*
X318341Y488182D01*
X318332Y488173D01*
X318313Y488163D01*
X318286Y488136D01*
X318249Y488099D01*
X318147Y488006D01*
X318027Y487895D01*
X317906Y487775D01*
X317786Y487655D01*
X317675Y487553D01*
X317638Y487507D01*
X317601Y487470D01*
X317592Y487461D01*
X317574Y487442D01*
X317546Y487405D01*
X317509Y487359D01*
X317426Y487257D01*
X317352Y487137D01*
X319793D01*
Y486000D01*
X315493D01*
Y486009D01*
Y486028D01*
X315503Y486065D01*
X315512Y486111D01*
X315521Y486166D01*
X315530Y486231D01*
X315567Y486398D01*
X315623Y486582D01*
X315697Y486786D01*
X315789Y487008D01*
X315909Y487220D01*
Y487230D01*
X315928Y487248D01*
X315946Y487285D01*
X315983Y487322D01*
X316020Y487387D01*
X316076Y487452D01*
X316140Y487535D01*
X316215Y487627D01*
X316298Y487738D01*
X316399Y487849D01*
X316510Y487979D01*
X316640Y488117D01*
X316779Y488256D01*
X316936Y488413D01*
X317102Y488579D01*
X317287Y488755D01*
X317296Y488764D01*
X317324Y488792D01*
X317361Y488829D01*
X317416Y488885D01*
X317490Y488940D01*
X317564Y489014D01*
X317731Y489180D01*
X317897Y489356D01*
X318064Y489532D01*
X318138Y489606D01*
X318212Y489689D01*
X318267Y489754D01*
X318304Y489809D01*
X318313Y489828D01*
X318341Y489874D01*
X318387Y489948D01*
X318433Y490050D01*
X318480Y490160D01*
X318526Y490290D01*
X318554Y490419D01*
X318563Y490558D01*
Y490567D01*
Y490577D01*
Y490623D01*
X318554Y490706D01*
X318535Y490798D01*
X318507Y490900D01*
X318470Y491002D01*
X318415Y491104D01*
X318341Y491196D01*
X318332Y491205D01*
X318304Y491233D01*
X318249Y491270D01*
X318184Y491307D01*
X318091Y491344D01*
X317990Y491381D01*
X317869Y491409D01*
X317731Y491418D01*
X317666D01*
X317592Y491409D01*
X317509Y491390D01*
X317407Y491362D01*
X317306Y491316D01*
X317204Y491261D01*
X317111Y491187D01*
X317102Y491177D01*
X317074Y491141D01*
X317037Y491085D01*
X317000Y491002D01*
X316954Y490900D01*
X316917Y490761D01*
X316880Y490604D01*
X316862Y490419D01*
X315641Y490540D01*
Y490549D01*
X315651Y490586D01*
Y490632D01*
X315669Y490706D01*
X315678Y490789D01*
X315706Y490882D01*
X315734Y490983D01*
X315762Y491104D01*
X315854Y491335D01*
X315965Y491575D01*
X316039Y491695D01*
X316122Y491806D01*
X316215Y491899D01*
X316316Y491991D01*
X316325Y492000D01*
X316344Y492010D01*
X316372Y492028D01*
X316418Y492065D01*
X316473Y492093D01*
X316547Y492130D01*
X316621Y492176D01*
X316714Y492213D01*
X316815Y492259D01*
X316926Y492296D01*
X317167Y492370D01*
X317453Y492416D01*
X317601Y492426D01*
X317759Y492435D01*
X317851D01*
X317916Y492426D01*
D02*
G37*
G36*
X313811Y486000D02*
X312581D01*
Y490632D01*
X312572Y490623D01*
X312553Y490604D01*
X312516Y490577D01*
X312461Y490530D01*
X312396Y490475D01*
X312322Y490419D01*
X312230Y490355D01*
X312128Y490281D01*
X312017Y490207D01*
X311897Y490133D01*
X311767Y490050D01*
X311629Y489976D01*
X311333Y489837D01*
X311000Y489707D01*
Y490817D01*
X311009D01*
X311019Y490826D01*
X311046Y490835D01*
X311083Y490845D01*
X311176Y490891D01*
X311305Y490946D01*
X311462Y491020D01*
X311638Y491122D01*
X311832Y491251D01*
X312036Y491399D01*
X312045Y491409D01*
X312063Y491418D01*
X312091Y491446D01*
X312128Y491483D01*
X312230Y491575D01*
X312341Y491695D01*
X312470Y491843D01*
X312600Y492028D01*
X312720Y492222D01*
X312812Y492435D01*
X313811D01*
Y486000D01*
D02*
G37*
G36*
X336632Y488848D02*
X336623Y488838D01*
X336595Y488811D01*
X336549Y488774D01*
X336484Y488718D01*
X336401Y488653D01*
X336308Y488589D01*
X336198Y488524D01*
X336068Y488450D01*
X336050Y488441D01*
X336003Y488422D01*
X335929Y488395D01*
X335837Y488367D01*
X335726Y488330D01*
X335597Y488302D01*
X335467Y488284D01*
X335319Y488274D01*
X335245D01*
X335190Y488284D01*
X335125D01*
X335051Y488293D01*
X334894Y488321D01*
X334885D01*
X334857Y488330D01*
X334801Y488348D01*
X334737Y488376D01*
X334644Y488404D01*
X334533Y488450D01*
X334395Y488496D01*
X334237Y488561D01*
X334228D01*
X334210Y488570D01*
X334173Y488589D01*
X334127Y488607D01*
X334071Y488626D01*
X334006Y488653D01*
X333858Y488709D01*
X333692Y488764D01*
X333516Y488811D01*
X333341Y488848D01*
X333183Y488857D01*
X333128D01*
X333082Y488848D01*
X333026Y488838D01*
X332962Y488829D01*
X332804Y488783D01*
X332629Y488709D01*
X332527Y488663D01*
X332425Y488607D01*
X332324Y488543D01*
X332213Y488459D01*
X332111Y488367D01*
X332000Y488265D01*
Y489402D01*
X332009Y489412D01*
X332028Y489430D01*
X332056Y489458D01*
X332102Y489495D01*
X332148Y489541D01*
X332213Y489587D01*
X332287Y489643D01*
X332370Y489698D01*
X332555Y489809D01*
X332777Y489902D01*
X332888Y489939D01*
X333017Y489966D01*
X333147Y489985D01*
X333285Y489994D01*
X333387D01*
X333452Y489985D01*
X333535D01*
X333618Y489976D01*
X333794Y489939D01*
X333803D01*
X333840Y489929D01*
X333895Y489911D01*
X333988Y489883D01*
X334099Y489846D01*
X334247Y489791D01*
X334422Y489726D01*
X334626Y489643D01*
X334635D01*
X334654Y489633D01*
X334681Y489624D01*
X334727Y489606D01*
X334829Y489569D01*
X334949Y489532D01*
X335088Y489486D01*
X335227Y489449D01*
X335347Y489421D01*
X335439Y489412D01*
X335486D01*
X335532Y489421D01*
X335597Y489430D01*
X335680Y489449D01*
X335772Y489467D01*
X335883Y489504D01*
X335994Y489550D01*
X336013Y489560D01*
X336050Y489578D01*
X336114Y489615D01*
X336198Y489661D01*
X336290Y489735D01*
X336401Y489809D01*
X336512Y489911D01*
X336632Y490022D01*
Y488848D01*
D02*
G37*
G36*
X345415Y486000D02*
X344186D01*
Y490632D01*
X344176Y490623D01*
X344158Y490604D01*
X344121Y490577D01*
X344066Y490530D01*
X344001Y490475D01*
X343927Y490419D01*
X343834Y490355D01*
X343733Y490281D01*
X343622Y490207D01*
X343502Y490133D01*
X343372Y490050D01*
X343233Y489976D01*
X342938Y489837D01*
X342605Y489707D01*
Y490817D01*
X342614D01*
X342623Y490826D01*
X342651Y490835D01*
X342688Y490845D01*
X342780Y490891D01*
X342910Y490946D01*
X343067Y491020D01*
X343243Y491122D01*
X343437Y491251D01*
X343640Y491399D01*
X343649Y491409D01*
X343668Y491418D01*
X343696Y491446D01*
X343733Y491483D01*
X343834Y491575D01*
X343945Y491695D01*
X344075Y491843D01*
X344204Y492028D01*
X344324Y492222D01*
X344417Y492435D01*
X345415D01*
Y486000D01*
D02*
G37*
G36*
X340441D02*
X339212D01*
Y490632D01*
X339202Y490623D01*
X339184Y490604D01*
X339147Y490577D01*
X339091Y490530D01*
X339027Y490475D01*
X338953Y490419D01*
X338860Y490355D01*
X338759Y490281D01*
X338648Y490207D01*
X338527Y490133D01*
X338398Y490050D01*
X338259Y489976D01*
X337963Y489837D01*
X337631Y489707D01*
Y490817D01*
X337640D01*
X337649Y490826D01*
X337677Y490835D01*
X337714Y490845D01*
X337806Y490891D01*
X337936Y490946D01*
X338093Y491020D01*
X338269Y491122D01*
X338463Y491251D01*
X338666Y491399D01*
X338675Y491409D01*
X338694Y491418D01*
X338722Y491446D01*
X338759Y491483D01*
X338860Y491575D01*
X338971Y491695D01*
X339101Y491843D01*
X339230Y492028D01*
X339350Y492222D01*
X339443Y492435D01*
X340441D01*
Y486000D01*
D02*
G37*
G36*
X362632Y488968D02*
X362623Y488959D01*
X362595Y488931D01*
X362549Y488894D01*
X362484Y488838D01*
X362401Y488774D01*
X362308Y488709D01*
X362197Y488644D01*
X362068Y488570D01*
X362050Y488561D01*
X362003Y488543D01*
X361929Y488515D01*
X361837Y488487D01*
X361726Y488450D01*
X361596Y488422D01*
X361467Y488404D01*
X361319Y488395D01*
X361245D01*
X361190Y488404D01*
X361125D01*
X361051Y488413D01*
X360894Y488441D01*
X360885D01*
X360857Y488450D01*
X360801Y488469D01*
X360737Y488496D01*
X360644Y488524D01*
X360533Y488570D01*
X360395Y488616D01*
X360237Y488681D01*
X360228D01*
X360210Y488690D01*
X360173Y488709D01*
X360126Y488727D01*
X360071Y488746D01*
X360006Y488774D01*
X359858Y488829D01*
X359692Y488885D01*
X359516Y488931D01*
X359341Y488968D01*
X359183Y488977D01*
X359128D01*
X359082Y488968D01*
X359026Y488959D01*
X358961Y488949D01*
X358804Y488903D01*
X358629Y488829D01*
X358527Y488783D01*
X358425Y488727D01*
X358324Y488663D01*
X358213Y488579D01*
X358111Y488487D01*
X358000Y488385D01*
Y489523D01*
X358009Y489532D01*
X358028Y489550D01*
X358055Y489578D01*
X358102Y489615D01*
X358148Y489661D01*
X358213Y489707D01*
X358287Y489763D01*
X358370Y489818D01*
X358555Y489929D01*
X358777Y490022D01*
X358888Y490059D01*
X359017Y490087D01*
X359146Y490105D01*
X359285Y490114D01*
X359387D01*
X359452Y490105D01*
X359535D01*
X359618Y490096D01*
X359794Y490059D01*
X359803D01*
X359840Y490050D01*
X359895Y490031D01*
X359988Y490003D01*
X360099Y489966D01*
X360247Y489911D01*
X360422Y489846D01*
X360626Y489763D01*
X360635D01*
X360653Y489754D01*
X360681Y489744D01*
X360727Y489726D01*
X360829Y489689D01*
X360949Y489652D01*
X361088Y489606D01*
X361227Y489569D01*
X361347Y489541D01*
X361439Y489532D01*
X361486D01*
X361532Y489541D01*
X361596Y489550D01*
X361680Y489569D01*
X361772Y489587D01*
X361883Y489624D01*
X361994Y489670D01*
X362013Y489680D01*
X362050Y489698D01*
X362114Y489735D01*
X362197Y489781D01*
X362290Y489855D01*
X362401Y489929D01*
X362512Y490031D01*
X362632Y490142D01*
Y488968D01*
D02*
G37*
G36*
X366441Y486120D02*
X365212D01*
Y490752D01*
X365202Y490743D01*
X365184Y490724D01*
X365147Y490697D01*
X365091Y490650D01*
X365027Y490595D01*
X364953Y490540D01*
X364860Y490475D01*
X364758Y490401D01*
X364648Y490327D01*
X364527Y490253D01*
X364398Y490170D01*
X364259Y490096D01*
X363963Y489957D01*
X363631Y489828D01*
Y490937D01*
X363640D01*
X363649Y490946D01*
X363677Y490956D01*
X363714Y490965D01*
X363806Y491011D01*
X363936Y491067D01*
X364093Y491141D01*
X364268Y491242D01*
X364463Y491372D01*
X364666Y491520D01*
X364675Y491529D01*
X364694Y491538D01*
X364721Y491566D01*
X364758Y491603D01*
X364860Y491695D01*
X364971Y491815D01*
X365101Y491963D01*
X365230Y492148D01*
X365350Y492342D01*
X365443Y492555D01*
X366441D01*
Y486120D01*
D02*
G37*
G36*
X370509Y492546D02*
X370583Y492537D01*
X370676Y492518D01*
X370768Y492500D01*
X370879Y492472D01*
X370999Y492435D01*
X371110Y492389D01*
X371230Y492342D01*
X371351Y492278D01*
X371471Y492195D01*
X371591Y492111D01*
X371702Y492010D01*
X371804Y491889D01*
X371813Y491880D01*
X371831Y491852D01*
X371859Y491806D01*
X371905Y491741D01*
X371952Y491649D01*
X372007Y491538D01*
X372063Y491418D01*
X372118Y491261D01*
X372174Y491094D01*
X372238Y490900D01*
X372284Y490687D01*
X372331Y490447D01*
X372377Y490188D01*
X372405Y489911D01*
X372423Y489606D01*
X372432Y489273D01*
Y489264D01*
Y489254D01*
Y489227D01*
Y489190D01*
Y489097D01*
X372423Y488977D01*
X372414Y488829D01*
X372395Y488653D01*
X372377Y488469D01*
X372358Y488265D01*
X372321Y488052D01*
X372275Y487831D01*
X372229Y487618D01*
X372164Y487405D01*
X372099Y487193D01*
X372007Y486998D01*
X371915Y486814D01*
X371804Y486656D01*
X371794Y486647D01*
X371776Y486629D01*
X371748Y486592D01*
X371711Y486555D01*
X371656Y486508D01*
X371591Y486453D01*
X371508Y486388D01*
X371425Y486333D01*
X371323Y486268D01*
X371221Y486203D01*
X371101Y486148D01*
X370972Y486102D01*
X370833Y486065D01*
X370676Y486028D01*
X370518Y486009D01*
X370352Y486000D01*
X370315D01*
X370260Y486009D01*
X370195D01*
X370121Y486018D01*
X370028Y486037D01*
X369927Y486055D01*
X369816Y486092D01*
X369696Y486129D01*
X369576Y486176D01*
X369446Y486231D01*
X369326Y486305D01*
X369196Y486379D01*
X369076Y486481D01*
X368956Y486582D01*
X368845Y486712D01*
X368836Y486721D01*
X368817Y486749D01*
X368790Y486795D01*
X368762Y486851D01*
X368716Y486934D01*
X368669Y487035D01*
X368614Y487165D01*
X368568Y487304D01*
X368512Y487470D01*
X368457Y487655D01*
X368410Y487868D01*
X368374Y488099D01*
X368337Y488358D01*
X368309Y488644D01*
X368290Y488949D01*
X368281Y489282D01*
Y489291D01*
Y489301D01*
Y489328D01*
Y489365D01*
Y489458D01*
X368290Y489578D01*
X368300Y489726D01*
X368318Y489902D01*
X368337Y490087D01*
X368355Y490290D01*
X368392Y490503D01*
X368429Y490715D01*
X368484Y490937D01*
X368540Y491150D01*
X368614Y491353D01*
X368697Y491547D01*
X368790Y491732D01*
X368901Y491889D01*
X368910Y491899D01*
X368928Y491917D01*
X368956Y491954D01*
X369002Y491991D01*
X369049Y492047D01*
X369113Y492102D01*
X369196Y492158D01*
X369280Y492222D01*
X369381Y492287D01*
X369483Y492342D01*
X369603Y492398D01*
X369733Y492453D01*
X369871Y492490D01*
X370028Y492527D01*
X370186Y492546D01*
X370352Y492555D01*
X370445D01*
X370509Y492546D01*
D02*
G37*
G36*
X392632Y488968D02*
X392623Y488959D01*
X392595Y488931D01*
X392549Y488894D01*
X392484Y488838D01*
X392401Y488774D01*
X392309Y488709D01*
X392197Y488644D01*
X392068Y488570D01*
X392050Y488561D01*
X392003Y488543D01*
X391929Y488515D01*
X391837Y488487D01*
X391726Y488450D01*
X391596Y488422D01*
X391467Y488404D01*
X391319Y488395D01*
X391245D01*
X391190Y488404D01*
X391125D01*
X391051Y488413D01*
X390894Y488441D01*
X390885D01*
X390857Y488450D01*
X390801Y488469D01*
X390737Y488496D01*
X390644Y488524D01*
X390533Y488570D01*
X390395Y488616D01*
X390237Y488681D01*
X390228D01*
X390210Y488690D01*
X390173Y488709D01*
X390126Y488727D01*
X390071Y488746D01*
X390006Y488774D01*
X389858Y488829D01*
X389692Y488885D01*
X389516Y488931D01*
X389341Y488968D01*
X389183Y488977D01*
X389128D01*
X389082Y488968D01*
X389026Y488959D01*
X388962Y488949D01*
X388804Y488903D01*
X388629Y488829D01*
X388527Y488783D01*
X388425Y488727D01*
X388324Y488663D01*
X388213Y488579D01*
X388111Y488487D01*
X388000Y488385D01*
Y489523D01*
X388009Y489532D01*
X388028Y489550D01*
X388055Y489578D01*
X388102Y489615D01*
X388148Y489661D01*
X388213Y489707D01*
X388287Y489763D01*
X388370Y489818D01*
X388555Y489929D01*
X388777Y490022D01*
X388888Y490059D01*
X389017Y490087D01*
X389146Y490105D01*
X389285Y490114D01*
X389387D01*
X389452Y490105D01*
X389535D01*
X389618Y490096D01*
X389794Y490059D01*
X389803D01*
X389840Y490050D01*
X389895Y490031D01*
X389988Y490003D01*
X390099Y489966D01*
X390247Y489911D01*
X390422Y489846D01*
X390626Y489763D01*
X390635D01*
X390653Y489754D01*
X390681Y489744D01*
X390728Y489726D01*
X390829Y489689D01*
X390949Y489652D01*
X391088Y489606D01*
X391227Y489569D01*
X391347Y489541D01*
X391439Y489532D01*
X391486D01*
X391532Y489541D01*
X391596Y489550D01*
X391680Y489569D01*
X391772Y489587D01*
X391883Y489624D01*
X391994Y489670D01*
X392013Y489680D01*
X392050Y489698D01*
X392114Y489735D01*
X392197Y489781D01*
X392290Y489855D01*
X392401Y489929D01*
X392512Y490031D01*
X392632Y490142D01*
Y488968D01*
D02*
G37*
G36*
X395350Y492546D02*
X395424D01*
X395507Y492537D01*
X395600Y492518D01*
X395711Y492490D01*
X395822Y492463D01*
X395951Y492416D01*
X396081Y492370D01*
X396210Y492305D01*
X396349Y492231D01*
X396478Y492148D01*
X396608Y492047D01*
X396737Y491926D01*
X396857Y491797D01*
X396866Y491788D01*
X396885Y491760D01*
X396913Y491714D01*
X396959Y491649D01*
X397005Y491566D01*
X397061Y491464D01*
X397116Y491344D01*
X397172Y491205D01*
X397227Y491039D01*
X397292Y490854D01*
X397338Y490650D01*
X397384Y490429D01*
X397430Y490179D01*
X397458Y489911D01*
X397477Y489624D01*
X397486Y489310D01*
Y489301D01*
Y489291D01*
Y489264D01*
Y489236D01*
Y489143D01*
X397477Y489023D01*
X397467Y488875D01*
X397449Y488709D01*
X397430Y488533D01*
X397403Y488339D01*
X397366Y488126D01*
X397329Y487923D01*
X397273Y487710D01*
X397209Y487498D01*
X397135Y487304D01*
X397042Y487109D01*
X396950Y486934D01*
X396830Y486777D01*
X396820Y486767D01*
X396802Y486740D01*
X396765Y486703D01*
X396709Y486656D01*
X396645Y486601D01*
X396571Y486527D01*
X396478Y486462D01*
X396376Y486388D01*
X396266Y486314D01*
X396136Y486250D01*
X395998Y486185D01*
X395849Y486120D01*
X395683Y486074D01*
X395517Y486037D01*
X395341Y486009D01*
X395147Y486000D01*
X395073D01*
X395027Y486009D01*
X394962D01*
X394888Y486018D01*
X394712Y486046D01*
X394518Y486102D01*
X394324Y486166D01*
X394121Y486268D01*
X394028Y486324D01*
X393936Y486398D01*
X393926Y486407D01*
X393917Y486416D01*
X393890Y486444D01*
X393862Y486471D01*
X393825Y486518D01*
X393778Y486564D01*
X393741Y486629D01*
X393686Y486693D01*
X393640Y486777D01*
X393584Y486860D01*
X393538Y486962D01*
X393492Y487072D01*
X393446Y487183D01*
X393409Y487313D01*
X393372Y487442D01*
X393344Y487590D01*
X394527Y487729D01*
Y487710D01*
X394537Y487664D01*
X394546Y487599D01*
X394574Y487525D01*
X394601Y487433D01*
X394638Y487341D01*
X394685Y487257D01*
X394749Y487183D01*
X394758Y487174D01*
X394786Y487156D01*
X394823Y487128D01*
X394879Y487100D01*
X394953Y487072D01*
X395027Y487045D01*
X395128Y487026D01*
X395230Y487017D01*
X395249D01*
X395295Y487026D01*
X395359Y487035D01*
X395452Y487063D01*
X395554Y487100D01*
X395655Y487165D01*
X395766Y487248D01*
X395868Y487359D01*
X395877Y487378D01*
X395896Y487396D01*
X395914Y487433D01*
X395933Y487470D01*
X395961Y487525D01*
X395979Y487590D01*
X396016Y487673D01*
X396044Y487766D01*
X396071Y487868D01*
X396099Y487988D01*
X396127Y488117D01*
X396155Y488265D01*
X396173Y488432D01*
X396192Y488616D01*
X396210Y488811D01*
X396201Y488801D01*
X396192Y488792D01*
X396164Y488764D01*
X396127Y488727D01*
X396081Y488690D01*
X396025Y488644D01*
X395896Y488543D01*
X395729Y488441D01*
X395526Y488358D01*
X395415Y488321D01*
X395304Y488302D01*
X395184Y488284D01*
X395054Y488274D01*
X394980D01*
X394925Y488284D01*
X394860Y488293D01*
X394786Y488302D01*
X394611Y488348D01*
X394407Y488413D01*
X394305Y488469D01*
X394195Y488524D01*
X394084Y488589D01*
X393973Y488663D01*
X393862Y488755D01*
X393760Y488857D01*
X393751Y488866D01*
X393732Y488885D01*
X393714Y488922D01*
X393677Y488959D01*
X393631Y489023D01*
X393584Y489088D01*
X393538Y489171D01*
X393492Y489264D01*
X393436Y489365D01*
X393390Y489486D01*
X393344Y489606D01*
X393298Y489744D01*
X393261Y489883D01*
X393242Y490040D01*
X393224Y490207D01*
X393214Y490373D01*
Y490382D01*
Y490419D01*
Y490466D01*
X393224Y490540D01*
X393233Y490623D01*
X393242Y490715D01*
X393261Y490826D01*
X393288Y490937D01*
X393353Y491187D01*
X393399Y491325D01*
X393455Y491455D01*
X393520Y491584D01*
X393603Y491714D01*
X393686Y491834D01*
X393788Y491954D01*
X393797Y491963D01*
X393815Y491982D01*
X393843Y492010D01*
X393890Y492047D01*
X393954Y492093D01*
X394019Y492148D01*
X394102Y492195D01*
X394195Y492259D01*
X394287Y492315D01*
X394407Y492361D01*
X394527Y492416D01*
X394657Y492463D01*
X394795Y492500D01*
X394944Y492527D01*
X395091Y492546D01*
X395258Y492555D01*
X395304D01*
X395350Y492546D01*
D02*
G37*
G36*
X429228D02*
X429311Y492537D01*
X429395Y492527D01*
X429496Y492518D01*
X429598Y492500D01*
X429829Y492444D01*
X430070Y492361D01*
X430181Y492305D01*
X430301Y492241D01*
X430402Y492167D01*
X430504Y492084D01*
X430513Y492074D01*
X430523Y492065D01*
X430550Y492037D01*
X430587Y492000D01*
X430624Y491954D01*
X430661Y491899D01*
X430763Y491760D01*
X430855Y491584D01*
X430929Y491390D01*
X430994Y491159D01*
X431003Y491030D01*
X431013Y490900D01*
Y490891D01*
Y490882D01*
Y490826D01*
X431003Y490743D01*
X430985Y490632D01*
X430957Y490512D01*
X430911Y490382D01*
X430855Y490244D01*
X430772Y490105D01*
X430763Y490087D01*
X430726Y490050D01*
X430680Y489985D01*
X430606Y489911D01*
X430513Y489818D01*
X430402Y489735D01*
X430273Y489652D01*
X430125Y489578D01*
X430134D01*
X430153Y489569D01*
X430181Y489560D01*
X430218Y489541D01*
X430310Y489486D01*
X430430Y489412D01*
X430560Y489328D01*
X430698Y489217D01*
X430828Y489088D01*
X430939Y488940D01*
X430948Y488922D01*
X430985Y488866D01*
X431031Y488783D01*
X431077Y488672D01*
X431133Y488533D01*
X431170Y488367D01*
X431207Y488191D01*
X431216Y487997D01*
Y487988D01*
Y487960D01*
Y487914D01*
X431207Y487849D01*
X431198Y487775D01*
X431188Y487683D01*
X431170Y487590D01*
X431142Y487489D01*
X431077Y487257D01*
X431031Y487137D01*
X430976Y487017D01*
X430911Y486897D01*
X430828Y486777D01*
X430745Y486666D01*
X430643Y486555D01*
X430634Y486545D01*
X430615Y486527D01*
X430587Y486499D01*
X430541Y486471D01*
X430486Y486425D01*
X430412Y486379D01*
X430338Y486333D01*
X430245Y486277D01*
X430144Y486222D01*
X430023Y486176D01*
X429903Y486129D01*
X429774Y486083D01*
X429626Y486055D01*
X429469Y486028D01*
X429311Y486009D01*
X429136Y486000D01*
X429053D01*
X428988Y486009D01*
X428914Y486018D01*
X428831Y486028D01*
X428738Y486037D01*
X428627Y486055D01*
X428396Y486111D01*
X428156Y486194D01*
X428036Y486240D01*
X427915Y486305D01*
X427795Y486370D01*
X427684Y486453D01*
X427675Y486462D01*
X427656Y486481D01*
X427620Y486508D01*
X427573Y486555D01*
X427527Y486610D01*
X427472Y486675D01*
X427407Y486758D01*
X427342Y486841D01*
X427277Y486943D01*
X427213Y487054D01*
X427157Y487174D01*
X427111Y487313D01*
X427065Y487452D01*
X427028Y487609D01*
X427009Y487766D01*
X427000Y487942D01*
Y487951D01*
Y487969D01*
Y487997D01*
Y488034D01*
X427009Y488136D01*
X427028Y488256D01*
X427065Y488404D01*
X427102Y488570D01*
X427166Y488737D01*
X427250Y488903D01*
Y488912D01*
X427259Y488922D01*
X427296Y488977D01*
X427361Y489051D01*
X427453Y489153D01*
X427564Y489264D01*
X427703Y489375D01*
X427869Y489476D01*
X428063Y489578D01*
X428054D01*
X428045Y489587D01*
X427989Y489615D01*
X427906Y489661D01*
X427804Y489717D01*
X427684Y489800D01*
X427573Y489892D01*
X427462Y490003D01*
X427370Y490123D01*
X427361Y490142D01*
X427333Y490188D01*
X427305Y490253D01*
X427268Y490355D01*
X427222Y490466D01*
X427194Y490604D01*
X427166Y490743D01*
X427157Y490900D01*
Y490909D01*
Y490928D01*
Y490965D01*
X427166Y491020D01*
X427176Y491076D01*
X427185Y491150D01*
X427222Y491316D01*
X427277Y491501D01*
X427370Y491704D01*
X427425Y491797D01*
X427490Y491899D01*
X427573Y491991D01*
X427656Y492084D01*
X427666Y492093D01*
X427684Y492102D01*
X427712Y492130D01*
X427749Y492158D01*
X427804Y492195D01*
X427860Y492231D01*
X427934Y492278D01*
X428026Y492324D01*
X428119Y492361D01*
X428220Y492407D01*
X428341Y492444D01*
X428470Y492481D01*
X428609Y492509D01*
X428757Y492537D01*
X428914Y492546D01*
X429080Y492555D01*
X429173D01*
X429228Y492546D01*
D02*
G37*
G36*
X583422Y492426D02*
X583506Y492416D01*
X583598Y492407D01*
X583700Y492389D01*
X583811Y492370D01*
X584051Y492305D01*
X584291Y492213D01*
X584421Y492158D01*
X584532Y492093D01*
X584652Y492010D01*
X584754Y491917D01*
X584763Y491908D01*
X584781Y491899D01*
X584800Y491862D01*
X584837Y491825D01*
X584883Y491778D01*
X584929Y491714D01*
X584976Y491649D01*
X585031Y491566D01*
X585123Y491381D01*
X585216Y491168D01*
X585253Y491048D01*
X585271Y490919D01*
X585290Y490780D01*
X585299Y490641D01*
Y490623D01*
Y490567D01*
X585290Y490484D01*
X585281Y490382D01*
X585262Y490253D01*
X585234Y490114D01*
X585197Y489966D01*
X585142Y489818D01*
X585133Y489800D01*
X585114Y489754D01*
X585077Y489670D01*
X585022Y489569D01*
X584957Y489449D01*
X584874Y489310D01*
X584772Y489162D01*
X584652Y489005D01*
X584643Y488996D01*
X584606Y488949D01*
X584550Y488885D01*
X584467Y488792D01*
X584356Y488681D01*
X584217Y488533D01*
X584051Y488376D01*
X583848Y488182D01*
X583838Y488173D01*
X583820Y488163D01*
X583792Y488136D01*
X583755Y488099D01*
X583653Y488006D01*
X583533Y487895D01*
X583413Y487775D01*
X583293Y487655D01*
X583182Y487553D01*
X583145Y487507D01*
X583108Y487470D01*
X583099Y487461D01*
X583080Y487442D01*
X583052Y487405D01*
X583016Y487359D01*
X582932Y487257D01*
X582858Y487137D01*
X585299D01*
Y486000D01*
X581000D01*
Y486009D01*
Y486028D01*
X581009Y486065D01*
X581018Y486111D01*
X581028Y486166D01*
X581037Y486231D01*
X581074Y486398D01*
X581129Y486582D01*
X581203Y486786D01*
X581296Y487008D01*
X581416Y487220D01*
Y487230D01*
X581435Y487248D01*
X581453Y487285D01*
X581490Y487322D01*
X581527Y487387D01*
X581582Y487452D01*
X581647Y487535D01*
X581721Y487627D01*
X581804Y487738D01*
X581906Y487849D01*
X582017Y487979D01*
X582146Y488117D01*
X582285Y488256D01*
X582442Y488413D01*
X582609Y488579D01*
X582794Y488755D01*
X582803Y488764D01*
X582831Y488792D01*
X582868Y488829D01*
X582923Y488885D01*
X582997Y488940D01*
X583071Y489014D01*
X583237Y489180D01*
X583404Y489356D01*
X583570Y489532D01*
X583644Y489606D01*
X583718Y489689D01*
X583774Y489754D01*
X583811Y489809D01*
X583820Y489828D01*
X583848Y489874D01*
X583894Y489948D01*
X583940Y490050D01*
X583986Y490160D01*
X584033Y490290D01*
X584060Y490419D01*
X584070Y490558D01*
Y490567D01*
Y490577D01*
Y490623D01*
X584060Y490706D01*
X584042Y490798D01*
X584014Y490900D01*
X583977Y491002D01*
X583922Y491104D01*
X583848Y491196D01*
X583838Y491205D01*
X583811Y491233D01*
X583755Y491270D01*
X583690Y491307D01*
X583598Y491344D01*
X583496Y491381D01*
X583376Y491409D01*
X583237Y491418D01*
X583173D01*
X583099Y491409D01*
X583016Y491390D01*
X582914Y491362D01*
X582812Y491316D01*
X582710Y491261D01*
X582618Y491187D01*
X582609Y491177D01*
X582581Y491141D01*
X582544Y491085D01*
X582507Y491002D01*
X582461Y490900D01*
X582424Y490761D01*
X582387Y490604D01*
X582368Y490419D01*
X581148Y490540D01*
Y490549D01*
X581157Y490586D01*
Y490632D01*
X581176Y490706D01*
X581185Y490789D01*
X581213Y490882D01*
X581240Y490983D01*
X581268Y491104D01*
X581361Y491335D01*
X581471Y491575D01*
X581545Y491695D01*
X581629Y491806D01*
X581721Y491899D01*
X581823Y491991D01*
X581832Y492000D01*
X581851Y492010D01*
X581878Y492028D01*
X581925Y492065D01*
X581980Y492093D01*
X582054Y492130D01*
X582128Y492176D01*
X582220Y492213D01*
X582322Y492259D01*
X582433Y492296D01*
X582673Y492370D01*
X582960Y492416D01*
X583108Y492426D01*
X583265Y492435D01*
X583358D01*
X583422Y492426D01*
D02*
G37*
G36*
X460197Y491427D02*
X460188Y491418D01*
X460170Y491399D01*
X460142Y491372D01*
X460105Y491335D01*
X460059Y491279D01*
X460003Y491214D01*
X459939Y491141D01*
X459865Y491048D01*
X459791Y490946D01*
X459707Y490835D01*
X459615Y490715D01*
X459523Y490586D01*
X459430Y490438D01*
X459338Y490290D01*
X459236Y490123D01*
X459134Y489948D01*
X459125Y489939D01*
X459106Y489902D01*
X459079Y489855D01*
X459042Y489781D01*
X459005Y489698D01*
X458949Y489587D01*
X458894Y489467D01*
X458829Y489338D01*
X458764Y489190D01*
X458700Y489033D01*
X458626Y488866D01*
X458561Y488690D01*
X458432Y488311D01*
X458311Y487914D01*
Y487905D01*
X458302Y487868D01*
X458284Y487812D01*
X458265Y487729D01*
X458247Y487636D01*
X458228Y487535D01*
X458200Y487405D01*
X458173Y487276D01*
X458145Y487128D01*
X458126Y486980D01*
X458080Y486656D01*
X458052Y486324D01*
X458043Y486000D01*
X456860D01*
Y486018D01*
Y486055D01*
X456869Y486129D01*
Y486231D01*
X456878Y486351D01*
X456897Y486490D01*
X456915Y486656D01*
X456943Y486832D01*
X456971Y487026D01*
X457008Y487239D01*
X457054Y487461D01*
X457100Y487701D01*
X457165Y487942D01*
X457230Y488191D01*
X457313Y488441D01*
X457405Y488700D01*
X457415Y488718D01*
X457433Y488764D01*
X457461Y488838D01*
X457498Y488931D01*
X457553Y489051D01*
X457618Y489199D01*
X457692Y489356D01*
X457775Y489532D01*
X457868Y489717D01*
X457969Y489911D01*
X458080Y490123D01*
X458210Y490327D01*
X458478Y490761D01*
X458783Y491177D01*
X456000D01*
Y492315D01*
X460197D01*
Y491427D01*
D02*
G37*
G36*
X484766Y492546D02*
X484831D01*
X484905Y492537D01*
X485071Y492500D01*
X485256Y492453D01*
X485460Y492379D01*
X485663Y492278D01*
X485756Y492213D01*
X485848Y492139D01*
X485857D01*
X485867Y492121D01*
X485894Y492093D01*
X485922Y492065D01*
X485968Y492019D01*
X486005Y491973D01*
X486107Y491843D01*
X486209Y491668D01*
X486310Y491464D01*
X486403Y491233D01*
X486468Y490956D01*
X485284Y490826D01*
Y490845D01*
X485275Y490882D01*
X485256Y490946D01*
X485238Y491030D01*
X485210Y491113D01*
X485164Y491205D01*
X485118Y491288D01*
X485053Y491362D01*
X485044Y491372D01*
X485016Y491390D01*
X484979Y491418D01*
X484924Y491455D01*
X484859Y491483D01*
X484776Y491510D01*
X484674Y491529D01*
X484572Y491538D01*
X484554D01*
X484507Y491529D01*
X484434Y491520D01*
X484341Y491492D01*
X484239Y491455D01*
X484128Y491390D01*
X484017Y491307D01*
X483916Y491187D01*
X483907Y491168D01*
X483888Y491150D01*
X483870Y491113D01*
X483851Y491076D01*
X483823Y491020D01*
X483805Y490956D01*
X483777Y490872D01*
X483740Y490780D01*
X483712Y490678D01*
X483685Y490558D01*
X483657Y490429D01*
X483629Y490281D01*
X483611Y490114D01*
X483592Y489929D01*
X483574Y489735D01*
X483583Y489744D01*
X483592Y489763D01*
X483620Y489781D01*
X483657Y489818D01*
X483703Y489865D01*
X483759Y489911D01*
X483888Y490013D01*
X484054Y490105D01*
X484249Y490197D01*
X484360Y490234D01*
X484470Y490253D01*
X484591Y490271D01*
X484720Y490281D01*
X484794D01*
X484850Y490271D01*
X484914Y490262D01*
X484988Y490253D01*
X485081Y490234D01*
X485173Y490207D01*
X485377Y490133D01*
X485488Y490087D01*
X485598Y490031D01*
X485709Y489966D01*
X485820Y489883D01*
X485931Y489791D01*
X486033Y489689D01*
X486042Y489680D01*
X486061Y489661D01*
X486088Y489633D01*
X486116Y489587D01*
X486162Y489523D01*
X486209Y489458D01*
X486255Y489375D01*
X486310Y489282D01*
X486366Y489180D01*
X486412Y489060D01*
X486458Y488940D01*
X486505Y488801D01*
X486532Y488663D01*
X486560Y488506D01*
X486578Y488348D01*
X486588Y488173D01*
Y488163D01*
Y488126D01*
Y488080D01*
X486578Y488006D01*
X486569Y487923D01*
X486560Y487831D01*
X486541Y487720D01*
X486514Y487609D01*
X486449Y487350D01*
X486403Y487220D01*
X486338Y487091D01*
X486273Y486962D01*
X486199Y486832D01*
X486107Y486703D01*
X486005Y486592D01*
X485996Y486582D01*
X485978Y486564D01*
X485950Y486536D01*
X485904Y486499D01*
X485848Y486453D01*
X485774Y486407D01*
X485700Y486351D01*
X485608Y486296D01*
X485506Y486240D01*
X485395Y486185D01*
X485275Y486139D01*
X485136Y486092D01*
X484997Y486055D01*
X484850Y486028D01*
X484692Y486009D01*
X484526Y486000D01*
X484480D01*
X484434Y486009D01*
X484369D01*
X484286Y486028D01*
X484184Y486037D01*
X484082Y486065D01*
X483962Y486092D01*
X483842Y486129D01*
X483712Y486185D01*
X483574Y486240D01*
X483444Y486314D01*
X483306Y486398D01*
X483176Y486499D01*
X483047Y486619D01*
X482926Y486749D01*
X482917Y486758D01*
X482899Y486786D01*
X482871Y486832D01*
X482834Y486897D01*
X482779Y486980D01*
X482732Y487082D01*
X482677Y487202D01*
X482621Y487341D01*
X482557Y487507D01*
X482501Y487683D01*
X482455Y487886D01*
X482409Y488117D01*
X482363Y488358D01*
X482335Y488626D01*
X482316Y488912D01*
X482307Y489227D01*
Y489236D01*
Y489245D01*
Y489273D01*
Y489301D01*
Y489393D01*
X482316Y489513D01*
X482326Y489661D01*
X482344Y489828D01*
X482363Y490013D01*
X482390Y490207D01*
X482418Y490410D01*
X482464Y490623D01*
X482520Y490835D01*
X482584Y491048D01*
X482658Y491242D01*
X482742Y491436D01*
X482843Y491612D01*
X482954Y491769D01*
X482963Y491778D01*
X482982Y491806D01*
X483019Y491843D01*
X483074Y491889D01*
X483139Y491954D01*
X483213Y492019D01*
X483306Y492093D01*
X483407Y492167D01*
X483527Y492231D01*
X483648Y492305D01*
X483796Y492370D01*
X483943Y492435D01*
X484101Y492481D01*
X484276Y492518D01*
X484452Y492546D01*
X484646Y492555D01*
X484720D01*
X484766Y492546D01*
D02*
G37*
G36*
X481632Y488968D02*
X481623Y488959D01*
X481595Y488931D01*
X481549Y488894D01*
X481484Y488838D01*
X481401Y488774D01*
X481309Y488709D01*
X481198Y488644D01*
X481068Y488570D01*
X481050Y488561D01*
X481003Y488543D01*
X480929Y488515D01*
X480837Y488487D01*
X480726Y488450D01*
X480597Y488422D01*
X480467Y488404D01*
X480319Y488395D01*
X480245D01*
X480190Y488404D01*
X480125D01*
X480051Y488413D01*
X479894Y488441D01*
X479885D01*
X479857Y488450D01*
X479801Y488469D01*
X479737Y488496D01*
X479644Y488524D01*
X479533Y488570D01*
X479395Y488616D01*
X479237Y488681D01*
X479228D01*
X479210Y488690D01*
X479173Y488709D01*
X479127Y488727D01*
X479071Y488746D01*
X479006Y488774D01*
X478858Y488829D01*
X478692Y488885D01*
X478516Y488931D01*
X478341Y488968D01*
X478183Y488977D01*
X478128D01*
X478082Y488968D01*
X478026Y488959D01*
X477962Y488949D01*
X477804Y488903D01*
X477629Y488829D01*
X477527Y488783D01*
X477425Y488727D01*
X477324Y488663D01*
X477213Y488579D01*
X477111Y488487D01*
X477000Y488385D01*
Y489523D01*
X477009Y489532D01*
X477028Y489550D01*
X477056Y489578D01*
X477102Y489615D01*
X477148Y489661D01*
X477213Y489707D01*
X477287Y489763D01*
X477370Y489818D01*
X477555Y489929D01*
X477777Y490022D01*
X477888Y490059D01*
X478017Y490087D01*
X478147Y490105D01*
X478285Y490114D01*
X478387D01*
X478452Y490105D01*
X478535D01*
X478618Y490096D01*
X478794Y490059D01*
X478803D01*
X478840Y490050D01*
X478895Y490031D01*
X478988Y490003D01*
X479099Y489966D01*
X479247Y489911D01*
X479422Y489846D01*
X479626Y489763D01*
X479635D01*
X479654Y489754D01*
X479681Y489744D01*
X479728Y489726D01*
X479829Y489689D01*
X479949Y489652D01*
X480088Y489606D01*
X480227Y489569D01*
X480347Y489541D01*
X480439Y489532D01*
X480486D01*
X480532Y489541D01*
X480597Y489550D01*
X480680Y489569D01*
X480772Y489587D01*
X480883Y489624D01*
X480994Y489670D01*
X481013Y489680D01*
X481050Y489698D01*
X481114Y489735D01*
X481198Y489781D01*
X481290Y489855D01*
X481401Y489929D01*
X481512Y490031D01*
X481632Y490142D01*
Y488968D01*
D02*
G37*
G36*
X505632D02*
X505623Y488959D01*
X505595Y488931D01*
X505549Y488894D01*
X505484Y488838D01*
X505401Y488774D01*
X505308Y488709D01*
X505197Y488644D01*
X505068Y488570D01*
X505050Y488561D01*
X505003Y488543D01*
X504929Y488515D01*
X504837Y488487D01*
X504726Y488450D01*
X504596Y488422D01*
X504467Y488404D01*
X504319Y488395D01*
X504245D01*
X504190Y488404D01*
X504125D01*
X504051Y488413D01*
X503894Y488441D01*
X503885D01*
X503857Y488450D01*
X503801Y488469D01*
X503737Y488496D01*
X503644Y488524D01*
X503533Y488570D01*
X503395Y488616D01*
X503237Y488681D01*
X503228D01*
X503210Y488690D01*
X503173Y488709D01*
X503126Y488727D01*
X503071Y488746D01*
X503006Y488774D01*
X502858Y488829D01*
X502692Y488885D01*
X502516Y488931D01*
X502341Y488968D01*
X502183Y488977D01*
X502128D01*
X502082Y488968D01*
X502026Y488959D01*
X501962Y488949D01*
X501804Y488903D01*
X501629Y488829D01*
X501527Y488783D01*
X501425Y488727D01*
X501324Y488663D01*
X501213Y488579D01*
X501111Y488487D01*
X501000Y488385D01*
Y489523D01*
X501009Y489532D01*
X501028Y489550D01*
X501055Y489578D01*
X501102Y489615D01*
X501148Y489661D01*
X501213Y489707D01*
X501287Y489763D01*
X501370Y489818D01*
X501555Y489929D01*
X501777Y490022D01*
X501888Y490059D01*
X502017Y490087D01*
X502146Y490105D01*
X502285Y490114D01*
X502387D01*
X502452Y490105D01*
X502535D01*
X502618Y490096D01*
X502794Y490059D01*
X502803D01*
X502840Y490050D01*
X502895Y490031D01*
X502988Y490003D01*
X503099Y489966D01*
X503247Y489911D01*
X503422Y489846D01*
X503626Y489763D01*
X503635D01*
X503653Y489754D01*
X503681Y489744D01*
X503727Y489726D01*
X503829Y489689D01*
X503949Y489652D01*
X504088Y489606D01*
X504227Y489569D01*
X504347Y489541D01*
X504439Y489532D01*
X504486D01*
X504532Y489541D01*
X504596Y489550D01*
X504680Y489569D01*
X504772Y489587D01*
X504883Y489624D01*
X504994Y489670D01*
X505013Y489680D01*
X505050Y489698D01*
X505114Y489735D01*
X505197Y489781D01*
X505290Y489855D01*
X505401Y489929D01*
X505512Y490031D01*
X505632Y490142D01*
Y488968D01*
D02*
G37*
G36*
X510347Y491288D02*
X508027D01*
X507832Y490197D01*
X507842D01*
X507851Y490207D01*
X507906Y490234D01*
X507990Y490262D01*
X508091Y490308D01*
X508221Y490345D01*
X508359Y490373D01*
X508517Y490401D01*
X508674Y490410D01*
X508757D01*
X508812Y490401D01*
X508877Y490392D01*
X508960Y490382D01*
X509053Y490364D01*
X509155Y490336D01*
X509367Y490262D01*
X509487Y490216D01*
X509598Y490160D01*
X509719Y490087D01*
X509839Y490003D01*
X509950Y489911D01*
X510061Y489809D01*
X510070Y489800D01*
X510088Y489781D01*
X510116Y489744D01*
X510153Y489698D01*
X510190Y489643D01*
X510246Y489569D01*
X510292Y489486D01*
X510347Y489393D01*
X510403Y489291D01*
X510449Y489171D01*
X510504Y489042D01*
X510541Y488912D01*
X510578Y488764D01*
X510606Y488607D01*
X510625Y488441D01*
X510634Y488265D01*
Y488256D01*
Y488228D01*
Y488191D01*
X510625Y488136D01*
Y488062D01*
X510606Y487979D01*
X510597Y487886D01*
X510578Y487794D01*
X510523Y487572D01*
X510440Y487331D01*
X510384Y487202D01*
X510329Y487082D01*
X510255Y486962D01*
X510172Y486841D01*
X510162Y486832D01*
X510144Y486804D01*
X510107Y486767D01*
X510061Y486712D01*
X509996Y486647D01*
X509913Y486573D01*
X509820Y486499D01*
X509719Y486425D01*
X509598Y486342D01*
X509469Y486268D01*
X509330Y486194D01*
X509173Y486129D01*
X509007Y486074D01*
X508831Y486037D01*
X508637Y486009D01*
X508433Y486000D01*
X508350D01*
X508285Y486009D01*
X508212Y486018D01*
X508119Y486028D01*
X508027Y486037D01*
X507916Y486055D01*
X507694Y486111D01*
X507444Y486203D01*
X507324Y486250D01*
X507204Y486314D01*
X507093Y486388D01*
X506982Y486471D01*
X506973Y486481D01*
X506954Y486490D01*
X506926Y486518D01*
X506889Y486555D01*
X506852Y486610D01*
X506797Y486666D01*
X506751Y486730D01*
X506695Y486804D01*
X506631Y486897D01*
X506575Y486989D01*
X506473Y487211D01*
X506381Y487461D01*
X506353Y487599D01*
X506325Y487747D01*
X507546Y487877D01*
Y487858D01*
X507555Y487812D01*
X507574Y487729D01*
X507601Y487636D01*
X507638Y487535D01*
X507694Y487424D01*
X507768Y487322D01*
X507851Y487220D01*
X507860Y487211D01*
X507897Y487183D01*
X507953Y487146D01*
X508027Y487100D01*
X508110Y487054D01*
X508212Y487017D01*
X508332Y486989D01*
X508452Y486980D01*
X508470D01*
X508517Y486989D01*
X508591Y486998D01*
X508683Y487017D01*
X508785Y487054D01*
X508896Y487109D01*
X509007Y487193D01*
X509108Y487294D01*
X509118Y487313D01*
X509155Y487350D01*
X509192Y487424D01*
X509247Y487535D01*
X509293Y487664D01*
X509339Y487821D01*
X509367Y488016D01*
X509376Y488237D01*
Y488247D01*
Y488265D01*
Y488293D01*
Y488339D01*
X509367Y488441D01*
X509339Y488570D01*
X509312Y488718D01*
X509266Y488866D01*
X509201Y489005D01*
X509108Y489125D01*
X509099Y489134D01*
X509062Y489171D01*
X508997Y489217D01*
X508923Y489282D01*
X508822Y489338D01*
X508702Y489384D01*
X508563Y489421D01*
X508415Y489430D01*
X508359D01*
X508322Y489421D01*
X508230Y489402D01*
X508101Y489375D01*
X507953Y489319D01*
X507795Y489236D01*
X507712Y489180D01*
X507629Y489116D01*
X507546Y489042D01*
X507463Y488959D01*
X506473Y489097D01*
X507102Y492435D01*
X510347D01*
Y491288D01*
D02*
G37*
G36*
X535809Y488358D02*
X536604D01*
Y487285D01*
X535809D01*
Y486000D01*
X534626D01*
Y487285D01*
X532000D01*
Y488348D01*
X534774Y492426D01*
X535809D01*
Y488358D01*
D02*
G37*
G36*
X560632Y488968D02*
X560623Y488959D01*
X560595Y488931D01*
X560549Y488894D01*
X560484Y488838D01*
X560401Y488774D01*
X560308Y488709D01*
X560197Y488644D01*
X560068Y488570D01*
X560050Y488561D01*
X560003Y488543D01*
X559929Y488515D01*
X559837Y488487D01*
X559726Y488450D01*
X559596Y488422D01*
X559467Y488404D01*
X559319Y488395D01*
X559245D01*
X559190Y488404D01*
X559125D01*
X559051Y488413D01*
X558894Y488441D01*
X558885D01*
X558857Y488450D01*
X558801Y488469D01*
X558737Y488496D01*
X558644Y488524D01*
X558533Y488570D01*
X558395Y488616D01*
X558237Y488681D01*
X558228D01*
X558210Y488690D01*
X558173Y488709D01*
X558126Y488727D01*
X558071Y488746D01*
X558006Y488774D01*
X557858Y488829D01*
X557692Y488885D01*
X557516Y488931D01*
X557341Y488968D01*
X557183Y488977D01*
X557128D01*
X557082Y488968D01*
X557026Y488959D01*
X556962Y488949D01*
X556804Y488903D01*
X556629Y488829D01*
X556527Y488783D01*
X556425Y488727D01*
X556324Y488663D01*
X556213Y488579D01*
X556111Y488487D01*
X556000Y488385D01*
Y489523D01*
X556009Y489532D01*
X556028Y489550D01*
X556055Y489578D01*
X556102Y489615D01*
X556148Y489661D01*
X556213Y489707D01*
X556287Y489763D01*
X556370Y489818D01*
X556555Y489929D01*
X556777Y490022D01*
X556888Y490059D01*
X557017Y490087D01*
X557146Y490105D01*
X557285Y490114D01*
X557387D01*
X557452Y490105D01*
X557535D01*
X557618Y490096D01*
X557794Y490059D01*
X557803D01*
X557840Y490050D01*
X557895Y490031D01*
X557988Y490003D01*
X558099Y489966D01*
X558247Y489911D01*
X558422Y489846D01*
X558626Y489763D01*
X558635D01*
X558653Y489754D01*
X558681Y489744D01*
X558727Y489726D01*
X558829Y489689D01*
X558949Y489652D01*
X559088Y489606D01*
X559227Y489569D01*
X559347Y489541D01*
X559439Y489532D01*
X559486D01*
X559532Y489541D01*
X559596Y489550D01*
X559680Y489569D01*
X559772Y489587D01*
X559883Y489624D01*
X559994Y489670D01*
X560013Y489680D01*
X560050Y489698D01*
X560114Y489735D01*
X560197Y489781D01*
X560290Y489855D01*
X560401Y489929D01*
X560512Y490031D01*
X560632Y490142D01*
Y488968D01*
D02*
G37*
G36*
X563470Y492546D02*
X563554Y492537D01*
X563637Y492527D01*
X563739Y492509D01*
X563840Y492481D01*
X564071Y492416D01*
X564192Y492370D01*
X564321Y492305D01*
X564441Y492241D01*
X564552Y492167D01*
X564672Y492074D01*
X564774Y491973D01*
X564783Y491963D01*
X564793Y491954D01*
X564820Y491926D01*
X564848Y491889D01*
X564922Y491797D01*
X565005Y491668D01*
X565088Y491510D01*
X565153Y491325D01*
X565209Y491122D01*
X565218Y491020D01*
X565227Y490909D01*
Y490900D01*
Y490872D01*
X565218Y490826D01*
X565209Y490771D01*
X565199Y490697D01*
X565181Y490614D01*
X565153Y490521D01*
X565116Y490419D01*
X565061Y490318D01*
X565005Y490207D01*
X564931Y490096D01*
X564839Y489985D01*
X564728Y489874D01*
X564608Y489763D01*
X564469Y489661D01*
X564303Y489560D01*
X564312D01*
X564330Y489550D01*
X564358D01*
X564395Y489532D01*
X564497Y489504D01*
X564617Y489449D01*
X564756Y489375D01*
X564903Y489282D01*
X565051Y489162D01*
X565181Y489023D01*
X565199Y489005D01*
X565236Y488949D01*
X565283Y488866D01*
X565347Y488746D01*
X565412Y488607D01*
X565458Y488432D01*
X565495Y488247D01*
X565514Y488034D01*
Y488025D01*
Y487997D01*
Y487951D01*
X565504Y487895D01*
X565495Y487821D01*
X565477Y487738D01*
X565458Y487636D01*
X565440Y487535D01*
X565366Y487313D01*
X565310Y487193D01*
X565255Y487063D01*
X565181Y486943D01*
X565098Y486823D01*
X565005Y486703D01*
X564894Y486592D01*
X564885Y486582D01*
X564866Y486564D01*
X564830Y486536D01*
X564783Y486499D01*
X564719Y486453D01*
X564654Y486407D01*
X564561Y486351D01*
X564469Y486296D01*
X564367Y486240D01*
X564247Y486185D01*
X564118Y486139D01*
X563988Y486092D01*
X563840Y486055D01*
X563692Y486028D01*
X563526Y486009D01*
X563359Y486000D01*
X563276D01*
X563212Y486009D01*
X563138Y486018D01*
X563054Y486028D01*
X562962Y486046D01*
X562851Y486065D01*
X562629Y486120D01*
X562389Y486213D01*
X562259Y486268D01*
X562148Y486333D01*
X562028Y486416D01*
X561917Y486499D01*
X561908Y486508D01*
X561889Y486527D01*
X561862Y486555D01*
X561825Y486592D01*
X561778Y486638D01*
X561732Y486703D01*
X561677Y486767D01*
X561621Y486851D01*
X561566Y486943D01*
X561501Y487035D01*
X561399Y487257D01*
X561316Y487516D01*
X561279Y487655D01*
X561261Y487803D01*
X562444Y487951D01*
Y487942D01*
Y487932D01*
X562453Y487877D01*
X562472Y487794D01*
X562500Y487692D01*
X562546Y487581D01*
X562592Y487461D01*
X562666Y487350D01*
X562749Y487248D01*
X562758Y487239D01*
X562795Y487211D01*
X562851Y487174D01*
X562916Y487137D01*
X563008Y487091D01*
X563110Y487054D01*
X563221Y487026D01*
X563350Y487017D01*
X563369D01*
X563415Y487026D01*
X563480Y487035D01*
X563572Y487054D01*
X563674Y487091D01*
X563776Y487137D01*
X563886Y487211D01*
X563988Y487304D01*
X563997Y487313D01*
X564034Y487359D01*
X564071Y487424D01*
X564127Y487507D01*
X564173Y487618D01*
X564219Y487757D01*
X564247Y487914D01*
X564256Y488089D01*
Y488099D01*
Y488108D01*
Y488163D01*
X564247Y488247D01*
X564229Y488358D01*
X564192Y488478D01*
X564145Y488598D01*
X564081Y488718D01*
X563997Y488829D01*
X563988Y488838D01*
X563951Y488875D01*
X563896Y488922D01*
X563831Y488968D01*
X563739Y489023D01*
X563637Y489060D01*
X563526Y489097D01*
X563396Y489106D01*
X563304D01*
X563239Y489097D01*
X563156Y489088D01*
X563054Y489070D01*
X562953Y489042D01*
X562832Y489014D01*
X562962Y490003D01*
X563045D01*
X563138Y490013D01*
X563249Y490022D01*
X563369Y490050D01*
X563498Y490087D01*
X563618Y490142D01*
X563729Y490216D01*
X563739Y490225D01*
X563776Y490262D01*
X563812Y490308D01*
X563868Y490382D01*
X563914Y490466D01*
X563960Y490567D01*
X563988Y490687D01*
X563997Y490826D01*
Y490845D01*
Y490882D01*
X563988Y490937D01*
X563970Y491011D01*
X563951Y491094D01*
X563914Y491177D01*
X563868Y491270D01*
X563803Y491344D01*
X563794Y491353D01*
X563766Y491372D01*
X563729Y491409D01*
X563665Y491446D01*
X563591Y491473D01*
X563507Y491510D01*
X563396Y491529D01*
X563285Y491538D01*
X563230D01*
X563175Y491529D01*
X563101Y491510D01*
X563017Y491483D01*
X562925Y491446D01*
X562832Y491390D01*
X562749Y491316D01*
X562740Y491307D01*
X562712Y491279D01*
X562675Y491224D01*
X562629Y491150D01*
X562583Y491067D01*
X562546Y490956D01*
X562509Y490826D01*
X562481Y490678D01*
X561353Y490863D01*
Y490872D01*
X561362Y490891D01*
Y490919D01*
X561372Y490965D01*
X561399Y491067D01*
X561436Y491205D01*
X561492Y491353D01*
X561547Y491510D01*
X561621Y491658D01*
X561704Y491797D01*
X561714Y491815D01*
X561751Y491852D01*
X561806Y491917D01*
X561880Y492000D01*
X561973Y492084D01*
X562084Y492176D01*
X562222Y492268D01*
X562370Y492352D01*
X562379D01*
X562389Y492361D01*
X562444Y492379D01*
X562537Y492416D01*
X562648Y492453D01*
X562786Y492490D01*
X562953Y492527D01*
X563128Y492546D01*
X563322Y492555D01*
X563406D01*
X563470Y492546D01*
D02*
G37*
G36*
X605005Y489328D02*
X607206Y486000D01*
X605652D01*
X604238Y488163D01*
X602814Y486000D01*
X601261D01*
X603470Y489328D01*
X601464Y492398D01*
X602971D01*
X604238Y490484D01*
X605504Y492398D01*
X607011D01*
X605005Y489328D01*
D02*
G37*
G36*
X610136Y487710D02*
X607723D01*
Y488940D01*
X610136D01*
Y487710D01*
D02*
G37*
G36*
X615009Y489680D02*
Y488635D01*
X610617Y486721D01*
Y487960D01*
X613678Y489162D01*
X610617Y490355D01*
Y491584D01*
X615009Y489680D01*
D02*
G37*
G36*
X618938Y486000D02*
X617709D01*
Y490632D01*
X617699Y490623D01*
X617681Y490604D01*
X617644Y490577D01*
X617589Y490530D01*
X617524Y490475D01*
X617450Y490419D01*
X617357Y490355D01*
X617256Y490281D01*
X617145Y490207D01*
X617024Y490133D01*
X616895Y490050D01*
X616756Y489976D01*
X616460Y489837D01*
X616128Y489707D01*
Y490817D01*
X616137D01*
X616146Y490826D01*
X616174Y490835D01*
X616211Y490845D01*
X616303Y490891D01*
X616433Y490946D01*
X616590Y491020D01*
X616766Y491122D01*
X616960Y491251D01*
X617163Y491399D01*
X617172Y491409D01*
X617191Y491418D01*
X617219Y491446D01*
X617256Y491483D01*
X617357Y491575D01*
X617468Y491695D01*
X617598Y491843D01*
X617727Y492028D01*
X617847Y492222D01*
X617940Y492435D01*
X618938D01*
Y486000D01*
D02*
G37*
G36*
X601076Y491316D02*
X599190D01*
Y486000D01*
X597895D01*
Y491316D01*
X596000D01*
Y492398D01*
X601076D01*
Y491316D01*
D02*
G37*
G36*
X646994Y489449D02*
X649194Y486120D01*
X647641D01*
X646226Y488284D01*
X644803Y486120D01*
X643249D01*
X645459Y489449D01*
X643453Y492518D01*
X644960D01*
X646226Y490604D01*
X647493Y492518D01*
X649000D01*
X646994Y489449D01*
D02*
G37*
G36*
X631507Y487831D02*
X629094D01*
Y489060D01*
X631507D01*
Y487831D01*
D02*
G37*
G36*
X636380Y489800D02*
Y488755D01*
X631988Y486841D01*
Y488080D01*
X635048Y489282D01*
X631988Y490475D01*
Y491704D01*
X636380Y489800D01*
D02*
G37*
G36*
X640420Y492509D02*
X640522D01*
X640624Y492500D01*
X640744D01*
X640984Y492472D01*
X641234Y492444D01*
X641465Y492398D01*
X641567Y492370D01*
X641659Y492342D01*
X641668D01*
X641678Y492333D01*
X641733Y492305D01*
X641816Y492259D01*
X641927Y492204D01*
X642047Y492111D01*
X642168Y492010D01*
X642288Y491880D01*
X642399Y491723D01*
Y491714D01*
X642408Y491704D01*
X642427Y491677D01*
X642445Y491649D01*
X642491Y491557D01*
X642547Y491436D01*
X642593Y491288D01*
X642639Y491122D01*
X642676Y490928D01*
X642685Y490724D01*
Y490715D01*
Y490697D01*
Y490650D01*
X642676Y490604D01*
Y490540D01*
X642667Y490475D01*
X642630Y490308D01*
X642584Y490114D01*
X642510Y489920D01*
X642399Y489717D01*
X642334Y489624D01*
X642260Y489532D01*
X642251Y489523D01*
X642242Y489513D01*
X642214Y489486D01*
X642177Y489458D01*
X642140Y489421D01*
X642084Y489375D01*
X642020Y489328D01*
X641946Y489282D01*
X641862Y489227D01*
X641761Y489180D01*
X641659Y489134D01*
X641548Y489088D01*
X641419Y489042D01*
X641289Y489005D01*
X641151Y488968D01*
X640993Y488940D01*
X641003D01*
X641012Y488931D01*
X641067Y488894D01*
X641141Y488848D01*
X641234Y488783D01*
X641345Y488700D01*
X641456Y488616D01*
X641576Y488515D01*
X641678Y488404D01*
X641687Y488395D01*
X641733Y488348D01*
X641788Y488274D01*
X641872Y488163D01*
X641983Y488025D01*
X642038Y487932D01*
X642103Y487840D01*
X642177Y487738D01*
X642251Y487627D01*
X642334Y487498D01*
X642417Y487368D01*
X643203Y486120D01*
X641650D01*
X640725Y487507D01*
X640716Y487516D01*
X640707Y487544D01*
X640679Y487581D01*
X640642Y487627D01*
X640605Y487683D01*
X640559Y487757D01*
X640457Y487905D01*
X640337Y488071D01*
X640226Y488219D01*
X640124Y488358D01*
X640078Y488404D01*
X640041Y488450D01*
X640032Y488459D01*
X640013Y488478D01*
X639976Y488515D01*
X639930Y488561D01*
X639865Y488598D01*
X639801Y488644D01*
X639727Y488681D01*
X639653Y488718D01*
X639644D01*
X639616Y488727D01*
X639570Y488746D01*
X639496Y488755D01*
X639403Y488774D01*
X639292Y488783D01*
X639163Y488792D01*
X638747D01*
Y486120D01*
X637452D01*
Y492518D01*
X640337D01*
X640420Y492509D01*
D02*
G37*
G36*
X626228Y492546D02*
X626302Y492537D01*
X626395Y492518D01*
X626487Y492500D01*
X626598Y492472D01*
X626718Y492435D01*
X626829Y492389D01*
X626949Y492342D01*
X627070Y492278D01*
X627190Y492195D01*
X627310Y492111D01*
X627421Y492010D01*
X627523Y491889D01*
X627532Y491880D01*
X627550Y491852D01*
X627578Y491806D01*
X627624Y491741D01*
X627671Y491649D01*
X627726Y491538D01*
X627781Y491418D01*
X627837Y491261D01*
X627892Y491094D01*
X627957Y490900D01*
X628003Y490687D01*
X628050Y490447D01*
X628096Y490188D01*
X628124Y489911D01*
X628142Y489606D01*
X628151Y489273D01*
Y489264D01*
Y489254D01*
Y489227D01*
Y489190D01*
Y489097D01*
X628142Y488977D01*
X628133Y488829D01*
X628114Y488653D01*
X628096Y488469D01*
X628077Y488265D01*
X628040Y488052D01*
X627994Y487831D01*
X627948Y487618D01*
X627883Y487405D01*
X627818Y487193D01*
X627726Y486998D01*
X627634Y486814D01*
X627523Y486656D01*
X627513Y486647D01*
X627495Y486629D01*
X627467Y486592D01*
X627430Y486555D01*
X627375Y486508D01*
X627310Y486453D01*
X627227Y486388D01*
X627144Y486333D01*
X627042Y486268D01*
X626940Y486203D01*
X626820Y486148D01*
X626690Y486102D01*
X626552Y486065D01*
X626395Y486028D01*
X626237Y486009D01*
X626071Y486000D01*
X626034D01*
X625979Y486009D01*
X625914D01*
X625840Y486018D01*
X625747Y486037D01*
X625646Y486055D01*
X625535Y486092D01*
X625415Y486129D01*
X625294Y486176D01*
X625165Y486231D01*
X625045Y486305D01*
X624915Y486379D01*
X624795Y486481D01*
X624675Y486582D01*
X624564Y486712D01*
X624555Y486721D01*
X624536Y486749D01*
X624509Y486795D01*
X624481Y486851D01*
X624435Y486934D01*
X624388Y487035D01*
X624333Y487165D01*
X624287Y487304D01*
X624231Y487470D01*
X624176Y487655D01*
X624129Y487868D01*
X624092Y488099D01*
X624055Y488358D01*
X624028Y488644D01*
X624009Y488949D01*
X624000Y489282D01*
Y489291D01*
Y489301D01*
Y489328D01*
Y489365D01*
Y489458D01*
X624009Y489578D01*
X624019Y489726D01*
X624037Y489902D01*
X624055Y490087D01*
X624074Y490290D01*
X624111Y490503D01*
X624148Y490715D01*
X624203Y490937D01*
X624259Y491150D01*
X624333Y491353D01*
X624416Y491547D01*
X624509Y491732D01*
X624619Y491889D01*
X624629Y491899D01*
X624647Y491917D01*
X624675Y491954D01*
X624721Y491991D01*
X624767Y492047D01*
X624832Y492102D01*
X624915Y492158D01*
X624999Y492222D01*
X625100Y492287D01*
X625202Y492342D01*
X625322Y492398D01*
X625452Y492453D01*
X625590Y492490D01*
X625747Y492527D01*
X625905Y492546D01*
X626071Y492555D01*
X626163D01*
X626228Y492546D01*
D02*
G37*
%LPC*%
G36*
X52773Y155436D02*
X51932D01*
Y151202D01*
X53069D01*
X53189Y151211D01*
X53319D01*
X53448Y151230D01*
X53568Y151239D01*
X53670Y151257D01*
X53688D01*
X53725Y151276D01*
X53781Y151294D01*
X53855Y151322D01*
X53938Y151359D01*
X54021Y151405D01*
X54104Y151461D01*
X54188Y151525D01*
X54197Y151535D01*
X54225Y151562D01*
X54261Y151609D01*
X54308Y151673D01*
X54354Y151757D01*
X54419Y151858D01*
X54465Y151988D01*
X54520Y152136D01*
Y152145D01*
X54530Y152154D01*
Y152182D01*
X54539Y152219D01*
X54557Y152256D01*
X54567Y152311D01*
X54594Y152450D01*
X54613Y152617D01*
X54641Y152811D01*
X54650Y153051D01*
X54659Y153310D01*
Y153319D01*
Y153347D01*
Y153384D01*
Y153430D01*
Y153495D01*
X54650Y153569D01*
X54641Y153726D01*
X54622Y153911D01*
X54604Y154105D01*
X54567Y154281D01*
X54520Y154447D01*
Y154456D01*
X54511Y154466D01*
X54493Y154512D01*
X54465Y154586D01*
X54428Y154678D01*
X54373Y154771D01*
X54308Y154872D01*
X54234Y154974D01*
X54151Y155067D01*
X54141Y155076D01*
X54114Y155104D01*
X54058Y155141D01*
X53993Y155187D01*
X53901Y155242D01*
X53799Y155288D01*
X53688Y155335D01*
X53559Y155372D01*
X53550D01*
X53503Y155381D01*
X53429Y155390D01*
X53328Y155409D01*
X53263D01*
X53180Y155418D01*
X53097D01*
X53004Y155427D01*
X52893D01*
X52773Y155436D01*
D02*
G37*
G36*
X51599Y8077D02*
X50877D01*
Y6711D01*
X51543D01*
X51592Y6718D01*
X51716D01*
X51841Y6725D01*
X51966Y6739D01*
X52077Y6760D01*
X52126Y6767D01*
X52167Y6781D01*
X52174Y6787D01*
X52202Y6794D01*
X52236Y6815D01*
X52278Y6836D01*
X52327Y6871D01*
X52375Y6912D01*
X52431Y6961D01*
X52472Y7016D01*
X52479Y7023D01*
X52493Y7044D01*
X52507Y7079D01*
X52528Y7127D01*
X52548Y7183D01*
X52569Y7245D01*
X52576Y7315D01*
X52583Y7391D01*
Y7405D01*
Y7432D01*
X52576Y7481D01*
X52562Y7543D01*
X52542Y7613D01*
X52514Y7689D01*
X52479Y7758D01*
X52424Y7828D01*
X52417Y7835D01*
X52396Y7855D01*
X52361Y7883D01*
X52320Y7918D01*
X52264Y7959D01*
X52195Y7994D01*
X52119Y8022D01*
X52035Y8043D01*
X52028D01*
X52001Y8050D01*
X51952Y8056D01*
X51883Y8063D01*
X51793D01*
X51730Y8070D01*
X51668D01*
X51599Y8077D01*
D02*
G37*
G36*
X478505Y477202D02*
X477543D01*
Y475381D01*
X478431D01*
X478496Y475390D01*
X478662D01*
X478829Y475399D01*
X478995Y475418D01*
X479143Y475446D01*
X479208Y475455D01*
X479263Y475473D01*
X479272Y475483D01*
X479309Y475492D01*
X479356Y475520D01*
X479411Y475547D01*
X479476Y475594D01*
X479540Y475649D01*
X479614Y475714D01*
X479670Y475788D01*
X479679Y475797D01*
X479698Y475825D01*
X479716Y475871D01*
X479744Y475936D01*
X479772Y476010D01*
X479799Y476093D01*
X479809Y476185D01*
X479818Y476287D01*
Y476306D01*
Y476343D01*
X479809Y476407D01*
X479790Y476490D01*
X479762Y476583D01*
X479725Y476685D01*
X479679Y476777D01*
X479605Y476870D01*
X479596Y476879D01*
X479568Y476907D01*
X479522Y476943D01*
X479467Y476990D01*
X479393Y477045D01*
X479300Y477091D01*
X479198Y477128D01*
X479087Y477156D01*
X479078D01*
X479041Y477165D01*
X478977Y477175D01*
X478884Y477184D01*
X478764D01*
X478681Y477193D01*
X478597D01*
X478505Y477202D01*
D02*
G37*
G36*
X464341Y476796D02*
X463472Y474419D01*
X465238D01*
X464341Y476796D01*
D02*
G37*
G36*
X440136Y477202D02*
X439294D01*
Y472968D01*
X440432D01*
X440552Y472977D01*
X440681D01*
X440811Y472996D01*
X440931Y473005D01*
X441032Y473023D01*
X441051D01*
X441088Y473042D01*
X441143Y473060D01*
X441217Y473088D01*
X441301Y473125D01*
X441384Y473171D01*
X441467Y473227D01*
X441550Y473291D01*
X441559Y473301D01*
X441587Y473328D01*
X441624Y473375D01*
X441670Y473439D01*
X441717Y473523D01*
X441781Y473624D01*
X441828Y473754D01*
X441883Y473902D01*
Y473911D01*
X441892Y473920D01*
Y473948D01*
X441902Y473985D01*
X441920Y474022D01*
X441929Y474077D01*
X441957Y474216D01*
X441976Y474382D01*
X442003Y474577D01*
X442013Y474817D01*
X442022Y475076D01*
Y475085D01*
Y475113D01*
Y475150D01*
Y475196D01*
Y475261D01*
X442013Y475335D01*
X442003Y475492D01*
X441985Y475677D01*
X441966Y475871D01*
X441929Y476047D01*
X441883Y476213D01*
Y476222D01*
X441874Y476231D01*
X441855Y476278D01*
X441828Y476352D01*
X441791Y476444D01*
X441735Y476537D01*
X441670Y476638D01*
X441596Y476740D01*
X441513Y476833D01*
X441504Y476842D01*
X441476Y476870D01*
X441421Y476907D01*
X441356Y476953D01*
X441264Y477008D01*
X441162Y477054D01*
X441051Y477101D01*
X440922Y477138D01*
X440912D01*
X440866Y477147D01*
X440792Y477156D01*
X440690Y477175D01*
X440626D01*
X440542Y477184D01*
X440459D01*
X440367Y477193D01*
X440256D01*
X440136Y477202D01*
D02*
G37*
G36*
X558060Y60030D02*
X557191Y57653D01*
X558956D01*
X558060Y60030D01*
D02*
G37*
G36*
X545153D02*
X544284Y57653D01*
X546050D01*
X545153Y60030D01*
D02*
G37*
G36*
X570319Y60538D02*
X570245D01*
X570190Y60529D01*
X570116Y60520D01*
X570042Y60510D01*
X569857Y60473D01*
X569654Y60399D01*
X569543Y60362D01*
X569432Y60307D01*
X569330Y60242D01*
X569219Y60168D01*
X569117Y60085D01*
X569025Y59983D01*
X569016Y59974D01*
X569006Y59956D01*
X568979Y59928D01*
X568951Y59882D01*
X568914Y59817D01*
X568877Y59752D01*
X568831Y59669D01*
X568784Y59567D01*
X568738Y59456D01*
X568692Y59336D01*
X568655Y59198D01*
X568618Y59050D01*
X568590Y58883D01*
X568563Y58707D01*
X568553Y58523D01*
X568544Y58319D01*
Y58310D01*
Y58273D01*
Y58218D01*
X568553Y58144D01*
X568563Y58051D01*
X568572Y57940D01*
X568590Y57829D01*
X568609Y57700D01*
X568664Y57432D01*
X568757Y57164D01*
X568812Y57025D01*
X568877Y56895D01*
X568960Y56775D01*
X569043Y56664D01*
X569053Y56655D01*
X569071Y56637D01*
X569099Y56609D01*
X569136Y56581D01*
X569182Y56535D01*
X569247Y56488D01*
X569311Y56433D01*
X569395Y56387D01*
X569570Y56276D01*
X569792Y56193D01*
X569912Y56156D01*
X570042Y56128D01*
X570181Y56109D01*
X570319Y56100D01*
X570393D01*
X570449Y56109D01*
X570513Y56119D01*
X570587Y56128D01*
X570763Y56174D01*
X570966Y56239D01*
X571068Y56285D01*
X571179Y56331D01*
X571281Y56396D01*
X571392Y56470D01*
X571493Y56553D01*
X571586Y56655D01*
X571595Y56664D01*
X571604Y56683D01*
X571632Y56710D01*
X571660Y56757D01*
X571706Y56821D01*
X571743Y56895D01*
X571789Y56979D01*
X571836Y57080D01*
X571882Y57191D01*
X571928Y57311D01*
X571974Y57450D01*
X572011Y57607D01*
X572039Y57764D01*
X572067Y57940D01*
X572076Y58134D01*
X572085Y58338D01*
Y58347D01*
Y58384D01*
Y58439D01*
X572076Y58523D01*
X572067Y58615D01*
X572057Y58717D01*
X572048Y58837D01*
X572020Y58957D01*
X571965Y59225D01*
X571882Y59503D01*
X571826Y59641D01*
X571762Y59762D01*
X571678Y59882D01*
X571595Y59993D01*
X571586Y60002D01*
X571577Y60020D01*
X571549Y60039D01*
X571512Y60076D01*
X571456Y60122D01*
X571401Y60168D01*
X571336Y60215D01*
X571253Y60270D01*
X571170Y60316D01*
X571068Y60362D01*
X570855Y60455D01*
X570735Y60492D01*
X570606Y60510D01*
X570467Y60529D01*
X570319Y60538D01*
D02*
G37*
G36*
X627153Y46030D02*
X626284Y43653D01*
X628050D01*
X627153Y46030D01*
D02*
G37*
G36*
X611246Y45558D02*
X609757Y43358D01*
X611246D01*
Y45558D01*
D02*
G37*
G36*
X605153Y45909D02*
X604284Y43533D01*
X606050D01*
X605153Y45909D01*
D02*
G37*
G36*
X582153Y46030D02*
X581284Y43653D01*
X583050D01*
X582153Y46030D01*
D02*
G37*
G36*
X557153Y45909D02*
X556284Y43533D01*
X558050D01*
X557153Y45909D01*
D02*
G37*
G36*
X533153D02*
X532284Y43533D01*
X534050D01*
X533153Y45909D01*
D02*
G37*
G36*
X506153Y46030D02*
X505284Y43653D01*
X507050D01*
X506153Y46030D01*
D02*
G37*
G36*
X511903Y46538D02*
X511866D01*
X511820Y46529D01*
X511774Y46520D01*
X511709Y46501D01*
X511645Y46473D01*
X511571Y46436D01*
X511506Y46390D01*
X511497Y46381D01*
X511478Y46362D01*
X511451Y46325D01*
X511413Y46279D01*
X511367Y46205D01*
X511330Y46122D01*
X511284Y46011D01*
X511247Y45882D01*
Y45872D01*
X511238Y45863D01*
Y45826D01*
X511229Y45789D01*
X511219Y45734D01*
X511210Y45669D01*
X511201Y45595D01*
X511192Y45503D01*
X511173Y45392D01*
X511164Y45281D01*
X511155Y45142D01*
X511145Y45003D01*
X511136Y44837D01*
Y44671D01*
X511127Y44476D01*
Y44273D01*
Y44264D01*
Y44227D01*
Y44162D01*
Y44088D01*
Y43996D01*
X511136Y43894D01*
Y43774D01*
X511145Y43653D01*
X511155Y43395D01*
X511173Y43136D01*
X511182Y43015D01*
X511201Y42905D01*
X511219Y42803D01*
X511238Y42710D01*
X511247Y42692D01*
X511256Y42646D01*
X511284Y42572D01*
X511312Y42488D01*
X511358Y42396D01*
X511404Y42304D01*
X511460Y42220D01*
X511515Y42156D01*
X511525Y42146D01*
X511543Y42137D01*
X511580Y42109D01*
X511626Y42091D01*
X511682Y42063D01*
X511746Y42035D01*
X511820Y42026D01*
X511903Y42017D01*
X511940D01*
X511987Y42026D01*
X512033Y42035D01*
X512098Y42054D01*
X512162Y42073D01*
X512227Y42109D01*
X512292Y42156D01*
X512301Y42165D01*
X512320Y42183D01*
X512357Y42220D01*
X512393Y42276D01*
X512430Y42341D01*
X512477Y42433D01*
X512523Y42535D01*
X512560Y42664D01*
Y42673D01*
X512569Y42683D01*
Y42720D01*
X512579Y42757D01*
X512588Y42812D01*
X512597Y42877D01*
X512615Y42951D01*
X512625Y43043D01*
X512634Y43145D01*
X512652Y43265D01*
X512662Y43395D01*
X512671Y43542D01*
X512680Y43700D01*
Y43875D01*
X512689Y44069D01*
Y44273D01*
Y44282D01*
Y44319D01*
Y44384D01*
Y44458D01*
Y44550D01*
X512680Y44652D01*
Y44772D01*
X512671Y44892D01*
X512662Y45151D01*
X512643Y45401D01*
X512625Y45521D01*
X512606Y45641D01*
X512588Y45743D01*
X512569Y45826D01*
Y45835D01*
X512560Y45845D01*
X512551Y45891D01*
X512523Y45965D01*
X512495Y46057D01*
X512449Y46150D01*
X512403Y46242D01*
X512347Y46325D01*
X512292Y46390D01*
X512283Y46399D01*
X512264Y46418D01*
X512227Y46436D01*
X512181Y46464D01*
X512125Y46492D01*
X512061Y46520D01*
X511987Y46529D01*
X511903Y46538D01*
D02*
G37*
G36*
X370352Y491538D02*
X370315D01*
X370269Y491529D01*
X370223Y491520D01*
X370158Y491501D01*
X370093Y491473D01*
X370019Y491436D01*
X369955Y491390D01*
X369945Y491381D01*
X369927Y491362D01*
X369899Y491325D01*
X369862Y491279D01*
X369816Y491205D01*
X369779Y491122D01*
X369733Y491011D01*
X369696Y490882D01*
Y490872D01*
X369686Y490863D01*
Y490826D01*
X369677Y490789D01*
X369668Y490734D01*
X369659Y490669D01*
X369650Y490595D01*
X369640Y490503D01*
X369622Y490392D01*
X369613Y490281D01*
X369603Y490142D01*
X369594Y490003D01*
X369585Y489837D01*
Y489670D01*
X369576Y489476D01*
Y489273D01*
Y489264D01*
Y489227D01*
Y489162D01*
Y489088D01*
Y488996D01*
X369585Y488894D01*
Y488774D01*
X369594Y488653D01*
X369603Y488395D01*
X369622Y488136D01*
X369631Y488016D01*
X369650Y487905D01*
X369668Y487803D01*
X369686Y487710D01*
X369696Y487692D01*
X369705Y487646D01*
X369733Y487572D01*
X369760Y487489D01*
X369807Y487396D01*
X369853Y487304D01*
X369908Y487220D01*
X369964Y487156D01*
X369973Y487146D01*
X369991Y487137D01*
X370028Y487109D01*
X370075Y487091D01*
X370130Y487063D01*
X370195Y487035D01*
X370269Y487026D01*
X370352Y487017D01*
X370389D01*
X370435Y487026D01*
X370482Y487035D01*
X370546Y487054D01*
X370611Y487072D01*
X370676Y487109D01*
X370740Y487156D01*
X370750Y487165D01*
X370768Y487183D01*
X370805Y487220D01*
X370842Y487276D01*
X370879Y487341D01*
X370925Y487433D01*
X370972Y487535D01*
X371009Y487664D01*
Y487673D01*
X371018Y487683D01*
Y487720D01*
X371027Y487757D01*
X371036Y487812D01*
X371045Y487877D01*
X371064Y487951D01*
X371073Y488043D01*
X371082Y488145D01*
X371101Y488265D01*
X371110Y488395D01*
X371119Y488543D01*
X371129Y488700D01*
Y488875D01*
X371138Y489070D01*
Y489273D01*
Y489282D01*
Y489319D01*
Y489384D01*
Y489458D01*
Y489550D01*
X371129Y489652D01*
Y489772D01*
X371119Y489892D01*
X371110Y490151D01*
X371092Y490401D01*
X371073Y490521D01*
X371055Y490641D01*
X371036Y490743D01*
X371018Y490826D01*
Y490835D01*
X371009Y490845D01*
X370999Y490891D01*
X370972Y490965D01*
X370944Y491057D01*
X370898Y491150D01*
X370851Y491242D01*
X370796Y491325D01*
X370740Y491390D01*
X370731Y491399D01*
X370713Y491418D01*
X370676Y491436D01*
X370630Y491464D01*
X370574Y491492D01*
X370509Y491520D01*
X370435Y491529D01*
X370352Y491538D01*
D02*
G37*
G36*
X395202D02*
X395147D01*
X395082Y491520D01*
X395008Y491501D01*
X394916Y491473D01*
X394823Y491418D01*
X394731Y491353D01*
X394638Y491261D01*
X394629Y491251D01*
X394601Y491205D01*
X394564Y491141D01*
X394527Y491048D01*
X394490Y490928D01*
X394453Y490771D01*
X394426Y490586D01*
X394417Y490373D01*
Y490364D01*
Y490345D01*
Y490318D01*
Y490271D01*
X394426Y490160D01*
X394444Y490031D01*
X394472Y489874D01*
X394518Y489726D01*
X394574Y489578D01*
X394657Y489458D01*
X394666Y489449D01*
X394703Y489412D01*
X394749Y489365D01*
X394823Y489319D01*
X394916Y489264D01*
X395017Y489217D01*
X395138Y489180D01*
X395267Y489171D01*
X395285D01*
X395322Y489180D01*
X395387Y489190D01*
X395471Y489208D01*
X395563Y489236D01*
X395665Y489291D01*
X395766Y489356D01*
X395859Y489449D01*
X395868Y489458D01*
X395896Y489504D01*
X395942Y489569D01*
X395988Y489652D01*
X396025Y489772D01*
X396071Y489911D01*
X396099Y490077D01*
X396108Y490271D01*
Y490281D01*
Y490299D01*
Y490327D01*
Y490373D01*
X396090Y490475D01*
X396071Y490614D01*
X396044Y490761D01*
X395988Y490919D01*
X395924Y491067D01*
X395831Y491205D01*
X395822Y491224D01*
X395785Y491261D01*
X395729Y491307D01*
X395655Y491372D01*
X395563Y491436D01*
X395452Y491483D01*
X395332Y491520D01*
X395202Y491538D01*
D02*
G37*
G36*
X429090Y491584D02*
X429034D01*
X428969Y491575D01*
X428886Y491557D01*
X428794Y491529D01*
X428701Y491492D01*
X428609Y491446D01*
X428526Y491372D01*
X428516Y491362D01*
X428498Y491335D01*
X428461Y491288D01*
X428424Y491224D01*
X428387Y491141D01*
X428350Y491048D01*
X428331Y490937D01*
X428322Y490808D01*
Y490789D01*
Y490743D01*
X428331Y490678D01*
X428350Y490595D01*
X428368Y490503D01*
X428405Y490410D01*
X428461Y490318D01*
X428526Y490234D01*
X428535Y490225D01*
X428563Y490207D01*
X428609Y490170D01*
X428674Y490133D01*
X428757Y490096D01*
X428849Y490059D01*
X428960Y490040D01*
X429080Y490031D01*
X429136D01*
X429201Y490040D01*
X429284Y490059D01*
X429376Y490077D01*
X429469Y490114D01*
X429561Y490170D01*
X429644Y490234D01*
X429654Y490244D01*
X429681Y490271D01*
X429709Y490318D01*
X429755Y490392D01*
X429792Y490475D01*
X429820Y490567D01*
X429848Y490687D01*
X429857Y490817D01*
Y490835D01*
Y490872D01*
X429848Y490937D01*
X429829Y491011D01*
X429801Y491104D01*
X429764Y491196D01*
X429718Y491288D01*
X429644Y491372D01*
X429635Y491381D01*
X429607Y491409D01*
X429561Y491436D01*
X429496Y491483D01*
X429413Y491520D01*
X429321Y491547D01*
X429210Y491575D01*
X429090Y491584D01*
D02*
G37*
G36*
X429099Y489060D02*
X429025D01*
X428942Y489042D01*
X428849Y489023D01*
X428738Y488986D01*
X428627Y488931D01*
X428516Y488848D01*
X428424Y488746D01*
X428415Y488727D01*
X428387Y488690D01*
X428359Y488626D01*
X428322Y488543D01*
X428276Y488441D01*
X428248Y488330D01*
X428220Y488200D01*
X428211Y488071D01*
Y488062D01*
Y488052D01*
Y488025D01*
Y487988D01*
X428230Y487895D01*
X428248Y487775D01*
X428276Y487646D01*
X428322Y487516D01*
X428387Y487387D01*
X428470Y487267D01*
X428479Y487257D01*
X428516Y487220D01*
X428572Y487183D01*
X428646Y487128D01*
X428738Y487082D01*
X428849Y487035D01*
X428979Y486998D01*
X429117Y486989D01*
X429182D01*
X429247Y487008D01*
X429339Y487026D01*
X429441Y487054D01*
X429543Y487100D01*
X429644Y487165D01*
X429746Y487257D01*
X429755Y487267D01*
X429783Y487313D01*
X429829Y487368D01*
X429875Y487461D01*
X429922Y487572D01*
X429968Y487710D01*
X429996Y487868D01*
X430005Y488052D01*
Y488062D01*
Y488071D01*
Y488126D01*
X429996Y488210D01*
X429977Y488311D01*
X429940Y488432D01*
X429894Y488552D01*
X429829Y488672D01*
X429746Y488783D01*
X429737Y488792D01*
X429700Y488829D01*
X429644Y488875D01*
X429570Y488922D01*
X429478Y488977D01*
X429367Y489014D01*
X429237Y489051D01*
X429099Y489060D01*
D02*
G37*
G36*
X484526Y489375D02*
X484470D01*
X484397Y489356D01*
X484313Y489338D01*
X484221Y489301D01*
X484119Y489254D01*
X484017Y489180D01*
X483925Y489088D01*
X483916Y489079D01*
X483888Y489033D01*
X483851Y488968D01*
X483805Y488885D01*
X483759Y488764D01*
X483722Y488626D01*
X483694Y488459D01*
X483685Y488265D01*
Y488256D01*
Y488237D01*
Y488210D01*
Y488163D01*
X483703Y488062D01*
X483722Y487923D01*
X483749Y487775D01*
X483796Y487618D01*
X483860Y487470D01*
X483953Y487341D01*
X483962Y487331D01*
X483999Y487294D01*
X484064Y487239D01*
X484138Y487183D01*
X484230Y487119D01*
X484332Y487072D01*
X484452Y487035D01*
X484581Y487017D01*
X484637D01*
X484702Y487035D01*
X484785Y487054D01*
X484868Y487082D01*
X484970Y487128D01*
X485062Y487193D01*
X485155Y487276D01*
X485164Y487285D01*
X485192Y487331D01*
X485229Y487396D01*
X485275Y487489D01*
X485312Y487609D01*
X485349Y487757D01*
X485377Y487942D01*
X485386Y488154D01*
Y488163D01*
Y488182D01*
Y488219D01*
Y488256D01*
X485377Y488367D01*
X485358Y488506D01*
X485321Y488653D01*
X485284Y488811D01*
X485219Y488959D01*
X485136Y489079D01*
X485127Y489088D01*
X485090Y489125D01*
X485044Y489171D01*
X484970Y489227D01*
X484877Y489282D01*
X484776Y489328D01*
X484655Y489365D01*
X484526Y489375D01*
D02*
G37*
G36*
X534626Y490558D02*
X533137Y488358D01*
X534626D01*
Y490558D01*
D02*
G37*
G36*
X640226Y491436D02*
X638747D01*
Y489809D01*
X640004D01*
X640189Y489818D01*
X640383Y489828D01*
X640577Y489837D01*
X640661Y489846D01*
X640734Y489855D01*
X640808Y489874D01*
X640855Y489883D01*
X640864D01*
X640892Y489902D01*
X640938Y489920D01*
X640984Y489948D01*
X641104Y490031D01*
X641160Y490087D01*
X641215Y490151D01*
X641225Y490160D01*
X641234Y490188D01*
X641262Y490225D01*
X641289Y490281D01*
X641308Y490355D01*
X641336Y490438D01*
X641345Y490530D01*
X641354Y490632D01*
Y490650D01*
Y490687D01*
X641345Y490743D01*
X641336Y490817D01*
X641308Y490900D01*
X641280Y490983D01*
X641234Y491076D01*
X641178Y491150D01*
X641169Y491159D01*
X641151Y491187D01*
X641104Y491214D01*
X641049Y491261D01*
X640984Y491307D01*
X640901Y491344D01*
X640799Y491381D01*
X640688Y491409D01*
X640679D01*
X640651Y491418D01*
X640596D01*
X640513Y491427D01*
X640309D01*
X640226Y491436D01*
D02*
G37*
G36*
X626071Y491538D02*
X626034D01*
X625988Y491529D01*
X625942Y491520D01*
X625877Y491501D01*
X625812Y491473D01*
X625738Y491436D01*
X625673Y491390D01*
X625664Y491381D01*
X625646Y491362D01*
X625618Y491325D01*
X625581Y491279D01*
X625535Y491205D01*
X625498Y491122D01*
X625452Y491011D01*
X625415Y490882D01*
Y490872D01*
X625405Y490863D01*
Y490826D01*
X625396Y490789D01*
X625387Y490734D01*
X625378Y490669D01*
X625368Y490595D01*
X625359Y490503D01*
X625341Y490392D01*
X625331Y490281D01*
X625322Y490142D01*
X625313Y490003D01*
X625304Y489837D01*
Y489670D01*
X625294Y489476D01*
Y489273D01*
Y489264D01*
Y489227D01*
Y489162D01*
Y489088D01*
Y488996D01*
X625304Y488894D01*
Y488774D01*
X625313Y488653D01*
X625322Y488395D01*
X625341Y488136D01*
X625350Y488016D01*
X625368Y487905D01*
X625387Y487803D01*
X625405Y487710D01*
X625415Y487692D01*
X625424Y487646D01*
X625452Y487572D01*
X625479Y487489D01*
X625526Y487396D01*
X625572Y487304D01*
X625627Y487220D01*
X625683Y487156D01*
X625692Y487146D01*
X625710Y487137D01*
X625747Y487109D01*
X625794Y487091D01*
X625849Y487063D01*
X625914Y487035D01*
X625988Y487026D01*
X626071Y487017D01*
X626108D01*
X626154Y487026D01*
X626200Y487035D01*
X626265Y487054D01*
X626330Y487072D01*
X626395Y487109D01*
X626459Y487156D01*
X626469Y487165D01*
X626487Y487183D01*
X626524Y487220D01*
X626561Y487276D01*
X626598Y487341D01*
X626644Y487433D01*
X626690Y487535D01*
X626727Y487664D01*
Y487673D01*
X626737Y487683D01*
Y487720D01*
X626746Y487757D01*
X626755Y487812D01*
X626764Y487877D01*
X626783Y487951D01*
X626792Y488043D01*
X626801Y488145D01*
X626820Y488265D01*
X626829Y488395D01*
X626838Y488543D01*
X626848Y488700D01*
Y488875D01*
X626857Y489070D01*
Y489273D01*
Y489282D01*
Y489319D01*
Y489384D01*
Y489458D01*
Y489550D01*
X626848Y489652D01*
Y489772D01*
X626838Y489892D01*
X626829Y490151D01*
X626811Y490401D01*
X626792Y490521D01*
X626774Y490641D01*
X626755Y490743D01*
X626737Y490826D01*
Y490835D01*
X626727Y490845D01*
X626718Y490891D01*
X626690Y490965D01*
X626663Y491057D01*
X626617Y491150D01*
X626570Y491242D01*
X626515Y491325D01*
X626459Y491390D01*
X626450Y491399D01*
X626432Y491418D01*
X626395Y491436D01*
X626348Y491464D01*
X626293Y491492D01*
X626228Y491520D01*
X626154Y491529D01*
X626071Y491538D01*
D02*
G37*
%LPD*%
D10*
X633350Y170180D02*
G03*
X633350Y157480I0J-6350D01*
G01*
X137217Y474259D02*
G03*
X186833Y494459I15184J33741D01*
G01*
X62380Y202030D02*
Y229970D01*
Y202030D02*
X77620D01*
Y229970D01*
X62380D02*
X77620D01*
Y171530D02*
Y199470D01*
X62380D02*
X77620D01*
X62380Y171530D02*
Y199470D01*
Y171530D02*
X77620D01*
X183160Y378490D02*
Y411510D01*
X162840D02*
X183160D01*
X162840Y378490D02*
Y411510D01*
Y378490D02*
X183160D01*
X267990Y426840D02*
Y447160D01*
X301010D01*
Y426840D02*
Y447160D01*
X267990Y426840D02*
X301010D01*
X266490Y403840D02*
X299510D01*
Y424160D01*
X266490D02*
X299510D01*
X266490Y403840D02*
Y424160D01*
X77840Y282010D02*
X98160D01*
Y248990D02*
Y282010D01*
X77840Y248990D02*
X98160D01*
X77840D02*
Y282010D01*
X76990Y360160D02*
X110010D01*
X76990Y339840D02*
Y360160D01*
Y339840D02*
X110010D01*
Y360160D01*
X80490Y201840D02*
Y222160D01*
X113510D01*
Y201840D02*
Y222160D01*
X80490Y201840D02*
X113510D01*
X80490Y178840D02*
X113510D01*
Y199160D01*
X80490D02*
X113510D01*
X80490Y178840D02*
Y199160D01*
X113510Y155840D02*
Y176160D01*
X80490Y155840D02*
X113510D01*
X80490D02*
Y176160D01*
X113510D01*
X227160Y248990D02*
Y282010D01*
X206840D02*
X227160D01*
X206840Y248990D02*
Y282010D01*
Y248990D02*
X227160D01*
X573840Y442990D02*
X594160D01*
X573840D02*
Y476010D01*
X594160D01*
Y442990D02*
Y476010D01*
X620160Y442990D02*
Y476010D01*
X599840D02*
X620160D01*
X599840Y442990D02*
Y476010D01*
Y442990D02*
X620160D01*
X625840Y399990D02*
X646160D01*
X625840D02*
Y433010D01*
X646160D01*
Y399990D02*
Y433010D01*
X355490Y109160D02*
X388510D01*
X355490Y88840D02*
Y109160D01*
Y88840D02*
X388510D01*
Y109160D01*
X629010Y216840D02*
Y237160D01*
X595990Y216840D02*
X629010D01*
X595990D02*
Y237160D01*
X629010D01*
X226490Y451160D02*
X259510D01*
X226490Y430840D02*
Y451160D01*
Y430840D02*
X259510D01*
Y451160D01*
X438510Y218840D02*
Y239160D01*
X405490Y218840D02*
X438510D01*
X405490D02*
Y239160D01*
X438510D01*
X580490Y366160D02*
X613510D01*
X580490Y345840D02*
Y366160D01*
Y345840D02*
X613510D01*
Y366160D01*
X656840Y179990D02*
X677160D01*
X656840D02*
Y213010D01*
X677160D01*
Y179990D02*
Y213010D01*
X41160Y267490D02*
Y300510D01*
X20840D02*
X41160D01*
X20840Y267490D02*
Y300510D01*
Y267490D02*
X41160D01*
X264840Y74510D02*
X285160D01*
Y41490D02*
Y74510D01*
X264840Y41490D02*
X285160D01*
X264840D02*
Y74510D01*
X236840Y138490D02*
Y171510D01*
Y138490D02*
X257160D01*
Y171510D01*
X236840D02*
X257160D01*
X3990Y242840D02*
Y263160D01*
X37010D01*
Y242840D02*
Y263160D01*
X3990Y242840D02*
X37010D01*
X636840Y217490D02*
Y250510D01*
Y217490D02*
X657160D01*
Y250510D01*
X636840D02*
X657160D01*
X294510Y77840D02*
Y98160D01*
X261490Y77840D02*
X294510D01*
X261490D02*
Y98160D01*
X294510D01*
X118990Y203840D02*
X152010D01*
Y224160D01*
X118990D02*
X152010D01*
X118990Y203840D02*
Y224160D01*
X321818Y93624D02*
X342138D01*
Y60604D02*
Y93624D01*
X321818Y60604D02*
X342138D01*
X321818D02*
Y93624D01*
X321840Y41490D02*
Y74510D01*
Y41490D02*
X342160D01*
Y74510D01*
X321840D02*
X342160D01*
X656840Y250510D02*
X677160D01*
Y217490D02*
Y250510D01*
X656840Y217490D02*
X677160D01*
X656840D02*
Y250510D01*
X584030Y369650D02*
X613240D01*
Y382350D01*
X611970D02*
X613240D01*
X584030D02*
X611970D01*
X633350Y170180D02*
Y215830D01*
X277550Y215830D02*
X633350Y215830D01*
X277550Y111830D02*
X633350Y111830D01*
X277550Y111830D02*
Y215830D01*
X633350Y111830D02*
Y157480D01*
X191000Y427000D02*
Y435000D01*
X173000Y415000D02*
X191000D01*
X173000Y447000D02*
X191000D01*
X56000Y271500D02*
X64000D01*
X76000Y253500D02*
Y271500D01*
X44000Y253500D02*
Y271500D01*
X658000Y148500D02*
X666000D01*
X646000D02*
Y166500D01*
X678000Y148500D02*
Y166500D01*
X224000Y151000D02*
Y159000D01*
X206000Y139000D02*
X224000D01*
X206000Y171000D02*
X224000D01*
X611000Y253500D02*
X653500D01*
X611000D02*
X633500D01*
X603500Y273500D02*
Y293500D01*
X633500Y313500D02*
X656000D01*
X611000D02*
X633500D01*
X663500Y273500D02*
Y293500D01*
X250500Y31000D02*
Y73500D01*
Y31000D02*
Y53500D01*
X210500Y23500D02*
X230500D01*
X190500Y53500D02*
Y76000D01*
Y31000D02*
Y53500D01*
X210500Y83500D02*
X230500D01*
X230000Y238000D02*
X268000D01*
X230000D02*
Y320000D01*
X268000D01*
Y238000D02*
Y320000D01*
X483000Y265000D02*
Y303000D01*
X401000Y265000D02*
X483000D01*
X401000D02*
Y303000D01*
X483000D01*
X18000Y265000D02*
Y301000D01*
X4000Y265000D02*
X18000D01*
X4000D02*
Y301000D01*
X600808Y251000D02*
X636808D01*
Y237000D02*
Y251000D01*
X600808Y237000D02*
X636808D01*
X207000Y212000D02*
Y247000D01*
Y212000D02*
X227000D01*
Y247000D01*
X207000D02*
X227000D01*
X205000Y212500D02*
Y247500D01*
X185000D02*
X205000D01*
X185000Y212500D02*
Y247500D01*
Y212500D02*
X205000D01*
X208000Y284500D02*
Y319500D01*
Y284500D02*
X228000D01*
Y319500D01*
X208000D02*
X228000D01*
X183000Y212500D02*
Y247500D01*
X163000D02*
X183000D01*
X163000Y212500D02*
Y247500D01*
Y212500D02*
X183000D01*
X117500Y245000D02*
X152500D01*
X117500Y225000D02*
Y245000D01*
Y225000D02*
X152500D01*
Y245000D01*
X13000Y424000D02*
Y459000D01*
Y424000D02*
X33000D01*
Y459000D01*
X13000D02*
X33000D01*
X230500Y343000D02*
X265500D01*
X230500Y323000D02*
Y343000D01*
Y323000D02*
X265500D01*
Y343000D01*
X230000Y235000D02*
X265000D01*
X230000Y215000D02*
Y235000D01*
Y215000D02*
X265000D01*
Y235000D01*
X626000Y443500D02*
Y478500D01*
Y443500D02*
X646000D01*
Y478500D01*
X626000D02*
X646000D01*
X104000Y103500D02*
Y138500D01*
Y103500D02*
X124000D01*
Y138500D01*
X104000D02*
X124000D01*
X196000Y100500D02*
Y135500D01*
Y100500D02*
X216000D01*
Y135500D01*
X196000D02*
X216000D01*
X375500Y62000D02*
X410500D01*
X375500Y42000D02*
Y62000D01*
Y42000D02*
X410500D01*
Y62000D01*
X297000Y41500D02*
Y76500D01*
Y41500D02*
X317000D01*
Y76500D01*
X297000D02*
X317000D01*
X347000Y41500D02*
Y76500D01*
Y41500D02*
X367000D01*
Y76500D01*
X347000D02*
X367000D01*
X12500Y532000D02*
X47500D01*
X12500Y512000D02*
Y532000D01*
Y512000D02*
X47500D01*
Y532000D01*
X452000Y66000D02*
X487000D01*
Y86000D01*
X452000D02*
X487000D01*
X452000Y66000D02*
Y86000D01*
X441000Y219000D02*
X476000D01*
Y239000D01*
X441000D02*
X476000D01*
X441000Y219000D02*
Y239000D01*
X235500Y493000D02*
X270500D01*
X235500Y473000D02*
Y493000D01*
Y473000D02*
X270500D01*
Y493000D01*
X391500Y66000D02*
X426500D01*
Y86000D01*
X391500D02*
X426500D01*
X391500Y66000D02*
Y86000D01*
X391000Y89000D02*
X426000D01*
Y109000D01*
X391000D02*
X426000D01*
X391000Y89000D02*
Y109000D01*
X429000D02*
X464000D01*
X429000Y89000D02*
Y109000D01*
Y89000D02*
X464000D01*
Y109000D01*
X405000Y242000D02*
X440000D01*
Y262000D01*
X405000D02*
X440000D01*
X405000Y242000D02*
Y262000D01*
X224000Y413500D02*
Y448500D01*
X204000D02*
X224000D01*
X204000Y413500D02*
Y448500D01*
Y413500D02*
X224000D01*
X443000Y262000D02*
X478000D01*
X443000Y242000D02*
Y262000D01*
Y242000D02*
X478000D01*
Y262000D01*
X644500Y136000D02*
X679500D01*
X644500Y116000D02*
Y136000D01*
Y116000D02*
X679500D01*
Y136000D01*
X212000Y173500D02*
Y208500D01*
Y173500D02*
X232000D01*
Y208500D01*
X212000D02*
X232000D01*
X44000Y303000D02*
X79000D01*
X44000Y283000D02*
Y303000D01*
Y283000D02*
X79000D01*
Y303000D01*
X80500Y247000D02*
X115500D01*
X80500Y227000D02*
Y247000D01*
Y227000D02*
X115500D01*
Y247000D01*
X657000Y179000D02*
Y214000D01*
X637000D02*
X657000D01*
X637000Y179000D02*
Y214000D01*
Y179000D02*
X657000D01*
X219000Y100500D02*
Y135500D01*
Y100500D02*
X239000D01*
Y135500D01*
X219000D02*
X239000D01*
X580500Y342000D02*
X615500D01*
X580500Y322000D02*
Y342000D01*
Y322000D02*
X615500D01*
Y342000D01*
X492760Y12700D02*
X650240D01*
Y38100D01*
X492760D02*
X650240D01*
X492760Y12700D02*
Y38100D01*
X172720Y520700D02*
X431800D01*
X172720Y495300D02*
Y520700D01*
Y495300D02*
X254000D01*
X320040D01*
X370840D01*
X414020D01*
X431800D01*
Y520700D01*
X264160Y12700D02*
Y38100D01*
X472440D01*
Y12700D02*
Y38100D01*
X264160Y12700D02*
X472440D01*
X650240Y495300D02*
Y520700D01*
X441960Y495300D02*
X650240D01*
X441960D02*
Y520700D01*
X650240D01*
X12700Y510794D02*
X88900D01*
Y458470D02*
Y510794D01*
X12700Y458470D02*
X88900D01*
X12700D02*
Y510794D01*
Y424434D02*
X88900D01*
Y372110D02*
Y424434D01*
X12700Y372110D02*
X88900D01*
X12700D02*
Y424434D01*
X12700Y355970D02*
X63500D01*
Y303646D02*
Y355970D01*
X12700Y303646D02*
Y355970D01*
Y303646D02*
X63500D01*
X133300Y458700D02*
X158700D01*
Y357100D02*
Y458700D01*
X133300Y357100D02*
X158700D01*
X133300D02*
Y458700D01*
X648030Y481700D02*
X674700D01*
Y405500D02*
Y481700D01*
X648030Y405500D02*
Y481700D01*
Y405500D02*
X674700D01*
X103500Y74030D02*
Y100700D01*
X179700D01*
X103500Y74030D02*
X179700D01*
Y100700D01*
X230000Y414000D02*
Y428000D01*
Y414000D02*
X260000D01*
X227000Y428000D02*
X230000D01*
X227000Y414000D02*
X230000D01*
X227000D02*
Y428000D01*
X230000D02*
X260000D01*
Y414000D02*
Y428000D01*
X230000Y388000D02*
Y402000D01*
Y388000D02*
X260000D01*
X227000Y402000D02*
X230000D01*
X227000Y388000D02*
X230000D01*
X227000D02*
Y402000D01*
X230000D02*
X260000D01*
Y388000D02*
Y402000D01*
X230000Y371000D02*
Y385000D01*
Y371000D02*
X260000D01*
X227000Y385000D02*
X230000D01*
X227000Y371000D02*
X230000D01*
X227000D02*
Y385000D01*
X230000D02*
X260000D01*
Y371000D02*
Y385000D01*
X-6255Y240000D02*
X10745D01*
X-6255Y162000D02*
Y240000D01*
Y162000D02*
X10745D01*
X32745D02*
X36745D01*
X50745Y219000D02*
Y222000D01*
Y180000D02*
Y183000D01*
X32745Y240000D02*
X36745D01*
X-255Y162000D02*
Y240000D01*
X7745Y162000D02*
Y240000D01*
X-17255Y153000D02*
Y246000D01*
X-27255Y153000D02*
X-17255D01*
X-27255Y246000D02*
X-17255D01*
X-27255Y199500D02*
X-17255D01*
Y200000D01*
X-20255Y203000D02*
X-17255Y200000D01*
X-20255Y202500D02*
Y203000D01*
Y202500D02*
X-17505Y199750D01*
Y198750D02*
Y199750D01*
X-20255Y196000D02*
X-17505Y198750D01*
X125000Y127000D02*
Y165000D01*
X138000D01*
X179000D02*
X193000D01*
Y127000D02*
Y165000D01*
X190000Y127000D02*
X193000D01*
X125000D02*
X128000D01*
X91500Y88500D02*
X101500Y98500D01*
X86500Y88500D02*
X91500D01*
X46500Y98500D02*
X56500Y88500D01*
X61500D01*
X46500Y98500D02*
Y143500D01*
X61500D01*
X86500D02*
X101500D01*
Y98500D02*
Y143500D01*
X89500Y13500D02*
X99500Y23500D01*
X84500Y13500D02*
X89500D01*
X44500Y23500D02*
X54500Y13500D01*
X59500D01*
X44500Y23500D02*
Y68500D01*
X59500D01*
X84500D02*
X99500D01*
Y23500D02*
Y68500D01*
X5000Y54000D02*
Y112000D01*
Y54000D02*
X37000D01*
Y112000D01*
X5000D02*
X37000D01*
X190000Y333000D02*
Y335000D01*
Y333000D02*
Y335000D01*
X188000D02*
X190000D01*
X120000Y333000D02*
Y335000D01*
X122000D01*
X120000D02*
X122000D01*
X120000Y265000D02*
X122000D01*
X120000D02*
Y267000D01*
Y265000D02*
Y267000D01*
X189000Y264000D02*
X190000Y265000D01*
X189000Y264000D02*
X191000Y266000D01*
X185000Y175000D02*
X205000D01*
X185000D02*
Y210000D01*
X205000D01*
Y175000D02*
Y210000D01*
X452000Y43000D02*
Y63000D01*
X487000D01*
Y43000D02*
Y63000D01*
X452000Y43000D02*
X487000D01*
X429000Y51500D02*
X449000D01*
X429000D02*
Y86500D01*
X449000D01*
Y51500D02*
Y86500D01*
X291000Y481000D02*
X586000D01*
X501000Y53000D02*
X628000D01*
X250000Y410999D02*
Y408000D01*
X251000Y407000D01*
X253999D01*
Y410999D01*
X263000Y399997D02*
X269664D01*
X266332D01*
Y390000D01*
X272997Y396665D02*
X279661Y390000D01*
X276329Y393332D01*
X279661Y396665D01*
X272997Y390000D01*
X263000Y373000D02*
Y382997D01*
X267998D01*
X269664Y381331D01*
Y377998D01*
X267998Y376332D01*
X263000D01*
X266332D02*
X269664Y373000D01*
X272997Y379664D02*
X279661Y373000D01*
X276329Y376332D01*
X279661Y379664D01*
X272997Y373000D01*
X7998Y312000D02*
Y321997D01*
X3000Y316998D01*
X9664D01*
X3000Y346331D02*
X4666Y347997D01*
X7998D01*
X9664Y346331D01*
Y344664D01*
X7998Y342998D01*
X6332D01*
X7998D01*
X9664Y341332D01*
Y339666D01*
X7998Y338000D01*
X4666D01*
X3000Y339666D01*
X74665Y313000D02*
X68000D01*
X74665Y319664D01*
Y321331D01*
X72998Y322997D01*
X69666D01*
X68000Y321331D01*
X42000Y437997D02*
X45332D01*
X43666D01*
Y428000D01*
X42000D01*
X45332D01*
X56995Y436331D02*
X55329Y437997D01*
X51997D01*
X50331Y436331D01*
Y429666D01*
X51997Y428000D01*
X55329D01*
X56995Y429666D01*
X66992Y436331D02*
X65326Y437997D01*
X61994D01*
X60327Y436331D01*
Y434664D01*
X61994Y432998D01*
X65326D01*
X66992Y431332D01*
Y429666D01*
X65326Y428000D01*
X61994D01*
X60327Y429666D01*
X70324Y428000D02*
Y437997D01*
X75323D01*
X76989Y436331D01*
Y432998D01*
X75323Y431332D01*
X70324D01*
X80321Y428000D02*
X83653D01*
X81987D01*
Y437997D01*
X80321Y436331D01*
X179002Y44000D02*
X184834D01*
X186000Y45166D01*
Y47499D01*
X184834Y48665D01*
X179002D01*
X180168Y55663D02*
X179002Y54497D01*
Y52164D01*
X180168Y50998D01*
X181335D01*
X182501Y52164D01*
Y54497D01*
X183667Y55663D01*
X184834D01*
X186000Y54497D01*
Y52164D01*
X184834Y50998D01*
X179002Y62661D02*
Y57996D01*
X186000D01*
Y62661D01*
X182501Y57996D02*
Y60328D01*
X186000Y64993D02*
X179002D01*
Y68492D01*
X180168Y69658D01*
X182501D01*
X183667Y68492D01*
Y64993D01*
Y67326D02*
X186000Y69658D01*
X585000Y264000D02*
X575003D01*
Y268998D01*
X576669Y270665D01*
X580002D01*
X581668Y268998D01*
Y264000D01*
Y267332D02*
X585000Y270665D01*
X575003Y280661D02*
Y273997D01*
X585000D01*
Y280661D01*
X580002Y273997D02*
Y277329D01*
X576669Y290658D02*
X575003Y288992D01*
Y285660D01*
X576669Y283993D01*
X578335D01*
X580002Y285660D01*
Y288992D01*
X581668Y290658D01*
X583334D01*
X585000Y288992D01*
Y285660D01*
X583334Y283993D01*
X575003Y300655D02*
Y293990D01*
X585000D01*
Y300655D01*
X580002Y293990D02*
Y297323D01*
X575003Y303987D02*
Y310652D01*
Y307319D01*
X585000D01*
X169335Y372998D02*
X166003D01*
X167669D01*
Y364668D01*
X166003Y363002D01*
X164337D01*
X162671Y364668D01*
X172668Y363002D02*
Y372998D01*
X177666D01*
X179332Y371332D01*
Y368000D01*
X177666Y366334D01*
X172668D01*
X182665Y371332D02*
X184331Y372998D01*
X187663D01*
X189329Y371332D01*
Y369666D01*
X187663Y368000D01*
X185997D01*
X187663D01*
X189329Y366334D01*
Y364668D01*
X187663Y363002D01*
X184331D01*
X182665Y364668D01*
X29668Y366999D02*
X27003D01*
X28335D01*
Y360334D01*
X27003Y359001D01*
X25670D01*
X24337Y360334D01*
X32334Y359001D02*
Y366999D01*
X36333D01*
X37666Y365666D01*
Y363000D01*
X36333Y361667D01*
X32334D01*
X45663Y359001D02*
X40332D01*
X45663Y364333D01*
Y365666D01*
X44330Y366999D01*
X41665D01*
X40332Y365666D01*
X666002Y494998D02*
X662669D01*
X664335D01*
Y486668D01*
X662669Y485002D01*
X661003D01*
X659337Y486668D01*
X669334Y485002D02*
Y494998D01*
X674332D01*
X675998Y493332D01*
Y490000D01*
X674332Y488334D01*
X669334D01*
X679331Y485002D02*
X682663D01*
X680997D01*
Y494998D01*
X679331Y493332D01*
X64257Y168028D02*
X60925D01*
X62591D01*
Y159698D01*
X60925Y158031D01*
X59259D01*
X57593Y159698D01*
X67590Y168028D02*
X74254D01*
Y166362D01*
X67590Y159698D01*
Y158031D01*
X99334Y385998D02*
X96002D01*
X97668D01*
Y377668D01*
X96002Y376002D01*
X94335D01*
X92669Y377668D01*
X109331Y385998D02*
X105998Y384332D01*
X102666Y381000D01*
Y377668D01*
X104332Y376002D01*
X107664D01*
X109331Y377668D01*
Y379334D01*
X107664Y381000D01*
X102666D01*
X99334Y471998D02*
X96002D01*
X97668D01*
Y463668D01*
X96002Y462002D01*
X94335D01*
X92669Y463668D01*
X109331Y471998D02*
X102666D01*
Y467000D01*
X105998Y468666D01*
X107664D01*
X109331Y467000D01*
Y463668D01*
X107664Y462002D01*
X104332D01*
X102666Y463668D01*
X353334Y477998D02*
X350002D01*
X351668D01*
Y469668D01*
X350002Y468002D01*
X348335D01*
X346669Y469668D01*
X361665Y468002D02*
Y477998D01*
X356666Y473000D01*
X363331D01*
X542334Y477998D02*
X539002D01*
X540668D01*
Y469668D01*
X539002Y468002D01*
X537336D01*
X535669Y469668D01*
X545666Y476332D02*
X547332Y477998D01*
X550664D01*
X552331Y476332D01*
Y474666D01*
X550664Y473000D01*
X548998D01*
X550664D01*
X552331Y471334D01*
Y469668D01*
X550664Y468002D01*
X547332D01*
X545666Y469668D01*
X550334Y82998D02*
X547002D01*
X548668D01*
Y74668D01*
X547002Y73002D01*
X545336D01*
X543669Y74668D01*
X560331Y73002D02*
X553666D01*
X560331Y79666D01*
Y81332D01*
X558665Y82998D01*
X555332D01*
X553666Y81332D01*
X421000Y51998D02*
X417668D01*
X419334D01*
Y43668D01*
X417668Y42002D01*
X416002D01*
X414336Y43668D01*
X424332Y42002D02*
X427664D01*
X425998D01*
Y51998D01*
X424332Y50332D01*
D11*
X202414Y264000D02*
G03*
X202414Y264000I-1414J0D01*
G01*
D12*
X582760Y373460D02*
Y378540D01*
X9000Y303000D02*
X13000D01*
X598808Y242000D02*
Y246000D01*
D13*
X510460Y6540D02*
Y9079D01*
Y7810D01*
X502842D01*
X504112Y6540D01*
X414540Y527460D02*
Y524921D01*
Y526190D01*
X422158D01*
X420888Y527460D01*
X259540Y7540D02*
X262079D01*
X260810D01*
Y15158D01*
X259540Y13888D01*
X632540Y527460D02*
Y524921D01*
Y526190D01*
X640157D01*
X638888Y527460D01*
X6540Y466540D02*
X9079D01*
X7810D01*
Y474157D01*
X6540Y472888D01*
Y377540D02*
X9079D01*
X7810D01*
Y385158D01*
X6540Y383888D01*
X67540Y341540D02*
X70079D01*
X68810D01*
Y349157D01*
X67540Y347888D01*
X126540Y443540D02*
X129079D01*
X127810D01*
Y451157D01*
X126540Y449888D01*
X96540Y75540D02*
X99079D01*
X97810D01*
Y83158D01*
X96540Y81888D01*
D14*
X622508Y477508D02*
X623354D01*
X622931D01*
Y480047D01*
X622508Y479624D01*
D15*
X60000Y518998D02*
X61666D01*
X60833D01*
Y514000D01*
X60000D01*
X61666D01*
X67498Y518165D02*
X66665Y518998D01*
X64998D01*
X64165Y518165D01*
Y514833D01*
X64998Y514000D01*
X66665D01*
X67498Y514833D01*
X72496Y518165D02*
X71663Y518998D01*
X69997D01*
X69164Y518165D01*
Y517332D01*
X69997Y516499D01*
X71663D01*
X72496Y515666D01*
Y514833D01*
X71663Y514000D01*
X69997D01*
X69164Y514833D01*
X74162Y514000D02*
Y518998D01*
X76661D01*
X77494Y518165D01*
Y516499D01*
X76661Y515666D01*
X74162D01*
D16*
X109335Y70499D02*
X107002D01*
X108168D01*
Y64667D01*
X107002Y63501D01*
X105836D01*
X104670Y64667D01*
X111667Y63501D02*
Y70499D01*
X115166D01*
X116333Y69333D01*
Y67000D01*
X115166Y65834D01*
X111667D01*
X122164Y63501D02*
Y70499D01*
X118665Y67000D01*
X123330D01*
M02*
