G04*
G04 #@! TF.GenerationSoftware,Altium Limited,Altium Designer,20.0.7 (75)*
G04*
G04 Layer_Color=32896*
%FSLAX44Y44*%
%MOMM*%
G71*
G01*
G75*
G36*
X433816Y5120D02*
X432623D01*
Y9336D01*
X430025Y5120D01*
X428731D01*
Y11518D01*
X429924D01*
Y7210D01*
X432568Y11518D01*
X433816D01*
Y5120D01*
D02*
G37*
G36*
X438162Y11629D02*
X438457Y11592D01*
X438587Y11564D01*
X438716Y11537D01*
X438837Y11509D01*
X438938Y11481D01*
X439031Y11444D01*
X439123Y11416D01*
X439188Y11389D01*
X439253Y11370D01*
X439299Y11343D01*
X439336Y11333D01*
X439354Y11315D01*
X439364D01*
X439650Y11148D01*
X439770Y11047D01*
X439891Y10954D01*
X440001Y10853D01*
X440103Y10751D01*
X440196Y10649D01*
X440279Y10557D01*
X440344Y10464D01*
X440408Y10381D01*
X440464Y10307D01*
X440510Y10242D01*
X440538Y10187D01*
X440565Y10150D01*
X440575Y10122D01*
X440584Y10113D01*
X440658Y9965D01*
X440723Y9817D01*
X440824Y9512D01*
X440898Y9207D01*
X440945Y8939D01*
X440963Y8809D01*
X440981Y8698D01*
X440991Y8597D01*
Y8504D01*
X441000Y8439D01*
Y8384D01*
Y8347D01*
Y8338D01*
X440981Y7996D01*
X440945Y7681D01*
X440880Y7395D01*
X440852Y7256D01*
X440815Y7136D01*
X440778Y7025D01*
X440750Y6923D01*
X440713Y6840D01*
X440686Y6766D01*
X440667Y6710D01*
X440649Y6664D01*
X440630Y6636D01*
Y6627D01*
X440473Y6350D01*
X440297Y6109D01*
X440112Y5897D01*
X439927Y5730D01*
X439844Y5656D01*
X439761Y5592D01*
X439696Y5536D01*
X439632Y5499D01*
X439585Y5462D01*
X439539Y5434D01*
X439521Y5425D01*
X439511Y5416D01*
X439364Y5342D01*
X439225Y5277D01*
X438920Y5176D01*
X438624Y5102D01*
X438356Y5056D01*
X438226Y5037D01*
X438115Y5019D01*
X438014Y5009D01*
X437921D01*
X437856Y5000D01*
X437755D01*
X437459Y5009D01*
X437182Y5046D01*
X436913Y5092D01*
X436682Y5148D01*
X436581Y5176D01*
X436488Y5203D01*
X436405Y5231D01*
X436331Y5250D01*
X436275Y5268D01*
X436239Y5287D01*
X436211Y5296D01*
X436202D01*
X435924Y5407D01*
X435693Y5527D01*
X435490Y5647D01*
X435314Y5749D01*
X435185Y5841D01*
X435138Y5878D01*
X435092Y5915D01*
X435064Y5943D01*
X435037Y5961D01*
X435018Y5980D01*
Y8550D01*
X437801D01*
Y7469D01*
X436322D01*
Y6646D01*
X436433Y6562D01*
X436553Y6489D01*
X436673Y6424D01*
X436784Y6368D01*
X436876Y6322D01*
X436960Y6285D01*
X437006Y6267D01*
X437015Y6257D01*
X437024D01*
X437172Y6202D01*
X437320Y6165D01*
X437459Y6137D01*
X437579Y6119D01*
X437690Y6109D01*
X437764Y6100D01*
X437838D01*
X437986Y6109D01*
X438134Y6128D01*
X438263Y6156D01*
X438393Y6193D01*
X438624Y6285D01*
X438716Y6331D01*
X438809Y6387D01*
X438892Y6442D01*
X438966Y6489D01*
X439021Y6544D01*
X439077Y6581D01*
X439114Y6618D01*
X439142Y6646D01*
X439160Y6664D01*
X439169Y6673D01*
X439253Y6784D01*
X439336Y6914D01*
X439400Y7043D01*
X439456Y7182D01*
X439548Y7469D01*
X439604Y7746D01*
X439622Y7875D01*
X439641Y8005D01*
X439650Y8106D01*
X439659Y8208D01*
X439669Y8282D01*
Y8347D01*
Y8384D01*
Y8393D01*
X439659Y8587D01*
X439650Y8763D01*
X439622Y8939D01*
X439595Y9096D01*
X439558Y9234D01*
X439511Y9364D01*
X439465Y9484D01*
X439419Y9595D01*
X439382Y9688D01*
X439336Y9771D01*
X439290Y9835D01*
X439253Y9891D01*
X439225Y9937D01*
X439197Y9965D01*
X439188Y9983D01*
X439179Y9993D01*
X439077Y10085D01*
X438975Y10178D01*
X438864Y10242D01*
X438753Y10307D01*
X438642Y10362D01*
X438531Y10409D01*
X438319Y10473D01*
X438217Y10492D01*
X438125Y10510D01*
X438041Y10520D01*
X437967Y10529D01*
X437912Y10538D01*
X437829D01*
X437625Y10529D01*
X437450Y10492D01*
X437293Y10455D01*
X437154Y10399D01*
X437052Y10353D01*
X436969Y10307D01*
X436923Y10270D01*
X436904Y10261D01*
X436775Y10150D01*
X436664Y10030D01*
X436571Y9909D01*
X436507Y9789D01*
X436451Y9678D01*
X436414Y9595D01*
X436396Y9540D01*
X436386Y9530D01*
Y9521D01*
X435101Y9761D01*
X435138Y9919D01*
X435194Y10076D01*
X435249Y10215D01*
X435323Y10344D01*
X435388Y10473D01*
X435462Y10584D01*
X435536Y10686D01*
X435610Y10778D01*
X435684Y10862D01*
X435748Y10936D01*
X435804Y11000D01*
X435859Y11047D01*
X435906Y11084D01*
X435943Y11121D01*
X435961Y11130D01*
X435970Y11139D01*
X436100Y11231D01*
X436239Y11306D01*
X436386Y11370D01*
X436544Y11426D01*
X436849Y11518D01*
X437145Y11574D01*
X437283Y11601D01*
X437413Y11611D01*
X437533Y11620D01*
X437635Y11629D01*
X437718Y11638D01*
X437829D01*
X438162Y11629D01*
D02*
G37*
G36*
X427363Y5120D02*
X424940D01*
X424691Y5129D01*
X424460Y5139D01*
X424266Y5157D01*
X424108Y5185D01*
X423979Y5213D01*
X423877Y5231D01*
X423849Y5240D01*
X423822D01*
X423812Y5250D01*
X423803D01*
X423600Y5324D01*
X423415Y5407D01*
X423267Y5490D01*
X423138Y5573D01*
X423036Y5647D01*
X422962Y5703D01*
X422916Y5740D01*
X422897Y5758D01*
X422740Y5934D01*
X422601Y6119D01*
X422481Y6313D01*
X422389Y6489D01*
X422315Y6655D01*
X422278Y6720D01*
X422259Y6775D01*
X422241Y6831D01*
X422222Y6868D01*
X422213Y6886D01*
Y6895D01*
X422148Y7117D01*
X422093Y7348D01*
X422056Y7570D01*
X422037Y7783D01*
X422028Y7885D01*
X422019Y7977D01*
Y8051D01*
X422010Y8125D01*
Y8181D01*
Y8217D01*
Y8245D01*
Y8254D01*
X422019Y8578D01*
X422047Y8865D01*
X422056Y9003D01*
X422074Y9123D01*
X422093Y9244D01*
X422111Y9345D01*
X422139Y9438D01*
X422158Y9521D01*
X422176Y9595D01*
X422185Y9650D01*
X422204Y9697D01*
X422213Y9734D01*
X422222Y9752D01*
Y9761D01*
X422305Y9983D01*
X422407Y10187D01*
X422509Y10362D01*
X422611Y10510D01*
X422694Y10631D01*
X422768Y10723D01*
X422814Y10778D01*
X422823Y10797D01*
X422832D01*
X422990Y10945D01*
X423147Y11065D01*
X423313Y11167D01*
X423461Y11250D01*
X423591Y11315D01*
X423702Y11361D01*
X423739Y11370D01*
X423766Y11379D01*
X423785Y11389D01*
X423794D01*
X423970Y11435D01*
X424164Y11463D01*
X424367Y11490D01*
X424561Y11500D01*
X424737Y11509D01*
X424811Y11518D01*
X427363D01*
Y5120D01*
D02*
G37*
G36*
X409816D02*
X408624D01*
Y9336D01*
X406026Y5120D01*
X404731D01*
Y11518D01*
X405924D01*
Y7210D01*
X408568Y11518D01*
X409816D01*
Y5120D01*
D02*
G37*
G36*
X414162Y11629D02*
X414458Y11592D01*
X414587Y11564D01*
X414716Y11537D01*
X414837Y11509D01*
X414938Y11481D01*
X415031Y11444D01*
X415123Y11416D01*
X415188Y11389D01*
X415253Y11370D01*
X415299Y11343D01*
X415336Y11333D01*
X415354Y11315D01*
X415364D01*
X415650Y11148D01*
X415770Y11047D01*
X415891Y10954D01*
X416002Y10853D01*
X416103Y10751D01*
X416196Y10649D01*
X416279Y10557D01*
X416344Y10464D01*
X416408Y10381D01*
X416464Y10307D01*
X416510Y10242D01*
X416538Y10187D01*
X416566Y10150D01*
X416575Y10122D01*
X416584Y10113D01*
X416658Y9965D01*
X416723Y9817D01*
X416824Y9512D01*
X416898Y9207D01*
X416945Y8939D01*
X416963Y8809D01*
X416982Y8698D01*
X416991Y8597D01*
Y8504D01*
X417000Y8439D01*
Y8384D01*
Y8347D01*
Y8338D01*
X416982Y7996D01*
X416945Y7681D01*
X416880Y7395D01*
X416852Y7256D01*
X416815Y7136D01*
X416778Y7025D01*
X416750Y6923D01*
X416713Y6840D01*
X416686Y6766D01*
X416667Y6710D01*
X416649Y6664D01*
X416630Y6636D01*
Y6627D01*
X416473Y6350D01*
X416297Y6109D01*
X416112Y5897D01*
X415928Y5730D01*
X415844Y5656D01*
X415761Y5592D01*
X415696Y5536D01*
X415632Y5499D01*
X415585Y5462D01*
X415539Y5434D01*
X415521Y5425D01*
X415512Y5416D01*
X415364Y5342D01*
X415225Y5277D01*
X414920Y5176D01*
X414624Y5102D01*
X414356Y5056D01*
X414226Y5037D01*
X414115Y5019D01*
X414014Y5009D01*
X413921D01*
X413857Y5000D01*
X413755D01*
X413459Y5009D01*
X413182Y5046D01*
X412913Y5092D01*
X412682Y5148D01*
X412581Y5176D01*
X412488Y5203D01*
X412405Y5231D01*
X412331Y5250D01*
X412276Y5268D01*
X412239Y5287D01*
X412211Y5296D01*
X412201D01*
X411924Y5407D01*
X411693Y5527D01*
X411490Y5647D01*
X411314Y5749D01*
X411185Y5841D01*
X411138Y5878D01*
X411092Y5915D01*
X411064Y5943D01*
X411037Y5961D01*
X411018Y5980D01*
Y8550D01*
X413801D01*
Y7469D01*
X412322D01*
Y6646D01*
X412433Y6562D01*
X412553Y6489D01*
X412673Y6424D01*
X412784Y6368D01*
X412877Y6322D01*
X412960Y6285D01*
X413006Y6267D01*
X413015Y6257D01*
X413024D01*
X413172Y6202D01*
X413320Y6165D01*
X413459Y6137D01*
X413579Y6119D01*
X413690Y6109D01*
X413764Y6100D01*
X413838D01*
X413986Y6109D01*
X414134Y6128D01*
X414263Y6156D01*
X414393Y6193D01*
X414624Y6285D01*
X414716Y6331D01*
X414809Y6387D01*
X414892Y6442D01*
X414966Y6489D01*
X415021Y6544D01*
X415077Y6581D01*
X415114Y6618D01*
X415142Y6646D01*
X415160Y6664D01*
X415169Y6673D01*
X415253Y6784D01*
X415336Y6914D01*
X415401Y7043D01*
X415456Y7182D01*
X415548Y7469D01*
X415604Y7746D01*
X415622Y7875D01*
X415641Y8005D01*
X415650Y8106D01*
X415659Y8208D01*
X415669Y8282D01*
Y8347D01*
Y8384D01*
Y8393D01*
X415659Y8587D01*
X415650Y8763D01*
X415622Y8939D01*
X415595Y9096D01*
X415558Y9234D01*
X415512Y9364D01*
X415465Y9484D01*
X415419Y9595D01*
X415382Y9688D01*
X415336Y9771D01*
X415290Y9835D01*
X415253Y9891D01*
X415225Y9937D01*
X415197Y9965D01*
X415188Y9983D01*
X415179Y9993D01*
X415077Y10085D01*
X414975Y10178D01*
X414864Y10242D01*
X414753Y10307D01*
X414642Y10362D01*
X414531Y10409D01*
X414319Y10473D01*
X414217Y10492D01*
X414125Y10510D01*
X414041Y10520D01*
X413967Y10529D01*
X413912Y10538D01*
X413829D01*
X413625Y10529D01*
X413450Y10492D01*
X413293Y10455D01*
X413154Y10399D01*
X413052Y10353D01*
X412969Y10307D01*
X412923Y10270D01*
X412904Y10261D01*
X412775Y10150D01*
X412664Y10030D01*
X412571Y9909D01*
X412507Y9789D01*
X412451Y9678D01*
X412414Y9595D01*
X412396Y9540D01*
X412386Y9530D01*
Y9521D01*
X411101Y9761D01*
X411138Y9919D01*
X411194Y10076D01*
X411249Y10215D01*
X411323Y10344D01*
X411388Y10473D01*
X411462Y10584D01*
X411536Y10686D01*
X411610Y10778D01*
X411684Y10862D01*
X411749Y10936D01*
X411804Y11000D01*
X411860Y11047D01*
X411906Y11084D01*
X411943Y11121D01*
X411961Y11130D01*
X411970Y11139D01*
X412100Y11231D01*
X412239Y11306D01*
X412386Y11370D01*
X412544Y11426D01*
X412849Y11518D01*
X413145Y11574D01*
X413283Y11601D01*
X413413Y11611D01*
X413533Y11620D01*
X413635Y11629D01*
X413718Y11638D01*
X413829D01*
X414162Y11629D01*
D02*
G37*
G36*
X403363Y5120D02*
X400940D01*
X400691Y5129D01*
X400460Y5139D01*
X400266Y5157D01*
X400108Y5185D01*
X399979Y5213D01*
X399877Y5231D01*
X399849Y5240D01*
X399822D01*
X399812Y5250D01*
X399803D01*
X399600Y5324D01*
X399415Y5407D01*
X399267Y5490D01*
X399137Y5573D01*
X399036Y5647D01*
X398962Y5703D01*
X398916Y5740D01*
X398897Y5758D01*
X398740Y5934D01*
X398601Y6119D01*
X398481Y6313D01*
X398389Y6489D01*
X398315Y6655D01*
X398278Y6720D01*
X398259Y6775D01*
X398241Y6831D01*
X398222Y6868D01*
X398213Y6886D01*
Y6895D01*
X398148Y7117D01*
X398093Y7348D01*
X398056Y7570D01*
X398037Y7783D01*
X398028Y7885D01*
X398019Y7977D01*
Y8051D01*
X398009Y8125D01*
Y8181D01*
Y8217D01*
Y8245D01*
Y8254D01*
X398019Y8578D01*
X398046Y8865D01*
X398056Y9003D01*
X398074Y9123D01*
X398093Y9244D01*
X398111Y9345D01*
X398139Y9438D01*
X398158Y9521D01*
X398176Y9595D01*
X398185Y9650D01*
X398204Y9697D01*
X398213Y9734D01*
X398222Y9752D01*
Y9761D01*
X398305Y9983D01*
X398407Y10187D01*
X398509Y10362D01*
X398610Y10510D01*
X398694Y10631D01*
X398768Y10723D01*
X398814Y10778D01*
X398823Y10797D01*
X398832D01*
X398990Y10945D01*
X399147Y11065D01*
X399313Y11167D01*
X399461Y11250D01*
X399590Y11315D01*
X399701Y11361D01*
X399739Y11370D01*
X399766Y11379D01*
X399785Y11389D01*
X399794D01*
X399970Y11435D01*
X400164Y11463D01*
X400367Y11490D01*
X400561Y11500D01*
X400737Y11509D01*
X400811Y11518D01*
X403363D01*
Y5120D01*
D02*
G37*
G36*
X384601Y8097D02*
X383611Y7959D01*
X383528Y8042D01*
X383445Y8116D01*
X383362Y8181D01*
X383279Y8236D01*
X383121Y8319D01*
X382973Y8375D01*
X382844Y8402D01*
X382752Y8421D01*
X382715Y8430D01*
X382659D01*
X382511Y8421D01*
X382372Y8384D01*
X382252Y8338D01*
X382150Y8282D01*
X382076Y8217D01*
X382012Y8171D01*
X381975Y8134D01*
X381966Y8125D01*
X381873Y8005D01*
X381808Y7866D01*
X381762Y7718D01*
X381734Y7570D01*
X381707Y7441D01*
X381698Y7339D01*
Y7293D01*
Y7265D01*
Y7247D01*
Y7237D01*
X381707Y7016D01*
X381734Y6821D01*
X381781Y6664D01*
X381827Y6535D01*
X381882Y6424D01*
X381919Y6350D01*
X381956Y6313D01*
X381966Y6294D01*
X382067Y6193D01*
X382178Y6109D01*
X382289Y6054D01*
X382391Y6017D01*
X382483Y5998D01*
X382557Y5989D01*
X382603Y5980D01*
X382622D01*
X382742Y5989D01*
X382862Y6017D01*
X382964Y6054D01*
X383047Y6100D01*
X383121Y6146D01*
X383177Y6183D01*
X383214Y6211D01*
X383223Y6220D01*
X383306Y6322D01*
X383380Y6424D01*
X383436Y6535D01*
X383473Y6636D01*
X383500Y6729D01*
X383519Y6812D01*
X383528Y6858D01*
Y6877D01*
X384748Y6747D01*
X384721Y6600D01*
X384693Y6461D01*
X384601Y6211D01*
X384499Y5989D01*
X384443Y5897D01*
X384379Y5804D01*
X384323Y5730D01*
X384277Y5666D01*
X384221Y5610D01*
X384184Y5555D01*
X384147Y5518D01*
X384120Y5490D01*
X384101Y5481D01*
X384092Y5472D01*
X383981Y5388D01*
X383870Y5314D01*
X383750Y5250D01*
X383630Y5203D01*
X383380Y5111D01*
X383158Y5056D01*
X383047Y5037D01*
X382955Y5028D01*
X382862Y5019D01*
X382788Y5009D01*
X382724Y5000D01*
X382640D01*
X382437Y5009D01*
X382243Y5037D01*
X382067Y5074D01*
X381901Y5129D01*
X381744Y5194D01*
X381605Y5268D01*
X381476Y5342D01*
X381355Y5425D01*
X381254Y5499D01*
X381161Y5573D01*
X381078Y5647D01*
X381013Y5712D01*
X380967Y5767D01*
X380930Y5804D01*
X380912Y5832D01*
X380902Y5841D01*
X380819Y5961D01*
X380745Y6082D01*
X380690Y6202D01*
X380634Y6331D01*
X380551Y6572D01*
X380495Y6794D01*
X380477Y6886D01*
X380468Y6978D01*
X380449Y7062D01*
Y7136D01*
X380440Y7191D01*
Y7228D01*
Y7256D01*
Y7265D01*
X380449Y7441D01*
X380468Y7607D01*
X380495Y7764D01*
X380532Y7912D01*
X380569Y8042D01*
X380625Y8171D01*
X380671Y8291D01*
X380727Y8393D01*
X380782Y8486D01*
X380828Y8569D01*
X380884Y8643D01*
X380921Y8698D01*
X380958Y8745D01*
X380985Y8781D01*
X381004Y8800D01*
X381013Y8809D01*
X381124Y8911D01*
X381235Y9003D01*
X381355Y9086D01*
X381476Y9161D01*
X381586Y9216D01*
X381707Y9262D01*
X381919Y9336D01*
X382021Y9364D01*
X382113Y9382D01*
X382197Y9392D01*
X382261Y9401D01*
X382317Y9410D01*
X382400D01*
X382557Y9401D01*
X382715Y9373D01*
X382853Y9345D01*
X382983Y9308D01*
X383084Y9262D01*
X383167Y9234D01*
X383223Y9207D01*
X383232Y9197D01*
X383242D01*
X383047Y10288D01*
X380727D01*
Y11435D01*
X383972D01*
X384601Y8097D01*
D02*
G37*
G36*
X377879Y5120D02*
X376483D01*
X374208Y11518D01*
X375586D01*
X377149Y6784D01*
X378776Y11518D01*
X380172D01*
X377879Y5120D01*
D02*
G37*
G36*
X388327Y8846D02*
X390000D01*
Y7700D01*
X388327D01*
Y6045D01*
X387208D01*
Y7700D01*
X385525D01*
Y8846D01*
X387208D01*
Y10501D01*
X388327D01*
Y8846D01*
D02*
G37*
G36*
X360946Y11546D02*
X361121Y11527D01*
X361288Y11490D01*
X361426Y11453D01*
X361537Y11416D01*
X361630Y11379D01*
X361685Y11361D01*
X361694Y11352D01*
X361704D01*
X361852Y11269D01*
X361990Y11176D01*
X362101Y11084D01*
X362194Y11000D01*
X362268Y10917D01*
X362323Y10853D01*
X362360Y10816D01*
X362369Y10797D01*
X362453Y10658D01*
X362527Y10510D01*
X362582Y10353D01*
X362638Y10205D01*
X362674Y10067D01*
X362702Y9965D01*
X362711Y9919D01*
Y9891D01*
X362721Y9872D01*
Y9863D01*
X361593Y9678D01*
X361565Y9826D01*
X361528Y9956D01*
X361491Y10067D01*
X361445Y10150D01*
X361399Y10224D01*
X361362Y10279D01*
X361334Y10307D01*
X361325Y10316D01*
X361241Y10390D01*
X361149Y10446D01*
X361057Y10483D01*
X360973Y10510D01*
X360899Y10529D01*
X360844Y10538D01*
X360788D01*
X360677Y10529D01*
X360566Y10510D01*
X360483Y10473D01*
X360409Y10446D01*
X360345Y10409D01*
X360308Y10372D01*
X360280Y10353D01*
X360271Y10344D01*
X360206Y10270D01*
X360160Y10178D01*
X360123Y10094D01*
X360104Y10011D01*
X360086Y9937D01*
X360076Y9882D01*
Y9845D01*
Y9826D01*
X360086Y9688D01*
X360113Y9567D01*
X360160Y9466D01*
X360206Y9382D01*
X360261Y9308D01*
X360298Y9262D01*
X360335Y9225D01*
X360345Y9216D01*
X360456Y9142D01*
X360576Y9086D01*
X360705Y9050D01*
X360825Y9022D01*
X360936Y9013D01*
X361029Y9003D01*
X361112D01*
X361241Y8014D01*
X361121Y8042D01*
X361020Y8069D01*
X360918Y8088D01*
X360835Y8097D01*
X360770Y8106D01*
X360677D01*
X360548Y8097D01*
X360437Y8060D01*
X360335Y8023D01*
X360243Y7968D01*
X360178Y7922D01*
X360123Y7875D01*
X360086Y7838D01*
X360076Y7829D01*
X359993Y7718D01*
X359929Y7598D01*
X359882Y7478D01*
X359845Y7358D01*
X359827Y7247D01*
X359818Y7164D01*
Y7108D01*
Y7099D01*
Y7089D01*
X359827Y6914D01*
X359855Y6757D01*
X359901Y6618D01*
X359947Y6507D01*
X360003Y6424D01*
X360039Y6359D01*
X360076Y6313D01*
X360086Y6304D01*
X360187Y6211D01*
X360298Y6137D01*
X360400Y6091D01*
X360502Y6054D01*
X360594Y6036D01*
X360659Y6026D01*
X360705Y6017D01*
X360724D01*
X360853Y6026D01*
X360964Y6054D01*
X361066Y6091D01*
X361158Y6137D01*
X361223Y6174D01*
X361278Y6211D01*
X361315Y6239D01*
X361325Y6248D01*
X361408Y6350D01*
X361482Y6461D01*
X361528Y6581D01*
X361574Y6692D01*
X361602Y6794D01*
X361620Y6877D01*
X361630Y6932D01*
Y6942D01*
Y6951D01*
X362813Y6803D01*
X362795Y6655D01*
X362758Y6516D01*
X362674Y6257D01*
X362573Y6036D01*
X362508Y5943D01*
X362453Y5851D01*
X362397Y5767D01*
X362342Y5703D01*
X362295Y5638D01*
X362249Y5592D01*
X362212Y5555D01*
X362184Y5527D01*
X362166Y5508D01*
X362157Y5499D01*
X362046Y5416D01*
X361926Y5333D01*
X361815Y5268D01*
X361685Y5213D01*
X361445Y5120D01*
X361223Y5065D01*
X361112Y5046D01*
X361020Y5028D01*
X360936Y5019D01*
X360862Y5009D01*
X360798Y5000D01*
X360714D01*
X360548Y5009D01*
X360382Y5028D01*
X360234Y5056D01*
X360086Y5092D01*
X359956Y5139D01*
X359827Y5185D01*
X359707Y5240D01*
X359605Y5296D01*
X359512Y5351D01*
X359420Y5407D01*
X359355Y5453D01*
X359291Y5499D01*
X359244Y5536D01*
X359207Y5564D01*
X359189Y5583D01*
X359180Y5592D01*
X359069Y5703D01*
X358976Y5823D01*
X358893Y5943D01*
X358819Y6063D01*
X358764Y6193D01*
X358708Y6313D01*
X358634Y6535D01*
X358616Y6636D01*
X358597Y6738D01*
X358579Y6821D01*
X358569Y6895D01*
X358560Y6951D01*
Y6997D01*
Y7025D01*
Y7034D01*
X358579Y7247D01*
X358616Y7432D01*
X358662Y7607D01*
X358727Y7746D01*
X358791Y7866D01*
X358838Y7949D01*
X358875Y8005D01*
X358893Y8023D01*
X359022Y8162D01*
X359170Y8282D01*
X359318Y8375D01*
X359457Y8449D01*
X359577Y8504D01*
X359679Y8532D01*
X359716Y8550D01*
X359744D01*
X359762Y8559D01*
X359771D01*
X359605Y8661D01*
X359466Y8763D01*
X359346Y8874D01*
X359235Y8985D01*
X359143Y9096D01*
X359069Y9207D01*
X359013Y9318D01*
X358958Y9419D01*
X358921Y9521D01*
X358893Y9614D01*
X358875Y9697D01*
X358865Y9771D01*
X358856Y9826D01*
X358847Y9872D01*
Y9900D01*
Y9909D01*
X358856Y10020D01*
X358865Y10122D01*
X358921Y10325D01*
X358985Y10510D01*
X359069Y10668D01*
X359152Y10797D01*
X359226Y10889D01*
X359254Y10926D01*
X359281Y10954D01*
X359291Y10963D01*
X359300Y10973D01*
X359402Y11074D01*
X359522Y11167D01*
X359633Y11241D01*
X359753Y11306D01*
X359882Y11370D01*
X360003Y11416D01*
X360234Y11481D01*
X360335Y11509D01*
X360437Y11527D01*
X360520Y11537D01*
X360603Y11546D01*
X360668Y11555D01*
X360751D01*
X360946Y11546D01*
D02*
G37*
G36*
X350008D02*
X350184Y11527D01*
X350350Y11490D01*
X350489Y11453D01*
X350600Y11416D01*
X350692Y11379D01*
X350748Y11361D01*
X350757Y11352D01*
X350766D01*
X350914Y11269D01*
X351053Y11176D01*
X351164Y11084D01*
X351256Y11000D01*
X351330Y10917D01*
X351386Y10853D01*
X351423Y10816D01*
X351432Y10797D01*
X351515Y10658D01*
X351589Y10510D01*
X351645Y10353D01*
X351700Y10205D01*
X351737Y10067D01*
X351765Y9965D01*
X351774Y9919D01*
Y9891D01*
X351783Y9872D01*
Y9863D01*
X350655Y9678D01*
X350628Y9826D01*
X350591Y9956D01*
X350554Y10067D01*
X350507Y10150D01*
X350461Y10224D01*
X350424Y10279D01*
X350396Y10307D01*
X350387Y10316D01*
X350304Y10390D01*
X350211Y10446D01*
X350119Y10483D01*
X350036Y10510D01*
X349962Y10529D01*
X349906Y10538D01*
X349851D01*
X349740Y10529D01*
X349629Y10510D01*
X349546Y10473D01*
X349472Y10446D01*
X349407Y10409D01*
X349370Y10372D01*
X349342Y10353D01*
X349333Y10344D01*
X349268Y10270D01*
X349222Y10178D01*
X349185Y10094D01*
X349167Y10011D01*
X349148Y9937D01*
X349139Y9882D01*
Y9845D01*
Y9826D01*
X349148Y9688D01*
X349176Y9567D01*
X349222Y9466D01*
X349268Y9382D01*
X349324Y9308D01*
X349361Y9262D01*
X349398Y9225D01*
X349407Y9216D01*
X349518Y9142D01*
X349638Y9086D01*
X349768Y9050D01*
X349888Y9022D01*
X349999Y9013D01*
X350091Y9003D01*
X350174D01*
X350304Y8014D01*
X350184Y8042D01*
X350082Y8069D01*
X349980Y8088D01*
X349897Y8097D01*
X349832Y8106D01*
X349740D01*
X349610Y8097D01*
X349500Y8060D01*
X349398Y8023D01*
X349305Y7968D01*
X349241Y7922D01*
X349185Y7875D01*
X349148Y7838D01*
X349139Y7829D01*
X349056Y7718D01*
X348991Y7598D01*
X348945Y7478D01*
X348908Y7358D01*
X348889Y7247D01*
X348880Y7164D01*
Y7108D01*
Y7099D01*
Y7089D01*
X348889Y6914D01*
X348917Y6757D01*
X348963Y6618D01*
X349010Y6507D01*
X349065Y6424D01*
X349102Y6359D01*
X349139Y6313D01*
X349148Y6304D01*
X349250Y6211D01*
X349361Y6137D01*
X349463Y6091D01*
X349564Y6054D01*
X349657Y6036D01*
X349721Y6026D01*
X349768Y6017D01*
X349786D01*
X349916Y6026D01*
X350027Y6054D01*
X350128Y6091D01*
X350221Y6137D01*
X350285Y6174D01*
X350341Y6211D01*
X350378Y6239D01*
X350387Y6248D01*
X350470Y6350D01*
X350544Y6461D01*
X350591Y6581D01*
X350637Y6692D01*
X350664Y6794D01*
X350683Y6877D01*
X350692Y6932D01*
Y6942D01*
Y6951D01*
X351876Y6803D01*
X351857Y6655D01*
X351820Y6516D01*
X351737Y6257D01*
X351635Y6036D01*
X351571Y5943D01*
X351515Y5851D01*
X351460Y5767D01*
X351404Y5703D01*
X351358Y5638D01*
X351312Y5592D01*
X351275Y5555D01*
X351247Y5527D01*
X351228Y5508D01*
X351219Y5499D01*
X351108Y5416D01*
X350988Y5333D01*
X350877Y5268D01*
X350748Y5213D01*
X350507Y5120D01*
X350285Y5065D01*
X350174Y5046D01*
X350082Y5028D01*
X349999Y5019D01*
X349925Y5009D01*
X349860Y5000D01*
X349777D01*
X349610Y5009D01*
X349444Y5028D01*
X349296Y5056D01*
X349148Y5092D01*
X349019Y5139D01*
X348889Y5185D01*
X348769Y5240D01*
X348667Y5296D01*
X348575Y5351D01*
X348483Y5407D01*
X348418Y5453D01*
X348353Y5499D01*
X348307Y5536D01*
X348270Y5564D01*
X348251Y5583D01*
X348242Y5592D01*
X348131Y5703D01*
X348039Y5823D01*
X347956Y5943D01*
X347882Y6063D01*
X347826Y6193D01*
X347771Y6313D01*
X347697Y6535D01*
X347678Y6636D01*
X347660Y6738D01*
X347641Y6821D01*
X347632Y6895D01*
X347623Y6951D01*
Y6997D01*
Y7025D01*
Y7034D01*
X347641Y7247D01*
X347678Y7432D01*
X347724Y7607D01*
X347789Y7746D01*
X347854Y7866D01*
X347900Y7949D01*
X347937Y8005D01*
X347956Y8023D01*
X348085Y8162D01*
X348233Y8282D01*
X348381Y8375D01*
X348520Y8449D01*
X348640Y8504D01*
X348741Y8532D01*
X348778Y8550D01*
X348806D01*
X348825Y8559D01*
X348834D01*
X348667Y8661D01*
X348529Y8763D01*
X348409Y8874D01*
X348298Y8985D01*
X348205Y9096D01*
X348131Y9207D01*
X348076Y9318D01*
X348020Y9419D01*
X347983Y9521D01*
X347956Y9614D01*
X347937Y9697D01*
X347928Y9771D01*
X347919Y9826D01*
X347909Y9872D01*
Y9900D01*
Y9909D01*
X347919Y10020D01*
X347928Y10122D01*
X347983Y10325D01*
X348048Y10510D01*
X348131Y10668D01*
X348214Y10797D01*
X348288Y10889D01*
X348316Y10926D01*
X348344Y10954D01*
X348353Y10963D01*
X348362Y10973D01*
X348464Y11074D01*
X348584Y11167D01*
X348695Y11241D01*
X348815Y11306D01*
X348945Y11370D01*
X349065Y11416D01*
X349296Y11481D01*
X349398Y11509D01*
X349500Y11527D01*
X349583Y11537D01*
X349666Y11546D01*
X349731Y11555D01*
X349814D01*
X350008Y11546D01*
D02*
G37*
G36*
X355879Y5120D02*
X354483D01*
X352209Y11518D01*
X353586D01*
X355149Y6784D01*
X356776Y11518D01*
X358172D01*
X355879Y5120D01*
D02*
G37*
G36*
X366326Y8846D02*
X368000D01*
Y7700D01*
X366326D01*
Y6045D01*
X365208D01*
Y7700D01*
X363525D01*
Y8846D01*
X365208D01*
Y10501D01*
X366326D01*
Y8846D01*
D02*
G37*
G36*
X341000Y5084D02*
X340093D01*
Y6956D01*
X339802D01*
X339711Y6950D01*
X339633Y6943D01*
X339569Y6930D01*
X339517Y6924D01*
X339484Y6911D01*
X339465Y6904D01*
X339459D01*
X339407Y6878D01*
X339355Y6852D01*
X339310Y6820D01*
X339264Y6794D01*
X339232Y6762D01*
X339206Y6736D01*
X339193Y6723D01*
X339186Y6716D01*
X339160Y6684D01*
X339128Y6652D01*
X339057Y6554D01*
X338979Y6451D01*
X338895Y6334D01*
X338824Y6231D01*
X338791Y6179D01*
X338765Y6140D01*
X338740Y6108D01*
X338720Y6082D01*
X338714Y6062D01*
X338707Y6056D01*
X338059Y5084D01*
X336971D01*
X337522Y5959D01*
X337580Y6049D01*
X337638Y6140D01*
X337690Y6218D01*
X337742Y6289D01*
X337787Y6354D01*
X337826Y6418D01*
X337904Y6516D01*
X337962Y6593D01*
X338001Y6645D01*
X338033Y6678D01*
X338040Y6684D01*
X338111Y6762D01*
X338195Y6833D01*
X338273Y6891D01*
X338351Y6950D01*
X338416Y6995D01*
X338467Y7027D01*
X338506Y7053D01*
X338513Y7060D01*
X338519D01*
X338409Y7079D01*
X338312Y7105D01*
X338221Y7131D01*
X338131Y7163D01*
X338053Y7196D01*
X337982Y7228D01*
X337910Y7261D01*
X337852Y7299D01*
X337800Y7332D01*
X337755Y7364D01*
X337716Y7397D01*
X337690Y7422D01*
X337664Y7442D01*
X337645Y7461D01*
X337638Y7468D01*
X337632Y7474D01*
X337580Y7539D01*
X337535Y7604D01*
X337457Y7746D01*
X337405Y7882D01*
X337373Y8018D01*
X337347Y8135D01*
X337341Y8180D01*
Y8225D01*
X337334Y8258D01*
Y8290D01*
Y8303D01*
Y8310D01*
X337341Y8452D01*
X337366Y8588D01*
X337399Y8705D01*
X337431Y8809D01*
X337470Y8893D01*
X337502Y8957D01*
X337515Y8977D01*
X337528Y8996D01*
X337535Y9003D01*
Y9009D01*
X337612Y9119D01*
X337697Y9210D01*
X337781Y9281D01*
X337865Y9346D01*
X337943Y9385D01*
X338001Y9417D01*
X338040Y9437D01*
X338046Y9443D01*
X338053D01*
X338118Y9463D01*
X338189Y9482D01*
X338351Y9514D01*
X338526Y9534D01*
X338694Y9553D01*
X338778D01*
X338850Y9560D01*
X338921D01*
X338979Y9566D01*
X341000D01*
Y5084D01*
D02*
G37*
G36*
X336479D02*
X333072D01*
Y5842D01*
X335572D01*
Y7060D01*
X333325D01*
Y7818D01*
X335572D01*
Y8809D01*
X333156D01*
Y9566D01*
X336479D01*
Y5084D01*
D02*
G37*
G36*
X328124D02*
X324717D01*
Y5842D01*
X327217D01*
Y7060D01*
X324969D01*
Y7818D01*
X327217D01*
Y8809D01*
X324801D01*
Y9566D01*
X328124D01*
Y5084D01*
D02*
G37*
G36*
X324263Y8809D02*
X322936D01*
Y5084D01*
X322029D01*
Y8809D01*
X320708D01*
Y9566D01*
X324263D01*
Y8809D01*
D02*
G37*
G36*
X330928Y9644D02*
X331097Y9625D01*
X331246Y9599D01*
X331375Y9573D01*
X331433Y9553D01*
X331485Y9540D01*
X331524Y9527D01*
X331563Y9514D01*
X331589Y9502D01*
X331608Y9495D01*
X331621Y9489D01*
X331628D01*
X331757Y9424D01*
X331867Y9352D01*
X331965Y9275D01*
X332042Y9204D01*
X332107Y9139D01*
X332146Y9087D01*
X332178Y9048D01*
X332185Y9042D01*
Y9035D01*
X332250Y8925D01*
X332295Y8809D01*
X332327Y8698D01*
X332347Y8601D01*
X332360Y8517D01*
X332373Y8452D01*
Y8426D01*
Y8407D01*
Y8400D01*
Y8394D01*
X332366Y8297D01*
X332353Y8200D01*
X332334Y8115D01*
X332308Y8031D01*
X332243Y7876D01*
X332165Y7740D01*
X332133Y7681D01*
X332094Y7636D01*
X332062Y7591D01*
X332029Y7552D01*
X332004Y7526D01*
X331984Y7507D01*
X331971Y7494D01*
X331965Y7487D01*
X331906Y7442D01*
X331835Y7397D01*
X331764Y7351D01*
X331680Y7312D01*
X331518Y7235D01*
X331349Y7170D01*
X331265Y7144D01*
X331194Y7118D01*
X331123Y7099D01*
X331064Y7079D01*
X331019Y7066D01*
X330980Y7053D01*
X330954Y7047D01*
X330948D01*
X330844Y7021D01*
X330753Y6995D01*
X330669Y6975D01*
X330592Y6956D01*
X330527Y6937D01*
X330468Y6924D01*
X330417Y6904D01*
X330371Y6891D01*
X330332Y6885D01*
X330300Y6872D01*
X330255Y6859D01*
X330229Y6846D01*
X330222D01*
X330138Y6814D01*
X330073Y6781D01*
X330015Y6749D01*
X329970Y6716D01*
X329937Y6690D01*
X329918Y6671D01*
X329905Y6658D01*
X329898Y6652D01*
X329866Y6606D01*
X329840Y6561D01*
X329827Y6516D01*
X329814Y6477D01*
X329808Y6438D01*
X329801Y6406D01*
Y6386D01*
Y6380D01*
X329808Y6289D01*
X329834Y6211D01*
X329873Y6133D01*
X329911Y6069D01*
X329957Y6017D01*
X329989Y5978D01*
X330015Y5952D01*
X330028Y5946D01*
X330119Y5887D01*
X330222Y5842D01*
X330332Y5810D01*
X330436Y5790D01*
X330533Y5777D01*
X330611Y5764D01*
X330682D01*
X330831Y5771D01*
X330961Y5797D01*
X331071Y5829D01*
X331168Y5868D01*
X331246Y5907D01*
X331297Y5939D01*
X331330Y5965D01*
X331343Y5972D01*
X331427Y6062D01*
X331492Y6159D01*
X331550Y6270D01*
X331589Y6380D01*
X331621Y6477D01*
X331647Y6554D01*
X331654Y6580D01*
Y6606D01*
X331660Y6619D01*
Y6626D01*
X332541Y6542D01*
X332522Y6406D01*
X332496Y6276D01*
X332457Y6153D01*
X332425Y6043D01*
X332379Y5939D01*
X332334Y5842D01*
X332288Y5758D01*
X332243Y5680D01*
X332198Y5615D01*
X332152Y5557D01*
X332114Y5505D01*
X332075Y5460D01*
X332049Y5428D01*
X332023Y5408D01*
X332010Y5395D01*
X332004Y5389D01*
X331913Y5317D01*
X331816Y5259D01*
X331712Y5207D01*
X331602Y5162D01*
X331498Y5130D01*
X331388Y5097D01*
X331174Y5052D01*
X331077Y5032D01*
X330987Y5019D01*
X330909Y5013D01*
X330838Y5006D01*
X330779Y5000D01*
X330695D01*
X330488Y5006D01*
X330300Y5026D01*
X330132Y5052D01*
X330060Y5065D01*
X329989Y5084D01*
X329931Y5097D01*
X329879Y5110D01*
X329834Y5123D01*
X329795Y5136D01*
X329762Y5149D01*
X329743Y5155D01*
X329730Y5162D01*
X329724D01*
X329581Y5233D01*
X329464Y5311D01*
X329354Y5389D01*
X329270Y5473D01*
X329205Y5544D01*
X329154Y5609D01*
X329128Y5648D01*
X329115Y5654D01*
Y5661D01*
X329044Y5790D01*
X328985Y5913D01*
X328946Y6036D01*
X328920Y6153D01*
X328907Y6244D01*
X328901Y6289D01*
X328895Y6321D01*
Y6347D01*
Y6367D01*
Y6380D01*
Y6386D01*
X328901Y6542D01*
X328920Y6678D01*
X328953Y6801D01*
X328985Y6904D01*
X329018Y6988D01*
X329050Y7047D01*
X329069Y7086D01*
X329076Y7099D01*
X329147Y7202D01*
X329231Y7293D01*
X329315Y7371D01*
X329393Y7435D01*
X329464Y7487D01*
X329523Y7526D01*
X329562Y7552D01*
X329568Y7558D01*
X329575D01*
X329639Y7591D01*
X329704Y7623D01*
X329860Y7681D01*
X330022Y7733D01*
X330177Y7785D01*
X330248Y7804D01*
X330319Y7824D01*
X330384Y7843D01*
X330436Y7856D01*
X330481Y7869D01*
X330514Y7876D01*
X330540Y7882D01*
X330546D01*
X330663Y7915D01*
X330766Y7940D01*
X330863Y7966D01*
X330954Y7992D01*
X331025Y8018D01*
X331097Y8044D01*
X331155Y8070D01*
X331207Y8090D01*
X331252Y8109D01*
X331284Y8128D01*
X331317Y8141D01*
X331336Y8154D01*
X331369Y8174D01*
X331375Y8180D01*
X331421Y8225D01*
X331453Y8271D01*
X331472Y8316D01*
X331485Y8362D01*
X331498Y8394D01*
X331505Y8426D01*
Y8446D01*
Y8452D01*
X331498Y8517D01*
X331485Y8569D01*
X331459Y8621D01*
X331433Y8659D01*
X331408Y8692D01*
X331382Y8711D01*
X331369Y8724D01*
X331362Y8731D01*
X331272Y8789D01*
X331174Y8828D01*
X331071Y8860D01*
X330974Y8880D01*
X330889Y8893D01*
X330818Y8899D01*
X330753D01*
X330617Y8893D01*
X330501Y8873D01*
X330404Y8847D01*
X330326Y8821D01*
X330261Y8795D01*
X330216Y8770D01*
X330190Y8750D01*
X330183Y8744D01*
X330119Y8679D01*
X330060Y8601D01*
X330015Y8523D01*
X329983Y8439D01*
X329957Y8368D01*
X329944Y8310D01*
X329931Y8264D01*
Y8258D01*
Y8251D01*
X329024Y8284D01*
X329030Y8400D01*
X329050Y8504D01*
X329076Y8608D01*
X329108Y8698D01*
X329141Y8789D01*
X329179Y8873D01*
X329218Y8945D01*
X329257Y9016D01*
X329302Y9074D01*
X329341Y9126D01*
X329380Y9171D01*
X329413Y9210D01*
X329439Y9236D01*
X329458Y9255D01*
X329471Y9268D01*
X329477Y9275D01*
X329562Y9340D01*
X329652Y9398D01*
X329749Y9450D01*
X329853Y9495D01*
X329957Y9527D01*
X330060Y9560D01*
X330268Y9605D01*
X330365Y9618D01*
X330449Y9631D01*
X330533Y9638D01*
X330604Y9644D01*
X330663Y9650D01*
X330740D01*
X330928Y9644D01*
D02*
G37*
G36*
X297521Y11546D02*
X297697Y11527D01*
X297863Y11490D01*
X298002Y11453D01*
X298113Y11416D01*
X298205Y11379D01*
X298261Y11361D01*
X298270Y11352D01*
X298279D01*
X298427Y11269D01*
X298566Y11176D01*
X298677Y11084D01*
X298769Y11000D01*
X298843Y10917D01*
X298899Y10853D01*
X298936Y10816D01*
X298945Y10797D01*
X299028Y10658D01*
X299102Y10510D01*
X299158Y10353D01*
X299213Y10205D01*
X299250Y10067D01*
X299278Y9965D01*
X299287Y9919D01*
Y9891D01*
X299296Y9872D01*
Y9863D01*
X298168Y9678D01*
X298141Y9826D01*
X298104Y9956D01*
X298067Y10067D01*
X298020Y10150D01*
X297974Y10224D01*
X297937Y10279D01*
X297909Y10307D01*
X297900Y10316D01*
X297817Y10390D01*
X297724Y10446D01*
X297632Y10483D01*
X297549Y10510D01*
X297475Y10529D01*
X297419Y10538D01*
X297364D01*
X297253Y10529D01*
X297142Y10510D01*
X297059Y10473D01*
X296985Y10446D01*
X296920Y10409D01*
X296883Y10372D01*
X296855Y10353D01*
X296846Y10344D01*
X296781Y10270D01*
X296735Y10178D01*
X296698Y10094D01*
X296680Y10011D01*
X296661Y9937D01*
X296652Y9882D01*
Y9845D01*
Y9826D01*
X296661Y9688D01*
X296689Y9567D01*
X296735Y9466D01*
X296781Y9382D01*
X296837Y9308D01*
X296874Y9262D01*
X296911Y9225D01*
X296920Y9216D01*
X297031Y9142D01*
X297151Y9086D01*
X297281Y9050D01*
X297401Y9022D01*
X297512Y9013D01*
X297604Y9003D01*
X297687D01*
X297817Y8014D01*
X297697Y8042D01*
X297595Y8069D01*
X297493Y8088D01*
X297410Y8097D01*
X297345Y8106D01*
X297253D01*
X297123Y8097D01*
X297013Y8060D01*
X296911Y8023D01*
X296818Y7968D01*
X296754Y7922D01*
X296698Y7875D01*
X296661Y7838D01*
X296652Y7829D01*
X296569Y7718D01*
X296504Y7598D01*
X296458Y7478D01*
X296421Y7358D01*
X296402Y7247D01*
X296393Y7164D01*
Y7108D01*
Y7099D01*
Y7089D01*
X296402Y6914D01*
X296430Y6757D01*
X296476Y6618D01*
X296523Y6507D01*
X296578Y6424D01*
X296615Y6359D01*
X296652Y6313D01*
X296661Y6304D01*
X296763Y6211D01*
X296874Y6137D01*
X296975Y6091D01*
X297077Y6054D01*
X297170Y6036D01*
X297234Y6026D01*
X297281Y6017D01*
X297299D01*
X297428Y6026D01*
X297540Y6054D01*
X297641Y6091D01*
X297734Y6137D01*
X297798Y6174D01*
X297854Y6211D01*
X297891Y6239D01*
X297900Y6248D01*
X297983Y6350D01*
X298057Y6461D01*
X298104Y6581D01*
X298150Y6692D01*
X298177Y6794D01*
X298196Y6877D01*
X298205Y6932D01*
Y6942D01*
Y6951D01*
X299389Y6803D01*
X299370Y6655D01*
X299333Y6516D01*
X299250Y6257D01*
X299148Y6036D01*
X299083Y5943D01*
X299028Y5851D01*
X298973Y5767D01*
X298917Y5703D01*
X298871Y5638D01*
X298825Y5592D01*
X298788Y5555D01*
X298760Y5527D01*
X298741Y5508D01*
X298732Y5499D01*
X298621Y5416D01*
X298501Y5333D01*
X298390Y5268D01*
X298261Y5213D01*
X298020Y5120D01*
X297798Y5065D01*
X297687Y5046D01*
X297595Y5028D01*
X297512Y5019D01*
X297438Y5009D01*
X297373Y5000D01*
X297290D01*
X297123Y5009D01*
X296957Y5028D01*
X296809Y5056D01*
X296661Y5092D01*
X296532Y5139D01*
X296402Y5185D01*
X296282Y5240D01*
X296180Y5296D01*
X296088Y5351D01*
X295996Y5407D01*
X295931Y5453D01*
X295866Y5499D01*
X295820Y5536D01*
X295783Y5564D01*
X295764Y5583D01*
X295755Y5592D01*
X295644Y5703D01*
X295552Y5823D01*
X295469Y5943D01*
X295394Y6063D01*
X295339Y6193D01*
X295284Y6313D01*
X295210Y6535D01*
X295191Y6636D01*
X295173Y6738D01*
X295154Y6821D01*
X295145Y6895D01*
X295136Y6951D01*
Y6997D01*
Y7025D01*
Y7034D01*
X295154Y7247D01*
X295191Y7432D01*
X295237Y7607D01*
X295302Y7746D01*
X295367Y7866D01*
X295413Y7949D01*
X295450Y8005D01*
X295469Y8023D01*
X295598Y8162D01*
X295746Y8282D01*
X295894Y8375D01*
X296033Y8449D01*
X296153Y8504D01*
X296254Y8532D01*
X296291Y8550D01*
X296319D01*
X296338Y8559D01*
X296347D01*
X296180Y8661D01*
X296042Y8763D01*
X295921Y8874D01*
X295811Y8985D01*
X295718Y9096D01*
X295644Y9207D01*
X295589Y9318D01*
X295533Y9419D01*
X295496Y9521D01*
X295469Y9614D01*
X295450Y9697D01*
X295441Y9771D01*
X295431Y9826D01*
X295422Y9872D01*
Y9900D01*
Y9909D01*
X295431Y10020D01*
X295441Y10122D01*
X295496Y10325D01*
X295561Y10510D01*
X295644Y10668D01*
X295727Y10797D01*
X295801Y10889D01*
X295829Y10926D01*
X295857Y10954D01*
X295866Y10963D01*
X295875Y10973D01*
X295977Y11074D01*
X296097Y11167D01*
X296208Y11241D01*
X296328Y11306D01*
X296458Y11370D01*
X296578Y11416D01*
X296809Y11481D01*
X296911Y11509D01*
X297013Y11527D01*
X297096Y11537D01*
X297179Y11546D01*
X297244Y11555D01*
X297327D01*
X297521Y11546D01*
D02*
G37*
G36*
X286583D02*
X286759Y11527D01*
X286926Y11490D01*
X287064Y11453D01*
X287175Y11416D01*
X287268Y11379D01*
X287323Y11361D01*
X287332Y11352D01*
X287342D01*
X287489Y11269D01*
X287628Y11176D01*
X287739Y11084D01*
X287832Y11000D01*
X287906Y10917D01*
X287961Y10853D01*
X287998Y10816D01*
X288007Y10797D01*
X288090Y10658D01*
X288164Y10510D01*
X288220Y10353D01*
X288275Y10205D01*
X288312Y10067D01*
X288340Y9965D01*
X288349Y9919D01*
Y9891D01*
X288359Y9872D01*
Y9863D01*
X287231Y9678D01*
X287203Y9826D01*
X287166Y9956D01*
X287129Y10067D01*
X287083Y10150D01*
X287036Y10224D01*
X286999Y10279D01*
X286972Y10307D01*
X286963Y10316D01*
X286879Y10390D01*
X286787Y10446D01*
X286694Y10483D01*
X286611Y10510D01*
X286537Y10529D01*
X286482Y10538D01*
X286426D01*
X286315Y10529D01*
X286204Y10510D01*
X286121Y10473D01*
X286047Y10446D01*
X285982Y10409D01*
X285945Y10372D01*
X285918Y10353D01*
X285909Y10344D01*
X285844Y10270D01*
X285798Y10178D01*
X285761Y10094D01*
X285742Y10011D01*
X285724Y9937D01*
X285714Y9882D01*
Y9845D01*
Y9826D01*
X285724Y9688D01*
X285751Y9567D01*
X285798Y9466D01*
X285844Y9382D01*
X285899Y9308D01*
X285936Y9262D01*
X285973Y9225D01*
X285982Y9216D01*
X286093Y9142D01*
X286214Y9086D01*
X286343Y9050D01*
X286463Y9022D01*
X286574Y9013D01*
X286667Y9003D01*
X286750D01*
X286879Y8014D01*
X286759Y8042D01*
X286657Y8069D01*
X286556Y8088D01*
X286472Y8097D01*
X286408Y8106D01*
X286315D01*
X286186Y8097D01*
X286075Y8060D01*
X285973Y8023D01*
X285881Y7968D01*
X285816Y7922D01*
X285761Y7875D01*
X285724Y7838D01*
X285714Y7829D01*
X285631Y7718D01*
X285566Y7598D01*
X285520Y7478D01*
X285483Y7358D01*
X285465Y7247D01*
X285455Y7164D01*
Y7108D01*
Y7099D01*
Y7089D01*
X285465Y6914D01*
X285492Y6757D01*
X285539Y6618D01*
X285585Y6507D01*
X285640Y6424D01*
X285677Y6359D01*
X285714Y6313D01*
X285724Y6304D01*
X285825Y6211D01*
X285936Y6137D01*
X286038Y6091D01*
X286140Y6054D01*
X286232Y6036D01*
X286297Y6026D01*
X286343Y6017D01*
X286362D01*
X286491Y6026D01*
X286602Y6054D01*
X286704Y6091D01*
X286796Y6137D01*
X286861Y6174D01*
X286916Y6211D01*
X286953Y6239D01*
X286963Y6248D01*
X287046Y6350D01*
X287120Y6461D01*
X287166Y6581D01*
X287212Y6692D01*
X287240Y6794D01*
X287258Y6877D01*
X287268Y6932D01*
Y6942D01*
Y6951D01*
X288451Y6803D01*
X288433Y6655D01*
X288396Y6516D01*
X288312Y6257D01*
X288211Y6036D01*
X288146Y5943D01*
X288090Y5851D01*
X288035Y5767D01*
X287980Y5703D01*
X287933Y5638D01*
X287887Y5592D01*
X287850Y5555D01*
X287822Y5527D01*
X287804Y5508D01*
X287795Y5499D01*
X287684Y5416D01*
X287563Y5333D01*
X287453Y5268D01*
X287323Y5213D01*
X287083Y5120D01*
X286861Y5065D01*
X286750Y5046D01*
X286657Y5028D01*
X286574Y5019D01*
X286500Y5009D01*
X286436Y5000D01*
X286352D01*
X286186Y5009D01*
X286019Y5028D01*
X285872Y5056D01*
X285724Y5092D01*
X285594Y5139D01*
X285465Y5185D01*
X285345Y5240D01*
X285243Y5296D01*
X285150Y5351D01*
X285058Y5407D01*
X284993Y5453D01*
X284928Y5499D01*
X284882Y5536D01*
X284845Y5564D01*
X284827Y5583D01*
X284818Y5592D01*
X284707Y5703D01*
X284614Y5823D01*
X284531Y5943D01*
X284457Y6063D01*
X284401Y6193D01*
X284346Y6313D01*
X284272Y6535D01*
X284254Y6636D01*
X284235Y6738D01*
X284217Y6821D01*
X284207Y6895D01*
X284198Y6951D01*
Y6997D01*
Y7025D01*
Y7034D01*
X284217Y7247D01*
X284254Y7432D01*
X284300Y7607D01*
X284364Y7746D01*
X284429Y7866D01*
X284475Y7949D01*
X284512Y8005D01*
X284531Y8023D01*
X284660Y8162D01*
X284808Y8282D01*
X284956Y8375D01*
X285095Y8449D01*
X285215Y8504D01*
X285317Y8532D01*
X285354Y8550D01*
X285382D01*
X285400Y8559D01*
X285409D01*
X285243Y8661D01*
X285104Y8763D01*
X284984Y8874D01*
X284873Y8985D01*
X284781Y9096D01*
X284707Y9207D01*
X284651Y9318D01*
X284596Y9419D01*
X284559Y9521D01*
X284531Y9614D01*
X284512Y9697D01*
X284503Y9771D01*
X284494Y9826D01*
X284485Y9872D01*
Y9900D01*
Y9909D01*
X284494Y10020D01*
X284503Y10122D01*
X284559Y10325D01*
X284623Y10510D01*
X284707Y10668D01*
X284790Y10797D01*
X284864Y10889D01*
X284891Y10926D01*
X284919Y10954D01*
X284928Y10963D01*
X284938Y10973D01*
X285039Y11074D01*
X285160Y11167D01*
X285271Y11241D01*
X285391Y11306D01*
X285520Y11370D01*
X285640Y11416D01*
X285872Y11481D01*
X285973Y11509D01*
X286075Y11527D01*
X286158Y11537D01*
X286241Y11546D01*
X286306Y11555D01*
X286389D01*
X286583Y11546D01*
D02*
G37*
G36*
X312601Y8097D02*
X311611Y7959D01*
X311528Y8042D01*
X311445Y8116D01*
X311362Y8181D01*
X311278Y8236D01*
X311121Y8319D01*
X310973Y8375D01*
X310844Y8402D01*
X310751Y8421D01*
X310714Y8430D01*
X310659D01*
X310511Y8421D01*
X310372Y8384D01*
X310252Y8338D01*
X310151Y8282D01*
X310077Y8217D01*
X310012Y8171D01*
X309975Y8134D01*
X309966Y8125D01*
X309873Y8005D01*
X309808Y7866D01*
X309762Y7718D01*
X309734Y7570D01*
X309707Y7441D01*
X309697Y7339D01*
Y7293D01*
Y7265D01*
Y7247D01*
Y7237D01*
X309707Y7016D01*
X309734Y6821D01*
X309781Y6664D01*
X309827Y6535D01*
X309882Y6424D01*
X309919Y6350D01*
X309956Y6313D01*
X309966Y6294D01*
X310067Y6193D01*
X310178Y6109D01*
X310289Y6054D01*
X310391Y6017D01*
X310483Y5998D01*
X310557Y5989D01*
X310604Y5980D01*
X310622D01*
X310742Y5989D01*
X310862Y6017D01*
X310964Y6054D01*
X311047Y6100D01*
X311121Y6146D01*
X311177Y6183D01*
X311214Y6211D01*
X311223Y6220D01*
X311306Y6322D01*
X311380Y6424D01*
X311436Y6535D01*
X311473Y6636D01*
X311500Y6729D01*
X311519Y6812D01*
X311528Y6858D01*
Y6877D01*
X312749Y6747D01*
X312721Y6600D01*
X312693Y6461D01*
X312601Y6211D01*
X312499Y5989D01*
X312443Y5897D01*
X312379Y5804D01*
X312323Y5730D01*
X312277Y5666D01*
X312222Y5610D01*
X312185Y5555D01*
X312148Y5518D01*
X312120Y5490D01*
X312101Y5481D01*
X312092Y5472D01*
X311981Y5388D01*
X311870Y5314D01*
X311750Y5250D01*
X311630Y5203D01*
X311380Y5111D01*
X311158Y5056D01*
X311047Y5037D01*
X310955Y5028D01*
X310862Y5019D01*
X310788Y5009D01*
X310724Y5000D01*
X310641D01*
X310437Y5009D01*
X310243Y5037D01*
X310067Y5074D01*
X309901Y5129D01*
X309744Y5194D01*
X309605Y5268D01*
X309476Y5342D01*
X309355Y5425D01*
X309254Y5499D01*
X309161Y5573D01*
X309078Y5647D01*
X309013Y5712D01*
X308967Y5767D01*
X308930Y5804D01*
X308912Y5832D01*
X308902Y5841D01*
X308819Y5961D01*
X308745Y6082D01*
X308690Y6202D01*
X308634Y6331D01*
X308551Y6572D01*
X308496Y6794D01*
X308477Y6886D01*
X308468Y6978D01*
X308449Y7062D01*
Y7136D01*
X308440Y7191D01*
Y7228D01*
Y7256D01*
Y7265D01*
X308449Y7441D01*
X308468Y7607D01*
X308496Y7764D01*
X308533Y7912D01*
X308570Y8042D01*
X308625Y8171D01*
X308671Y8291D01*
X308727Y8393D01*
X308782Y8486D01*
X308828Y8569D01*
X308884Y8643D01*
X308921Y8698D01*
X308958Y8745D01*
X308986Y8781D01*
X309004Y8800D01*
X309013Y8809D01*
X309124Y8911D01*
X309235Y9003D01*
X309355Y9086D01*
X309476Y9161D01*
X309587Y9216D01*
X309707Y9262D01*
X309919Y9336D01*
X310021Y9364D01*
X310114Y9382D01*
X310197Y9392D01*
X310261Y9401D01*
X310317Y9410D01*
X310400D01*
X310557Y9401D01*
X310714Y9373D01*
X310853Y9345D01*
X310983Y9308D01*
X311084Y9262D01*
X311168Y9234D01*
X311223Y9207D01*
X311232Y9197D01*
X311241D01*
X311047Y10288D01*
X308727D01*
Y11435D01*
X311972D01*
X312601Y8097D01*
D02*
G37*
G36*
X305879Y5120D02*
X304483D01*
X302208Y11518D01*
X303586D01*
X305149Y6784D01*
X306776Y11518D01*
X308172D01*
X305879Y5120D01*
D02*
G37*
G36*
X292454D02*
X291058D01*
X288784Y11518D01*
X290161D01*
X291724Y6784D01*
X293351Y11518D01*
X294747D01*
X292454Y5120D01*
D02*
G37*
G36*
X316327Y8846D02*
X318000D01*
Y7700D01*
X316327D01*
Y6045D01*
X315208D01*
Y7700D01*
X313525D01*
Y8846D01*
X315208D01*
Y10501D01*
X316327D01*
Y8846D01*
D02*
G37*
G36*
X302218Y5009D02*
X301312D01*
X299712Y11629D01*
X300637D01*
X302218Y5009D01*
D02*
G37*
G36*
X367698Y529629D02*
X367938Y529601D01*
X368151Y529564D01*
X368336Y529527D01*
X368419Y529500D01*
X368493Y529481D01*
X368548Y529463D01*
X368604Y529444D01*
X368641Y529426D01*
X368669Y529416D01*
X368687Y529407D01*
X368696D01*
X368881Y529315D01*
X369039Y529213D01*
X369177Y529102D01*
X369288Y529000D01*
X369380Y528908D01*
X369436Y528834D01*
X369482Y528778D01*
X369492Y528769D01*
Y528760D01*
X369584Y528603D01*
X369649Y528436D01*
X369695Y528279D01*
X369723Y528140D01*
X369741Y528020D01*
X369760Y527928D01*
Y527891D01*
Y527863D01*
Y527854D01*
Y527845D01*
X369750Y527706D01*
X369732Y527567D01*
X369704Y527447D01*
X369667Y527327D01*
X369575Y527105D01*
X369464Y526911D01*
X369417Y526828D01*
X369362Y526763D01*
X369316Y526698D01*
X369270Y526643D01*
X369233Y526606D01*
X369205Y526578D01*
X369186Y526560D01*
X369177Y526550D01*
X369094Y526486D01*
X368992Y526421D01*
X368890Y526356D01*
X368770Y526301D01*
X368539Y526190D01*
X368299Y526097D01*
X368179Y526060D01*
X368077Y526023D01*
X367975Y525996D01*
X367892Y525968D01*
X367827Y525949D01*
X367772Y525931D01*
X367735Y525922D01*
X367726D01*
X367578Y525885D01*
X367448Y525848D01*
X367328Y525820D01*
X367217Y525792D01*
X367125Y525764D01*
X367041Y525746D01*
X366967Y525718D01*
X366903Y525700D01*
X366847Y525690D01*
X366801Y525672D01*
X366736Y525653D01*
X366699Y525635D01*
X366690D01*
X366570Y525589D01*
X366477Y525542D01*
X366394Y525496D01*
X366329Y525450D01*
X366283Y525413D01*
X366255Y525385D01*
X366237Y525367D01*
X366228Y525358D01*
X366182Y525293D01*
X366145Y525228D01*
X366126Y525163D01*
X366108Y525108D01*
X366098Y525052D01*
X366089Y525006D01*
Y524979D01*
Y524969D01*
X366098Y524840D01*
X366135Y524729D01*
X366191Y524618D01*
X366246Y524525D01*
X366311Y524452D01*
X366357Y524396D01*
X366394Y524359D01*
X366413Y524350D01*
X366542Y524267D01*
X366690Y524202D01*
X366847Y524156D01*
X366995Y524128D01*
X367134Y524109D01*
X367245Y524091D01*
X367346D01*
X367559Y524100D01*
X367744Y524137D01*
X367901Y524183D01*
X368040Y524239D01*
X368151Y524294D01*
X368225Y524341D01*
X368271Y524378D01*
X368290Y524387D01*
X368410Y524516D01*
X368502Y524655D01*
X368585Y524812D01*
X368641Y524969D01*
X368687Y525108D01*
X368724Y525219D01*
X368733Y525256D01*
Y525293D01*
X368743Y525311D01*
Y525321D01*
X370000Y525200D01*
X369972Y525006D01*
X369935Y524821D01*
X369880Y524646D01*
X369834Y524488D01*
X369769Y524341D01*
X369704Y524202D01*
X369639Y524082D01*
X369575Y523971D01*
X369510Y523878D01*
X369445Y523795D01*
X369390Y523721D01*
X369334Y523656D01*
X369297Y523610D01*
X369260Y523582D01*
X369242Y523564D01*
X369233Y523555D01*
X369103Y523453D01*
X368965Y523370D01*
X368817Y523296D01*
X368659Y523231D01*
X368512Y523185D01*
X368354Y523139D01*
X368049Y523074D01*
X367910Y523046D01*
X367781Y523028D01*
X367670Y523018D01*
X367568Y523009D01*
X367485Y523000D01*
X367365D01*
X367069Y523009D01*
X366801Y523037D01*
X366561Y523074D01*
X366459Y523092D01*
X366357Y523120D01*
X366274Y523139D01*
X366200Y523157D01*
X366135Y523176D01*
X366080Y523194D01*
X366034Y523213D01*
X366006Y523222D01*
X365987Y523231D01*
X365978D01*
X365775Y523333D01*
X365608Y523444D01*
X365451Y523555D01*
X365331Y523675D01*
X365238Y523777D01*
X365164Y523869D01*
X365128Y523925D01*
X365109Y523934D01*
Y523943D01*
X365007Y524128D01*
X364924Y524304D01*
X364869Y524479D01*
X364832Y524646D01*
X364813Y524775D01*
X364804Y524840D01*
X364795Y524886D01*
Y524923D01*
Y524951D01*
Y524969D01*
Y524979D01*
X364804Y525200D01*
X364832Y525395D01*
X364878Y525570D01*
X364924Y525718D01*
X364970Y525838D01*
X365017Y525922D01*
X365044Y525977D01*
X365054Y525996D01*
X365155Y526143D01*
X365275Y526273D01*
X365396Y526384D01*
X365507Y526476D01*
X365608Y526550D01*
X365691Y526606D01*
X365747Y526643D01*
X365756Y526652D01*
X365765D01*
X365858Y526698D01*
X365950Y526744D01*
X366172Y526828D01*
X366404Y526902D01*
X366625Y526976D01*
X366727Y527003D01*
X366829Y527031D01*
X366921Y527059D01*
X366995Y527077D01*
X367060Y527096D01*
X367106Y527105D01*
X367143Y527114D01*
X367152D01*
X367319Y527160D01*
X367467Y527197D01*
X367605Y527234D01*
X367735Y527271D01*
X367836Y527308D01*
X367938Y527345D01*
X368021Y527382D01*
X368095Y527410D01*
X368160Y527438D01*
X368206Y527466D01*
X368253Y527484D01*
X368280Y527503D01*
X368326Y527530D01*
X368336Y527540D01*
X368400Y527604D01*
X368447Y527669D01*
X368475Y527734D01*
X368493Y527799D01*
X368512Y527845D01*
X368521Y527891D01*
Y527919D01*
Y527928D01*
X368512Y528020D01*
X368493Y528094D01*
X368456Y528168D01*
X368419Y528224D01*
X368382Y528270D01*
X368345Y528298D01*
X368326Y528316D01*
X368317Y528326D01*
X368188Y528409D01*
X368049Y528464D01*
X367901Y528510D01*
X367763Y528538D01*
X367642Y528557D01*
X367541Y528566D01*
X367448D01*
X367254Y528557D01*
X367088Y528529D01*
X366949Y528492D01*
X366838Y528455D01*
X366745Y528418D01*
X366681Y528381D01*
X366644Y528353D01*
X366635Y528344D01*
X366542Y528251D01*
X366459Y528140D01*
X366394Y528030D01*
X366348Y527909D01*
X366311Y527808D01*
X366292Y527724D01*
X366274Y527660D01*
Y527650D01*
Y527641D01*
X364980Y527687D01*
X364989Y527854D01*
X365017Y528002D01*
X365054Y528150D01*
X365100Y528279D01*
X365146Y528409D01*
X365201Y528529D01*
X365257Y528631D01*
X365312Y528732D01*
X365377Y528815D01*
X365433Y528889D01*
X365488Y528954D01*
X365534Y529010D01*
X365571Y529047D01*
X365599Y529074D01*
X365618Y529093D01*
X365627Y529102D01*
X365747Y529194D01*
X365877Y529278D01*
X366015Y529352D01*
X366163Y529416D01*
X366311Y529463D01*
X366459Y529509D01*
X366755Y529574D01*
X366894Y529592D01*
X367014Y529611D01*
X367134Y529620D01*
X367236Y529629D01*
X367319Y529638D01*
X367430D01*
X367698Y529629D01*
D02*
G37*
G36*
X361734D02*
X361975Y529601D01*
X362188Y529564D01*
X362372Y529527D01*
X362456Y529500D01*
X362530Y529481D01*
X362585Y529463D01*
X362640Y529444D01*
X362677Y529426D01*
X362705Y529416D01*
X362724Y529407D01*
X362733D01*
X362918Y529315D01*
X363075Y529213D01*
X363214Y529102D01*
X363325Y529000D01*
X363417Y528908D01*
X363473Y528834D01*
X363519Y528778D01*
X363528Y528769D01*
Y528760D01*
X363620Y528603D01*
X363685Y528436D01*
X363731Y528279D01*
X363759Y528140D01*
X363778Y528020D01*
X363796Y527928D01*
Y527891D01*
Y527863D01*
Y527854D01*
Y527845D01*
X363787Y527706D01*
X363769Y527567D01*
X363741Y527447D01*
X363704Y527327D01*
X363611Y527105D01*
X363500Y526911D01*
X363454Y526828D01*
X363399Y526763D01*
X363352Y526698D01*
X363306Y526643D01*
X363269Y526606D01*
X363242Y526578D01*
X363223Y526560D01*
X363214Y526550D01*
X363130Y526486D01*
X363029Y526421D01*
X362927Y526356D01*
X362807Y526301D01*
X362576Y526190D01*
X362335Y526097D01*
X362215Y526060D01*
X362113Y526023D01*
X362012Y525996D01*
X361929Y525968D01*
X361864Y525949D01*
X361808Y525931D01*
X361771Y525922D01*
X361762D01*
X361614Y525885D01*
X361485Y525848D01*
X361365Y525820D01*
X361254Y525792D01*
X361161Y525764D01*
X361078Y525746D01*
X361004Y525718D01*
X360939Y525700D01*
X360884Y525690D01*
X360838Y525672D01*
X360773Y525653D01*
X360736Y525635D01*
X360727D01*
X360606Y525589D01*
X360514Y525542D01*
X360431Y525496D01*
X360366Y525450D01*
X360320Y525413D01*
X360292Y525385D01*
X360274Y525367D01*
X360264Y525358D01*
X360218Y525293D01*
X360181Y525228D01*
X360163Y525163D01*
X360144Y525108D01*
X360135Y525052D01*
X360126Y525006D01*
Y524979D01*
Y524969D01*
X360135Y524840D01*
X360172Y524729D01*
X360227Y524618D01*
X360283Y524525D01*
X360348Y524452D01*
X360394Y524396D01*
X360431Y524359D01*
X360449Y524350D01*
X360579Y524267D01*
X360727Y524202D01*
X360884Y524156D01*
X361032Y524128D01*
X361170Y524109D01*
X361281Y524091D01*
X361383D01*
X361596Y524100D01*
X361781Y524137D01*
X361938Y524183D01*
X362076Y524239D01*
X362188Y524294D01*
X362261Y524341D01*
X362308Y524378D01*
X362326Y524387D01*
X362446Y524516D01*
X362539Y524655D01*
X362622Y524812D01*
X362677Y524969D01*
X362724Y525108D01*
X362761Y525219D01*
X362770Y525256D01*
Y525293D01*
X362779Y525311D01*
Y525321D01*
X364037Y525200D01*
X364009Y525006D01*
X363972Y524821D01*
X363916Y524646D01*
X363870Y524488D01*
X363805Y524341D01*
X363741Y524202D01*
X363676Y524082D01*
X363611Y523971D01*
X363547Y523878D01*
X363482Y523795D01*
X363426Y523721D01*
X363371Y523656D01*
X363334Y523610D01*
X363297Y523582D01*
X363278Y523564D01*
X363269Y523555D01*
X363140Y523453D01*
X363001Y523370D01*
X362853Y523296D01*
X362696Y523231D01*
X362548Y523185D01*
X362391Y523139D01*
X362086Y523074D01*
X361947Y523046D01*
X361818Y523028D01*
X361707Y523018D01*
X361605Y523009D01*
X361522Y523000D01*
X361402D01*
X361106Y523009D01*
X360838Y523037D01*
X360597Y523074D01*
X360495Y523092D01*
X360394Y523120D01*
X360311Y523139D01*
X360237Y523157D01*
X360172Y523176D01*
X360117Y523194D01*
X360070Y523213D01*
X360042Y523222D01*
X360024Y523231D01*
X360015D01*
X359811Y523333D01*
X359645Y523444D01*
X359488Y523555D01*
X359368Y523675D01*
X359275Y523777D01*
X359201Y523869D01*
X359164Y523925D01*
X359146Y523934D01*
Y523943D01*
X359044Y524128D01*
X358961Y524304D01*
X358905Y524479D01*
X358868Y524646D01*
X358850Y524775D01*
X358841Y524840D01*
X358831Y524886D01*
Y524923D01*
Y524951D01*
Y524969D01*
Y524979D01*
X358841Y525200D01*
X358868Y525395D01*
X358914Y525570D01*
X358961Y525718D01*
X359007Y525838D01*
X359053Y525922D01*
X359081Y525977D01*
X359090Y525996D01*
X359192Y526143D01*
X359312Y526273D01*
X359432Y526384D01*
X359543Y526476D01*
X359645Y526550D01*
X359728Y526606D01*
X359784Y526643D01*
X359793Y526652D01*
X359802D01*
X359895Y526698D01*
X359987Y526744D01*
X360209Y526828D01*
X360440Y526902D01*
X360662Y526976D01*
X360764Y527003D01*
X360865Y527031D01*
X360958Y527059D01*
X361032Y527077D01*
X361096Y527096D01*
X361143Y527105D01*
X361180Y527114D01*
X361189D01*
X361355Y527160D01*
X361503Y527197D01*
X361642Y527234D01*
X361771Y527271D01*
X361873Y527308D01*
X361975Y527345D01*
X362058Y527382D01*
X362132Y527410D01*
X362197Y527438D01*
X362243Y527466D01*
X362289Y527484D01*
X362317Y527503D01*
X362363Y527530D01*
X362372Y527540D01*
X362437Y527604D01*
X362483Y527669D01*
X362511Y527734D01*
X362530Y527799D01*
X362548Y527845D01*
X362557Y527891D01*
Y527919D01*
Y527928D01*
X362548Y528020D01*
X362530Y528094D01*
X362493Y528168D01*
X362456Y528224D01*
X362419Y528270D01*
X362382Y528298D01*
X362363Y528316D01*
X362354Y528326D01*
X362224Y528409D01*
X362086Y528464D01*
X361938Y528510D01*
X361799Y528538D01*
X361679Y528557D01*
X361577Y528566D01*
X361485D01*
X361291Y528557D01*
X361124Y528529D01*
X360985Y528492D01*
X360875Y528455D01*
X360782Y528418D01*
X360717Y528381D01*
X360680Y528353D01*
X360671Y528344D01*
X360579Y528251D01*
X360495Y528140D01*
X360431Y528030D01*
X360385Y527909D01*
X360348Y527808D01*
X360329Y527724D01*
X360311Y527660D01*
Y527650D01*
Y527641D01*
X359016Y527687D01*
X359025Y527854D01*
X359053Y528002D01*
X359090Y528150D01*
X359136Y528279D01*
X359183Y528409D01*
X359238Y528529D01*
X359294Y528631D01*
X359349Y528732D01*
X359414Y528815D01*
X359469Y528889D01*
X359525Y528954D01*
X359571Y529010D01*
X359608Y529047D01*
X359636Y529074D01*
X359654Y529093D01*
X359663Y529102D01*
X359784Y529194D01*
X359913Y529278D01*
X360052Y529352D01*
X360200Y529416D01*
X360348Y529463D01*
X360495Y529509D01*
X360791Y529574D01*
X360930Y529592D01*
X361050Y529611D01*
X361170Y529620D01*
X361272Y529629D01*
X361355Y529638D01*
X361466D01*
X361734Y529629D01*
D02*
G37*
G36*
X267816Y523120D02*
X266623D01*
Y527336D01*
X264025Y523120D01*
X262731D01*
Y529518D01*
X263924D01*
Y525210D01*
X266568Y529518D01*
X267816D01*
Y523120D01*
D02*
G37*
G36*
X272162Y529629D02*
X272458Y529592D01*
X272587Y529564D01*
X272716Y529537D01*
X272836Y529509D01*
X272938Y529481D01*
X273031Y529444D01*
X273123Y529416D01*
X273188Y529389D01*
X273253Y529370D01*
X273299Y529342D01*
X273336Y529333D01*
X273354Y529315D01*
X273363D01*
X273650Y529148D01*
X273770Y529047D01*
X273890Y528954D01*
X274002Y528853D01*
X274103Y528751D01*
X274196Y528649D01*
X274279Y528557D01*
X274344Y528464D01*
X274408Y528381D01*
X274464Y528307D01*
X274510Y528242D01*
X274538Y528187D01*
X274566Y528150D01*
X274575Y528122D01*
X274584Y528113D01*
X274658Y527965D01*
X274723Y527817D01*
X274824Y527512D01*
X274898Y527207D01*
X274944Y526939D01*
X274963Y526809D01*
X274981Y526698D01*
X274991Y526596D01*
Y526504D01*
X275000Y526439D01*
Y526384D01*
Y526347D01*
Y526338D01*
X274981Y525996D01*
X274944Y525681D01*
X274880Y525395D01*
X274852Y525256D01*
X274815Y525136D01*
X274778Y525025D01*
X274750Y524923D01*
X274713Y524840D01*
X274686Y524766D01*
X274667Y524710D01*
X274649Y524664D01*
X274630Y524636D01*
Y524627D01*
X274473Y524350D01*
X274297Y524109D01*
X274112Y523897D01*
X273927Y523730D01*
X273844Y523656D01*
X273761Y523592D01*
X273696Y523536D01*
X273632Y523499D01*
X273585Y523462D01*
X273539Y523434D01*
X273521Y523425D01*
X273512Y523416D01*
X273363Y523342D01*
X273225Y523277D01*
X272920Y523176D01*
X272624Y523102D01*
X272356Y523055D01*
X272226Y523037D01*
X272115Y523018D01*
X272014Y523009D01*
X271921D01*
X271856Y523000D01*
X271755D01*
X271459Y523009D01*
X271182Y523046D01*
X270914Y523092D01*
X270682Y523148D01*
X270581Y523176D01*
X270488Y523203D01*
X270405Y523231D01*
X270331Y523250D01*
X270275Y523268D01*
X270238Y523287D01*
X270211Y523296D01*
X270201D01*
X269924Y523407D01*
X269693Y523527D01*
X269490Y523647D01*
X269314Y523749D01*
X269184Y523841D01*
X269138Y523878D01*
X269092Y523915D01*
X269064Y523943D01*
X269037Y523961D01*
X269018Y523980D01*
Y526550D01*
X271801D01*
Y525469D01*
X270322D01*
Y524646D01*
X270433Y524562D01*
X270553Y524488D01*
X270673Y524424D01*
X270784Y524368D01*
X270877Y524322D01*
X270960Y524285D01*
X271006Y524267D01*
X271015Y524257D01*
X271024D01*
X271172Y524202D01*
X271320Y524165D01*
X271459Y524137D01*
X271579Y524119D01*
X271690Y524109D01*
X271764Y524100D01*
X271838D01*
X271986Y524109D01*
X272134Y524128D01*
X272263Y524156D01*
X272393Y524193D01*
X272624Y524285D01*
X272716Y524331D01*
X272809Y524387D01*
X272892Y524442D01*
X272966Y524488D01*
X273022Y524544D01*
X273077Y524581D01*
X273114Y524618D01*
X273142Y524646D01*
X273160Y524664D01*
X273169Y524673D01*
X273253Y524784D01*
X273336Y524914D01*
X273400Y525043D01*
X273456Y525182D01*
X273548Y525469D01*
X273604Y525746D01*
X273622Y525875D01*
X273641Y526005D01*
X273650Y526106D01*
X273659Y526208D01*
X273669Y526282D01*
Y526347D01*
Y526384D01*
Y526393D01*
X273659Y526587D01*
X273650Y526763D01*
X273622Y526939D01*
X273595Y527096D01*
X273558Y527234D01*
X273512Y527364D01*
X273465Y527484D01*
X273419Y527595D01*
X273382Y527687D01*
X273336Y527771D01*
X273290Y527835D01*
X273253Y527891D01*
X273225Y527937D01*
X273197Y527965D01*
X273188Y527983D01*
X273179Y527993D01*
X273077Y528085D01*
X272975Y528177D01*
X272864Y528242D01*
X272753Y528307D01*
X272642Y528362D01*
X272531Y528409D01*
X272319Y528473D01*
X272217Y528492D01*
X272125Y528510D01*
X272041Y528520D01*
X271968Y528529D01*
X271912Y528538D01*
X271829D01*
X271625Y528529D01*
X271450Y528492D01*
X271292Y528455D01*
X271154Y528399D01*
X271052Y528353D01*
X270969Y528307D01*
X270923Y528270D01*
X270904Y528261D01*
X270775Y528150D01*
X270664Y528030D01*
X270571Y527909D01*
X270507Y527789D01*
X270451Y527678D01*
X270414Y527595D01*
X270396Y527540D01*
X270387Y527530D01*
Y527521D01*
X269101Y527761D01*
X269138Y527919D01*
X269194Y528076D01*
X269249Y528214D01*
X269323Y528344D01*
X269388Y528473D01*
X269462Y528584D01*
X269536Y528686D01*
X269610Y528778D01*
X269684Y528862D01*
X269748Y528936D01*
X269804Y529000D01*
X269860Y529047D01*
X269906Y529084D01*
X269943Y529121D01*
X269961Y529130D01*
X269970Y529139D01*
X270100Y529231D01*
X270238Y529305D01*
X270387Y529370D01*
X270544Y529426D01*
X270849Y529518D01*
X271145Y529574D01*
X271283Y529601D01*
X271413Y529611D01*
X271533Y529620D01*
X271635Y529629D01*
X271718Y529638D01*
X271829D01*
X272162Y529629D01*
D02*
G37*
G36*
X261363Y523120D02*
X258940D01*
X258691Y523129D01*
X258460Y523139D01*
X258265Y523157D01*
X258108Y523185D01*
X257979Y523213D01*
X257877Y523231D01*
X257849Y523240D01*
X257822D01*
X257812Y523250D01*
X257803D01*
X257600Y523324D01*
X257415Y523407D01*
X257267Y523490D01*
X257138Y523573D01*
X257036Y523647D01*
X256962Y523703D01*
X256916Y523740D01*
X256897Y523758D01*
X256740Y523934D01*
X256601Y524119D01*
X256481Y524313D01*
X256389Y524488D01*
X256315Y524655D01*
X256278Y524720D01*
X256259Y524775D01*
X256241Y524831D01*
X256222Y524868D01*
X256213Y524886D01*
Y524895D01*
X256148Y525117D01*
X256093Y525348D01*
X256056Y525570D01*
X256037Y525783D01*
X256028Y525885D01*
X256019Y525977D01*
Y526051D01*
X256010Y526125D01*
Y526180D01*
Y526217D01*
Y526245D01*
Y526254D01*
X256019Y526578D01*
X256047Y526865D01*
X256056Y527003D01*
X256074Y527123D01*
X256093Y527244D01*
X256111Y527345D01*
X256139Y527438D01*
X256157Y527521D01*
X256176Y527595D01*
X256185Y527650D01*
X256204Y527697D01*
X256213Y527734D01*
X256222Y527752D01*
Y527761D01*
X256305Y527983D01*
X256407Y528187D01*
X256509Y528362D01*
X256611Y528510D01*
X256694Y528631D01*
X256768Y528723D01*
X256814Y528778D01*
X256823Y528797D01*
X256832D01*
X256990Y528945D01*
X257147Y529065D01*
X257313Y529167D01*
X257461Y529250D01*
X257591Y529315D01*
X257701Y529361D01*
X257738Y529370D01*
X257766Y529380D01*
X257785Y529389D01*
X257794D01*
X257970Y529435D01*
X258164Y529463D01*
X258367Y529490D01*
X258561Y529500D01*
X258737Y529509D01*
X258811Y529518D01*
X261363D01*
Y523120D01*
D02*
G37*
G36*
X351000D02*
X349807D01*
Y528150D01*
X348550Y523120D01*
X347302D01*
X346044Y528150D01*
X346035Y523120D01*
X344842D01*
Y529518D01*
X346784D01*
X347921Y525145D01*
X349068Y529518D01*
X351000D01*
Y523120D01*
D02*
G37*
G36*
X330660D02*
X329365D01*
Y529518D01*
X330660D01*
Y523120D01*
D02*
G37*
G36*
X340987Y529629D02*
X341255Y529601D01*
X341486Y529555D01*
X341690Y529509D01*
X341773Y529481D01*
X341856Y529463D01*
X341921Y529444D01*
X341976Y529416D01*
X342023Y529407D01*
X342060Y529389D01*
X342078Y529380D01*
X342087D01*
X342254Y529305D01*
X342411Y529213D01*
X342550Y529111D01*
X342670Y529019D01*
X342771Y528936D01*
X342855Y528862D01*
X342901Y528815D01*
X342910Y528806D01*
X342919Y528797D01*
X343049Y528649D01*
X343169Y528492D01*
X343271Y528353D01*
X343354Y528214D01*
X343419Y528094D01*
X343474Y528002D01*
X343483Y527965D01*
X343502Y527937D01*
X343511Y527928D01*
Y527919D01*
X343604Y527660D01*
X343677Y527382D01*
X343724Y527105D01*
X343761Y526846D01*
X343770Y526726D01*
X343779Y526615D01*
X343788Y526523D01*
Y526439D01*
X343798Y526365D01*
Y526319D01*
Y526282D01*
Y526273D01*
X343788Y525996D01*
X343761Y525727D01*
X343724Y525478D01*
X343668Y525247D01*
X343604Y525034D01*
X343530Y524840D01*
X343456Y524655D01*
X343372Y524498D01*
X343298Y524350D01*
X343224Y524230D01*
X343150Y524119D01*
X343086Y524026D01*
X343030Y523961D01*
X342993Y523906D01*
X342966Y523878D01*
X342956Y523869D01*
X342790Y523712D01*
X342614Y523582D01*
X342439Y523462D01*
X342244Y523370D01*
X342060Y523287D01*
X341865Y523213D01*
X341690Y523157D01*
X341505Y523111D01*
X341338Y523074D01*
X341181Y523046D01*
X341043Y523028D01*
X340922Y523018D01*
X340830Y523009D01*
X340756Y523000D01*
X340691D01*
X340432Y523009D01*
X340192Y523037D01*
X339961Y523083D01*
X339748Y523139D01*
X339545Y523203D01*
X339360Y523277D01*
X339193Y523351D01*
X339036Y523434D01*
X338907Y523518D01*
X338787Y523592D01*
X338685Y523666D01*
X338602Y523730D01*
X338528Y523786D01*
X338481Y523832D01*
X338454Y523860D01*
X338445Y523869D01*
X338297Y524045D01*
X338167Y524230D01*
X338047Y524424D01*
X337954Y524618D01*
X337871Y524821D01*
X337797Y525025D01*
X337742Y525228D01*
X337696Y525422D01*
X337668Y525598D01*
X337640Y525774D01*
X337622Y525922D01*
X337603Y526051D01*
Y526162D01*
X337594Y526245D01*
Y526291D01*
Y526310D01*
X337603Y526596D01*
X337631Y526865D01*
X337668Y527114D01*
X337723Y527355D01*
X337788Y527567D01*
X337862Y527771D01*
X337936Y527956D01*
X338019Y528113D01*
X338102Y528261D01*
X338176Y528390D01*
X338250Y528501D01*
X338315Y528594D01*
X338361Y528658D01*
X338408Y528714D01*
X338435Y528741D01*
X338445Y528751D01*
X338611Y528908D01*
X338787Y529047D01*
X338971Y529167D01*
X339156Y529268D01*
X339351Y529352D01*
X339535Y529426D01*
X339720Y529481D01*
X339896Y529527D01*
X340062Y529564D01*
X340220Y529592D01*
X340358Y529611D01*
X340479Y529629D01*
X340571D01*
X340645Y529638D01*
X340710D01*
X340987Y529629D01*
D02*
G37*
G36*
X334617D02*
X334857Y529601D01*
X335070Y529564D01*
X335255Y529527D01*
X335338Y529500D01*
X335412Y529481D01*
X335467Y529463D01*
X335523Y529444D01*
X335560Y529426D01*
X335588Y529416D01*
X335606Y529407D01*
X335615D01*
X335800Y529315D01*
X335957Y529213D01*
X336096Y529102D01*
X336207Y529000D01*
X336300Y528908D01*
X336355Y528834D01*
X336401Y528778D01*
X336410Y528769D01*
Y528760D01*
X336503Y528603D01*
X336568Y528436D01*
X336614Y528279D01*
X336642Y528140D01*
X336660Y528020D01*
X336679Y527928D01*
Y527891D01*
Y527863D01*
Y527854D01*
Y527845D01*
X336669Y527706D01*
X336651Y527567D01*
X336623Y527447D01*
X336586Y527327D01*
X336494Y527105D01*
X336383Y526911D01*
X336337Y526828D01*
X336281Y526763D01*
X336235Y526698D01*
X336189Y526643D01*
X336152Y526606D01*
X336124Y526578D01*
X336105Y526560D01*
X336096Y526550D01*
X336013Y526486D01*
X335911Y526421D01*
X335810Y526356D01*
X335689Y526301D01*
X335458Y526190D01*
X335218Y526097D01*
X335098Y526060D01*
X334996Y526023D01*
X334894Y525996D01*
X334811Y525968D01*
X334746Y525949D01*
X334691Y525931D01*
X334654Y525922D01*
X334645D01*
X334497Y525885D01*
X334367Y525848D01*
X334247Y525820D01*
X334136Y525792D01*
X334044Y525764D01*
X333960Y525746D01*
X333886Y525718D01*
X333822Y525700D01*
X333766Y525690D01*
X333720Y525672D01*
X333655Y525653D01*
X333618Y525635D01*
X333609D01*
X333489Y525589D01*
X333396Y525542D01*
X333313Y525496D01*
X333248Y525450D01*
X333202Y525413D01*
X333175Y525385D01*
X333156Y525367D01*
X333147Y525358D01*
X333101Y525293D01*
X333064Y525228D01*
X333045Y525163D01*
X333027Y525108D01*
X333017Y525052D01*
X333008Y525006D01*
Y524979D01*
Y524969D01*
X333017Y524840D01*
X333054Y524729D01*
X333110Y524618D01*
X333165Y524525D01*
X333230Y524452D01*
X333276Y524396D01*
X333313Y524359D01*
X333332Y524350D01*
X333461Y524267D01*
X333609Y524202D01*
X333766Y524156D01*
X333914Y524128D01*
X334053Y524109D01*
X334164Y524091D01*
X334266D01*
X334478Y524100D01*
X334663Y524137D01*
X334820Y524183D01*
X334959Y524239D01*
X335070Y524294D01*
X335144Y524341D01*
X335190Y524378D01*
X335209Y524387D01*
X335329Y524516D01*
X335421Y524655D01*
X335504Y524812D01*
X335560Y524969D01*
X335606Y525108D01*
X335643Y525219D01*
X335652Y525256D01*
Y525293D01*
X335662Y525311D01*
Y525321D01*
X336919Y525200D01*
X336891Y525006D01*
X336854Y524821D01*
X336799Y524646D01*
X336753Y524488D01*
X336688Y524341D01*
X336623Y524202D01*
X336558Y524082D01*
X336494Y523971D01*
X336429Y523878D01*
X336364Y523795D01*
X336309Y523721D01*
X336253Y523656D01*
X336216Y523610D01*
X336179Y523582D01*
X336161Y523564D01*
X336152Y523555D01*
X336022Y523453D01*
X335883Y523370D01*
X335736Y523296D01*
X335578Y523231D01*
X335430Y523185D01*
X335273Y523139D01*
X334968Y523074D01*
X334829Y523046D01*
X334700Y523028D01*
X334589Y523018D01*
X334487Y523009D01*
X334404Y523000D01*
X334284D01*
X333988Y523009D01*
X333720Y523037D01*
X333480Y523074D01*
X333378Y523092D01*
X333276Y523120D01*
X333193Y523139D01*
X333119Y523157D01*
X333054Y523176D01*
X332999Y523194D01*
X332953Y523213D01*
X332925Y523222D01*
X332906Y523231D01*
X332897D01*
X332694Y523333D01*
X332527Y523444D01*
X332370Y523555D01*
X332250Y523675D01*
X332158Y523777D01*
X332084Y523869D01*
X332047Y523925D01*
X332028Y523934D01*
Y523943D01*
X331926Y524128D01*
X331843Y524304D01*
X331788Y524479D01*
X331751Y524646D01*
X331732Y524775D01*
X331723Y524840D01*
X331714Y524886D01*
Y524923D01*
Y524951D01*
Y524969D01*
Y524979D01*
X331723Y525200D01*
X331751Y525395D01*
X331797Y525570D01*
X331843Y525718D01*
X331889Y525838D01*
X331936Y525922D01*
X331963Y525977D01*
X331973Y525996D01*
X332074Y526143D01*
X332195Y526273D01*
X332315Y526384D01*
X332426Y526476D01*
X332527Y526550D01*
X332611Y526606D01*
X332666Y526643D01*
X332675Y526652D01*
X332685D01*
X332777Y526698D01*
X332869Y526744D01*
X333091Y526828D01*
X333322Y526902D01*
X333544Y526976D01*
X333646Y527003D01*
X333748Y527031D01*
X333840Y527059D01*
X333914Y527077D01*
X333979Y527096D01*
X334025Y527105D01*
X334062Y527114D01*
X334071D01*
X334238Y527160D01*
X334386Y527197D01*
X334524Y527234D01*
X334654Y527271D01*
X334756Y527308D01*
X334857Y527345D01*
X334940Y527382D01*
X335014Y527410D01*
X335079Y527438D01*
X335125Y527466D01*
X335172Y527484D01*
X335199Y527503D01*
X335246Y527530D01*
X335255Y527540D01*
X335320Y527604D01*
X335366Y527669D01*
X335393Y527734D01*
X335412Y527799D01*
X335430Y527845D01*
X335440Y527891D01*
Y527919D01*
Y527928D01*
X335430Y528020D01*
X335412Y528094D01*
X335375Y528168D01*
X335338Y528224D01*
X335301Y528270D01*
X335264Y528298D01*
X335246Y528316D01*
X335236Y528326D01*
X335107Y528409D01*
X334968Y528464D01*
X334820Y528510D01*
X334682Y528538D01*
X334561Y528557D01*
X334460Y528566D01*
X334367D01*
X334173Y528557D01*
X334007Y528529D01*
X333868Y528492D01*
X333757Y528455D01*
X333665Y528418D01*
X333600Y528381D01*
X333563Y528353D01*
X333554Y528344D01*
X333461Y528251D01*
X333378Y528140D01*
X333313Y528030D01*
X333267Y527909D01*
X333230Y527808D01*
X333212Y527724D01*
X333193Y527660D01*
Y527650D01*
Y527641D01*
X331899Y527687D01*
X331908Y527854D01*
X331936Y528002D01*
X331973Y528150D01*
X332019Y528279D01*
X332065Y528409D01*
X332121Y528529D01*
X332176Y528631D01*
X332231Y528732D01*
X332296Y528815D01*
X332352Y528889D01*
X332407Y528954D01*
X332453Y529010D01*
X332490Y529047D01*
X332518Y529074D01*
X332537Y529093D01*
X332546Y529102D01*
X332666Y529194D01*
X332795Y529278D01*
X332934Y529352D01*
X333082Y529416D01*
X333230Y529463D01*
X333378Y529509D01*
X333674Y529574D01*
X333812Y529592D01*
X333933Y529611D01*
X334053Y529620D01*
X334155Y529629D01*
X334238Y529638D01*
X334349D01*
X334617Y529629D01*
D02*
G37*
G36*
X324000Y523120D02*
X322807D01*
Y528150D01*
X321550Y523120D01*
X320302D01*
X319044Y528150D01*
X319035Y523120D01*
X317842D01*
Y529518D01*
X319784D01*
X320921Y525145D01*
X322068Y529518D01*
X324000D01*
Y523120D01*
D02*
G37*
G36*
X316576D02*
X315281D01*
Y529518D01*
X316576D01*
Y523120D01*
D02*
G37*
G36*
X312082Y529629D02*
X312323Y529601D01*
X312535Y529564D01*
X312720Y529527D01*
X312804Y529500D01*
X312878Y529481D01*
X312933Y529463D01*
X312988Y529444D01*
X313025Y529426D01*
X313053Y529416D01*
X313072Y529407D01*
X313081D01*
X313266Y529315D01*
X313423Y529213D01*
X313562Y529102D01*
X313673Y529000D01*
X313765Y528908D01*
X313821Y528834D01*
X313867Y528778D01*
X313876Y528769D01*
Y528760D01*
X313969Y528603D01*
X314033Y528436D01*
X314079Y528279D01*
X314107Y528140D01*
X314126Y528020D01*
X314144Y527928D01*
Y527891D01*
Y527863D01*
Y527854D01*
Y527845D01*
X314135Y527706D01*
X314116Y527567D01*
X314089Y527447D01*
X314052Y527327D01*
X313959Y527105D01*
X313848Y526911D01*
X313802Y526828D01*
X313747Y526763D01*
X313700Y526698D01*
X313654Y526643D01*
X313617Y526606D01*
X313589Y526578D01*
X313571Y526560D01*
X313562Y526550D01*
X313479Y526486D01*
X313377Y526421D01*
X313275Y526356D01*
X313155Y526301D01*
X312924Y526190D01*
X312683Y526097D01*
X312563Y526060D01*
X312461Y526023D01*
X312360Y525996D01*
X312277Y525968D01*
X312212Y525949D01*
X312156Y525931D01*
X312119Y525922D01*
X312110D01*
X311962Y525885D01*
X311833Y525848D01*
X311713Y525820D01*
X311602Y525792D01*
X311509Y525764D01*
X311426Y525746D01*
X311352Y525718D01*
X311287Y525700D01*
X311232Y525690D01*
X311186Y525672D01*
X311121Y525653D01*
X311084Y525635D01*
X311075D01*
X310954Y525589D01*
X310862Y525542D01*
X310779Y525496D01*
X310714Y525450D01*
X310668Y525413D01*
X310640Y525385D01*
X310622Y525367D01*
X310612Y525358D01*
X310566Y525293D01*
X310529Y525228D01*
X310511Y525163D01*
X310492Y525108D01*
X310483Y525052D01*
X310474Y525006D01*
Y524979D01*
Y524969D01*
X310483Y524840D01*
X310520Y524729D01*
X310575Y524618D01*
X310631Y524525D01*
X310696Y524452D01*
X310742Y524396D01*
X310779Y524359D01*
X310797Y524350D01*
X310927Y524267D01*
X311075Y524202D01*
X311232Y524156D01*
X311380Y524128D01*
X311518Y524109D01*
X311629Y524091D01*
X311731D01*
X311944Y524100D01*
X312129Y524137D01*
X312286Y524183D01*
X312425Y524239D01*
X312535Y524294D01*
X312609Y524341D01*
X312656Y524378D01*
X312674Y524387D01*
X312794Y524516D01*
X312887Y524655D01*
X312970Y524812D01*
X313025Y524969D01*
X313072Y525108D01*
X313109Y525219D01*
X313118Y525256D01*
Y525293D01*
X313127Y525311D01*
Y525321D01*
X314385Y525200D01*
X314357Y525006D01*
X314320Y524821D01*
X314264Y524646D01*
X314218Y524488D01*
X314153Y524341D01*
X314089Y524202D01*
X314024Y524082D01*
X313959Y523971D01*
X313895Y523878D01*
X313830Y523795D01*
X313774Y523721D01*
X313719Y523656D01*
X313682Y523610D01*
X313645Y523582D01*
X313626Y523564D01*
X313617Y523555D01*
X313488Y523453D01*
X313349Y523370D01*
X313201Y523296D01*
X313044Y523231D01*
X312896Y523185D01*
X312739Y523139D01*
X312434Y523074D01*
X312295Y523046D01*
X312166Y523028D01*
X312055Y523018D01*
X311953Y523009D01*
X311870Y523000D01*
X311750D01*
X311454Y523009D01*
X311186Y523037D01*
X310945Y523074D01*
X310844Y523092D01*
X310742Y523120D01*
X310659Y523139D01*
X310585Y523157D01*
X310520Y523176D01*
X310464Y523194D01*
X310418Y523213D01*
X310390Y523222D01*
X310372Y523231D01*
X310363D01*
X310159Y523333D01*
X309993Y523444D01*
X309836Y523555D01*
X309716Y523675D01*
X309623Y523777D01*
X309549Y523869D01*
X309512Y523925D01*
X309494Y523934D01*
Y523943D01*
X309392Y524128D01*
X309309Y524304D01*
X309253Y524479D01*
X309216Y524646D01*
X309198Y524775D01*
X309189Y524840D01*
X309179Y524886D01*
Y524923D01*
Y524951D01*
Y524969D01*
Y524979D01*
X309189Y525200D01*
X309216Y525395D01*
X309263Y525570D01*
X309309Y525718D01*
X309355Y525838D01*
X309401Y525922D01*
X309429Y525977D01*
X309438Y525996D01*
X309540Y526143D01*
X309660Y526273D01*
X309780Y526384D01*
X309891Y526476D01*
X309993Y526550D01*
X310076Y526606D01*
X310132Y526643D01*
X310141Y526652D01*
X310150D01*
X310243Y526698D01*
X310335Y526744D01*
X310557Y526828D01*
X310788Y526902D01*
X311010Y526976D01*
X311112Y527003D01*
X311213Y527031D01*
X311306Y527059D01*
X311380Y527077D01*
X311444Y527096D01*
X311491Y527105D01*
X311528Y527114D01*
X311537D01*
X311703Y527160D01*
X311851Y527197D01*
X311990Y527234D01*
X312119Y527271D01*
X312221Y527308D01*
X312323Y527345D01*
X312406Y527382D01*
X312480Y527410D01*
X312545Y527438D01*
X312591Y527466D01*
X312637Y527484D01*
X312665Y527503D01*
X312711Y527530D01*
X312720Y527540D01*
X312785Y527604D01*
X312831Y527669D01*
X312859Y527734D01*
X312878Y527799D01*
X312896Y527845D01*
X312905Y527891D01*
Y527919D01*
Y527928D01*
X312896Y528020D01*
X312878Y528094D01*
X312841Y528168D01*
X312804Y528224D01*
X312767Y528270D01*
X312730Y528298D01*
X312711Y528316D01*
X312702Y528326D01*
X312572Y528409D01*
X312434Y528464D01*
X312286Y528510D01*
X312147Y528538D01*
X312027Y528557D01*
X311925Y528566D01*
X311833D01*
X311639Y528557D01*
X311472Y528529D01*
X311334Y528492D01*
X311223Y528455D01*
X311130Y528418D01*
X311065Y528381D01*
X311028Y528353D01*
X311019Y528344D01*
X310927Y528251D01*
X310844Y528140D01*
X310779Y528030D01*
X310733Y527909D01*
X310696Y527808D01*
X310677Y527724D01*
X310659Y527660D01*
Y527650D01*
Y527641D01*
X309364Y527687D01*
X309373Y527854D01*
X309401Y528002D01*
X309438Y528150D01*
X309484Y528279D01*
X309531Y528409D01*
X309586Y528529D01*
X309642Y528631D01*
X309697Y528732D01*
X309762Y528815D01*
X309817Y528889D01*
X309873Y528954D01*
X309919Y529010D01*
X309956Y529047D01*
X309984Y529074D01*
X310002Y529093D01*
X310011Y529102D01*
X310132Y529194D01*
X310261Y529278D01*
X310400Y529352D01*
X310548Y529416D01*
X310696Y529463D01*
X310844Y529509D01*
X311139Y529574D01*
X311278Y529592D01*
X311398Y529611D01*
X311518Y529620D01*
X311620Y529629D01*
X311703Y529638D01*
X311814D01*
X312082Y529629D01*
D02*
G37*
G36*
X305536D02*
X305805Y529601D01*
X306036Y529555D01*
X306239Y529509D01*
X306322Y529481D01*
X306406Y529463D01*
X306470Y529444D01*
X306526Y529416D01*
X306572Y529407D01*
X306609Y529389D01*
X306628Y529380D01*
X306637D01*
X306803Y529305D01*
X306960Y529213D01*
X307099Y529111D01*
X307219Y529019D01*
X307321Y528936D01*
X307404Y528862D01*
X307450Y528815D01*
X307460Y528806D01*
X307469Y528797D01*
X307598Y528649D01*
X307719Y528492D01*
X307820Y528353D01*
X307903Y528214D01*
X307968Y528094D01*
X308024Y528002D01*
X308033Y527965D01*
X308051Y527937D01*
X308061Y527928D01*
Y527919D01*
X308153Y527660D01*
X308227Y527382D01*
X308273Y527105D01*
X308310Y526846D01*
X308319Y526726D01*
X308329Y526615D01*
X308338Y526523D01*
Y526439D01*
X308347Y526365D01*
Y526319D01*
Y526282D01*
Y526273D01*
X308338Y525996D01*
X308310Y525727D01*
X308273Y525478D01*
X308218Y525247D01*
X308153Y525034D01*
X308079Y524840D01*
X308005Y524655D01*
X307922Y524498D01*
X307848Y524350D01*
X307774Y524230D01*
X307700Y524119D01*
X307635Y524026D01*
X307580Y523961D01*
X307543Y523906D01*
X307515Y523878D01*
X307506Y523869D01*
X307339Y523712D01*
X307164Y523582D01*
X306988Y523462D01*
X306794Y523370D01*
X306609Y523287D01*
X306415Y523213D01*
X306239Y523157D01*
X306054Y523111D01*
X305888Y523074D01*
X305731Y523046D01*
X305592Y523028D01*
X305472Y523018D01*
X305379Y523009D01*
X305305Y523000D01*
X305241D01*
X304982Y523009D01*
X304741Y523037D01*
X304510Y523083D01*
X304298Y523139D01*
X304094Y523203D01*
X303909Y523277D01*
X303743Y523351D01*
X303586Y523434D01*
X303456Y523518D01*
X303336Y523592D01*
X303234Y523666D01*
X303151Y523730D01*
X303077Y523786D01*
X303031Y523832D01*
X303003Y523860D01*
X302994Y523869D01*
X302846Y524045D01*
X302717Y524230D01*
X302596Y524424D01*
X302504Y524618D01*
X302421Y524821D01*
X302347Y525025D01*
X302291Y525228D01*
X302245Y525422D01*
X302217Y525598D01*
X302190Y525774D01*
X302171Y525922D01*
X302153Y526051D01*
Y526162D01*
X302143Y526245D01*
Y526291D01*
Y526310D01*
X302153Y526596D01*
X302180Y526865D01*
X302217Y527114D01*
X302273Y527355D01*
X302338Y527567D01*
X302411Y527771D01*
X302486Y527956D01*
X302569Y528113D01*
X302652Y528261D01*
X302726Y528390D01*
X302800Y528501D01*
X302865Y528594D01*
X302911Y528658D01*
X302957Y528714D01*
X302985Y528741D01*
X302994Y528751D01*
X303160Y528908D01*
X303336Y529047D01*
X303521Y529167D01*
X303706Y529268D01*
X303900Y529352D01*
X304085Y529426D01*
X304270Y529481D01*
X304446Y529527D01*
X304612Y529564D01*
X304769Y529592D01*
X304908Y529611D01*
X305028Y529629D01*
X305121D01*
X305194Y529638D01*
X305259D01*
X305536Y529629D01*
D02*
G37*
G36*
X284241Y523120D02*
X282947D01*
Y525052D01*
X281902Y526125D01*
X280136Y523120D01*
X278463D01*
X281005Y527022D01*
X278583Y529518D01*
X280321D01*
X282947Y526670D01*
Y529518D01*
X284241D01*
Y523120D01*
D02*
G37*
G36*
X288180Y529629D02*
X288420Y529601D01*
X288633Y529555D01*
X288845Y529500D01*
X289030Y529435D01*
X289215Y529361D01*
X289372Y529278D01*
X289520Y529194D01*
X289659Y529111D01*
X289770Y529028D01*
X289872Y528954D01*
X289955Y528889D01*
X290020Y528834D01*
X290066Y528788D01*
X290093Y528760D01*
X290103Y528751D01*
X290251Y528575D01*
X290371Y528390D01*
X290482Y528196D01*
X290574Y527993D01*
X290658Y527780D01*
X290722Y527577D01*
X290778Y527373D01*
X290824Y527179D01*
X290861Y526985D01*
X290879Y526818D01*
X290898Y526661D01*
X290916Y526532D01*
Y526421D01*
X290926Y526338D01*
Y526282D01*
Y526273D01*
Y526264D01*
X290916Y525986D01*
X290889Y525727D01*
X290852Y525478D01*
X290796Y525256D01*
X290741Y525043D01*
X290667Y524840D01*
X290593Y524664D01*
X290519Y524507D01*
X290445Y524359D01*
X290371Y524230D01*
X290297Y524128D01*
X290242Y524035D01*
X290186Y523971D01*
X290149Y523915D01*
X290121Y523888D01*
X290112Y523878D01*
X289955Y523721D01*
X289788Y523592D01*
X289613Y523471D01*
X289437Y523379D01*
X289261Y523296D01*
X289086Y523222D01*
X288919Y523166D01*
X288762Y523120D01*
X288605Y523083D01*
X288466Y523055D01*
X288337Y523037D01*
X288235Y523028D01*
X288143Y523018D01*
X288078Y523009D01*
X288022D01*
X287828Y523018D01*
X287653Y523028D01*
X287477Y523055D01*
X287320Y523092D01*
X287172Y523129D01*
X287033Y523166D01*
X286904Y523213D01*
X286784Y523268D01*
X286682Y523314D01*
X286589Y523361D01*
X286506Y523398D01*
X286441Y523434D01*
X286386Y523471D01*
X286349Y523499D01*
X286331Y523508D01*
X286321Y523518D01*
X286201Y523619D01*
X286090Y523730D01*
X285887Y523980D01*
X285720Y524239D01*
X285591Y524488D01*
X285535Y524609D01*
X285489Y524720D01*
X285452Y524821D01*
X285415Y524905D01*
X285387Y524979D01*
X285369Y525034D01*
X285360Y525071D01*
Y525080D01*
X286617Y525469D01*
X286691Y525219D01*
X286774Y525006D01*
X286858Y524831D01*
X286950Y524683D01*
X287024Y524572D01*
X287089Y524498D01*
X287135Y524452D01*
X287153Y524433D01*
X287301Y524322D01*
X287449Y524248D01*
X287597Y524193D01*
X287727Y524146D01*
X287847Y524128D01*
X287948Y524119D01*
X287985Y524109D01*
X288032D01*
X288161Y524119D01*
X288281Y524128D01*
X288503Y524193D01*
X288697Y524267D01*
X288855Y524368D01*
X288984Y524461D01*
X289076Y524535D01*
X289114Y524572D01*
X289141Y524599D01*
X289151Y524609D01*
X289160Y524618D01*
X289234Y524720D01*
X289298Y524840D01*
X289363Y524969D01*
X289409Y525108D01*
X289483Y525395D01*
X289539Y525681D01*
X289557Y525820D01*
X289566Y525940D01*
X289585Y526060D01*
Y526162D01*
X289594Y526236D01*
Y526301D01*
Y526347D01*
Y526356D01*
X289585Y526569D01*
X289576Y526763D01*
X289557Y526939D01*
X289529Y527105D01*
X289493Y527253D01*
X289456Y527392D01*
X289419Y527512D01*
X289372Y527623D01*
X289335Y527715D01*
X289298Y527799D01*
X289261Y527863D01*
X289224Y527919D01*
X289197Y527965D01*
X289178Y527993D01*
X289160Y528011D01*
Y528020D01*
X289076Y528113D01*
X288984Y528196D01*
X288892Y528261D01*
X288790Y528316D01*
X288596Y528409D01*
X288411Y528473D01*
X288254Y528510D01*
X288180Y528520D01*
X288124Y528529D01*
X288069Y528538D01*
X288004D01*
X287819Y528529D01*
X287653Y528492D01*
X287505Y528446D01*
X287375Y528390D01*
X287274Y528335D01*
X287200Y528288D01*
X287153Y528251D01*
X287135Y528242D01*
X287015Y528131D01*
X286904Y528002D01*
X286821Y527872D01*
X286756Y527743D01*
X286710Y527632D01*
X286682Y527549D01*
X286663Y527512D01*
Y527484D01*
X286654Y527475D01*
Y527466D01*
X285378Y527771D01*
X285471Y528039D01*
X285572Y528270D01*
X285683Y528473D01*
X285785Y528640D01*
X285887Y528769D01*
X285924Y528825D01*
X285961Y528871D01*
X285989Y528899D01*
X286016Y528926D01*
X286026Y528945D01*
X286035D01*
X286173Y529065D01*
X286331Y529176D01*
X286479Y529268D01*
X286636Y529342D01*
X286802Y529416D01*
X286959Y529472D01*
X287116Y529518D01*
X287264Y529555D01*
X287403Y529583D01*
X287533Y529601D01*
X287643Y529620D01*
X287745Y529629D01*
X287828Y529638D01*
X287939D01*
X288180Y529629D01*
D02*
G37*
G36*
X294698D02*
X294938Y529601D01*
X295151Y529564D01*
X295336Y529527D01*
X295419Y529500D01*
X295493Y529481D01*
X295548Y529463D01*
X295604Y529444D01*
X295641Y529426D01*
X295669Y529416D01*
X295687Y529407D01*
X295696D01*
X295881Y529315D01*
X296038Y529213D01*
X296177Y529102D01*
X296288Y529000D01*
X296381Y528908D01*
X296436Y528834D01*
X296482Y528778D01*
X296492Y528769D01*
Y528760D01*
X296584Y528603D01*
X296649Y528436D01*
X296695Y528279D01*
X296723Y528140D01*
X296741Y528020D01*
X296760Y527928D01*
Y527891D01*
Y527863D01*
Y527854D01*
Y527845D01*
X296750Y527706D01*
X296732Y527567D01*
X296704Y527447D01*
X296667Y527327D01*
X296575Y527105D01*
X296464Y526911D01*
X296418Y526828D01*
X296362Y526763D01*
X296316Y526698D01*
X296270Y526643D01*
X296233Y526606D01*
X296205Y526578D01*
X296186Y526560D01*
X296177Y526550D01*
X296094Y526486D01*
X295992Y526421D01*
X295891Y526356D01*
X295770Y526301D01*
X295539Y526190D01*
X295299Y526097D01*
X295179Y526060D01*
X295077Y526023D01*
X294975Y525996D01*
X294892Y525968D01*
X294827Y525949D01*
X294772Y525931D01*
X294735Y525922D01*
X294726D01*
X294578Y525885D01*
X294448Y525848D01*
X294328Y525820D01*
X294217Y525792D01*
X294125Y525764D01*
X294041Y525746D01*
X293967Y525718D01*
X293903Y525700D01*
X293847Y525690D01*
X293801Y525672D01*
X293736Y525653D01*
X293699Y525635D01*
X293690D01*
X293570Y525589D01*
X293477Y525542D01*
X293394Y525496D01*
X293330Y525450D01*
X293283Y525413D01*
X293256Y525385D01*
X293237Y525367D01*
X293228Y525358D01*
X293182Y525293D01*
X293145Y525228D01*
X293126Y525163D01*
X293108Y525108D01*
X293098Y525052D01*
X293089Y525006D01*
Y524979D01*
Y524969D01*
X293098Y524840D01*
X293135Y524729D01*
X293191Y524618D01*
X293246Y524525D01*
X293311Y524452D01*
X293357Y524396D01*
X293394Y524359D01*
X293413Y524350D01*
X293542Y524267D01*
X293690Y524202D01*
X293847Y524156D01*
X293995Y524128D01*
X294134Y524109D01*
X294245Y524091D01*
X294347D01*
X294559Y524100D01*
X294744Y524137D01*
X294901Y524183D01*
X295040Y524239D01*
X295151Y524294D01*
X295225Y524341D01*
X295271Y524378D01*
X295290Y524387D01*
X295410Y524516D01*
X295502Y524655D01*
X295585Y524812D01*
X295641Y524969D01*
X295687Y525108D01*
X295724Y525219D01*
X295733Y525256D01*
Y525293D01*
X295743Y525311D01*
Y525321D01*
X297000Y525200D01*
X296972Y525006D01*
X296935Y524821D01*
X296880Y524646D01*
X296834Y524488D01*
X296769Y524341D01*
X296704Y524202D01*
X296639Y524082D01*
X296575Y523971D01*
X296510Y523878D01*
X296445Y523795D01*
X296390Y523721D01*
X296334Y523656D01*
X296297Y523610D01*
X296260Y523582D01*
X296242Y523564D01*
X296233Y523555D01*
X296103Y523453D01*
X295965Y523370D01*
X295817Y523296D01*
X295659Y523231D01*
X295511Y523185D01*
X295354Y523139D01*
X295049Y523074D01*
X294911Y523046D01*
X294781Y523028D01*
X294670Y523018D01*
X294568Y523009D01*
X294485Y523000D01*
X294365D01*
X294069Y523009D01*
X293801Y523037D01*
X293561Y523074D01*
X293459Y523092D01*
X293357Y523120D01*
X293274Y523139D01*
X293200Y523157D01*
X293135Y523176D01*
X293080Y523194D01*
X293034Y523213D01*
X293006Y523222D01*
X292987Y523231D01*
X292978D01*
X292775Y523333D01*
X292608Y523444D01*
X292451Y523555D01*
X292331Y523675D01*
X292239Y523777D01*
X292164Y523869D01*
X292128Y523925D01*
X292109Y523934D01*
Y523943D01*
X292007Y524128D01*
X291924Y524304D01*
X291869Y524479D01*
X291832Y524646D01*
X291813Y524775D01*
X291804Y524840D01*
X291795Y524886D01*
Y524923D01*
Y524951D01*
Y524969D01*
Y524979D01*
X291804Y525200D01*
X291832Y525395D01*
X291878Y525570D01*
X291924Y525718D01*
X291970Y525838D01*
X292017Y525922D01*
X292044Y525977D01*
X292054Y525996D01*
X292155Y526143D01*
X292276Y526273D01*
X292396Y526384D01*
X292507Y526476D01*
X292608Y526550D01*
X292691Y526606D01*
X292747Y526643D01*
X292756Y526652D01*
X292766D01*
X292858Y526698D01*
X292950Y526744D01*
X293172Y526828D01*
X293403Y526902D01*
X293625Y526976D01*
X293727Y527003D01*
X293829Y527031D01*
X293921Y527059D01*
X293995Y527077D01*
X294060Y527096D01*
X294106Y527105D01*
X294143Y527114D01*
X294152D01*
X294319Y527160D01*
X294467Y527197D01*
X294605Y527234D01*
X294735Y527271D01*
X294837Y527308D01*
X294938Y527345D01*
X295021Y527382D01*
X295095Y527410D01*
X295160Y527438D01*
X295206Y527466D01*
X295253Y527484D01*
X295280Y527503D01*
X295326Y527530D01*
X295336Y527540D01*
X295401Y527604D01*
X295447Y527669D01*
X295474Y527734D01*
X295493Y527799D01*
X295511Y527845D01*
X295521Y527891D01*
Y527919D01*
Y527928D01*
X295511Y528020D01*
X295493Y528094D01*
X295456Y528168D01*
X295419Y528224D01*
X295382Y528270D01*
X295345Y528298D01*
X295326Y528316D01*
X295317Y528326D01*
X295188Y528409D01*
X295049Y528464D01*
X294901Y528510D01*
X294763Y528538D01*
X294642Y528557D01*
X294541Y528566D01*
X294448D01*
X294254Y528557D01*
X294088Y528529D01*
X293949Y528492D01*
X293838Y528455D01*
X293745Y528418D01*
X293681Y528381D01*
X293644Y528353D01*
X293635Y528344D01*
X293542Y528251D01*
X293459Y528140D01*
X293394Y528030D01*
X293348Y527909D01*
X293311Y527808D01*
X293293Y527724D01*
X293274Y527660D01*
Y527650D01*
Y527641D01*
X291980Y527687D01*
X291989Y527854D01*
X292017Y528002D01*
X292054Y528150D01*
X292100Y528279D01*
X292146Y528409D01*
X292201Y528529D01*
X292257Y528631D01*
X292313Y528732D01*
X292377Y528815D01*
X292433Y528889D01*
X292488Y528954D01*
X292534Y529010D01*
X292571Y529047D01*
X292599Y529074D01*
X292618Y529093D01*
X292627Y529102D01*
X292747Y529194D01*
X292876Y529278D01*
X293015Y529352D01*
X293163Y529416D01*
X293311Y529463D01*
X293459Y529509D01*
X293755Y529574D01*
X293894Y529592D01*
X294014Y529611D01*
X294134Y529620D01*
X294236Y529629D01*
X294319Y529638D01*
X294430D01*
X294698Y529629D01*
D02*
G37*
G36*
X251327Y526726D02*
X253000D01*
Y525579D01*
X251327D01*
Y523925D01*
X250208D01*
Y525579D01*
X248525D01*
Y526726D01*
X250208D01*
Y528381D01*
X251327D01*
Y526726D01*
D02*
G37*
G36*
X248146Y523000D02*
X246778D01*
X246251Y524452D01*
X243680D01*
X243126Y523000D01*
X241730D01*
X244300Y529398D01*
X245668D01*
X248146Y523000D01*
D02*
G37*
G36*
X241036D02*
X239742D01*
Y525672D01*
X239326D01*
X239196Y525663D01*
X239085Y525653D01*
X238993Y525635D01*
X238919Y525626D01*
X238873Y525607D01*
X238845Y525598D01*
X238836D01*
X238762Y525561D01*
X238688Y525524D01*
X238623Y525478D01*
X238558Y525441D01*
X238512Y525395D01*
X238475Y525358D01*
X238457Y525339D01*
X238447Y525330D01*
X238410Y525284D01*
X238364Y525237D01*
X238263Y525099D01*
X238152Y524951D01*
X238031Y524784D01*
X237930Y524636D01*
X237883Y524562D01*
X237847Y524507D01*
X237810Y524461D01*
X237782Y524424D01*
X237773Y524396D01*
X237763Y524387D01*
X236839Y523000D01*
X235285D01*
X236071Y524248D01*
X236154Y524378D01*
X236238Y524507D01*
X236312Y524618D01*
X236386Y524720D01*
X236450Y524812D01*
X236506Y524905D01*
X236617Y525043D01*
X236700Y525154D01*
X236756Y525228D01*
X236802Y525274D01*
X236811Y525284D01*
X236913Y525395D01*
X237033Y525496D01*
X237144Y525579D01*
X237255Y525663D01*
X237347Y525727D01*
X237421Y525774D01*
X237477Y525811D01*
X237486Y525820D01*
X237495D01*
X237338Y525848D01*
X237199Y525885D01*
X237070Y525922D01*
X236940Y525968D01*
X236829Y526014D01*
X236728Y526060D01*
X236626Y526106D01*
X236543Y526162D01*
X236469Y526208D01*
X236404Y526254D01*
X236349Y526301D01*
X236312Y526338D01*
X236275Y526365D01*
X236247Y526393D01*
X236238Y526402D01*
X236229Y526412D01*
X236154Y526504D01*
X236090Y526596D01*
X235979Y526800D01*
X235905Y526994D01*
X235859Y527188D01*
X235822Y527355D01*
X235812Y527419D01*
Y527484D01*
X235803Y527530D01*
Y527577D01*
Y527595D01*
Y527604D01*
X235812Y527808D01*
X235849Y528002D01*
X235896Y528168D01*
X235942Y528316D01*
X235997Y528436D01*
X236044Y528529D01*
X236062Y528557D01*
X236081Y528584D01*
X236090Y528594D01*
Y528603D01*
X236201Y528760D01*
X236321Y528889D01*
X236441Y528991D01*
X236561Y529084D01*
X236672Y529139D01*
X236756Y529185D01*
X236811Y529213D01*
X236820Y529222D01*
X236829D01*
X236922Y529250D01*
X237024Y529278D01*
X237255Y529324D01*
X237504Y529352D01*
X237745Y529380D01*
X237865D01*
X237967Y529389D01*
X238068D01*
X238152Y529398D01*
X241036D01*
Y523000D01*
D02*
G37*
G36*
X234583D02*
X229720D01*
Y524082D01*
X233288D01*
Y525820D01*
X230080D01*
Y526902D01*
X233288D01*
Y528316D01*
X229840D01*
Y529398D01*
X234583D01*
Y523000D01*
D02*
G37*
G36*
X228619D02*
X227325D01*
Y525718D01*
X224653D01*
Y526800D01*
X227325D01*
Y528316D01*
X224228D01*
Y529398D01*
X228619D01*
Y523000D01*
D02*
G37*
G36*
X214694Y523120D02*
X212272D01*
X212022Y523129D01*
X211791Y523139D01*
X211597Y523157D01*
X211440Y523185D01*
X211311Y523213D01*
X211209Y523231D01*
X211181Y523240D01*
X211153D01*
X211144Y523250D01*
X211135D01*
X210931Y523324D01*
X210747Y523407D01*
X210599Y523490D01*
X210469Y523573D01*
X210368Y523647D01*
X210294Y523703D01*
X210247Y523740D01*
X210229Y523758D01*
X210072Y523934D01*
X209933Y524119D01*
X209813Y524313D01*
X209720Y524488D01*
X209646Y524655D01*
X209609Y524720D01*
X209591Y524775D01*
X209572Y524831D01*
X209554Y524868D01*
X209545Y524886D01*
Y524895D01*
X209480Y525117D01*
X209424Y525348D01*
X209387Y525570D01*
X209369Y525783D01*
X209360Y525885D01*
X209350Y525977D01*
Y526051D01*
X209341Y526125D01*
Y526180D01*
Y526217D01*
Y526245D01*
Y526254D01*
X209350Y526578D01*
X209378Y526865D01*
X209387Y527003D01*
X209406Y527123D01*
X209424Y527244D01*
X209443Y527345D01*
X209471Y527438D01*
X209489Y527521D01*
X209508Y527595D01*
X209517Y527650D01*
X209535Y527697D01*
X209545Y527734D01*
X209554Y527752D01*
Y527761D01*
X209637Y527983D01*
X209739Y528187D01*
X209841Y528362D01*
X209942Y528510D01*
X210026Y528631D01*
X210099Y528723D01*
X210146Y528778D01*
X210155Y528797D01*
X210164D01*
X210321Y528945D01*
X210478Y529065D01*
X210645Y529167D01*
X210793Y529250D01*
X210922Y529315D01*
X211033Y529361D01*
X211070Y529370D01*
X211098Y529380D01*
X211116Y529389D01*
X211126D01*
X211301Y529435D01*
X211495Y529463D01*
X211699Y529490D01*
X211893Y529500D01*
X212069Y529509D01*
X212143Y529518D01*
X214694D01*
Y523120D01*
D02*
G37*
G36*
X208897D02*
X207529D01*
X207002Y524572D01*
X204432D01*
X203877Y523120D01*
X202481D01*
X205051Y529518D01*
X206420D01*
X208897Y523120D01*
D02*
G37*
G36*
X218698Y529629D02*
X218938Y529601D01*
X219151Y529564D01*
X219336Y529527D01*
X219419Y529500D01*
X219493Y529481D01*
X219548Y529463D01*
X219604Y529444D01*
X219641Y529426D01*
X219669Y529416D01*
X219687Y529407D01*
X219696D01*
X219881Y529315D01*
X220038Y529213D01*
X220177Y529102D01*
X220288Y529000D01*
X220380Y528908D01*
X220436Y528834D01*
X220482Y528778D01*
X220492Y528769D01*
Y528760D01*
X220584Y528603D01*
X220649Y528436D01*
X220695Y528279D01*
X220723Y528140D01*
X220741Y528020D01*
X220760Y527928D01*
Y527891D01*
Y527863D01*
Y527854D01*
Y527845D01*
X220750Y527706D01*
X220732Y527567D01*
X220704Y527447D01*
X220667Y527327D01*
X220575Y527105D01*
X220464Y526911D01*
X220417Y526828D01*
X220362Y526763D01*
X220316Y526698D01*
X220270Y526643D01*
X220233Y526606D01*
X220205Y526578D01*
X220186Y526560D01*
X220177Y526550D01*
X220094Y526486D01*
X219992Y526421D01*
X219890Y526356D01*
X219770Y526301D01*
X219539Y526190D01*
X219299Y526097D01*
X219179Y526060D01*
X219077Y526023D01*
X218975Y525996D01*
X218892Y525968D01*
X218827Y525949D01*
X218772Y525931D01*
X218735Y525922D01*
X218726D01*
X218578Y525885D01*
X218448Y525848D01*
X218328Y525820D01*
X218217Y525792D01*
X218125Y525764D01*
X218041Y525746D01*
X217967Y525718D01*
X217903Y525700D01*
X217847Y525690D01*
X217801Y525672D01*
X217736Y525653D01*
X217699Y525635D01*
X217690D01*
X217570Y525589D01*
X217477Y525542D01*
X217394Y525496D01*
X217330Y525450D01*
X217283Y525413D01*
X217255Y525385D01*
X217237Y525367D01*
X217228Y525358D01*
X217182Y525293D01*
X217145Y525228D01*
X217126Y525163D01*
X217108Y525108D01*
X217098Y525052D01*
X217089Y525006D01*
Y524979D01*
Y524969D01*
X217098Y524840D01*
X217135Y524729D01*
X217191Y524618D01*
X217246Y524525D01*
X217311Y524452D01*
X217357Y524396D01*
X217394Y524359D01*
X217413Y524350D01*
X217542Y524267D01*
X217690Y524202D01*
X217847Y524156D01*
X217995Y524128D01*
X218134Y524109D01*
X218245Y524091D01*
X218347D01*
X218559Y524100D01*
X218744Y524137D01*
X218901Y524183D01*
X219040Y524239D01*
X219151Y524294D01*
X219225Y524341D01*
X219271Y524378D01*
X219290Y524387D01*
X219410Y524516D01*
X219502Y524655D01*
X219585Y524812D01*
X219641Y524969D01*
X219687Y525108D01*
X219724Y525219D01*
X219733Y525256D01*
Y525293D01*
X219743Y525311D01*
Y525321D01*
X221000Y525200D01*
X220972Y525006D01*
X220935Y524821D01*
X220880Y524646D01*
X220834Y524488D01*
X220769Y524341D01*
X220704Y524202D01*
X220639Y524082D01*
X220575Y523971D01*
X220510Y523878D01*
X220445Y523795D01*
X220390Y523721D01*
X220334Y523656D01*
X220297Y523610D01*
X220260Y523582D01*
X220242Y523564D01*
X220233Y523555D01*
X220103Y523453D01*
X219965Y523370D01*
X219817Y523296D01*
X219659Y523231D01*
X219511Y523185D01*
X219354Y523139D01*
X219049Y523074D01*
X218911Y523046D01*
X218781Y523028D01*
X218670Y523018D01*
X218568Y523009D01*
X218485Y523000D01*
X218365D01*
X218069Y523009D01*
X217801Y523037D01*
X217561Y523074D01*
X217459Y523092D01*
X217357Y523120D01*
X217274Y523139D01*
X217200Y523157D01*
X217135Y523176D01*
X217080Y523194D01*
X217034Y523213D01*
X217006Y523222D01*
X216987Y523231D01*
X216978D01*
X216775Y523333D01*
X216608Y523444D01*
X216451Y523555D01*
X216331Y523675D01*
X216238Y523777D01*
X216164Y523869D01*
X216128Y523925D01*
X216109Y523934D01*
Y523943D01*
X216007Y524128D01*
X215924Y524304D01*
X215869Y524479D01*
X215832Y524646D01*
X215813Y524775D01*
X215804Y524840D01*
X215795Y524886D01*
Y524923D01*
Y524951D01*
Y524969D01*
Y524979D01*
X215804Y525200D01*
X215832Y525395D01*
X215878Y525570D01*
X215924Y525718D01*
X215970Y525838D01*
X216017Y525922D01*
X216044Y525977D01*
X216054Y525996D01*
X216155Y526143D01*
X216276Y526273D01*
X216396Y526384D01*
X216507Y526476D01*
X216608Y526550D01*
X216691Y526606D01*
X216747Y526643D01*
X216756Y526652D01*
X216765D01*
X216858Y526698D01*
X216950Y526744D01*
X217172Y526828D01*
X217404Y526902D01*
X217625Y526976D01*
X217727Y527003D01*
X217829Y527031D01*
X217921Y527059D01*
X217995Y527077D01*
X218060Y527096D01*
X218106Y527105D01*
X218143Y527114D01*
X218152D01*
X218319Y527160D01*
X218467Y527197D01*
X218605Y527234D01*
X218735Y527271D01*
X218836Y527308D01*
X218938Y527345D01*
X219021Y527382D01*
X219095Y527410D01*
X219160Y527438D01*
X219206Y527466D01*
X219253Y527484D01*
X219280Y527503D01*
X219326Y527530D01*
X219336Y527540D01*
X219401Y527604D01*
X219447Y527669D01*
X219475Y527734D01*
X219493Y527799D01*
X219511Y527845D01*
X219521Y527891D01*
Y527919D01*
Y527928D01*
X219511Y528020D01*
X219493Y528094D01*
X219456Y528168D01*
X219419Y528224D01*
X219382Y528270D01*
X219345Y528298D01*
X219326Y528316D01*
X219317Y528326D01*
X219188Y528409D01*
X219049Y528464D01*
X218901Y528510D01*
X218763Y528538D01*
X218642Y528557D01*
X218541Y528566D01*
X218448D01*
X218254Y528557D01*
X218088Y528529D01*
X217949Y528492D01*
X217838Y528455D01*
X217745Y528418D01*
X217681Y528381D01*
X217644Y528353D01*
X217635Y528344D01*
X217542Y528251D01*
X217459Y528140D01*
X217394Y528030D01*
X217348Y527909D01*
X217311Y527808D01*
X217292Y527724D01*
X217274Y527660D01*
Y527650D01*
Y527641D01*
X215980Y527687D01*
X215989Y527854D01*
X216017Y528002D01*
X216054Y528150D01*
X216100Y528279D01*
X216146Y528409D01*
X216201Y528529D01*
X216257Y528631D01*
X216313Y528732D01*
X216377Y528815D01*
X216433Y528889D01*
X216488Y528954D01*
X216534Y529010D01*
X216571Y529047D01*
X216599Y529074D01*
X216618Y529093D01*
X216627Y529102D01*
X216747Y529194D01*
X216877Y529278D01*
X217015Y529352D01*
X217163Y529416D01*
X217311Y529463D01*
X217459Y529509D01*
X217755Y529574D01*
X217894Y529592D01*
X218014Y529611D01*
X218134Y529620D01*
X218236Y529629D01*
X218319Y529638D01*
X218430D01*
X218698Y529629D01*
D02*
G37*
G36*
X187180D02*
X187420Y529601D01*
X187633Y529555D01*
X187845Y529500D01*
X188030Y529435D01*
X188215Y529361D01*
X188372Y529278D01*
X188520Y529194D01*
X188659Y529111D01*
X188770Y529028D01*
X188872Y528954D01*
X188955Y528889D01*
X189020Y528834D01*
X189066Y528788D01*
X189093Y528760D01*
X189103Y528751D01*
X189251Y528575D01*
X189371Y528390D01*
X189482Y528196D01*
X189574Y527993D01*
X189657Y527780D01*
X189722Y527577D01*
X189778Y527373D01*
X189824Y527179D01*
X189861Y526985D01*
X189879Y526818D01*
X189898Y526661D01*
X189916Y526532D01*
Y526421D01*
X189926Y526338D01*
Y526282D01*
Y526273D01*
Y526264D01*
X189916Y525986D01*
X189889Y525727D01*
X189852Y525478D01*
X189796Y525256D01*
X189741Y525043D01*
X189667Y524840D01*
X189593Y524664D01*
X189519Y524507D01*
X189445Y524359D01*
X189371Y524230D01*
X189297Y524128D01*
X189242Y524035D01*
X189186Y523971D01*
X189149Y523915D01*
X189121Y523888D01*
X189112Y523878D01*
X188955Y523721D01*
X188788Y523592D01*
X188613Y523471D01*
X188437Y523379D01*
X188261Y523296D01*
X188086Y523222D01*
X187919Y523166D01*
X187762Y523120D01*
X187605Y523083D01*
X187466Y523055D01*
X187337Y523037D01*
X187235Y523028D01*
X187143Y523018D01*
X187078Y523009D01*
X187022D01*
X186828Y523018D01*
X186653Y523028D01*
X186477Y523055D01*
X186320Y523092D01*
X186172Y523129D01*
X186033Y523166D01*
X185904Y523213D01*
X185784Y523268D01*
X185682Y523314D01*
X185589Y523361D01*
X185506Y523398D01*
X185441Y523434D01*
X185386Y523471D01*
X185349Y523499D01*
X185331Y523508D01*
X185321Y523518D01*
X185201Y523619D01*
X185090Y523730D01*
X184887Y523980D01*
X184720Y524239D01*
X184591Y524488D01*
X184535Y524609D01*
X184489Y524720D01*
X184452Y524821D01*
X184415Y524905D01*
X184387Y524979D01*
X184369Y525034D01*
X184360Y525071D01*
Y525080D01*
X185617Y525469D01*
X185691Y525219D01*
X185774Y525006D01*
X185858Y524831D01*
X185950Y524683D01*
X186024Y524572D01*
X186089Y524498D01*
X186135Y524452D01*
X186153Y524433D01*
X186301Y524322D01*
X186449Y524248D01*
X186597Y524193D01*
X186727Y524146D01*
X186847Y524128D01*
X186949Y524119D01*
X186985Y524109D01*
X187032D01*
X187161Y524119D01*
X187281Y524128D01*
X187503Y524193D01*
X187697Y524267D01*
X187855Y524368D01*
X187984Y524461D01*
X188076Y524535D01*
X188113Y524572D01*
X188141Y524599D01*
X188151Y524609D01*
X188160Y524618D01*
X188234Y524720D01*
X188298Y524840D01*
X188363Y524969D01*
X188409Y525108D01*
X188483Y525395D01*
X188539Y525681D01*
X188557Y525820D01*
X188566Y525940D01*
X188585Y526060D01*
Y526162D01*
X188594Y526236D01*
Y526301D01*
Y526347D01*
Y526356D01*
X188585Y526569D01*
X188576Y526763D01*
X188557Y526939D01*
X188529Y527105D01*
X188493Y527253D01*
X188456Y527392D01*
X188419Y527512D01*
X188372Y527623D01*
X188335Y527715D01*
X188298Y527799D01*
X188261Y527863D01*
X188224Y527919D01*
X188197Y527965D01*
X188178Y527993D01*
X188160Y528011D01*
Y528020D01*
X188076Y528113D01*
X187984Y528196D01*
X187892Y528261D01*
X187790Y528316D01*
X187596Y528409D01*
X187411Y528473D01*
X187254Y528510D01*
X187180Y528520D01*
X187124Y528529D01*
X187069Y528538D01*
X187004D01*
X186819Y528529D01*
X186653Y528492D01*
X186505Y528446D01*
X186375Y528390D01*
X186274Y528335D01*
X186200Y528288D01*
X186153Y528251D01*
X186135Y528242D01*
X186015Y528131D01*
X185904Y528002D01*
X185821Y527872D01*
X185756Y527743D01*
X185710Y527632D01*
X185682Y527549D01*
X185663Y527512D01*
Y527484D01*
X185654Y527475D01*
Y527466D01*
X184378Y527771D01*
X184471Y528039D01*
X184572Y528270D01*
X184683Y528473D01*
X184785Y528640D01*
X184887Y528769D01*
X184924Y528825D01*
X184961Y528871D01*
X184988Y528899D01*
X185016Y528926D01*
X185026Y528945D01*
X185035D01*
X185173Y529065D01*
X185331Y529176D01*
X185478Y529268D01*
X185636Y529342D01*
X185802Y529416D01*
X185959Y529472D01*
X186116Y529518D01*
X186264Y529555D01*
X186403Y529583D01*
X186532Y529601D01*
X186643Y529620D01*
X186745Y529629D01*
X186828Y529638D01*
X186939D01*
X187180Y529629D01*
D02*
G37*
G36*
X183213Y523120D02*
X178701D01*
Y524202D01*
X181919D01*
Y529472D01*
X183213D01*
Y523120D01*
D02*
G37*
G36*
X193698Y529629D02*
X193938Y529601D01*
X194151Y529564D01*
X194336Y529527D01*
X194419Y529500D01*
X194493Y529481D01*
X194548Y529463D01*
X194604Y529444D01*
X194641Y529426D01*
X194669Y529416D01*
X194687Y529407D01*
X194696D01*
X194881Y529315D01*
X195038Y529213D01*
X195177Y529102D01*
X195288Y529000D01*
X195380Y528908D01*
X195436Y528834D01*
X195482Y528778D01*
X195492Y528769D01*
Y528760D01*
X195584Y528603D01*
X195649Y528436D01*
X195695Y528279D01*
X195723Y528140D01*
X195741Y528020D01*
X195760Y527928D01*
Y527891D01*
Y527863D01*
Y527854D01*
Y527845D01*
X195750Y527706D01*
X195732Y527567D01*
X195704Y527447D01*
X195667Y527327D01*
X195575Y527105D01*
X195464Y526911D01*
X195417Y526828D01*
X195362Y526763D01*
X195316Y526698D01*
X195270Y526643D01*
X195233Y526606D01*
X195205Y526578D01*
X195186Y526560D01*
X195177Y526550D01*
X195094Y526486D01*
X194992Y526421D01*
X194890Y526356D01*
X194770Y526301D01*
X194539Y526190D01*
X194299Y526097D01*
X194179Y526060D01*
X194077Y526023D01*
X193975Y525996D01*
X193892Y525968D01*
X193827Y525949D01*
X193772Y525931D01*
X193735Y525922D01*
X193726D01*
X193578Y525885D01*
X193448Y525848D01*
X193328Y525820D01*
X193217Y525792D01*
X193125Y525764D01*
X193041Y525746D01*
X192967Y525718D01*
X192903Y525700D01*
X192847Y525690D01*
X192801Y525672D01*
X192736Y525653D01*
X192699Y525635D01*
X192690D01*
X192570Y525589D01*
X192477Y525542D01*
X192394Y525496D01*
X192330Y525450D01*
X192283Y525413D01*
X192255Y525385D01*
X192237Y525367D01*
X192228Y525358D01*
X192182Y525293D01*
X192145Y525228D01*
X192126Y525163D01*
X192108Y525108D01*
X192098Y525052D01*
X192089Y525006D01*
Y524979D01*
Y524969D01*
X192098Y524840D01*
X192135Y524729D01*
X192191Y524618D01*
X192246Y524525D01*
X192311Y524452D01*
X192357Y524396D01*
X192394Y524359D01*
X192413Y524350D01*
X192542Y524267D01*
X192690Y524202D01*
X192847Y524156D01*
X192995Y524128D01*
X193134Y524109D01*
X193245Y524091D01*
X193347D01*
X193559Y524100D01*
X193744Y524137D01*
X193901Y524183D01*
X194040Y524239D01*
X194151Y524294D01*
X194225Y524341D01*
X194271Y524378D01*
X194290Y524387D01*
X194410Y524516D01*
X194502Y524655D01*
X194585Y524812D01*
X194641Y524969D01*
X194687Y525108D01*
X194724Y525219D01*
X194733Y525256D01*
Y525293D01*
X194743Y525311D01*
Y525321D01*
X196000Y525200D01*
X195972Y525006D01*
X195935Y524821D01*
X195880Y524646D01*
X195834Y524488D01*
X195769Y524341D01*
X195704Y524202D01*
X195639Y524082D01*
X195575Y523971D01*
X195510Y523878D01*
X195445Y523795D01*
X195390Y523721D01*
X195334Y523656D01*
X195297Y523610D01*
X195260Y523582D01*
X195242Y523564D01*
X195233Y523555D01*
X195103Y523453D01*
X194965Y523370D01*
X194817Y523296D01*
X194659Y523231D01*
X194511Y523185D01*
X194354Y523139D01*
X194049Y523074D01*
X193911Y523046D01*
X193781Y523028D01*
X193670Y523018D01*
X193568Y523009D01*
X193485Y523000D01*
X193365D01*
X193069Y523009D01*
X192801Y523037D01*
X192561Y523074D01*
X192459Y523092D01*
X192357Y523120D01*
X192274Y523139D01*
X192200Y523157D01*
X192135Y523176D01*
X192080Y523194D01*
X192034Y523213D01*
X192006Y523222D01*
X191987Y523231D01*
X191978D01*
X191775Y523333D01*
X191608Y523444D01*
X191451Y523555D01*
X191331Y523675D01*
X191238Y523777D01*
X191164Y523869D01*
X191128Y523925D01*
X191109Y523934D01*
Y523943D01*
X191007Y524128D01*
X190924Y524304D01*
X190869Y524479D01*
X190832Y524646D01*
X190813Y524775D01*
X190804Y524840D01*
X190795Y524886D01*
Y524923D01*
Y524951D01*
Y524969D01*
Y524979D01*
X190804Y525200D01*
X190832Y525395D01*
X190878Y525570D01*
X190924Y525718D01*
X190970Y525838D01*
X191017Y525922D01*
X191044Y525977D01*
X191054Y525996D01*
X191155Y526143D01*
X191276Y526273D01*
X191396Y526384D01*
X191507Y526476D01*
X191608Y526550D01*
X191691Y526606D01*
X191747Y526643D01*
X191756Y526652D01*
X191765D01*
X191858Y526698D01*
X191950Y526744D01*
X192172Y526828D01*
X192404Y526902D01*
X192625Y526976D01*
X192727Y527003D01*
X192829Y527031D01*
X192921Y527059D01*
X192995Y527077D01*
X193060Y527096D01*
X193106Y527105D01*
X193143Y527114D01*
X193152D01*
X193319Y527160D01*
X193467Y527197D01*
X193605Y527234D01*
X193735Y527271D01*
X193836Y527308D01*
X193938Y527345D01*
X194021Y527382D01*
X194095Y527410D01*
X194160Y527438D01*
X194206Y527466D01*
X194253Y527484D01*
X194280Y527503D01*
X194326Y527530D01*
X194336Y527540D01*
X194401Y527604D01*
X194447Y527669D01*
X194475Y527734D01*
X194493Y527799D01*
X194511Y527845D01*
X194521Y527891D01*
Y527919D01*
Y527928D01*
X194511Y528020D01*
X194493Y528094D01*
X194456Y528168D01*
X194419Y528224D01*
X194382Y528270D01*
X194345Y528298D01*
X194326Y528316D01*
X194317Y528326D01*
X194188Y528409D01*
X194049Y528464D01*
X193901Y528510D01*
X193763Y528538D01*
X193642Y528557D01*
X193541Y528566D01*
X193448D01*
X193254Y528557D01*
X193088Y528529D01*
X192949Y528492D01*
X192838Y528455D01*
X192745Y528418D01*
X192681Y528381D01*
X192644Y528353D01*
X192635Y528344D01*
X192542Y528251D01*
X192459Y528140D01*
X192394Y528030D01*
X192348Y527909D01*
X192311Y527808D01*
X192292Y527724D01*
X192274Y527660D01*
Y527650D01*
Y527641D01*
X190980Y527687D01*
X190989Y527854D01*
X191017Y528002D01*
X191054Y528150D01*
X191100Y528279D01*
X191146Y528409D01*
X191201Y528529D01*
X191257Y528631D01*
X191313Y528732D01*
X191377Y528815D01*
X191433Y528889D01*
X191488Y528954D01*
X191534Y529010D01*
X191571Y529047D01*
X191599Y529074D01*
X191618Y529093D01*
X191627Y529102D01*
X191747Y529194D01*
X191877Y529278D01*
X192015Y529352D01*
X192163Y529416D01*
X192311Y529463D01*
X192459Y529509D01*
X192755Y529574D01*
X192894Y529592D01*
X193014Y529611D01*
X193134Y529620D01*
X193236Y529629D01*
X193319Y529638D01*
X193430D01*
X193698Y529629D01*
D02*
G37*
%LPC*%
G36*
X426068Y10436D02*
X425227D01*
X425107Y10427D01*
X424996D01*
X424903Y10418D01*
X424820D01*
X424737Y10409D01*
X424672D01*
X424571Y10390D01*
X424497Y10381D01*
X424450Y10372D01*
X424441D01*
X424312Y10335D01*
X424201Y10288D01*
X424099Y10242D01*
X424007Y10187D01*
X423942Y10141D01*
X423886Y10104D01*
X423859Y10076D01*
X423849Y10067D01*
X423766Y9974D01*
X423692Y9872D01*
X423628Y9771D01*
X423572Y9678D01*
X423535Y9586D01*
X423507Y9512D01*
X423489Y9466D01*
X423480Y9456D01*
Y9447D01*
X423433Y9281D01*
X423396Y9105D01*
X423378Y8911D01*
X423359Y8726D01*
X423350Y8569D01*
X423341Y8495D01*
Y8430D01*
Y8384D01*
Y8347D01*
Y8319D01*
Y8310D01*
X423350Y8051D01*
X423359Y7811D01*
X423387Y7617D01*
X423406Y7450D01*
X423433Y7311D01*
X423443Y7256D01*
X423461Y7219D01*
X423470Y7182D01*
Y7154D01*
X423480Y7145D01*
Y7136D01*
X423535Y6988D01*
X423581Y6858D01*
X423646Y6757D01*
X423692Y6673D01*
X423739Y6609D01*
X423775Y6562D01*
X423803Y6535D01*
X423812Y6525D01*
X423896Y6461D01*
X423979Y6405D01*
X424062Y6359D01*
X424145Y6322D01*
X424219Y6294D01*
X424275Y6276D01*
X424312Y6257D01*
X424330D01*
X424432Y6239D01*
X424552Y6230D01*
X424682Y6211D01*
X424811D01*
X424931Y6202D01*
X426068D01*
Y10436D01*
D02*
G37*
G36*
X402068D02*
X401227D01*
X401107Y10427D01*
X400996D01*
X400903Y10418D01*
X400820D01*
X400737Y10409D01*
X400672D01*
X400571Y10390D01*
X400497Y10381D01*
X400450Y10372D01*
X400441D01*
X400312Y10335D01*
X400201Y10288D01*
X400099Y10242D01*
X400007Y10187D01*
X399942Y10141D01*
X399886Y10104D01*
X399859Y10076D01*
X399849Y10067D01*
X399766Y9974D01*
X399692Y9872D01*
X399627Y9771D01*
X399572Y9678D01*
X399535Y9586D01*
X399507Y9512D01*
X399489Y9466D01*
X399480Y9456D01*
Y9447D01*
X399433Y9281D01*
X399396Y9105D01*
X399378Y8911D01*
X399359Y8726D01*
X399350Y8569D01*
X399341Y8495D01*
Y8430D01*
Y8384D01*
Y8347D01*
Y8319D01*
Y8310D01*
X399350Y8051D01*
X399359Y7811D01*
X399387Y7617D01*
X399406Y7450D01*
X399433Y7311D01*
X399443Y7256D01*
X399461Y7219D01*
X399470Y7182D01*
Y7154D01*
X399480Y7145D01*
Y7136D01*
X399535Y6988D01*
X399581Y6858D01*
X399646Y6757D01*
X399692Y6673D01*
X399739Y6609D01*
X399776Y6562D01*
X399803Y6535D01*
X399812Y6525D01*
X399896Y6461D01*
X399979Y6405D01*
X400062Y6359D01*
X400145Y6322D01*
X400219Y6294D01*
X400275Y6276D01*
X400312Y6257D01*
X400330D01*
X400432Y6239D01*
X400552Y6230D01*
X400681Y6211D01*
X400811D01*
X400931Y6202D01*
X402068D01*
Y10436D01*
D02*
G37*
G36*
X340093Y8809D02*
X339057D01*
X338999Y8802D01*
X338856D01*
X338798Y8795D01*
X338759D01*
X338740Y8789D01*
X338733D01*
X338655Y8770D01*
X338584Y8744D01*
X338526Y8718D01*
X338480Y8685D01*
X338442Y8653D01*
X338409Y8634D01*
X338396Y8614D01*
X338390Y8608D01*
X338351Y8556D01*
X338318Y8491D01*
X338299Y8433D01*
X338280Y8375D01*
X338273Y8323D01*
X338267Y8284D01*
Y8258D01*
Y8245D01*
X338273Y8174D01*
X338280Y8109D01*
X338299Y8051D01*
X338312Y7999D01*
X338331Y7960D01*
X338351Y7934D01*
X338357Y7915D01*
X338364Y7908D01*
X338403Y7863D01*
X338442Y7824D01*
X338526Y7766D01*
X338558Y7746D01*
X338591Y7733D01*
X338610Y7720D01*
X338616D01*
X338649Y7714D01*
X338701Y7701D01*
X338753Y7694D01*
X338811Y7688D01*
X338947Y7681D01*
X339083Y7675D01*
X339212Y7668D01*
X340093D01*
Y8809D01*
D02*
G37*
G36*
X260068Y528436D02*
X259227D01*
X259107Y528427D01*
X258996D01*
X258903Y528418D01*
X258820D01*
X258737Y528409D01*
X258672D01*
X258571Y528390D01*
X258497Y528381D01*
X258450Y528372D01*
X258441D01*
X258312Y528335D01*
X258201Y528288D01*
X258099Y528242D01*
X258007Y528187D01*
X257942Y528140D01*
X257886Y528104D01*
X257859Y528076D01*
X257849Y528067D01*
X257766Y527974D01*
X257692Y527872D01*
X257628Y527771D01*
X257572Y527678D01*
X257535Y527586D01*
X257507Y527512D01*
X257489Y527466D01*
X257480Y527456D01*
Y527447D01*
X257433Y527281D01*
X257396Y527105D01*
X257378Y526911D01*
X257359Y526726D01*
X257350Y526569D01*
X257341Y526495D01*
Y526430D01*
Y526384D01*
Y526347D01*
Y526319D01*
Y526310D01*
X257350Y526051D01*
X257359Y525811D01*
X257387Y525616D01*
X257406Y525450D01*
X257433Y525311D01*
X257443Y525256D01*
X257461Y525219D01*
X257470Y525182D01*
Y525154D01*
X257480Y525145D01*
Y525136D01*
X257535Y524988D01*
X257581Y524858D01*
X257646Y524757D01*
X257692Y524673D01*
X257738Y524609D01*
X257775Y524562D01*
X257803Y524535D01*
X257812Y524525D01*
X257896Y524461D01*
X257979Y524405D01*
X258062Y524359D01*
X258145Y524322D01*
X258219Y524294D01*
X258275Y524276D01*
X258312Y524257D01*
X258330D01*
X258432Y524239D01*
X258552Y524230D01*
X258682Y524211D01*
X258811D01*
X258931Y524202D01*
X260068D01*
Y528436D01*
D02*
G37*
G36*
X340765Y528538D02*
X340691D01*
X340543Y528529D01*
X340405Y528510D01*
X340275Y528492D01*
X340155Y528455D01*
X339942Y528362D01*
X339841Y528316D01*
X339757Y528270D01*
X339674Y528214D01*
X339609Y528168D01*
X339554Y528122D01*
X339498Y528076D01*
X339462Y528039D01*
X339434Y528020D01*
X339425Y528002D01*
X339415Y527993D01*
X339332Y527882D01*
X339249Y527761D01*
X339184Y527641D01*
X339129Y527503D01*
X339045Y527225D01*
X338990Y526957D01*
X338962Y526837D01*
X338953Y526717D01*
X338944Y526615D01*
X338935Y526523D01*
X338925Y526439D01*
Y526384D01*
Y526347D01*
Y526338D01*
X338935Y526134D01*
X338944Y525940D01*
X338971Y525764D01*
X338999Y525607D01*
X339036Y525450D01*
X339082Y525311D01*
X339129Y525191D01*
X339175Y525080D01*
X339221Y524979D01*
X339267Y524895D01*
X339304Y524821D01*
X339351Y524757D01*
X339378Y524710D01*
X339406Y524683D01*
X339415Y524664D01*
X339425Y524655D01*
X339517Y524553D01*
X339619Y524470D01*
X339730Y524396D01*
X339831Y524331D01*
X339942Y524285D01*
X340044Y524239D01*
X340247Y524174D01*
X340423Y524128D01*
X340497Y524119D01*
X340562Y524109D01*
X340617Y524100D01*
X340691D01*
X340830Y524109D01*
X340969Y524128D01*
X341098Y524156D01*
X341218Y524193D01*
X341440Y524276D01*
X341616Y524387D01*
X341699Y524433D01*
X341764Y524488D01*
X341828Y524535D01*
X341875Y524581D01*
X341912Y524609D01*
X341939Y524636D01*
X341958Y524655D01*
X341967Y524664D01*
X342050Y524775D01*
X342133Y524895D01*
X342198Y525025D01*
X342254Y525163D01*
X342346Y525432D01*
X342402Y525700D01*
X342420Y525829D01*
X342439Y525940D01*
X342448Y526051D01*
X342457Y526143D01*
X342466Y526217D01*
Y526273D01*
Y526310D01*
Y526319D01*
X342457Y526523D01*
X342448Y526707D01*
X342420Y526883D01*
X342392Y527050D01*
X342355Y527197D01*
X342318Y527336D01*
X342272Y527456D01*
X342226Y527567D01*
X342180Y527669D01*
X342133Y527752D01*
X342096Y527817D01*
X342060Y527882D01*
X342032Y527928D01*
X342004Y527956D01*
X341995Y527974D01*
X341986Y527983D01*
X341893Y528085D01*
X341791Y528168D01*
X341680Y528242D01*
X341579Y528307D01*
X341468Y528362D01*
X341357Y528399D01*
X341153Y528473D01*
X340969Y528510D01*
X340895Y528520D01*
X340821Y528529D01*
X340765Y528538D01*
D02*
G37*
G36*
X305315D02*
X305241D01*
X305093Y528529D01*
X304954Y528510D01*
X304825Y528492D01*
X304704Y528455D01*
X304492Y528362D01*
X304390Y528316D01*
X304307Y528270D01*
X304224Y528214D01*
X304159Y528168D01*
X304104Y528122D01*
X304048Y528076D01*
X304011Y528039D01*
X303983Y528020D01*
X303974Y528002D01*
X303965Y527993D01*
X303882Y527882D01*
X303798Y527761D01*
X303734Y527641D01*
X303678Y527503D01*
X303595Y527225D01*
X303540Y526957D01*
X303512Y526837D01*
X303503Y526717D01*
X303493Y526615D01*
X303484Y526523D01*
X303475Y526439D01*
Y526384D01*
Y526347D01*
Y526338D01*
X303484Y526134D01*
X303493Y525940D01*
X303521Y525764D01*
X303549Y525607D01*
X303586Y525450D01*
X303632Y525311D01*
X303678Y525191D01*
X303724Y525080D01*
X303771Y524979D01*
X303817Y524895D01*
X303854Y524821D01*
X303900Y524757D01*
X303928Y524710D01*
X303956Y524683D01*
X303965Y524664D01*
X303974Y524655D01*
X304067Y524553D01*
X304168Y524470D01*
X304279Y524396D01*
X304381Y524331D01*
X304492Y524285D01*
X304594Y524239D01*
X304797Y524174D01*
X304973Y524128D01*
X305047Y524119D01*
X305111Y524109D01*
X305167Y524100D01*
X305241D01*
X305379Y524109D01*
X305518Y524128D01*
X305648Y524156D01*
X305768Y524193D01*
X305990Y524276D01*
X306165Y524387D01*
X306248Y524433D01*
X306313Y524488D01*
X306378Y524535D01*
X306424Y524581D01*
X306461Y524609D01*
X306489Y524636D01*
X306507Y524655D01*
X306517Y524664D01*
X306600Y524775D01*
X306683Y524895D01*
X306748Y525025D01*
X306803Y525163D01*
X306896Y525432D01*
X306951Y525700D01*
X306970Y525829D01*
X306988Y525940D01*
X306997Y526051D01*
X307007Y526143D01*
X307016Y526217D01*
Y526273D01*
Y526310D01*
Y526319D01*
X307007Y526523D01*
X306997Y526707D01*
X306970Y526883D01*
X306942Y527050D01*
X306905Y527197D01*
X306868Y527336D01*
X306822Y527456D01*
X306775Y527567D01*
X306729Y527669D01*
X306683Y527752D01*
X306646Y527817D01*
X306609Y527882D01*
X306581Y527928D01*
X306554Y527956D01*
X306544Y527974D01*
X306535Y527983D01*
X306443Y528085D01*
X306341Y528168D01*
X306230Y528242D01*
X306128Y528307D01*
X306017Y528362D01*
X305906Y528399D01*
X305703Y528473D01*
X305518Y528510D01*
X305444Y528520D01*
X305370Y528529D01*
X305315Y528538D01*
D02*
G37*
G36*
X244993Y527909D02*
X244097Y525533D01*
X245862D01*
X244993Y527909D01*
D02*
G37*
G36*
X239742Y528316D02*
X238263D01*
X238179Y528307D01*
X237976D01*
X237893Y528298D01*
X237837D01*
X237810Y528288D01*
X237800D01*
X237689Y528261D01*
X237588Y528224D01*
X237504Y528187D01*
X237440Y528140D01*
X237384Y528094D01*
X237338Y528067D01*
X237320Y528039D01*
X237310Y528030D01*
X237255Y527956D01*
X237208Y527863D01*
X237181Y527780D01*
X237153Y527697D01*
X237144Y527623D01*
X237135Y527567D01*
Y527530D01*
Y527512D01*
X237144Y527410D01*
X237153Y527318D01*
X237181Y527234D01*
X237199Y527160D01*
X237227Y527105D01*
X237255Y527068D01*
X237264Y527040D01*
X237273Y527031D01*
X237329Y526966D01*
X237384Y526911D01*
X237504Y526828D01*
X237551Y526800D01*
X237597Y526781D01*
X237625Y526763D01*
X237634D01*
X237680Y526754D01*
X237754Y526735D01*
X237828Y526726D01*
X237911Y526717D01*
X238105Y526707D01*
X238300Y526698D01*
X238484Y526689D01*
X239742D01*
Y528316D01*
D02*
G37*
G36*
X213400Y528436D02*
X212559D01*
X212439Y528427D01*
X212328D01*
X212235Y528418D01*
X212152D01*
X212069Y528409D01*
X212004D01*
X211902Y528390D01*
X211828Y528381D01*
X211782Y528372D01*
X211773D01*
X211643Y528335D01*
X211532Y528288D01*
X211431Y528242D01*
X211338Y528187D01*
X211274Y528140D01*
X211218Y528104D01*
X211190Y528076D01*
X211181Y528067D01*
X211098Y527974D01*
X211024Y527872D01*
X210959Y527771D01*
X210904Y527678D01*
X210867Y527586D01*
X210839Y527512D01*
X210821Y527466D01*
X210811Y527456D01*
Y527447D01*
X210765Y527281D01*
X210728Y527105D01*
X210710Y526911D01*
X210691Y526726D01*
X210682Y526569D01*
X210673Y526495D01*
Y526430D01*
Y526384D01*
Y526347D01*
Y526319D01*
Y526310D01*
X210682Y526051D01*
X210691Y525811D01*
X210719Y525616D01*
X210737Y525450D01*
X210765Y525311D01*
X210774Y525256D01*
X210793Y525219D01*
X210802Y525182D01*
Y525154D01*
X210811Y525145D01*
Y525136D01*
X210867Y524988D01*
X210913Y524858D01*
X210978Y524757D01*
X211024Y524673D01*
X211070Y524609D01*
X211107Y524562D01*
X211135Y524535D01*
X211144Y524525D01*
X211227Y524461D01*
X211311Y524405D01*
X211394Y524359D01*
X211477Y524322D01*
X211551Y524294D01*
X211607Y524276D01*
X211643Y524257D01*
X211662D01*
X211764Y524239D01*
X211884Y524230D01*
X212013Y524211D01*
X212143D01*
X212263Y524202D01*
X213400D01*
Y528436D01*
D02*
G37*
G36*
X205745Y528030D02*
X204848Y525653D01*
X206614D01*
X205745Y528030D01*
D02*
G37*
%LPD*%
M02*
