G04*
G04 #@! TF.GenerationSoftware,Altium Limited,Altium Designer,20.0.7 (75)*
G04*
G04 Layer_Color=8388736*
%FSLAX44Y44*%
%MOMM*%
G71*
G01*
G75*
%ADD38R,1.1000X0.8000*%
%ADD39R,1.5000X0.9000*%
%ADD40R,0.9000X1.5000*%
%ADD41R,1.0000X1.0000*%
%ADD42R,1.2000X0.7500*%
%ADD43R,0.7500X1.2000*%
%ADD44C,3.0480*%
%ADD45R,2.8000X2.7000*%
%ADD46R,2.7000X2.8000*%
%ADD47R,0.8858X0.7588*%
%ADD48R,0.7588X0.8858*%
%ADD49R,1.5000X1.1000*%
%ADD50R,1.1000X1.5000*%
%ADD51R,1.4500X0.5000*%
%ADD52R,1.6000X1.8000*%
%ADD53R,2.1000X2.1000*%
%ADD54R,0.8000X2.4000*%
%ADD55R,3.7000X2.4000*%
%ADD56R,1.8000X3.2000*%
%ADD57R,2.9000X2.2000*%
%ADD58R,1.6700X0.6700*%
%ADD59R,0.6700X1.6700*%
%ADD60O,1.8000X2.2000*%
%ADD61R,1.8000X2.2000*%
%ADD62C,2.1000*%
%ADD63R,2.1000X2.1000*%
%ADD64C,4.2000*%
%ADD65C,1.9000*%
%ADD66R,1.9000X1.9000*%
%ADD67C,3.4000*%
%ADD68C,7.6000*%
%ADD69O,2.2000X1.8000*%
%ADD70R,2.2000X1.8000*%
G04:AMPARAMS|DCode=71|XSize=2.1mm|YSize=1.3mm|CornerRadius=0.41mm|HoleSize=0mm|Usage=FLASHONLY|Rotation=0.000|XOffset=0mm|YOffset=0mm|HoleType=Round|Shape=RoundedRectangle|*
%AMROUNDEDRECTD71*
21,1,2.1000,0.4800,0,0,0.0*
21,1,1.2800,1.3000,0,0,0.0*
1,1,0.8200,0.6400,-0.2400*
1,1,0.8200,-0.6400,-0.2400*
1,1,0.8200,-0.6400,0.2400*
1,1,0.8200,0.6400,0.2400*
%
%ADD71ROUNDEDRECTD71*%
%ADD72C,0.8000*%
D38*
X70000Y223500D02*
D03*
Y208500D02*
D03*
Y178000D02*
D03*
Y193000D02*
D03*
D39*
X173000Y385500D02*
D03*
Y404500D02*
D03*
X88000Y256000D02*
D03*
Y275000D02*
D03*
X217000Y256000D02*
D03*
Y275000D02*
D03*
X584000Y469000D02*
D03*
Y450000D02*
D03*
X610000D02*
D03*
Y469000D02*
D03*
X636000Y426000D02*
D03*
Y407000D02*
D03*
X667000Y206000D02*
D03*
Y187000D02*
D03*
X31000Y274500D02*
D03*
Y293500D02*
D03*
X275000Y48500D02*
D03*
Y67500D02*
D03*
X247000Y164500D02*
D03*
Y145500D02*
D03*
X647000Y243500D02*
D03*
Y224500D02*
D03*
X331978Y67614D02*
D03*
Y86614D02*
D03*
X332000Y67500D02*
D03*
Y48500D02*
D03*
X667000Y224500D02*
D03*
Y243500D02*
D03*
D40*
X294000Y437000D02*
D03*
X275000D02*
D03*
X273500Y414000D02*
D03*
X292500D02*
D03*
X103000Y350000D02*
D03*
X84000D02*
D03*
X106500Y212000D02*
D03*
X87500D02*
D03*
Y189000D02*
D03*
X106500D02*
D03*
X87500Y166000D02*
D03*
X106500D02*
D03*
X381500Y99000D02*
D03*
X362500D02*
D03*
X603000Y227000D02*
D03*
X622000D02*
D03*
X252500Y441000D02*
D03*
X233500D02*
D03*
X412500Y229000D02*
D03*
X431500D02*
D03*
X606500Y356000D02*
D03*
X587500D02*
D03*
X30000Y253000D02*
D03*
X11000D02*
D03*
X268500Y88000D02*
D03*
X287500D02*
D03*
X126000Y214000D02*
D03*
X145000D02*
D03*
D41*
X606000Y376000D02*
D03*
X590000D02*
D03*
X253000Y421000D02*
D03*
X237000D02*
D03*
X253000Y395000D02*
D03*
X237000D02*
D03*
X253000Y378000D02*
D03*
X237000D02*
D03*
D42*
X195500Y421500D02*
D03*
Y440500D02*
D03*
X168500Y421500D02*
D03*
Y431000D02*
D03*
Y440500D02*
D03*
X228500Y145500D02*
D03*
Y164500D02*
D03*
X201500Y145500D02*
D03*
Y155000D02*
D03*
Y164500D02*
D03*
D43*
X69500Y276000D02*
D03*
X50500D02*
D03*
X69500Y249000D02*
D03*
X60000D02*
D03*
X50500D02*
D03*
X652500Y144000D02*
D03*
X671500D02*
D03*
X652500Y171000D02*
D03*
X662000D02*
D03*
X671500D02*
D03*
D44*
X668000Y20000D02*
D03*
X669000Y513000D02*
D03*
X109000Y512000D02*
D03*
X221000Y52000D02*
D03*
D45*
X249000Y303500D02*
D03*
Y254500D02*
D03*
D46*
X417500Y284000D02*
D03*
X466500D02*
D03*
D47*
X11000Y270808D02*
D03*
Y295192D02*
D03*
D48*
X631000Y244000D02*
D03*
X606616D02*
D03*
D49*
X217000Y239000D02*
D03*
Y220000D02*
D03*
X195000Y220500D02*
D03*
Y239500D02*
D03*
X218000Y311500D02*
D03*
Y292500D02*
D03*
X173000Y220500D02*
D03*
Y239500D02*
D03*
X23000Y451000D02*
D03*
Y432000D02*
D03*
X636000Y470500D02*
D03*
Y451500D02*
D03*
X114000Y130500D02*
D03*
Y111500D02*
D03*
X206000Y127500D02*
D03*
Y108500D02*
D03*
X307000Y68500D02*
D03*
Y49500D02*
D03*
X357000Y68500D02*
D03*
Y49500D02*
D03*
X214000Y421500D02*
D03*
Y440500D02*
D03*
X222000Y200500D02*
D03*
Y181500D02*
D03*
X647000Y187000D02*
D03*
Y206000D02*
D03*
X229000Y127500D02*
D03*
Y108500D02*
D03*
X195000Y202000D02*
D03*
Y183000D02*
D03*
X439000Y78500D02*
D03*
Y59500D02*
D03*
D50*
X144500Y235000D02*
D03*
X125500D02*
D03*
X257500Y333000D02*
D03*
X238500D02*
D03*
X257000Y225000D02*
D03*
X238000D02*
D03*
X402500Y52000D02*
D03*
X383500D02*
D03*
X39500Y522000D02*
D03*
X20500D02*
D03*
X460000Y76000D02*
D03*
X479000D02*
D03*
X449000Y229000D02*
D03*
X468000D02*
D03*
X262500Y483000D02*
D03*
X243500D02*
D03*
X399500Y76000D02*
D03*
X418500D02*
D03*
X399000Y99000D02*
D03*
X418000D02*
D03*
X456000D02*
D03*
X437000D02*
D03*
X413000Y252000D02*
D03*
X432000D02*
D03*
X470000D02*
D03*
X451000D02*
D03*
X671500Y126000D02*
D03*
X652500D02*
D03*
X71000Y293000D02*
D03*
X52000D02*
D03*
X107500Y237000D02*
D03*
X88500D02*
D03*
X607500Y332000D02*
D03*
X588500D02*
D03*
X479000Y53000D02*
D03*
X460000D02*
D03*
D51*
X48745Y214000D02*
D03*
Y207500D02*
D03*
Y201000D02*
D03*
Y194500D02*
D03*
Y188000D02*
D03*
D52*
X46495Y233000D02*
D03*
Y169000D02*
D03*
D53*
X21995Y213000D02*
D03*
Y189000D02*
D03*
X243000Y86000D02*
D03*
D54*
X133600Y115000D02*
D03*
X146300D02*
D03*
X159000D02*
D03*
X171700D02*
D03*
X184400D02*
D03*
D55*
X159000Y177000D02*
D03*
D56*
X74000Y136500D02*
D03*
Y95500D02*
D03*
X72000Y61500D02*
D03*
Y20500D02*
D03*
D57*
X21000Y99000D02*
D03*
Y67000D02*
D03*
D58*
X197000Y272000D02*
D03*
Y280000D02*
D03*
Y288000D02*
D03*
Y296000D02*
D03*
Y304000D02*
D03*
Y312000D02*
D03*
Y320000D02*
D03*
Y328000D02*
D03*
X113000D02*
D03*
Y320000D02*
D03*
Y312000D02*
D03*
Y304000D02*
D03*
Y296000D02*
D03*
Y288000D02*
D03*
Y280000D02*
D03*
Y272000D02*
D03*
D59*
X183000Y342000D02*
D03*
X175000D02*
D03*
X167000D02*
D03*
X159000D02*
D03*
X151000D02*
D03*
X143000D02*
D03*
X135000D02*
D03*
X127000D02*
D03*
Y258000D02*
D03*
X135000D02*
D03*
X143000D02*
D03*
X151000D02*
D03*
X159000D02*
D03*
X167000D02*
D03*
X175000D02*
D03*
X183000D02*
D03*
D60*
X290450Y125730D02*
D03*
X315850D02*
D03*
X341250D02*
D03*
X366650D02*
D03*
X392050D02*
D03*
X417450D02*
D03*
X442850D02*
D03*
X468250D02*
D03*
X493650D02*
D03*
X519050D02*
D03*
X544450D02*
D03*
X569850D02*
D03*
X595250D02*
D03*
X620650D02*
D03*
X290450Y201930D02*
D03*
X315850D02*
D03*
X341250D02*
D03*
X366650D02*
D03*
X392050D02*
D03*
X417450D02*
D03*
X442850D02*
D03*
X468250D02*
D03*
X493650D02*
D03*
X519050D02*
D03*
X544450D02*
D03*
X569850D02*
D03*
X595250D02*
D03*
X533400Y25400D02*
D03*
X558800D02*
D03*
X584200D02*
D03*
X609600D02*
D03*
X635000D02*
D03*
X391160Y508000D02*
D03*
X365760D02*
D03*
X340360D02*
D03*
X314960D02*
D03*
X289560D02*
D03*
X264160D02*
D03*
X238760D02*
D03*
X213360D02*
D03*
X187960D02*
D03*
X457200Y25400D02*
D03*
X431800D02*
D03*
X406400D02*
D03*
X381000D02*
D03*
X355600D02*
D03*
X330200D02*
D03*
X304800D02*
D03*
X457200Y508000D02*
D03*
X482600D02*
D03*
X508000D02*
D03*
X533400D02*
D03*
X558800D02*
D03*
X584200D02*
D03*
X609600D02*
D03*
X167000Y88000D02*
D03*
X141600D02*
D03*
D61*
X620650Y201930D02*
D03*
X508000Y25400D02*
D03*
X416560Y508000D02*
D03*
X279400Y25400D02*
D03*
X635000Y508000D02*
D03*
X116200Y88000D02*
D03*
D62*
X601000Y261000D02*
D03*
Y306000D02*
D03*
X666000D02*
D03*
X243000Y21000D02*
D03*
X198000D02*
D03*
Y86000D02*
D03*
D63*
X666000Y261000D02*
D03*
D64*
X21000Y28000D02*
D03*
Y136000D02*
D03*
D65*
X76200Y497840D02*
D03*
X50800D02*
D03*
X25400D02*
D03*
X76200Y472440D02*
D03*
X50800D02*
D03*
X76200Y411480D02*
D03*
X50800D02*
D03*
X25400D02*
D03*
X76200Y386080D02*
D03*
X50800D02*
D03*
X25400Y316600D02*
D03*
X50800D02*
D03*
X25400Y342000D02*
D03*
D66*
Y472440D02*
D03*
Y386080D02*
D03*
X50800Y342000D02*
D03*
D67*
X152400Y508000D02*
D03*
D68*
X139700Y25400D02*
D03*
X660400Y76200D02*
D03*
Y355600D02*
D03*
D69*
X146000Y369800D02*
D03*
Y395200D02*
D03*
Y420600D02*
D03*
X662000Y418200D02*
D03*
Y443600D02*
D03*
D70*
X146000Y446000D02*
D03*
X662000Y469000D02*
D03*
D71*
X21995Y234000D02*
D03*
Y168000D02*
D03*
D72*
X183000Y231500D02*
D03*
X219000Y328000D02*
D03*
X213000Y487000D02*
D03*
X304000Y414000D02*
D03*
X174000Y396000D02*
D03*
X182000Y199000D02*
D03*
X107000Y252000D02*
D03*
X122000Y161000D02*
D03*
Y172000D02*
D03*
X135000Y153000D02*
D03*
Y161000D02*
D03*
Y169000D02*
D03*
Y178000D02*
D03*
X412000Y487000D02*
D03*
X421000D02*
D03*
Y376000D02*
D03*
Y386000D02*
D03*
X412000Y376000D02*
D03*
X328000Y176000D02*
D03*
X412000Y386000D02*
D03*
X328000Y261000D02*
D03*
X312000Y231000D02*
D03*
X326000Y444000D02*
D03*
X331000Y429000D02*
D03*
X239000Y182000D02*
D03*
X578000Y410000D02*
D03*
X584000Y419000D02*
D03*
X577000Y434000D02*
D03*
X616000Y48000D02*
D03*
Y58000D02*
D03*
X201000Y251000D02*
D03*
X177000Y286000D02*
D03*
X679000Y116000D02*
D03*
X456000Y154000D02*
D03*
X402000Y112000D02*
D03*
X413000Y63000D02*
D03*
X465000Y43000D02*
D03*
X440000Y47000D02*
D03*
X385000Y82000D02*
D03*
X370000Y68000D02*
D03*
X322000Y67000D02*
D03*
X39000Y284000D02*
D03*
X89000Y321000D02*
D03*
X105000Y410000D02*
D03*
X109000Y421000D02*
D03*
X207000Y210000D02*
D03*
X235750Y201750D02*
D03*
X156000Y137000D02*
D03*
X181000Y138000D02*
D03*
X283000Y486000D02*
D03*
X597751Y183000D02*
D03*
X621000Y438000D02*
D03*
X586000Y390000D02*
D03*
X590000Y403000D02*
D03*
X79000Y178000D02*
D03*
X211000Y430000D02*
D03*
X195000Y405000D02*
D03*
X314000Y88000D02*
D03*
X421000Y63000D02*
D03*
X62250Y450750D02*
D03*
X321750Y58000D02*
D03*
X136500Y225000D02*
D03*
X79000Y243000D02*
D03*
X248000Y128000D02*
D03*
X151000Y274000D02*
D03*
X84500Y223500D02*
D03*
X455450Y111830D02*
D03*
X100000Y265000D02*
D03*
X628000Y185000D02*
D03*
X83000Y292000D02*
D03*
X226490Y431490D02*
D03*
X470000Y88000D02*
D03*
X449000Y218000D02*
D03*
X482000Y252000D02*
D03*
X400000D02*
D03*
X173000Y212500D02*
D03*
X195000D02*
D03*
X261000Y236000D02*
D03*
X268000Y333000D02*
D03*
X57000Y523000D02*
D03*
X631000Y176000D02*
D03*
X206000Y138000D02*
D03*
X190000Y142000D02*
D03*
X118000Y408000D02*
D03*
X19000Y286000D02*
D03*
X116340Y201840D02*
D03*
X150000Y197000D02*
D03*
X131500Y191000D02*
D03*
X88000Y373000D02*
D03*
X101000Y370000D02*
D03*
X303000Y176000D02*
D03*
X474000Y99000D02*
D03*
X161000Y205000D02*
D03*
X118000Y189000D02*
D03*
X211000Y405000D02*
D03*
X662686Y157988D02*
D03*
M02*
