G04*
G04 #@! TF.GenerationSoftware,Altium Limited,Altium Designer,20.0.7 (75)*
G04*
G04 Layer_Color=8421504*
%FSLAX44Y44*%
%MOMM*%
G71*
G01*
G75*
%ADD17R,0.9000X0.6000*%
%ADD18R,1.3000X0.7000*%
%ADD19R,0.7000X1.3000*%
%ADD20R,0.8000X0.8000*%
%ADD21R,1.0000X0.5500*%
%ADD22R,0.5500X1.0000*%
%ADD23R,2.6000X2.5000*%
%ADD24R,2.5000X2.6000*%
%ADD25R,0.6858X0.5588*%
%ADD26R,0.5588X0.6858*%
%ADD27R,1.3000X0.9000*%
%ADD28R,0.9000X1.3000*%
%ADD29R,1.3500X0.4000*%
%ADD30R,1.4000X1.6000*%
%ADD31R,1.9000X1.9000*%
%ADD32R,0.6000X2.2000*%
%ADD33R,3.5000X2.2000*%
%ADD34R,1.6000X3.0000*%
%ADD35R,2.7000X2.0000*%
%ADD36R,1.5500X0.5500*%
%ADD37R,0.5500X1.5500*%
D17*
X70000Y223500D02*
D03*
Y208500D02*
D03*
Y178000D02*
D03*
Y193000D02*
D03*
D18*
X173000Y385500D02*
D03*
Y404500D02*
D03*
X88000Y256000D02*
D03*
Y275000D02*
D03*
X217000Y256000D02*
D03*
Y275000D02*
D03*
X584000Y469000D02*
D03*
Y450000D02*
D03*
X610000D02*
D03*
Y469000D02*
D03*
X636000Y426000D02*
D03*
Y407000D02*
D03*
X667000Y206000D02*
D03*
Y187000D02*
D03*
X31000Y274500D02*
D03*
Y293500D02*
D03*
X275000Y48500D02*
D03*
Y67500D02*
D03*
X247000Y164500D02*
D03*
Y145500D02*
D03*
X647000Y243500D02*
D03*
Y224500D02*
D03*
X331978Y67614D02*
D03*
Y86614D02*
D03*
X332000Y67500D02*
D03*
Y48500D02*
D03*
X667000Y224500D02*
D03*
Y243500D02*
D03*
D19*
X294000Y437000D02*
D03*
X275000D02*
D03*
X273500Y414000D02*
D03*
X292500D02*
D03*
X103000Y350000D02*
D03*
X84000D02*
D03*
X106500Y212000D02*
D03*
X87500D02*
D03*
Y189000D02*
D03*
X106500D02*
D03*
X87500Y166000D02*
D03*
X106500D02*
D03*
X381500Y99000D02*
D03*
X362500D02*
D03*
X603000Y227000D02*
D03*
X622000D02*
D03*
X252500Y441000D02*
D03*
X233500D02*
D03*
X412500Y229000D02*
D03*
X431500D02*
D03*
X606500Y356000D02*
D03*
X587500D02*
D03*
X30000Y253000D02*
D03*
X11000D02*
D03*
X268500Y88000D02*
D03*
X287500D02*
D03*
X126000Y214000D02*
D03*
X145000D02*
D03*
D20*
X606000Y376000D02*
D03*
X590000D02*
D03*
X253000Y421000D02*
D03*
X237000D02*
D03*
X253000Y395000D02*
D03*
X237000D02*
D03*
X253000Y378000D02*
D03*
X237000D02*
D03*
D21*
X195500Y421500D02*
D03*
Y440500D02*
D03*
X168500Y421500D02*
D03*
Y431000D02*
D03*
Y440500D02*
D03*
X228500Y145500D02*
D03*
Y164500D02*
D03*
X201500Y145500D02*
D03*
Y155000D02*
D03*
Y164500D02*
D03*
D22*
X69500Y276000D02*
D03*
X50500D02*
D03*
X69500Y249000D02*
D03*
X60000D02*
D03*
X50500D02*
D03*
X652500Y144000D02*
D03*
X671500D02*
D03*
X652500Y171000D02*
D03*
X662000D02*
D03*
X671500D02*
D03*
D23*
X249000Y303500D02*
D03*
Y254500D02*
D03*
D24*
X417500Y284000D02*
D03*
X466500D02*
D03*
D25*
X11000Y270808D02*
D03*
Y295192D02*
D03*
D26*
X631000Y244000D02*
D03*
X606616D02*
D03*
D27*
X217000Y239000D02*
D03*
Y220000D02*
D03*
X195000Y220500D02*
D03*
Y239500D02*
D03*
X218000Y311500D02*
D03*
Y292500D02*
D03*
X173000Y220500D02*
D03*
Y239500D02*
D03*
X23000Y451000D02*
D03*
Y432000D02*
D03*
X636000Y470500D02*
D03*
Y451500D02*
D03*
X114000Y130500D02*
D03*
Y111500D02*
D03*
X206000Y127500D02*
D03*
Y108500D02*
D03*
X307000Y68500D02*
D03*
Y49500D02*
D03*
X357000Y68500D02*
D03*
Y49500D02*
D03*
X214000Y421500D02*
D03*
Y440500D02*
D03*
X222000Y200500D02*
D03*
Y181500D02*
D03*
X647000Y187000D02*
D03*
Y206000D02*
D03*
X229000Y127500D02*
D03*
Y108500D02*
D03*
X195000Y202000D02*
D03*
Y183000D02*
D03*
X439000Y78500D02*
D03*
Y59500D02*
D03*
D28*
X144500Y235000D02*
D03*
X125500D02*
D03*
X257500Y333000D02*
D03*
X238500D02*
D03*
X257000Y225000D02*
D03*
X238000D02*
D03*
X402500Y52000D02*
D03*
X383500D02*
D03*
X39500Y522000D02*
D03*
X20500D02*
D03*
X460000Y76000D02*
D03*
X479000D02*
D03*
X449000Y229000D02*
D03*
X468000D02*
D03*
X262500Y483000D02*
D03*
X243500D02*
D03*
X399500Y76000D02*
D03*
X418500D02*
D03*
X399000Y99000D02*
D03*
X418000D02*
D03*
X456000D02*
D03*
X437000D02*
D03*
X413000Y252000D02*
D03*
X432000D02*
D03*
X470000D02*
D03*
X451000D02*
D03*
X671500Y126000D02*
D03*
X652500D02*
D03*
X71000Y293000D02*
D03*
X52000D02*
D03*
X107500Y237000D02*
D03*
X88500D02*
D03*
X607500Y332000D02*
D03*
X588500D02*
D03*
X479000Y53000D02*
D03*
X460000D02*
D03*
D29*
X48745Y214000D02*
D03*
Y207500D02*
D03*
Y201000D02*
D03*
Y194500D02*
D03*
Y188000D02*
D03*
D30*
X46495Y233000D02*
D03*
Y169000D02*
D03*
D31*
X21995Y213000D02*
D03*
Y189000D02*
D03*
D32*
X133600Y115000D02*
D03*
X146300D02*
D03*
X159000D02*
D03*
X171700D02*
D03*
X184400D02*
D03*
D33*
X159000Y177000D02*
D03*
D34*
X74000Y136500D02*
D03*
Y95500D02*
D03*
X72000Y61500D02*
D03*
Y20500D02*
D03*
D35*
X21000Y99000D02*
D03*
Y67000D02*
D03*
D36*
X197000Y272000D02*
D03*
Y280000D02*
D03*
Y288000D02*
D03*
Y296000D02*
D03*
Y304000D02*
D03*
Y312000D02*
D03*
Y320000D02*
D03*
Y328000D02*
D03*
X113000D02*
D03*
Y320000D02*
D03*
Y312000D02*
D03*
Y304000D02*
D03*
Y296000D02*
D03*
Y288000D02*
D03*
Y280000D02*
D03*
Y272000D02*
D03*
D37*
X183000Y342000D02*
D03*
X175000D02*
D03*
X167000D02*
D03*
X159000D02*
D03*
X151000D02*
D03*
X143000D02*
D03*
X135000D02*
D03*
X127000D02*
D03*
Y258000D02*
D03*
X135000D02*
D03*
X143000D02*
D03*
X151000D02*
D03*
X159000D02*
D03*
X167000D02*
D03*
X175000D02*
D03*
X183000D02*
D03*
M02*
